<?xml version="1.0" encoding="UTF-8" standalone="no"?><!DOCTYPE svg PUBLIC "-//W3C//DTD SVG 1.1//EN" "http://www.w3.org/Graphics/SVG/1.1/DTD/svg11.dtd"><svg width="100%" height="100%" viewBox="0 0 1182 473" version="1.1" xmlns="http://www.w3.org/2000/svg" xmlns:xlink="http://www.w3.org/1999/xlink" xml:space="preserve" xmlns:serif="http://www.serif.com/" style="fill-rule:evenodd;clip-rule:evenodd;stroke-linejoin:round;stroke-miterlimit:2;"><path d="M341.053,218.397c-1.083,-0 -7.537,3.446 -8.587,4.337c-5.075,-5.462 -1.596,-3.841 -6.267,-2.616c-2.1,-2.3 -4.2,-4.621 -6.304,-6.884c-0.5,0.154 -0.958,0.35 -1.421,0.542c0.188,1.183 4.246,9.446 3.525,10.083c-2.562,-1.475 -5.075,-2.946 -7.592,-4.429c-0.404,-8.942 8.738,-9.787 12.48,-15.833c-0.175,-0.292 -0.317,-0.546 -0.459,-0.788c-12.383,-1.966 -26.875,-5.808 -37.933,0.688c-0.504,2.95 -5.075,16.621 -6.675,16.621c-1.146,-0.438 -2.283,-0.875 -3.388,-1.267c0.238,-0.763 2.471,-0.617 3.159,-0.642c-1.192,-4.821 -1.467,-6.454 -5.167,-9.2c-6.083,-7.237 -9.692,-15.25 -14.079,-23.216c-3.379,-5.705 -8.633,-11.313 -10.238,-16.821c-0.591,-0.2 -1.145,-0.396 -1.695,-0.55c-0.221,-0.884 -0.405,-1.721 -0.592,-2.554c-1.508,-9.046 -7.546,-13.771 -1.508,-22.434c-0.317,-1.958 -0.6,-3.883 -0.867,-5.8c-2.15,-1.329 -2.008,-1.229 -2.742,-3.296c1.967,-1.575 4.154,0.834 5.85,2.463c16.592,2.208 5.809,-18.838 -3.387,-7.875c-5.254,-2.267 1.691,-7.079 0.6,-13.125c-3.929,-1.333 -7.038,-2.758 -10.379,-0.25c-3.242,5.017 2.15,7.921 1.825,13.283c-4.2,0.392 -7.175,-6.887 -12.7,-2.116c-5.263,17.458 6.9,6.245 13.3,7.375c0.504,3.941 -7.275,4.087 -1.05,12.1c-9.33,2.508 -19.067,2.804 -28.342,4.233c-0.325,1.033 -0.646,2.071 -0.963,3.146c0.409,0.246 0.821,0.487 1.28,0.733c-0.042,1.179 -0.459,2.563 -0.317,4.192l1.237,0.579c-0.833,1.825 -2.429,1.237 -0.1,3.737c5.95,0.892 16.038,-1.912 22.675,-2.6c0,11.213 -30.395,33.592 -20.204,41.167c1.917,-2.258 3.35,-5.55 3.904,-6.337c0.984,-1.409 8.48,-12.988 9.717,-14.317c0.275,0.1 0.554,0.196 0.875,0.346c1.225,3.975 -4.804,18.683 -6.367,24.004c-0.72,4.617 -0.95,9.792 -3.412,14.112c-1.954,-1.391 0.837,-2.4 -2.525,-3.35c1.833,-4.316 -0.221,-3.091 3.75,-6.241c-0.363,-6.146 -8.083,-8.709 -12.021,-10.917c0.317,-7.042 -2.692,-7.579 -7.175,-4.575c0.458,0.342 0.917,0.733 1.413,1.129l-0,1.334c-3.517,2.504 -7.309,5.162 -10.742,7.375c-3.329,-2.171 2.833,-15.396 3.608,-18.396c-0.362,-11.217 0.054,-19.825 -10.687,-21.254c-0.867,1.679 0.821,8.612 1.096,11.366c-4.53,5.504 -9.463,9.004 -4.892,15.638c0.646,6.2 1.967,7.029 7.908,8.608c0,0.346 0.046,0.742 0.088,1.129l-5.438,0c0,0.546 0,1.134 0.046,1.734c1.004,0.537 4.296,-0.15 5.85,-0.313c0,0.354 0,0.746 0.046,1.142c-1.238,0.641 -4.617,0.296 -6.125,0.641c-0.179,3.196 -0.504,6.296 -1.142,9.442c-0.729,1.229 -4.846,8.121 -5.621,7.271c3.613,-7.271 5.984,-13.517 -2.654,-5.35c-5.079,2.254 -3.883,-3.992 -8.721,3.542c-3.479,-2.709 -3.345,-3.055 -6.816,-2.905c-0.413,-0.5 -0.821,-0.979 -1.192,-1.475c-1.233,-0.046 -2.417,-0.046 -3.608,-0.046c-0.417,0.78 -0.829,1.571 -1.192,2.409c0.275,0.729 0.592,1.517 0.917,2.304c-0.325,8.017 5.35,8.512 11.333,12.004c-1.004,1.079 -7.908,-2.996 -10.283,-2.658c-0.271,0.537 -0.546,1.091 -0.775,1.633l1.783,2.5c3.521,0.296 9.463,6.3 12.983,8.958c-0.6,6.392 -1.145,12.788 -1.695,19.184c0.316,0.183 0.637,0.437 1.008,0.683c-0.558,2.904 -2.2,8.071 -2.2,10.971c3.021,2.704 0.142,3.933 -0,9c3.337,3.587 2.429,6.492 2.329,12.008c0.471,0.392 0.971,0.784 1.467,1.225c0.054,3.092 0.087,6.246 0.187,9.4c0.729,0.63 1.463,1.271 2.242,1.917c0.087,3.883 0.404,6.679 1.271,10.817c-2.509,1.325 -4.892,0.887 -7.538,2.171l0.963,1.175c8.366,0.441 14.304,-3.834 22.029,-3.834c12.754,6.838 10.554,12.829 25.825,4.171c7.362,-1.033 9.329,12.1 19.517,6.646c15.495,-12.938 11.57,-6.346 24.912,3.2c1.696,-0.05 3.383,-0.05 5.079,-0.05c13.3,-9.338 8.542,-13.425 23.259,-1.429c6.991,1.183 11.845,-8.367 16.233,-8.367c11.429,4.092 13.708,4.921 25.958,-1.425c-3.883,-5.012 -4.758,2.075 -8.271,2.075c-0.362,-1.975 0.1,-3.4 0.142,-5.025c3.567,-3.387 7.129,-6.783 10.696,-10.125l-0,-0.196c-2.283,-1.179 -4.571,-2.321 -6.813,-3.446c0.188,-3.837 -0.229,-8.025 2.509,-10.375c-2.509,-13.675 -1.5,-28.579 -0.584,-42.25c0.95,-1.483 1.913,-2.954 2.875,-4.383c3.842,-4.575 8.73,-5.758 12.7,-10.275l-1.004,-1.387c-3.971,0.845 -6.171,1.675 -9.504,3.45c-1.562,-3.93 16.858,-2.4 9.504,-18.996m-126.758,-21.329l0.2,2.516c-0.133,0 -0.263,0 -0.408,0.063c-1.496,-1.313 -1.221,-1.538 -1.1,-2.796c0.554,-0.071 0.554,-0.071 1.308,0.217m1.617,-0.3c-1.55,-0.617 -1.755,-2.134 -2.125,-3.059c0.22,-0.296 0.437,-0.525 0.645,-0.758c2.567,0.529 1.48,3.817 1.48,3.817m1.27,-6.663c0.709,1.563 0.9,1.971 0.8,4.55c-1.554,-2.225 -1.6,-2.429 -1.737,-4.55l0.937,0Zm1.342,-3.108c0.408,0.796 0.888,1.675 1.396,2.562c-0.429,1.579 -0.429,1.579 -0.571,1.509c-0.762,-1.063 -1.412,-2.046 -2.062,-3.013l1.237,-1.058Zm1.896,-2.921c0.796,0.917 2.033,1.767 1.896,3.942c-0.329,0.145 -0.642,0.354 -0.909,0.57c-0.658,-1.195 -1.316,-2.408 -1.958,-3.533c0.325,-0.337 0.642,-0.696 0.971,-0.979m3.504,-1.538c0,0.696 0,1.396 0.058,2.088c-0.354,0.196 -0.708,0.454 -1.062,0.704c-1.413,-2.354 -1.125,-2.229 -1.242,-4.187c1.484,-0 0.992,1.054 2.246,1.395m2.1,-0.379c-0.262,0.288 -0.587,0.713 -0.912,0.713l-1.363,-3.146c0.138,-0.275 0.263,-0.479 0.45,-0.704c1.3,0.225 1.488,0.983 1.825,3.137m0.758,-3.108c-0.72,-1.275 -0.82,-1.821 -0.862,-2.858c0.221,-0.242 0.45,-0.488 0.721,-0.734c0.954,0.696 0.55,4.042 0.141,3.592m77.255,139.987c0.262,-0.441 0.591,-0.837 0.908,-1.225c5.754,1.225 8.004,0.584 14.033,-0.937c-0.041,1.429 -0.087,2.904 -0.087,4.379l-7.592,0.442c-7.033,-2.454 -7.033,-2.454 -7.262,-2.659m-28.159,-33.545c-2.471,-3.146 -11.246,-12.492 -11.246,-16.325c4.713,-2.221 8.959,4.625 11.975,8.254c7.13,7.329 16.45,11.766 25.592,16.479c24.867,12.1 24.867,12.1 25.233,12.396c-5.708,7.725 -8.587,9.646 -17.279,10.866c-18.325,-4.42 -23.583,-16.179 -34.275,-31.67m27.054,-47.809c2.559,1.384 7.363,1.625 11.113,3.446c-0.371,0.838 -0.963,2.796 -1.608,3.496c-5.163,-2.463 -10.138,-6.058 -13.475,-10.479c1.466,-2.034 5.066,-1.75 7.45,-2.017c-0,0.092 -0,0.192 0.041,0.342c2.975,-0.646 3.654,-1.913 5.984,0.041l-1.092,1.634c-3.379,-0 -8.863,-1.084 -11.113,1.329c4.667,0.046 8.463,0.392 13.488,1.475c-1.042,3.442 -8.863,0.187 -10.742,-0.296c-0.046,0.342 -0.046,0.688 -0.046,1.029m9.463,-13.525c0.458,1.084 4.712,13.675 2.604,11.417c-2.012,-4.933 -4.933,-7.338 -2.604,-11.417m-8.5,6.542c-0.096,-0.142 -0.175,-0.246 -0.229,-0.35c1.825,-1.721 2.929,-2.358 5.262,-3.446c0.317,0.496 0.679,0.988 1.05,1.483c-0.866,1.567 -4.575,2.067 -6.083,2.313m-65.046,-60.558c-0.183,0.35 -0.371,0.704 -0.687,0.85c-0.45,-0.355 -0.909,-0.646 -1.367,-0.938c0.137,-0.308 0.271,-0.596 0.458,-0.842c0.459,0.05 0.875,0.3 1.596,0.93m-0.042,-4.071c-0.275,0.146 -0.504,0.291 -0.733,0.437l-1.237,-0.741l-0,-0.392c0.779,-0.638 0.55,-0.638 2.012,0.2c-0.042,0.146 -0.042,0.292 -0.042,0.496m-8.5,15.879c0.088,-0.192 0.221,-0.392 0.359,-0.538c0.591,0.288 1.183,0.642 1.783,0.984c0,0.487 -0.412,0.837 -0.862,0.837c-0.6,-0.446 -1.192,-1.083 -1.28,-1.283m2.221,5.05c-0.221,0.054 -0.466,0.183 -0.633,0.308c-0.925,-0.987 -1.846,-1.987 -2.771,-2.908c1.1,-1.188 2.896,0.683 3.404,2.6m-1.862,-7.313c-0,-0.291 -0,-0.291 0.458,-1.329c0.683,0.396 2.104,0.692 1.971,2.217c-0.188,0.1 -0.371,0.2 -0.513,0.346c-0.637,-0.446 -1.279,-0.834 -1.916,-1.234m5.721,10.625c-0.055,0.542 -0.096,1.084 -0.096,1.621c-0.046,0 -0.1,0.059 -0.142,0.1c-1.554,-0.883 -2.146,-2.066 -2.879,-2.558l-0,3.304c1.15,0.338 2.471,-0.154 2.333,2.354c-0.133,0.1 -0.266,0.2 -0.408,0.346l-2.375,-2.108c-2.654,9.246 -4.208,20.016 -3.75,30.004c2.092,-1.575 2.092,-1.329 4.892,-0.85c0.729,-5.313 1.233,-11.004 2.875,-15.588c1.366,4.43 0.187,10.238 -0.417,15.255c-4.383,1.029 -6.846,2.362 -10.458,3.783c-2.009,4.333 -3.205,6.446 -2.884,12.633c0.5,0.104 1.004,0.25 1.509,0.4l-0,0.596c-2.013,0.242 -2.33,1.967 -2.967,3.879l-0.142,0c-0.141,0 0.229,-5.9 0.179,-6.437c-4.387,-10.329 5.355,-25.184 7.359,-34.921c0.187,-3.154 1.65,-12.546 3.841,-13.871c1.146,0.683 2.338,1.371 3.53,2.058m-17.15,63.359l1.229,-0c0.829,-4.184 1.658,-6.842 3.433,-10.434c1.104,0.063 2.196,0.105 3.346,0.205c-0.646,5.404 -0.646,13.87 -7.092,15.445c-4.7,-0.85 -2.329,-17.958 -1.508,-19.483c0.45,0.296 0.921,0.638 1.421,0.988c-0,4.175 -0.6,8.608 -0.829,13.279m0.416,-17.071c-0.187,0.296 -0.458,0.642 -0.691,0.742c-2.242,-0.792 -3.609,-1.821 -5.063,-2.905c0,-0.25 0,-0.495 0.042,-0.745c2.1,0.145 3.929,0.495 5.712,2.908m-1.696,-5.654c-0.404,-0.304 -0.775,-0.596 -1.137,-0.846c-0,-0.233 -0,-0.483 0.042,-0.683c0.187,0.104 1.237,0.45 1.6,1.225c-0.175,0.104 -0.363,0.204 -0.505,0.304m-7.995,1.816l0.133,0.842c0.237,-0.2 0.458,-0.346 0.687,-0.496c2.155,2.559 2.242,8.213 -2.287,8.213c-8.279,-1.867 -5.392,-7.525 1.467,-8.559m-6.542,-0.541c-3.063,-0.788 -4.104,-3 0.371,-3c0.679,1.275 1.829,2.408 -0.371,3m8.137,-0.738c0.505,-0.491 1.063,-0.925 1.6,-1.383c0.688,0.458 0.963,0.25 1.463,1.725c-0.633,0.496 -1.413,0.542 -1.779,0.646c-1.184,-0.792 -1.184,-0.792 -1.284,-0.988m1.65,-4.621c0.55,-0.35 1.096,-0.683 1.688,-0.983c0.371,0.692 0.371,0.692 0.6,1.567c-0.183,0.254 -0.325,0.546 -0.467,0.846l-0.179,-0c-0.5,-0.105 -1.004,-0.205 -1.5,-0.25l-0.142,-1.18Zm1.513,9.838c0.45,0.25 0.95,0.492 1.462,0.729c0,0.108 -0.962,7.733 -1.508,7.138c-2.425,-5.067 -2.337,-3.05 0.046,-7.867m20.292,-5.954c-0,1.675 -3.709,2.512 -4.934,2.8l-0.55,-0.438c2.004,-1.479 2.825,-1.766 5.484,-2.362m-1.555,-0.984c-0.779,0.192 -3.062,1.034 -3.479,0.88c-0.087,-0.188 -0.183,-0.392 -0.275,-0.542c1.6,-0.829 2.104,-1.663 4.167,-1.517l-0.413,1.179Zm0.505,5.025c-0.963,1.184 -2.746,2.059 -4.025,2.059l-0.409,-0.584c1.325,-1.037 2.55,-2.858 4.434,-1.475m-4.338,3.98c0.354,0.05 0.725,0.195 1.5,0.733c-0.096,-0 -0.183,-0 -0.229,0.05l-1.367,-0.588c0,-0.104 0.046,-0.145 0.096,-0.195m2.05,3.891c-0.229,0.246 -0.417,0.392 -0.687,0.392c-0.505,-0.354 -0.963,-0.642 -1.413,-0.938l0,-0.791c0.954,-0.684 1.321,0.196 2.1,1.337m-1.325,2.596c-0.183,0.15 -0.371,0.3 -0.512,0.45c-0.363,-0.3 -0.68,-0.596 -0.996,-0.892c-0,-0.245 -0,-0.437 0.046,-0.637c0.458,0.346 0.95,0.687 1.462,1.079m-1.879,1.033c2.654,1.142 1.421,2.763 1.279,2.613c-1.642,-1.133 -2.187,-1.283 -1.279,-2.613m1.737,5.755c-0.087,0.2 -0.183,0.45 -0.27,0.691c-0.463,-0.1 -0.921,-0.191 -1.325,-0.241c-0.18,-0.396 -0.325,-0.742 -0.459,-1.08c0.775,-0.545 1.104,-0.245 2.054,0.63m-2.241,-12.05c-0.088,-0 -0.175,-0 -0.271,0.05c-0.275,-0.196 -0.55,-0.392 -0.779,-0.542c-0,-0.788 0.275,-0.788 0.55,-1.325c-0.638,-0.046 -1.284,-0.1 -1.875,-0.1c-1.563,-5.113 -0.688,-7.083 0.637,-11.854c3.117,-1.038 6.092,-2.113 9.654,-2.113c0.092,0.096 0.18,0.242 0.267,0.392c-3.054,4.958 -8.775,0.787 -8.183,8.704c-0.404,2.271 -1.904,2.767 0.237,4.188c0.046,0.837 0.363,1.466 -0.237,2.6m-0.721,1.379l0.129,0.829c-0.229,0.208 -0.412,0.396 -0.592,0.646c-0.27,-0.438 -0.5,-0.879 -0.72,-1.329l1.183,-0.146Zm2.379,17.116c0,0.255 0,0.542 0.038,0.838c-0.23,0.2 -0.23,0.2 -0.505,0.2c-1.191,-0.596 -1.562,-1.325 -2.054,-2.025c0.042,-0.292 0.088,-0.533 0.142,-0.783c1.137,0.25 1.137,1.033 2.379,1.77m-0.333,3.392l-0.134,1.079c-0.229,-0.041 -0.458,-0.041 -0.687,-0.041c-1.325,-0.192 -1.05,-0.984 -1.367,-1.575c0.863,-1.18 0.863,-0.738 2.188,0.537m-0.504,5.017c-1.5,-0.925 -3.284,-2.109 -3.284,-3.529c1.192,-0 3.513,1.42 3.284,3.529m-1.092,2.954c-0.45,-0.046 -0.913,-0.046 -1.371,-0.046c-0.317,-0.346 -0.633,-0.687 -0.917,-1.033c0.23,-0.4 0.655,-0.884 1.005,-1.129c0.691,0.633 1.15,0.683 1.283,2.208m-34.917,-8.308c-0.187,-0 -0.371,-0 -0.558,0.045c-7.538,-1.329 -10.504,-15.737 -6.621,-21.195c6.304,-6.305 9.967,15.691 7.179,21.15m-6.675,-24.992c-0.229,-0.492 -0.458,-0.975 -0.687,-1.429c0.229,-0.334 0.504,-0.638 0.775,-0.934c0.091,0.25 0.637,3.155 -0.088,2.363m-1.516,2.017c-0.309,-0.788 -0.638,-1.521 -0.913,-2.263c0.604,-0.542 0.604,-0.542 0.779,-0.542c0.6,0.638 0.634,3.346 0.134,2.805m28.571,38.812c-0.538,1.621 -1.5,8.654 -3.425,8.654c-9.146,-2.608 -18.146,-8.466 -25.596,-13.771c1.783,-2.704 3.521,-4.966 5.621,-7.329c2.058,0 20.108,8.509 23.4,12.446m-33.046,-4.525c7.262,3.838 14.679,8.9 22.487,13.225c-0.183,1.779 -0.725,3.646 -1.412,5.563c-0.13,-0 -0.284,-0 -0.371,0.045c-8.5,-3.679 -16.363,-7.087 -23.725,-12c-0,-2.745 1.783,-4.916 3.021,-6.833m-5.034,5.308c-3.379,-3.104 -5.02,-4.475 -6.804,-8.212c1.421,-2.113 0.963,-3.838 1.967,-5.85c3.021,1.971 5.437,3.687 8.362,6.533c0,1.679 -3.47,7.529 -3.525,7.529m10.109,11.459c4.891,-2.604 20.291,5.708 26.971,7.871c2.924,1.183 2.145,1.87 0.725,4.82l-0.263,0c-5.404,-1.916 -24.371,-6.091 -27.433,-12.691m16.779,12.062c-0,1.225 -1.063,5.996 -2.833,5.996c-6.542,-1.725 -13.03,-5.367 -18.388,-8.758c0,-1.763 0.779,-4.334 1.521,-5.563c6.758,2.313 12.742,4.775 19.7,8.325m33,15.296c-0.188,0 -0.325,0.042 -0.458,0.092c-10.555,-1.967 -21.442,-4.575 -31.359,-7.629c0.096,-2.159 0.5,-4.021 1.1,-5.846c4.521,-0 11.971,3.237 16.779,4.562c6.217,0.796 17.867,-1.808 13.938,8.821m-18.246,-13.242c-0.633,-1.37 -0.217,-3.733 -0.129,-4.716c10.742,-0 21.612,2.754 32.912,3.054c0.821,0.096 1.596,0.096 2.646,0.833c0,1.429 0,2.9 0.054,4.375c-1.058,0.192 -2.108,0.442 -3.158,0.692c-10.608,-0.788 -22.579,-0.542 -32.325,-4.238m18.204,-11.208c0.042,1.575 0.225,3.383 0.042,5.5c-0.142,-0.042 -0.275,-0.042 -0.408,-0.042c-11.109,-0.687 -20.438,-2.95 -30.996,-5.7c0.275,-2.416 0.733,-3.845 1.466,-5.712c9.963,2.512 19.655,3.987 29.896,5.954m-21.396,-5.808c0,-2.992 1.321,-6.538 2.742,-8.95c8.733,0.346 18.371,1.229 27.379,2.512c1.192,0.634 0.234,10.525 0.142,10.425c-9.921,-1.041 -21.392,-0.637 -30.263,-3.987m49.913,7.633c0.229,1.379 0.271,3.042 0.096,4.667c-2.146,-0.054 -4.254,-0.054 -6.354,-0.054c-5.809,-0 -15.588,0.891 -20.48,-0.834l0.134,-5.604c7,0 20.346,-1.229 26.604,1.825m23.904,11.313c-7.908,2.408 -22.442,3.137 -30.392,3.137c-3.608,-1.179 -2.516,-3.587 -2.429,-6.833c8.871,-1.038 18.15,-0.538 27.342,-0.25l-0,-2.071c-4.667,-0 -16,2.762 -16,-4.071c1.008,-0.692 2.287,-0.25 3.742,-0.1c-0.317,0.538 -0.634,1.083 -0.909,1.679c0.229,0.334 0.504,0.684 0.779,1.075c1.005,0 2.009,0 3.017,0.05l-0.271,-2.704c-0.558,-0.1 -1.062,-0.2 -1.554,-0.25c11.104,-1.762 9.729,-0.742 16.675,10.338m-12.112,-14.813l-3.642,-0.783c-0.879,-2.634 -2.654,-6.446 -1.292,-6.546c0.559,-0.042 4.8,5.021 5.359,6.783c-0.155,0.154 -0.288,0.346 -0.425,0.546m-27.75,-9.15c6.725,0 13.354,-0.787 20.3,0.988c0.054,2.408 0.095,4.862 0.183,7.325c-1.192,0.195 -2.371,0.445 -3.521,0.691c-5.983,-0.4 -11.879,-0.246 -17.554,-0.933c-0,-2.554 -0.267,-6.546 0.592,-8.071m8.187,-41.483l0,-0.334c1.733,-0.908 1.733,-0.633 4.121,1.021l-0,0.354l-0.771,0.617c-1.862,-0.35 -2.521,-0.9 -3.35,-1.658m0.633,2.496c1.134,0.345 2.267,0.741 3.471,1.154c-0.071,0.475 -0.071,1.029 -0.071,1.562c-0.304,-0.058 -0.62,-0.058 -0.937,-0.058c-1.696,-0.283 -2.963,-1.429 -2.463,-2.658m-0.708,-5.609c1.504,0 2,-0.371 3.721,0.938c-0.371,0.308 -0.646,0.612 -0.938,0.9c-1.416,-0.592 -2.354,-1.213 -2.783,-1.838m-0.079,-1.971l-0.663,-1.42c1.388,-0.425 2.484,0.4 4.196,1.245l0,0.884c-0.166,-0 -0.341,0.066 -0.5,0.116c-1.046,-0.291 -2.033,-0.595 -3.033,-0.825m-0.946,-3.904c-0.067,-0.441 -0.067,-0.812 -0.067,-1.183c1.296,-0.217 2.18,0.521 3.484,1.7c-0.409,0.287 -0.75,0.658 -1.109,1.029c-0.804,-0.517 -1.558,-1.029 -2.308,-1.546m-0.475,-2.833c0,-0.446 0,-0.879 0.071,-1.25c1.283,0.371 2.567,0.742 3.896,1.121c-0.696,0.629 -1.871,0.754 -2.321,0.821c-0.596,-0.255 -1.117,-0.513 -1.646,-0.692m-0.337,-3.363c-0.555,-1.87 2.1,-0.341 2.833,-0.05c-0,0.196 0.042,1.134 -0.325,0.942c-0.867,-0.292 -1.688,-0.592 -2.508,-0.892m-0.388,-3.241c0.796,-0.313 2.108,-1.421 3.421,-0.375l-0,0.683l-0.863,0.546c-1.075,-0.054 -2.17,-0.246 -2.558,-0.854m-0.054,-3.842c0.771,0 1.533,0.058 2.312,0.108c0.184,0.371 0.38,0.717 0.575,1.138c-0.241,0.208 -0.483,0.471 -0.725,0.725l-1.587,-0.313c-0.183,-0.566 -0.379,-1.133 -0.575,-1.658m-1.379,-2.046l-0,-0.9c1.171,0.271 2.35,0.563 3.579,0.9c-0.513,0.567 -0.654,0.771 -1.171,0.771c-0.837,-0.275 -1.617,-0.55 -2.408,-0.771m-1.2,-4.008c0.158,-0.229 0.3,-0.475 0.446,-0.638c1.041,0.8 2.07,1.675 3.112,2.555c-0.225,0.225 -0.442,0.475 -0.6,0.8l-0.354,-0c-1.929,-0.8 -1.929,-1.68 -2.604,-2.717m2.787,-0.642c-0.846,-0.621 -1.691,-1.271 -2.475,-1.829l2.159,-0.417l1.237,1.121c0,0.779 -0.596,1.063 -0.921,1.125m-3.308,-3.841c-0,-0.896 0.242,-0.755 0.483,-1.267c1.067,0.512 2.133,1.021 3.2,1.596c-0.654,0.7 -1.362,0.504 -2.016,0.579c-0.588,-0.321 -1.125,-0.642 -1.667,-0.908m-0.579,-2.546c-0.084,-0.363 -0.167,-0.717 -0.167,-1.004c0.938,-0 1.958,-0 2.983,0.095c0.18,0.355 0.342,0.725 0.509,1.196c-0.167,0 -0.329,0 -0.509,0.088c-0.941,-0.188 -1.879,-0.279 -2.816,-0.375m-0.925,-2.938c1.237,-0.425 2.191,-0.758 3.679,0.25c-0.55,0.596 -0.867,0.671 -1.333,0.771l-2.346,-1.021Zm-0.263,-3.233c0.967,-1.033 2.2,0.067 3.567,1.025c-0.213,0.221 -0.413,0.446 -0.613,0.742c-0.62,-0.071 -1.233,-0.071 -1.787,-0.071c-0.425,-0.596 -0.825,-1.188 -1.167,-1.696m2.246,-9.863c1.454,2.017 3.425,9.45 5.438,10.671c0.591,6.446 4.979,11.767 6.812,18.45c-1.467,0.829 -4.254,3.442 -5.217,3.638c-1.508,-1.625 -6.629,-28.871 -7.033,-32.759m13.117,39.25c-0,1.675 -1.6,2.321 -2.842,3.296c0,1.525 -0.221,3.3 -0.638,5.125c-0.133,0 -0.229,0.042 -0.316,0.092c-0.142,-0.05 -0.284,-0.092 -0.371,-0.15c-0.133,-2.342 -1.792,-8.638 -0.417,-10.125c1.696,0.287 2.7,0.537 4.584,1.762m-4.025,-3.833c-0.055,-0.396 -0.088,-0.787 -0.088,-1.133c3.292,0.296 5.296,2.166 8.179,4.621c-0.183,0.2 -0.371,0.404 -0.646,0.404c-2.512,-1.325 -4.975,-2.609 -7.445,-3.892m0.791,23.192c-0.112,0.308 -0.704,0.75 -1.054,0.887c-2.262,-0.321 -1.975,-0.887 -2.908,-2.45c1.683,0.129 2.1,0.059 3.962,1.563m-1.35,2.241c0.417,0.338 0.875,0.692 1.334,1.034c-0.184,0.296 -0.363,0.587 -0.546,0.933l-1.742,0c-0.317,-0.387 -0.587,-0.787 -0.862,-1.133c0.591,-0.292 1.191,-0.596 1.816,-0.834m2.021,4.075c0,0.305 -0.687,1.638 -0.917,1.534c-1.42,-0.596 -1.683,-1.229 -2.283,-2.021c1.329,-0.196 1.596,-0.346 3.2,0.487m0.592,3.055c-0.042,0.095 -0.088,0.195 -0.142,0.345l-0.308,0c-0.688,-0.195 -1.375,-0.387 -2.063,-0.541c0.829,-0.538 1.421,-0.788 2.513,0.196m0.187,2.754c-0.1,0.391 -0.371,1.429 -0.637,1.283c-0.784,-0.304 -1.563,-0.537 -2.292,-0.787c-0.046,-0.3 -0.046,-0.592 -0.046,-0.892c0.592,-0.642 2.154,-0.788 2.975,0.396m-2.7,2.162c0.371,0 0.688,-0.146 1.463,0.5l-0,0.246c-0.371,0.246 -0.721,0.333 -1.004,0.333c-0.188,-0.045 -0.363,-0.087 -0.505,-0.087c0,-0.346 0,-0.7 0.046,-0.992m7.904,3.25c-0.5,0.734 -9.1,6.196 -9.183,6.146c-0.692,-1.133 -1.379,-2.262 -2.012,-3.342c3.291,-1.966 7.316,-5.762 11.195,-2.804m-11.195,4.821c0.041,0.35 0.095,0.688 0.183,1.038c-1.008,1.37 -1.008,1.37 -1.092,1.325c-0.55,-0.3 -1.108,-0.538 -1.654,-0.788c0.188,-2.117 0.504,-2.017 2.563,-1.575m6.954,1.963c1.279,1.729 1.871,2.808 2.833,5.362c-3.062,0.938 -5.537,1.138 -8.467,1.179c-2.604,-0.096 -5.02,-0.433 -7.12,-0.929l0.133,-21.296c-0.417,-8.366 -5.438,-58.733 -3.242,-61.1c0.504,1.134 3.196,-0.096 3.696,1.584c-0.129,0.195 -0.271,0.387 -0.412,0.637c-1.509,-0.787 -2.005,-0.637 -3.325,-0.637c0.82,8.85 3.97,16.666 4.562,26.212c0.271,2.358 1.508,3.246 1.004,6.492c0.229,0.346 0.504,0.683 0.779,1.037c-2.333,8.8 9.459,26.409 2.284,35.663c-1.192,0.975 -2.371,1.962 -3.513,2.941c0,1.475 0,2.955 0.038,4.434c5.946,2.208 4.987,-0.788 10.75,-1.579m-14.046,-89.975c-0.163,-0.15 -1.075,0.241 -1.217,0.32c-0.441,-0.166 -1.721,-0.77 -2.066,-0.925c0.345,-0.387 1.545,-1.045 3.283,0.605m-1.817,-2.596c-0.3,-0.163 -1.421,-0.571 -1.421,-0.879c1.005,-0.888 0.734,-0.988 2.059,0.187c-0.134,0.25 -0.45,0.642 -0.638,0.692m-17.2,36.562c0.934,-1.008 2.738,-0.279 3.854,0.938c-0.179,0.262 -0.312,0.6 -0.433,0.933l-1.562,0c-0.613,-0.533 -1.238,-1 -1.859,-1.471l0,-0.4Zm3.317,4.654c-0,0.071 -0,0.134 0.062,0.209c-0.325,0.208 -0.637,0.479 -0.9,0.766l-2.725,-1.675c-0.062,-0.562 -0.062,-0.562 0.138,-0.904c1.1,0.492 2.262,1.05 3.425,1.604m0.254,-4.962c-1.967,-1.038 -3.104,-2.063 -1.912,-3.638c0.45,0.292 4.016,2.163 1.912,3.638m-3.346,-6.55c1.1,-1.183 2.988,0.462 4.454,1.646c-0.07,0.241 -0.141,0.475 -0.141,0.771c-0.296,-0 -0.592,0.091 -0.875,0.162c-1.9,-0.387 -2.563,-1.712 -3.438,-2.579m2.117,-3.971c0.879,0.933 4.633,5.613 1.862,4.133c-0.6,-0.425 -4.337,-4.133 -1.862,-4.133m1.671,0.571c-1.142,-1.763 -1.092,-1.9 -0.959,-3.371c0.892,0.579 2.1,1.688 2.1,3.521c-0.391,-0.071 -0.8,-0.15 -1.141,-0.15m-1.392,-5.108c0.263,-0.313 0.554,-0.625 0.85,-0.855c0.863,0.625 1.725,1.238 2.663,1.942c-0,0.163 -0.421,1.088 -0.642,1.15c-1.004,-0.767 -1.954,-1.537 -2.871,-2.237m0.3,-3.367c0.196,-0.442 0.408,-0.817 0.683,-1.175c0.884,0.437 1.78,0.871 2.73,1.312c0.066,0.363 -0.275,2.213 -0.425,2.121c-1.025,-0.804 -2.042,-1.529 -2.988,-2.258m4.083,3.725c0.717,1.437 1.096,3.625 0,4.817c-0.05,-0.059 -0.095,-0.1 -0.095,-0.15c-0.08,-0.313 -1.317,-4.667 0.095,-4.667m2.88,7.367c2.012,0.3 3.837,0.5 6.17,1.525c-0.045,0.35 -0.045,0.695 -0.045,1.037c-1.192,0.096 -2.375,0.242 -3.521,0.388c-0.963,-0.1 -1.917,-0.192 -2.879,-0.246c-0.83,-1.575 -0.325,-1.617 0.275,-2.704m6.533,5.9c0.367,15.745 1.692,31.775 1.137,47.775c-0.22,0.479 -0.45,0.975 -0.637,1.466c-2.004,0.688 -4.517,0.342 -6.4,0.442c-1.05,-0.292 -2.054,-0.583 -3.058,-0.829c0.5,-16.525 1.05,-33.059 1.595,-49.588c2.709,-0.096 4.209,-0.196 7.363,0.734m3.379,-30.313c-0.075,0.45 -0.15,0.883 -0.15,1.333c-0.233,0 -0.483,0 -0.729,0.05c-0.946,-0.5 -1.9,-0.983 -2.8,-1.475c0.25,-0.25 0.479,-0.495 0.804,-0.741c1.742,-0 2.463,0.683 2.875,0.833m0.446,3.667c-0.325,0.375 -1.683,0.566 -2.217,0.566c-0.208,-0.3 -1.308,-0.516 -1.454,-0.741c0.404,-0.279 2.288,-0.871 3.033,-0.871l0.638,1.046Zm-2.813,2.8c0.275,-0.146 0.55,-0.296 0.859,-0.396c0.554,0.492 1.146,0.983 1.737,1.521c-0.221,0.196 -0.45,0.446 -0.679,0.696c-1.192,-0.15 -2.242,-0.696 -1.917,-1.821m3.334,3.633c-0.088,0.583 -1.271,1.088 -1.467,1.088c-0.633,-0.388 -1.271,-0.796 -1.833,-1.088c0.279,-0.483 0.562,-0.879 0.916,-1.279c0.742,0.4 1.571,0.796 2.384,1.279m-13.217,75.013c-0.867,-0.784 -0.812,-0.834 -0.725,-1.421c2.146,-0.642 10.238,-2.563 10.829,0.787c-3.337,0.092 -7.262,0.634 -10.104,0.634m-3.346,-83.625c0.338,-0 1.617,1.204 2.296,1.787c0,0.479 0,0.946 0.058,1.483c-0.154,-0.062 -0.304,-0.062 -0.4,-0.062c-0.875,-0 -1.908,-3.046 -1.954,-3.208m0.15,-2.684c0.784,-0.841 1.021,-0.316 2.446,0.363l0.288,2.266c-0.096,0 -0.146,0.055 -0.192,0.113c-2.392,-2.429 -2.392,-2.429 -2.542,-2.742m3.525,-1.583c-0.2,-0 -0.396,-0 -0.596,0.054c-0.783,-0.737 -1.558,-1.475 -2.295,-2.208c-0,-1.267 2.662,0.204 2.891,2.154m-2.521,-10.433l-0.27,-0c-0.088,-0.05 -0.188,-0.1 -0.234,-0.1c0.146,-0.396 0.284,-0.788 0.463,-1.18c0.641,0.05 0.546,0.534 0.041,1.28m0.463,4.637c0.196,-0.154 0.387,-0.304 0.642,-0.462c0.625,0.625 1.066,1.204 2.295,1.837c-0.15,0.267 -0.295,0.525 -0.395,0.783l-0.342,0c-1.267,-0.933 -1.662,-1.358 -2.2,-2.158m0.5,-3.267l1.279,0c0.604,0.742 1.871,1.475 0.867,2.571c-1.642,-0.887 -1.596,-1.383 -2.146,-2.571m4.158,-6.783c1.105,-0.396 1.555,-0.687 3.117,-0.592c1.917,8.813 3.371,31.038 1.129,42.309c-1,-0 -1.958,-0 -2.921,0.041c-0.691,-0.295 -1.37,-0.583 -2.058,-0.833c-2.233,-12.058 0.046,-28.821 0.733,-40.925m5.305,8.413c0.504,0.541 1.695,2.27 0.45,2.9c-0.405,-1.33 -1.088,-2.213 -0.45,-2.9m1.116,-0.592c0.679,0.346 1.429,0.683 2.179,1.025c-0.062,0.329 -0.062,0.675 -0.062,1.075c-0.238,-0 -0.496,-0 -0.688,0.058c-0.712,-0.15 -2.312,-1.216 -1.429,-2.158m4.242,4.017c-0.334,0.291 -0.588,0.65 -0.871,1.008c-0.854,-0.575 -1.646,-1.079 -2.438,-1.563c0.867,-0.437 2.909,-0.7 3.309,0.555m2.212,3.12c-0.583,0.45 -0.583,0.45 -1.404,0.68c-2.283,-0.605 -4.916,-0.871 -1.992,-1.909c1.384,0.529 2.246,0.792 3.396,1.229m0.434,2.063c-0.509,0.442 -1.013,1.029 -1.471,1.029c-1.229,-0.292 -1.417,-0.733 -1.829,-1.329c1.371,-0.388 1.971,-1.125 3.3,0.3m1.091,2.921c-0.062,0.133 -0.062,0.333 -0.062,0.541l-1.921,0.621c-2.829,-0.475 -2.579,-1.108 -0.904,-2.416c0.841,0.42 1.287,0.9 2.887,1.254m1.259,3.479c0.171,0.237 -0.846,0.225 -1.2,0.225c-1.35,-0.192 -2.65,-1.483 -3.113,-0.863c1.275,-1.712 3.163,-0.97 4.313,0.638m1.237,2.058c-0.062,0.446 -0.129,0.967 -0.129,1.475c-0.288,0 -0.587,0 -0.883,0.067c-1.73,-0.258 -2.159,0.146 -2.988,-0.608c0.346,-0.713 0.775,-1.35 1.188,-1.996c0.883,0.704 1.854,0.346 2.812,1.062m0.904,3.529l0,0.534c-0.708,0.779 -1.654,0.55 -2.512,0.454l-0.863,-1.854c1,-0.375 2.221,0.166 3.375,0.866m1.309,3.534l-3.592,-0.071l-0.479,-0.504c1.816,-1.088 2.112,-1.213 4.071,0.575m1.141,2.133c-0.479,0.521 -2.025,0.521 -2.362,0.521l-1.809,-0.879c0.055,-0.363 0.13,-0.65 0.196,-0.946c1.275,0.442 2.613,0.875 3.975,1.304m0.609,2.871c-0.134,0.142 -0.275,0.367 -0.409,0.583l-0.604,0c-0.55,-0.366 -1.092,-0.741 -1.575,-1.104c0.538,-0.883 1.838,-1.179 2.588,0.521m1.445,3.037l-0.545,0.446c-1.325,-0.154 -1.688,-0.496 -2.234,-1.083c0.309,-0.396 0.821,-1.329 1.321,-1.329c0.321,0.341 1.138,0.933 1.458,1.966m1.555,2.355c-0.209,0.225 -0.421,0.52 -0.55,0.812l-0.475,0c-1.092,-0.437 -2.1,-0.812 -3.125,-1.167c0.812,-0.879 2.654,-0.362 4.15,0.355m1.237,2.07c0,0.18 0,0.367 0.063,0.546c-0.33,0.359 -0.68,0.85 -1.18,0.85c-1.37,-0.179 -1.995,-0.237 -2.333,-1.029c1.083,-0.367 1.871,-1.104 3.45,-0.367m0.446,3.18c-0.558,0.141 -1.1,0.295 -1.646,0.516c-0.896,-0.591 -2.062,-1.1 -1.783,-1.775c1.983,0 2.154,-0.379 3.429,1.259m1.233,1.829l0.192,0.658l-3.75,0c-0,-0.225 0.079,-0.446 0.142,-0.575c1.137,-0.083 2.275,-0.083 3.416,-0.083m1.596,2.987c-0.096,0.313 -0.096,0.313 -1.258,0.838c-0.692,-0.404 -1.371,-0.838 -1.95,-1.154c0.375,-0.3 0.766,-0.609 1.162,-0.825c0.675,0.308 1.35,0.75 2.046,1.141m8.108,24.275c-0.679,0.3 -1.379,0.588 -2.012,0.942c-4.254,-1.038 -5.075,-1.388 -7.317,-5.271c0.546,-1.283 1.104,-2.554 1.696,-3.8c0.271,-0.042 0.592,-0.042 0.908,-0.042c-0.087,3.738 -1.229,4.525 2.567,6.15c0.088,-1.187 -0.633,-1.729 -0.962,-2.058c0.233,-1.579 1.279,-2.704 2.004,-3.842c-1.871,-1.429 -2.417,-2.462 -4.246,-3.491c-1.925,0.091 -5.888,1.675 -7.079,1.029c-0.054,-0.296 -0.054,-0.592 -0.054,-0.838c2.925,-2.362 5.079,-2.058 8.829,-2.308c-1.871,-4.575 -5.992,-5.454 -9.692,-7.383c-0.046,-0.242 -0.046,-0.242 0.175,-0.784c11.158,3 14.079,9.292 15.183,21.696m-13.345,-8.366c0.316,-0 0.55,0.154 1.137,0.491c-1.004,1.092 -1.55,2.263 -2.287,3.592c-0.13,-0 -0.271,-0 -0.413,0.054l-0.275,0c0.463,-1.621 1.063,-2.904 1.838,-4.137m3.929,-0.834c0.041,0 0.087,0 0.183,0.046c0,1.583 -0.821,4.138 -2.283,5.117c-0.234,-0.192 -0.463,-0.396 -0.646,-0.588l2.746,-4.575Zm10.146,11.513c-1.875,1.475 -3.334,2.116 -4.888,2.946c1.042,1.766 2.1,3.587 3.196,5.416c-0.183,0.242 -0.363,0.484 -0.5,0.788c-3.658,-0.096 -5.263,0.629 -8,1.033c-0,1.317 -2.604,2.996 -3.75,3.346c-0,-6.6 -1.829,-12.408 -2.788,-18.354c3.521,-3.788 9.23,3.496 11.93,6.25c1.695,-0.734 2.791,-1.079 4.8,-1.425m2.154,26.358l-0.417,0c-5.625,-1.125 -6.308,-3.592 -9.412,-8.071l-4.892,-0.146c-0.05,-0.087 -0.088,-0.15 -0.142,-0.191c7.592,-3.488 2.934,0.891 8.963,0.496c-0.825,-1.092 -1.642,-2.117 -2.421,-3.155c-2.375,0.2 -4.758,0.4 -7.088,0.642c-0.229,-0.242 -0.458,-0.442 -0.687,-0.642c3.475,-1.075 4.712,-1.675 9.004,-1.675l1.508,1.925c0.5,-0.05 1.05,-0.05 1.596,-0.05c-3.6,-3.445 -3.829,-3.387 -7.996,-3.937l0,-0.488c1.288,-1.037 5.075,-0.545 7.175,-0.545c2.971,6.004 5.771,8.362 4.809,15.837m26.416,23.221c-0.141,-0.05 -0.22,-0.05 -0.316,-0.05c-3.884,-1.333 -5.767,-2.704 -8.6,-5.013c8.916,-5.458 8.004,-7.137 10.15,2.205c-1.313,0.937 -1.234,1.2 -1.234,2.858m6.9,3.387l-0.358,0c-2.475,-0.833 -3.942,-1.766 -5.537,-3.05c-0,-3.287 10.379,-3.137 5.895,3.05m-18.87,-9.879c-4.538,-2.658 -6.867,-4.671 -10.192,-8.179c3.875,-1.758 7.579,-1.271 11.879,-1.121c0.592,0.984 3.654,5.896 3.15,7.529c-1.367,0.396 -3.929,1.771 -4.837,1.771m-13.538,-11.025c-0.55,-0.496 -1.587,-0.766 -1.554,-1.466c0.158,-3.138 7.308,-0.755 10.825,-0.3c-3.746,0.679 -8.858,1.766 -9.271,1.766m6.858,-9.396l0.13,0c0.283,1.284 -0.405,1.871 -1.271,3.109l-0.413,-0.742c0.492,-0.792 1.004,-1.571 1.554,-2.367m-3.337,3.55c-0.096,0 -0.142,0 -0.175,0.042c-1.238,-1.812 0.362,-3.142 1.179,-4.375c0.275,0.158 0.592,0.3 0.921,0.488c-0,0.295 -1.608,3.112 -1.925,3.845m-2.517,1.175l-0.271,0c-0.179,-0.145 -0.37,-0.245 -0.55,-0.341c0,-1.725 0.963,-3.292 1.467,-4.775c0.175,0.158 0.363,0.304 0.592,0.45c-0.088,1.721 -0.459,3.096 -1.238,4.666m-4.708,-22.137c4.896,-2.408 5.258,1.187 9.192,5.958c-0,1.579 -3.246,9.688 -3.609,9.492c-1.696,-1.233 -0.875,-2.071 -0.416,-3.25c-1.78,-3.446 -5.167,-8.554 -5.167,-12.2m15,-6.242c0.954,0.638 1.962,1.279 2.967,1.963c-0,-0 -3.021,20.712 -6.03,19.087c-1.966,-2.112 7.671,-17.612 3.971,-19.962c-2.741,2.454 -4.612,14.85 -6.954,19.675c-0.725,-0 -0.537,-0.2 -0.679,-0.346c1.104,-5.213 2.517,-17.417 6.725,-20.417m4.15,2.363c1.137,4.862 0.75,11.225 0.962,16.225c-1.183,0.496 -2.325,0.987 -3.479,1.533l-0.583,-0.5c0.408,-4.712 0.179,-13.617 3.1,-17.258m-3.021,-4.675c0,-3.942 1.883,-6.146 5.675,-5.954c1.654,2.12 1.963,3.791 2.288,7.179c-0.592,0.308 -1.184,0.596 -1.73,0.887c-3.3,-0.341 -4.12,-0.433 -6.233,-2.112m5.675,4.033c3.383,1.821 2.783,9.15 0.733,12.633l-0.175,0c-1.15,-3.137 -0.92,-8.945 -1.104,-12.037l0.546,-0.596Zm4.071,-3.783c3.512,-0 0.633,5.121 -0.096,6.833l-0.55,0c-0.175,-0.05 -0.362,-0.096 -0.546,-0.096c-0.316,-3.496 -0.133,-3.983 1.192,-6.737m8.083,6.387c-0.821,7.971 -7.579,23.909 -16.496,25.238c-1.825,-0.246 -3.608,-0.488 -5.391,-0.688c-0,-7.921 8.225,-6.346 12.666,-12.883c1.684,-5.021 2.963,-9.988 5.163,-14.467c1.912,0 2.417,1.038 4.058,2.8m4.038,28.292c-3.984,2.946 -8.688,7.029 -13.446,7.821c-0.821,-2.367 -1.783,-5.021 -2.338,-6.992c3.796,-2.458 15.784,-13.325 15.784,-0.829m7.262,-1.779c0.45,1.971 1.234,3.937 0.821,6.55c-2.604,1.766 -11.017,9.141 -12.983,9.537c-1.284,-2.358 -2.146,-4.425 -3.063,-6.487c2.109,-1.329 14.217,-10.329 15.225,-9.6m-6.125,21.391c-5.121,-6.475 0.271,-7.47 5.763,-11.062c0.404,-0 0.812,0.892 1.225,1.629c0.825,6.879 -1.871,6.838 -6.988,9.433m6.529,-0.287l-0.129,5.125c-0.187,-0.063 -0.329,-0.063 -0.462,-0.063c-2.692,-0.145 -4.342,-0.575 -6.529,-1.325c-0.363,-1.154 6.037,-3.97 7.12,-3.737m-41.683,24.842c2.883,-1.963 5.892,-1.184 9.558,-1.963c3.292,-1.279 6.396,-3.742 9.821,-1.525c-5.25,3.879 -8.683,8.2 -15.171,8.2c-2.7,-1.017 -3.154,-2.55 -4.208,-4.712m-8.092,-3.592c0.055,-1.963 0.134,-3.942 0.23,-5.9c4.245,-2.608 9.008,-2.113 14.125,-2.358c0.32,-0.642 0.683,-1.288 1.054,-1.875c0.358,-0 6.166,5.9 7.271,6.983c-7.775,2.654 -12.534,4.279 -20.075,4.579c-0.867,-0.492 -1.738,-0.987 -2.605,-1.429m-66.329,1.629c0.504,-1.433 1.059,-2.858 1.604,-4.233c9.692,0.833 18.784,4.179 28.8,5.266c0.038,-3.2 0.321,-6.458 0.78,-9.346c6.487,0.188 30.52,-2.116 32.445,2.013c0.413,1.767 0.875,3.738 0.917,5.896c-3.929,3.992 -6.583,8.125 -11.846,9.054c-1.329,-0.871 -7.687,-5.458 -5.754,-7.129l5.754,0.729c0.646,2.071 -0.175,4.046 0.842,5.913c1.358,-1.234 1.408,-3.934 1.683,-5.663c1.917,-0.287 3.513,-0.437 5.942,-0.25c-0.1,-0.683 -0.188,-1.371 -0.229,-2.058c-10.196,-1.234 -20.884,-4.334 -29.85,0.841c-14.671,12.68 -10.7,-1.379 -23.675,-3.2c-2.471,0.825 -5.171,2.167 -7.413,2.167m-21.158,-5.862c0.592,-2.65 1.183,-4.375 2.242,-6.492c5.8,2.008 12.341,3.883 18.008,7.629c0.087,1.479 0.229,4.725 -0.921,5.942c-5.433,-2.204 -14.533,-7.079 -19.329,-7.079m-10.742,-4.275c2.429,-0 6.084,3.295 8.459,4.916c-0.963,1.284 -4.071,2.85 -5.35,3.3c-3.25,-2.171 -2.88,-4.625 -3.109,-8.216m-2.062,-10.921c1.1,-0 11.2,5.65 12.762,7.329c-0.416,1.079 -2.746,5.558 -2.887,5.508c-4.2,-3.246 -12.888,-6.787 -9.875,-12.837m-2.288,-10.375c0.184,-0.2 0.371,-0.35 0.546,-0.496c3.117,2.904 5.404,4.529 9.471,6.637c-0.458,1.675 -0.917,3.35 -1.367,5.071c-0.096,0 -0.141,0 -0.187,0.042c-6.175,-3.288 -8.225,-4.367 -8.463,-11.254m-1.546,-10.834c3.513,3.163 14.442,8.321 16.18,12.059c-1.367,1.721 -1.459,1.966 -3.196,2.216c-3.838,-1.816 -16.909,-9.4 -12.984,-14.275m0.771,-54.541c-0.046,4.133 -0.046,4.133 -0.133,4.083c-1.783,-1.083 -3.7,-2.612 -3.7,-4.621c1.871,-0.983 1.183,-0.891 3.833,0.538m5.575,-2.759c-3.316,-1.52 1.2,-4.704 2.2,-4.175c-0.408,1.325 -1.096,3.005 -2.2,4.175m7,-0.579c-0.591,5.059 -2.787,8.75 -5.171,13.525l1.05,0.146c0.413,1.767 5.446,20.213 4.209,22.871c-2.734,-1.175 -4.246,-2.804 -6.617,-3.004c0,6.141 10.05,7.033 12.108,11.47c-1.412,1.913 -3.291,5.45 -5.445,6.192c-15.217,-8.166 -13.763,-9.637 -11.467,-25.475c1.5,-1.237 2.233,-1.179 4.387,-1.529c0.592,1.179 1.192,2.354 1.825,3.592c0.046,-0 0.1,-0 0.188,0.045c1.367,-1.47 -0.875,-4.279 -1.333,-5.408c-6.717,-0.742 -10.142,-4.183 -15.217,-8.021c-0.042,-0.291 -0.096,-0.541 -0.096,-0.787l-4.112,-0.734c-0,-0.395 -0,-0.745 0.05,-1.079c2.462,0.684 4.979,1.367 7.495,2.059c0,0.25 0.042,0.495 0.088,0.787c0.875,0.196 4.483,1.675 5.721,1.379c-5.404,-6.987 -18.792,-8.312 -14.134,-18.4c1.742,-0.787 1.509,2.067 2.384,3.496c0.766,-0.841 1.591,-1.667 2.421,-2.458c0.458,0.246 0.916,0.541 1.366,0.829c0.046,0.746 0.096,1.479 0.184,2.212c-0.271,0.159 -0.546,0.3 -0.817,0.505l-0,0.979c3.292,-0 3.246,-2.95 4.571,2.216c1.366,2.559 3.979,4.025 6.716,5.8c1.234,-0.441 -0.637,-8.508 -0.866,-9.341c-1.375,-0.692 -2.746,-1.334 -4.067,-1.975c0,-0.642 0.871,-1.225 1.233,-1.667c2.88,0.883 4.705,4.221 7.309,6.883c2.604,-0.733 3.754,-3.145 5.446,-5.316c0.179,0.058 0.362,0.1 0.591,0.208m0.459,23.058l-0.325,0c-0.275,-0.145 -0.546,-0.287 -0.78,-0.433c0.092,-1.233 0.559,-1.917 1.15,-2.808l0.734,-0c-0,1.079 0.041,2.012 -0.779,3.241m1.687,-9.15c0,0.742 -1.596,4.825 -2.462,3.892c-2.242,-2.408 -1.38,-8.904 0.733,-11.171c1.137,1.479 5.062,5.713 1.729,7.279m-2.462,-44.212c1.004,-1.083 3.466,-4.383 4.658,-4.779c0.229,0.208 0.458,0.396 0.692,0.641c-0.559,0.546 -4.346,4.63 -4.805,4.63c-0.183,-0.2 -0.37,-0.35 -0.545,-0.492m2.516,-6.542c-1.191,2.459 -2.2,4.179 -4.712,5.354c-0,-2.162 2.237,-5.945 4.712,-5.354m5.338,-3.791c-2.329,-0.588 -3.696,-9.3 -4.059,-11.171c0.175,-0.234 0.363,-0.479 0.546,-0.684c2.188,1.78 4.113,9.146 3.513,11.855m-1.271,20.516c-1.058,-0.241 -2.063,-0.491 -3.071,-0.7c-1.096,-2.304 -2.417,-5.254 -2.417,-7.329c0.088,-0.083 4.8,-4.467 4.8,-2.554c-2.012,1.971 -2.929,5.125 -0.829,8.167c0.413,-0.296 0.829,-0.588 1.288,-0.838c-0.142,-3.096 0.45,-5.017 1.096,-7.621c-0,-3.541 -3.109,-5.85 -4.213,-8.608c0.229,-0.188 0.463,-0.342 0.692,-0.5c1.958,0.7 5.646,6.108 6.079,6.108c0.183,-0.246 0.362,-0.491 0.592,-0.691c-1.509,-5.355 -2.417,-9.938 -3.021,-14.85l0.55,-0.738l0.229,0c4.112,7.963 4.079,22.525 -1.775,30.154m14.387,36.1l-0.545,3.692c-2.005,-1.033 -3.975,-2.058 -5.942,-3.054c-0.046,0.05 0.733,1.95 0.775,2.216c1.883,3.2 10.292,6.792 14.221,5.259c0.962,0.691 1.737,2.029 2.746,3.45c0.275,-0.254 0.591,-0.442 0.908,-0.646c1.871,2.562 0.187,19.779 3.662,27.25c0.78,-0 1.775,-0.442 2.692,-0.738c-1.967,-9.104 -3.062,-8.4 3.433,-12.441c1.917,1.725 -0.504,9.346 -1.104,12.441c0.275,0.1 0.417,0.1 0.55,0.692c0.229,0 0.513,0 0.775,0.046c0.317,-0.588 0.688,-1.179 1.059,-1.725c0.32,0.062 0.32,0.062 2.058,1.037l0.133,2.367c2.109,-1.387 2.7,-15.442 2.425,-17.467c-0.875,-0.391 -1.737,-0.779 -2.558,-1.129c0.042,-0.583 0.133,-1.137 0.229,-1.679c0.867,0 1.413,0.946 2.188,2.125c0.275,-0.096 0.591,-0.2 0.92,-0.254c1.871,-5.4 0.863,-12.788 1.784,-18.142c1.683,-1.829 2.375,-3.008 3.279,-5.125c0.054,0 0.1,0.054 0.187,0.109c-1.237,13.962 -1.641,28.429 -2.287,42.687l2.242,0l0.691,-4.575c3.104,0 6.309,0.046 9.734,0.592l0.141,5.554c-0.237,-0.038 -0.458,-0.038 -0.687,-0.038c-15.042,-0.75 -32.913,-1.679 -45.579,-10.437c-0,-7.621 4.891,-14.55 3.345,-23.063c-0.512,-0.041 -1.008,-0.041 -1.475,-0.041c-0.725,4.216 -2.179,18.933 -3.829,21.925c-0.637,-0.146 -1.237,-0.292 -1.829,-0.438c-0.554,-6.35 0.317,-12.796 -0.742,-18.5c-4.016,-8.362 -8.083,-16.916 -11.554,-24.983c-0.687,-5.263 -0.641,-10.338 -0.5,-15.258c1.321,-0.684 1.413,-1.221 3.192,-0.83c0.55,1.08 1.183,2.113 1.783,3.792c1.925,13.475 2.604,16.379 13.479,25.329m3.617,-36.304c-10.379,7.383 -10.379,7.079 -7.446,19.333c3.654,4.134 4.475,3.992 3.15,10.18c-1.421,0.445 -2.7,1.083 -3.841,1.337c-0.775,-0.592 -1.509,-1.183 -2.242,-1.775c-0.358,-3.792 -1.913,-6.446 -3.283,-9.5c-0.184,-0.042 -0.325,-0.092 -0.467,-0.092c-0.167,-3.541 -0.45,-6.595 -0.908,-9.591c3.379,-3.25 12.666,-8.9 11.837,-13.771c1.375,-1.479 3.925,1.471 3.2,3.879m10.875,23.617c-1.554,1.571 -3.971,3.783 -6.346,3.146c-1.925,-1.33 -1.925,-1.33 -2.108,-1.33c1.367,2.413 3.979,5.992 -0.775,6.784c-3.7,-1.075 -2.242,-6.392 -3.567,-8.804c-12.296,-18.35 1.146,-27 13.442,-12.93c-0.963,2.117 -5.396,2.759 -5.942,3.688c1.05,0.688 2.1,1.417 3.154,2.162c0,0.43 -2.729,3.963 -3.154,4.484c2.704,1.287 1.221,-2.342 4.342,-1.334c-1.817,3.571 0.954,2.05 0.954,4.134m1.333,7.179c-0.458,-0.642 -0.916,-1.283 -1.375,-1.863c1.25,-3.166 2.567,2.275 1.375,1.863m0.538,-6.05c0.646,0.146 1.058,0.146 1.696,1.329c-0.175,0.242 -0.363,0.542 -0.538,0.833l-0.6,0c-0.316,-0.341 -0.637,-0.637 -0.908,-0.929c0.087,-0.45 0.217,-0.845 0.35,-1.233m0.971,-3.446c0.362,0.246 2.421,1.379 1.554,2.763c-1.288,-0.992 -2.154,-1.434 -1.554,-2.763m0.321,-3.046c0.95,0.342 1.5,0.738 2.37,2.171c-0.137,0.184 -0.358,0.434 -0.545,0.434c-0.917,-0.888 -2.146,-1.767 -1.825,-2.605m1.579,-3.716c0.758,0.291 1.091,0.291 1.471,1.925c-0.6,0.887 -0.6,0.887 -0.713,0.837c-0.487,-0.416 -0.971,-0.767 -1.462,-1.129c-0,-1.342 0.05,-0.929 0.704,-1.633m0.387,-2.871l2.417,1.737c-0,0.063 -0.054,0.925 -0.217,0.75c-0.966,-0.4 -1.879,-0.808 -2.791,-1.216c-0.05,-0.229 -0.05,-0.463 -0.05,-0.688c0.216,-0.225 0.425,-0.412 0.641,-0.583m2.109,-0.296l-2.063,-2.575c1.829,-3.317 2.525,3.071 2.063,2.575m-1.075,-6.367c0.483,-0.083 1.025,-0.154 1.579,-0.154c0.262,0.288 2.721,2.421 0.812,3.446c-2.116,-1.317 -1.775,-1.838 -2.391,-3.292m1.216,-1.775c0.188,-0.458 0.375,-0.912 0.621,-1.304c0.538,0 2.646,1.567 1.504,2.792c-0.725,-0.513 -1.458,-1.038 -2.125,-1.488m2.792,-0.954c-0.804,-0.671 -1.608,-1.266 -2.425,-1.879c3.171,-4.137 4.237,1.287 2.425,1.879m-0.525,-6.696c0.375,0.046 0.725,0.1 1.15,0.192c0.229,0.496 -0,2.658 -0.554,2.067c-0.55,-0.784 -0.954,-1.325 -1.054,-1.671c0.154,-0.192 0.283,-0.396 0.458,-0.588m1.15,-3.829c0.617,0.771 2.004,2.033 2.004,3.654c-0.212,0 -0.383,0.063 -0.558,0.117c-1.163,-0.296 -1.896,-1.258 -2.5,-1.863c0.271,-0.658 0.55,-1.32 0.829,-1.908l0.225,0Zm0.729,-2.467c0.571,0.275 1.129,0.621 1.7,0.959c0,0.262 0,0.541 0.058,0.8c-0.12,-0.063 -0.254,-0.063 -0.375,-0.063c-1.579,-0.883 -1.579,-0.883 -1.82,-1.216c0.12,-0.205 0.241,-0.346 0.437,-0.48m-0.096,-14.212c0.417,0.442 0.821,0.879 1.238,1.375c-0.096,0.583 -0.142,1.179 -0.188,1.821c-0.229,-0 -0.446,-0 -0.633,0.046c-1.333,-0 -0.917,-2.167 -0.963,-2.759c0.18,-0.191 0.363,-0.341 0.546,-0.483m2.471,-0.054c-1.146,-1.038 -1.287,-1.279 -1.55,-2.309c0.088,-0.15 0.221,-0.3 0.363,-0.441c0.458,0.046 0.916,0.141 1.42,0.237c0,0.492 0.042,2.654 -0.233,2.513m0.646,3.25c0.637,-1.388 0.725,-1.138 2.05,0.091c-0,0.25 -0,0.25 -0.408,0.938l-0.221,-0c-0.513,-0.342 -0.971,-0.688 -1.421,-1.029m1.271,-6.554c-0.413,-0.634 -0.775,-1.271 -1.138,-1.913c1.096,-3.004 2.146,1.379 1.138,1.913m1.65,4.433c-0.459,0.3 -0.459,0.3 -0.5,0.196c-1.096,-1.371 -0.875,-1.184 -0.371,-2.454c0.271,-0 1.004,1.379 0.871,2.258m-0.271,-9.35c0.137,0.396 0.404,0.937 0.546,1.783c-0.142,0.042 -0.238,0.088 -0.325,0.184c-0.821,-0.871 -0.45,-1.421 -0.221,-1.967m-6.313,-5.846c1.73,-2.312 6.125,-3.933 8.225,-0.55c-7.316,0.596 -7.316,0.596 -8.225,0.55m-15.95,1.083c1.413,-0.887 9.871,-2.654 10.921,-0.929c-3.654,0.775 -7.079,1.467 -10.458,1.763c-0.188,-0.296 -0.329,-0.588 -0.463,-0.834m-1.191,-3.941c1.141,-1.613 9.05,-2.65 11.475,-2.892l1.325,1.425c-4.113,1.913 -8.367,1.817 -12.338,2.058c-0.187,-0.195 -0.321,-0.395 -0.462,-0.591m13.162,-6.054c-0.175,0.354 -0.362,0.704 -0.55,1.1l-3.246,0.141c-0.079,0.146 -0.133,0.292 -0.179,0.438c-2.141,-0.738 -3.704,1.137 -5.708,1.137c-2.975,-0.158 -2.975,-0.158 -3.433,-0.304c0.954,-2.45 10.466,-4.275 13.116,-2.512m1.692,1.633c1.008,0.683 2.017,1.375 3.067,2.113l-0,1.087c-1.05,0.788 -2.059,1.571 -3.067,2.408l-0.688,-0.445c-0.041,-1.621 -0.545,-4.284 0.688,-5.163m10.283,-1.571c-1.004,0.729 -4.429,2.7 -4.658,2.596c-1.65,-0.929 -3.292,-1.867 -4.879,-2.746c0.808,-0.887 7.712,-0.304 9.537,-0.304l0,0.454Zm3.163,1.179c-0,0.734 -0.142,4.667 -0.829,3.934c-1.05,-0.446 -2.105,-0.838 -3.155,-1.234c-0.041,-0.35 -0.087,-0.687 -0.087,-0.979c1.096,-0.791 2.192,-1.575 3.283,-2.321c0.229,0.209 0.504,0.396 0.788,0.6m5.525,-6.641c-0.954,0.391 -1.917,0.787 -2.834,1.183c-4.987,-0.892 -5.537,-6.454 -1.325,-8.317c0,-1.666 0,-3.35 0.046,-5.02c-2.287,-0 -4.575,-0 -6.858,0.054c-2.563,6.391 -13.85,-3.942 -2.925,-6.242c2.058,0.875 2.2,0.433 3.154,2.938c2.196,-0 4.388,-0 6.629,0.05c-0.046,-1.955 -0.087,-3.93 -0.087,-5.896c-9.696,-3.884 9.558,-14.171 4.612,-0.5l-1.233,0.596c-0.054,1.92 -0.054,3.845 -0.054,5.8c1.837,-0.05 3.716,-0.05 5.587,-0.05c1.096,-3.542 3.813,-3.08 6.629,-1.867c2.559,6.937 -4.025,9.637 -6.4,5.171c-1.966,-0.054 -3.891,-0.054 -5.816,-0.054c-0,1.716 -0,3.5 0.054,5.262c2.833,1.183 1.642,4.529 0.821,6.892m-1.229,6.787c0.179,0.292 0.354,0.638 0.541,0.979c-0.362,0.396 -0.866,0.938 -1.229,0.938c-3.708,-0.296 -2.283,-2.121 0.688,-1.917m0.32,5.509l-2.745,0.737c-0.188,-0.292 -0.317,-0.546 -0.459,-0.787c0.359,-0.2 3.796,-1.867 3.204,0.05m-1.104,-7.671c-0.591,-0.254 -1.137,-0.446 -1.696,-0.646c-0.512,-3.358 4.205,-0.696 1.696,0.646m4.113,10.671c-0,0.983 -0.046,1.229 -0.734,2.308c-3.054,-0 -6.07,-0 -9.091,0.058c-0.317,-1.283 -0.184,-1.383 0.187,-2.221c2.234,-0.2 7.538,-1.279 9.638,-0.145m-0,5.216c-0.409,-0.104 -0.779,-0.15 -1.138,-0.2c0.142,-0.341 0.271,-0.641 0.459,-0.929c0.458,0.192 1.05,1.321 0.679,1.129m1.562,3.167c-1.541,-0.579 -2.508,-1.296 -2.266,-2.188c0.65,-0.187 1.129,0.075 2.179,0.584c-0.596,0.821 0.258,1.604 0.087,1.604m1.654,1.737c-0.145,0 -0.216,0.08 -0.308,0.167c-0.825,-0.342 -1.562,-0.646 -2.321,-0.892c0.15,-0.241 0.292,-0.487 0.45,-0.645c0.671,0.237 1.421,0.483 2.179,0.812l0,0.558Zm1.671,1.805c-0.058,0.195 -0.116,0.395 -0.116,0.65c-0.713,0.066 -1.359,0.129 -2.025,0.262l-2.146,-1.542c-0,-1.4 3.966,0.434 4.287,0.63m1.829,2.716l-0.212,0.446c-1.258,0 -2.521,0 -3.713,0.067l-0.5,-0.513c1.625,-0.833 1.896,-0.983 4.425,0m0.98,2.046c-0.517,0.479 -1.217,1.029 -1.725,1.029c-0.455,-0.279 -0.888,-0.55 -1.271,-0.758c0.262,-0.479 0.508,-0.954 0.816,-1.375c0.455,-0 1.221,0.475 2.18,1.104m1.862,2.492c-0.687,0.496 -1.104,0.941 -1.825,0.941c-0.733,0 -0.962,-0.941 -1.008,-1.087c1.05,-0.538 1.283,-1.033 2.746,-0.642c-0,0.25 0.041,0.496 0.087,0.788m2.283,2.466c-2.466,1.375 -2.466,1.375 -2.695,1.375c-1.055,-0.887 -0.867,-0.887 -0.275,-1.679c0.962,0 1.925,0.059 2.887,0.104c0,0.046 0.042,0.1 0.083,0.2m1.35,2.688c-1.095,0.425 -2.87,1.296 -3.429,1.296c-0.229,-0.438 -0.4,-0.871 -0.554,-1.221c1.529,-0.517 2.242,-1.033 3.983,-0.075m1.642,2.362c-0.058,0.334 -0.1,0.73 -0.1,1.117c-1.1,0.058 -2.192,0.179 -3.225,0.279c-0.262,-0.337 -0.521,-0.612 -0.783,-0.891c1.091,-1.171 2.287,-1.067 4.108,-0.505m1.617,3.8l-3.675,0l0.179,-1c1.121,-0.07 2.3,-0.137 3.496,-0.137l-0,1.137Zm1.275,1.15c-0.584,0.417 -0.584,0.417 -2.563,1.13c-0.454,-0.288 -0.916,-0.567 -1.383,-0.784c1.054,-0.346 2.171,-0.425 3.946,-0.346m0.287,4.305c-0.733,-0.392 -1.462,-0.784 -2.141,-1.184c-0,-5.875 5.266,2.817 2.141,1.184m2.859,0.629c-0,0.283 -0.4,2.379 -0.85,2.171c-1.1,-0.421 -1.688,-0.984 -2.075,-1.334c0.2,-0.341 1.95,-1.196 2.925,-0.837m2.283,4.696c-0.642,-0.063 -1.283,-0.063 -1.879,-0.063c-0.45,-0.371 -0.867,-0.687 -1.271,-1.008c1.642,-0.988 1.229,-1.304 3.029,0.129c0,0.317 0.054,0.637 0.121,0.942m1.487,1.925c-0.783,0.162 -1.554,0.387 -2.254,0.608c-0.771,-0.308 -1.475,-0.542 -2.166,-0.754c0.137,-0.379 0.341,-0.767 0.541,-1.054c1.625,-0.15 1.904,-0.217 3.879,1.2m-1.975,3.545l-1.262,-1.329c3.842,-2.225 5.358,-0.45 1.262,1.329m4.08,-0.583c-0,1.808 -2.525,1.363 -1.617,1.238c-0.288,-0.071 -1.371,0.295 -1.617,0.208l1.763,-1.65c0.608,-0 0.791,0.137 1.471,0.204m1.854,3.263c-0.892,0.45 -0.892,0.45 -1.367,0.45c-2.275,-0.742 -2.275,-0.742 -2.408,-0.963c0.608,-0.642 4.366,-1.633 3.775,0.513m1.529,1.725c-2.992,0.875 -2.992,0.875 -3.633,0.875c-0.196,-0.205 -0.38,-0.405 -0.575,-0.542c1.079,-0.333 2.62,-1.371 4.145,-1.1c0,0.221 0,0.479 0.063,0.767m2.037,3.645c-2.045,-0.3 -3.083,-0.745 -4.037,-1.487c4.333,-1.1 4.108,1.554 4.037,1.487m-1.645,1.78c-0.163,-0.167 -0.321,-0.334 -0.425,-0.505c1.583,-0.57 1.8,-0.858 3.854,0.05c-0.846,0.913 -2.588,0.455 -3.429,0.455m2.025,6.729c2.658,-0 5.075,-1.721 8.008,-0.15c-0.454,2.787 0.987,5.437 0.175,8.608c-1.192,0 -2.004,-0.933 -2.558,-1.379l-0,-0.346c0.916,-0.783 0.958,-0.829 2.383,-0.925c-0.188,-0.396 -0.363,-0.787 -0.55,-1.137c-1.792,-0.346 -3.796,-0.688 -5.029,0.05c2.1,2.066 4.746,6.941 6.85,10.137c0.687,-0.054 1.375,-0.054 2.062,-0.054l-1.375,-1.329l1.925,-2.063c0.184,0.046 0.5,0.188 1.004,0.734c-1.375,3.35 -0.183,4.037 -3.379,6.154c-0.183,1.77 -1.333,13.129 -2.975,11.358c-3.246,-4.129 -5.579,-9.05 -9.6,-4.029l-0.5,-0.542c1.275,-1.033 2.554,-2.071 3.888,-3.05c-0.504,-0.446 -1.009,-0.829 -1.467,-1.225l1.238,-0.891c-1.646,-7.076 -2.109,-12.738 -6.405,-17.951c-1.333,-0.987 -6.945,-4.975 -7.266,-5.662c0.908,0 2.658,0.787 4.025,0.787c-2.746,-10.52 -10.192,-20.708 -11.888,-29.95c5.579,4.234 9.417,18.83 15.904,23.021c-0.041,0.338 -0.087,0.684 -0.087,1.075c2.604,1.575 3.292,5.459 5.617,8.759m8.783,10.67c-0.275,-0.25 -0.558,-0.491 -0.775,-0.737c0.217,-0.783 0.317,-0.692 1.225,-0.392c-0,0.296 0.046,0.592 0.1,0.879c-0.417,0.209 -0.233,0.25 -0.55,0.25m-5.488,-12.391c-0.729,0.146 -1.458,0.35 -2.145,0.546c-0.188,-0.255 -0.371,-0.5 -0.55,-0.696c0.504,-0.342 1,-0.688 1.554,-0.988c0.362,0.346 0.733,0.746 1.141,1.138m8.367,-14.863c12.158,1.534 12.021,3.696 11.613,16.584c-0.688,6 -4.255,9.15 -9.417,10.033l-2.788,-0.442c-0.045,-0.887 -0.045,-1.725 -0.045,-2.554c0.725,-0.354 1.454,-0.692 2.187,-0.996c0,-2.204 -1.921,-1.637 -1.921,-2.346c1.921,-2.07 4.754,1.767 4.121,-2.366l-4.442,-0c0,-2.383 1.238,-1.788 0.963,-3.542c-2.288,-0.146 -4.529,-0.254 -6.767,-0.346c0,-6.245 3.2,-9.191 6.496,-14.025m22.529,4.63c-1.958,2.845 -4.108,16.475 -9.504,16.475l-0.133,-0c-0,-15.542 2.966,-20.605 -12.296,-22.68c-0.413,-0.629 -0.688,-1.27 -0.688,-1.558c6.13,-3.946 25.005,-1.529 31.767,0.788c-3.196,2.258 -6.221,4.516 -9.146,6.975m11.117,10.129c-0.092,-0 -0.188,-0 -0.275,0.054c-1.008,-1.325 -1.608,-2.458 -2.058,-3.496c0.045,-0.046 0.091,-0.046 0.133,-0.046c0.371,0.438 2.646,2.217 2.2,3.488m5.433,7.825l0,-1.229c-0.546,-0.3 -1.05,-0.596 -1.55,-0.842l0,-0.588c0.642,-0.191 1.184,0.105 2.1,0.642c-0.408,3.592 -1.741,3.883 -4.441,5.067c-0.175,-0.1 -0.35,-0.192 -0.546,-0.25c2.954,-6.934 0.9,-0.896 4.437,-2.8m11.475,-8.067c0.734,9.592 -11.525,11.804 -15.366,19.288c1.75,-0 10.937,-4.521 11.441,-3.984c-4.441,3.592 -10.296,9.242 -15.775,9.984c-0.687,-0.742 -1.375,-1.434 -2.058,-2.117c-1.463,1.029 -4.929,12.537 -4.929,14.696l1.496,-0.142c0.966,-3.387 1.97,-6.737 2.975,-10.083c1.141,0.154 2.329,0.296 3.525,0.496c0.862,6.287 -0.188,14.708 -0.592,21.645c-0.875,0.734 -5.033,4.23 -5.817,3.834c-0.962,-1.721 -1.916,-3.442 -2.833,-5.167c2.062,-1.867 4.304,-4.029 6.267,-6.142c-2.705,-2.908 -12.525,9.046 -15.271,6.088c3.566,-8.258 9.975,-27.488 15.683,-35.163c-0.871,-4.82 -7.45,-10.133 -6.079,-12.787c2.371,1.275 7.033,5.75 9.55,5.604c1.287,-2.7 2.154,-4.967 4.712,-6.342c0.45,0.246 0.909,0.488 1.413,0.784l0.283,2.462c-4.212,2.167 -5.491,4.921 -6.683,10.029c5.262,3.396 8.917,-8.8 9.604,-8.8c0.733,0.638 0.863,0.884 2.233,0.542c0.6,-2.367 -0.954,-2.858 0.6,-4.529l1.463,0.296c-0,0.687 -0,1.425 0.037,2.162c1.421,-0.983 2.021,-1.521 2.975,-3.146c0.371,0.15 0.734,0.296 1.146,0.492m-22.075,8.017c0.409,-0 0.821,-0 1.229,0.05c-0.229,-2.263 -4.2,-5.463 -5.57,-5.463c1.37,1.671 2.92,3.3 4.341,5.413m0.909,40.191c-0.271,-0.445 -0.5,-0.887 -0.73,-1.333c-2.012,0.292 -2.145,0.292 -2.92,2.308c0.22,0.346 0.5,0.742 0.775,1.138c0.82,-0 2.329,-1.183 2.875,-2.113m-29.98,-59.279l0,1.329c3.655,-0.041 7.309,-0.095 10.971,-0.095c-4.308,-3.05 -6.629,-2.163 -10.971,-1.234m-0.229,3.696c-0.046,0.442 -0.1,0.888 -0.1,1.325c1.979,-0.142 2.471,-1.446 3.663,0.733c-0.45,0.4 -0.917,0.788 -1.375,1.238c0.183,0.342 0.371,0.729 0.554,1.125c1.554,-0 3.1,0.058 4.704,0.108l0,-1.087l-1.1,-0.146c-0.779,-1.288 -0.267,-1.675 0.042,-2.613c0.554,-0.045 1.15,-0.1 1.746,-0.1l-0,-1.079c-4.163,-0.983 -4.525,-0.737 -8.134,0.496m3.192,5.108c-0.317,0.446 -0.546,0.7 -0.546,1.53c1.738,-0.055 3.475,-0.1 5.258,-0.1c-1.604,-0.488 -3.158,-0.984 -4.712,-1.43m-7.95,4.438c-0.363,0.587 -0.725,1.179 -1.05,1.808l-3.063,-0.146l-0.275,0.6l0.963,0.875c1.642,-0.091 3.292,-0.15 4.987,-0.187l-1.245,-2.95l-0.317,-0Zm-40.817,-82.442c-3.012,-6.004 -8.283,0.588 -2.658,2.604c1.746,-0.587 1.871,-0.733 2.658,-2.604m0,-20.466c-1.646,-3.046 -3.796,-3.146 -5.254,-0c0.725,1.583 0.504,1.525 2.596,2.312c1.475,-0.396 1.971,-0.787 2.658,-2.312m5.85,10.379c0.679,1.525 0.546,1.871 2.604,2.6c5.942,-1.563 -0.187,-8.95 -2.604,-2.6m-17.925,0.291c0,-6.145 -9.233,-0.391 -2.421,2.309c1.38,-0.142 1.871,-1.225 2.421,-2.309m-21.521,78.459c-0.775,-0.392 -1.145,-0.146 -1.516,-0.146c-0.317,-0.888 -0.638,-1.725 -0.909,-2.554c-2.383,-0.85 -4.662,2.062 -4.662,4.471c0.408,-0.4 0.821,-0.792 1.237,-1.13c0.363,0.296 0.734,0.638 1.092,0.984c0,0.446 -0.687,1.129 -1.05,1.629c0.408,0.187 0.867,0.383 1.325,0.629c1.917,-1.079 2.967,-2.058 4.483,-3.883m-10.52,-0.292c1.879,0 5.404,-3.496 7.637,-4.675c-0.275,-0.492 -0.55,-0.933 -0.779,-1.383c-3.238,-0.388 -5.708,3.396 -6.858,6.058m0.275,11.9c-4.663,-6.979 -5.163,-7.621 -5.338,-15.25c-5.854,4.579 2.229,14.996 4.013,21.246c-0,0.054 -0,0.1 0.045,0.158c1.375,-0.6 1.28,-5.166 1.28,-6.154m5.17,23.958c-2.154,3.096 -2.154,13.225 -2.154,17.071c0.046,0 0.1,0 0.188,0.038c-0,3.054 -1.738,4.087 1.783,5.808c0.096,0 0.229,0 0.371,0.054c0.721,-7.279 1.729,-15.1 1.092,-22.087c-0.459,-0.296 -0.871,-0.588 -1.28,-0.884m2.88,-0.104c0.095,7.871 -0.23,16.334 0.679,24.542c0.546,-0.042 1.146,-0.088 1.737,-0.088c-0.504,-8.17 -0.996,-16.333 -1.462,-24.454l-0.954,0Zm1.825,-0.387c-0,8.462 1.6,17.208 2.791,25.921c0.413,0.187 0.863,0.437 1.321,0.683c0.1,-0 0.179,-0 0.275,0.05c-0.679,-9.092 -1.325,-18.338 -3.467,-26.846c-0.329,0.042 -0.645,0.088 -0.92,0.192m-34.325,-15.592c1.87,-2.071 3.7,-3.792 3.154,-6.492c-1.788,0.934 -2.609,4.317 -3.196,6.334c-0,0.058 -0,0.108 0.042,0.158m-7.271,-6.887c-1.892,-0.505 -0.25,-1.621 -2.375,0.095c0.316,0.388 0.687,0.784 1.05,1.18c0.275,-0 1.05,-0.984 1.325,-1.275m19.883,86.175c0,1.37 0.317,1.966 1.192,3.491c0.416,-0.296 0.866,-0.537 1.325,-0.791c-0.142,-3.142 -0.504,-3.484 -2.517,-2.7m51.704,3.295c-0.512,0.584 -1.012,1.234 -1.516,1.871c0.545,0.488 1.104,1.034 1.695,1.571c0.271,0 0.271,0 2.284,-0.929c0.187,-0.696 -0.271,-1.721 -0.271,-1.779l-2.192,-0.734Zm35.238,1.375c-0,1.08 0.958,1.675 2.246,2.017c0.591,-0.096 1.183,-0.142 1.779,-0.192c0.133,-0.687 0.091,-1.383 0.091,-1.579c-1.6,-0.787 -2.929,-1.037 -4.116,-0.246m43.012,-20.32c0.417,-1.613 0.054,-1.575 -0.679,-2.505c-1.783,0.096 -2.067,1.475 -2.658,1.475c0.512,0.55 1.008,1.138 1.512,1.721c0.592,-0.233 1.192,-0.483 1.825,-0.691m-5.35,-5.896c1.009,-2.159 0.779,-1.721 -0.225,-3.192l-2.104,0c-0.371,0.579 -0.687,1.221 -1.004,1.863c0.404,0.495 0.821,1.037 1.279,1.579c0.688,-0.104 1.375,-0.2 2.054,-0.25m-8.637,-6.142c0.229,-0.7 0.466,-1.329 0.687,-1.967c-1.737,-2.662 -1.508,-1.191 -4.071,0.388c0.417,0.479 0.821,1.037 1.238,1.579l2.146,0Zm-9.692,-43.287c-1.737,2.795 -1.908,2.475 0.5,5.133c0.825,-0.1 1.696,0.071 2.563,0.029c1.004,-1.625 1.466,-2.512 1.32,-4.425c-2.045,-1.037 -2.416,-0.937 -4.383,-0.737m4.167,1.129c-0.188,1.521 -0.363,2.162 -1.284,3.491l-2.604,-0.183c-2.337,-4.175 0.321,-4.879 3.888,-3.308m-0.692,0.337l-2.742,-0.729l-0.954,1.621c0.821,0.587 1.688,1.179 2.559,1.821l0.275,-0c0.775,-1.234 0.862,-1.529 0.862,-2.713m-2.558,-0.291c0.779,0.145 1.562,0.354 2.329,0.541c-0,0.642 -0.217,1.184 -0.729,1.971l-0.221,0l-2.058,-1.475l0.679,-1.037Zm-46.025,45.895c-0.284,0.638 -0.554,1.325 -0.784,2.017c0.688,0.488 1.417,1.029 2.15,1.575c0.592,0 1.788,-0.687 2.605,-0.983c-0,-0.792 -1.321,-2.367 -1.367,-2.471l-2.604,-0.138Zm8.816,19.18c-0.687,0.2 -1.375,0.45 -2.008,0.695c-0.146,0.584 -0.233,1.175 -0.329,1.813c0.467,0.446 0.917,0.937 1.421,1.433c3.116,-0.396 1.925,-2.416 0.916,-3.941m-15.991,-8.459c-1.192,-0.05 -2.338,-0.096 -3.479,-0.096c-0.142,0.646 -0.142,1.075 -0.142,2.071l1.642,0.438c1.741,-0 2.341,-0.892 1.979,-2.413m-25.692,-13.625c0,1.671 0.138,1.867 1.554,3.25c0.588,0 1.779,-1.237 2.371,-1.721c0,-3.887 -2.604,-1.975 -3.925,-1.529m-8.412,7.717l-2.613,-0c0.096,2.117 0.096,2.117 0.229,2.612c0.459,0.192 0.459,0.192 1.696,0.35c2.108,0 1.05,-2.025 0.688,-2.962m10.695,11.867l-0.27,1.029c0.229,0.346 0.5,0.691 0.775,1.07c0.775,0 1.545,0.059 2.329,0.109c-0.088,-1.525 -0.142,-1.629 -0.688,-2.513l-2.146,0.305Zm-12.983,7.57c0.592,-0.058 0.592,-0.058 2.967,-0.787l-2.279,-2.613c-0.73,0 -1.013,0.45 -1.559,0.688l0,2.075c0.279,0.192 0.546,0.4 0.871,0.637m-20.662,-11.554c-1.234,-0.546 -1.28,-0.25 -2.196,0.042c-0.092,1.379 0.412,1.971 1.287,3.487c2.1,-0.729 1.367,-1.471 0.909,-3.529m2.1,-6.646c-0,1.13 0.416,1.625 1.191,2.896c0.417,-0.233 0.867,-0.483 1.325,-0.692c0,-2.454 -0.654,-3.008 -2.516,-2.204m-7.767,-13.633c0.142,1.683 0.329,1.929 1.642,3.65c0.416,-0.246 0.875,-0.492 1.325,-0.696c-0,-3.196 -0.45,-3.925 -2.967,-2.954m10.471,-4.917c1.683,-2.158 1.641,-1.808 0.546,-3.591c-0.6,-0.046 -1.146,-0.046 -1.696,-0.046c-0.909,2.121 -1.05,1.579 0.229,3.637l0.921,0Zm18.175,-37.133c0.791,0.362 1.146,1.417 0.516,3.3c-0.362,0.15 -0.687,0.292 -1.004,0.479c-2.154,-0.229 -2.562,-1.471 -2.287,-3.192c0.658,-0.441 1.321,-0.687 1.896,-0.729c-0.571,-0.029 -1.238,0.046 -2.03,0.288c-0.633,2.116 -0.041,3.633 2.234,3.987c2.508,-0.666 2.796,-3.441 0.675,-4.133m-0.879,-0.142c0.325,0.017 0.625,0.059 0.879,0.142c-0.254,-0.117 -0.55,-0.167 -0.879,-0.142m100.72,79.134c4.805,-0.888 10.196,-4.084 14.18,-7.525c-8.146,-2.654 -15.184,-6.092 -22.588,-9.538c-4.704,-3.787 -14.025,-10.425 -19.7,-10.425c3.292,10.617 18.658,24.788 28.108,27.488m-23.262,-22.971c-1.05,-1.279 -2.65,-2.554 -2.967,-3.242c4.429,0 12.771,6.709 15.9,8.688c2.217,1.4 2.709,1.733 5.446,3.062c5.946,1.621 11.117,6.579 17.813,7.034c-2.892,-0.196 -9.805,5.104 -12.596,5.104c-3.159,-0.346 -10.788,-3.721 -11.342,-5.784c-4.425,-5.954 -10.842,-7.087 -12.254,-14.862m-96.725,29.517c-6.9,0.887 -13.663,2.754 -19.604,6.05c-0,0.395 0.504,0.883 0.912,1.479c3.838,-0.792 13.663,-4.671 17.229,-3.938c3.3,3.738 5.755,5.954 10.059,9.046c8.729,3.108 12.162,-6.096 18.279,-6.096c13.217,14.217 12.296,7.875 28.121,1.234c0.179,-0.055 11.466,8.304 17,8.804c6.171,-0.442 9.921,-6 15.996,-6c12.295,5.216 14.125,4.471 25.412,-2.804c6.629,-1.917 14.317,3.591 22.863,0.687c-0.1,-0.25 -0.188,-0.446 -0.275,-0.637c-8.05,-0.938 -16.275,-3.988 -23.955,-3.738c-7.862,6.738 -12.937,10.671 -21.987,4.321c0.046,-0.092 0.087,-0.146 0.142,-0.196c-0.055,-0.042 -0.096,-0.096 -0.096,-0.142c-0.175,0 -0.363,0 -0.504,0.046c-3.43,-3.683 -3.975,-2.208 -7.621,-0.254c-9.154,8.717 -15.684,7.246 -23.321,-1.954c-9.096,-6.792 -14.254,13.767 -27.058,2.062c-5.538,-6.195 -4.617,-5.858 -11.934,-0.979c-10.283,5.704 -12.841,0.784 -19.658,-6.991m-11.888,13.579c12.534,-1.963 7.68,-4.621 18.88,3.737c7.5,3.742 10.512,-0.491 18.516,-1.966c5.809,4.962 12.8,6.391 20.567,5.945c10.925,-6.645 7.229,-5.9 17.008,1.58c0.963,0.491 2.417,0.445 3.654,1.32c7.359,0 10.555,-0.533 16.913,-5.016c6.717,-3.246 13.85,4.141 23.542,0.158c7.866,-3.65 11.379,-2.712 20.025,-2.904c-0.05,-0.688 -0.096,-1.383 -0.096,-2.017c-13.388,-2.362 -11.925,-4.679 -22.217,2.559c-9.187,4.025 -14.942,-4.63 -22.579,-1.138c-15.083,11.067 -15.083,0.346 -28.792,-2.408c-9.375,4.529 -11.521,6.45 -21.491,2.158c-1.917,-1.325 -5.209,-4.221 -6.763,-4.525c-11.112,4.479 -13.017,8.071 -22.721,0.392c-4.2,-2.992 -13.529,-4.771 -14.446,2.125m25.88,8.95c0.27,0.541 0.545,1.087 0.862,1.666c2.471,0 3.938,-0.145 6.629,-1.075c0.096,0.096 0.188,0.2 0.275,0.35c6.954,0 8.004,1.717 14.721,3.679c5.438,1.134 11.658,-2.266 17.275,-2.804c6.725,2.559 8.508,3.984 16.779,4.921c5.209,-0.15 8.409,-0.687 13.346,-3.442c5.538,-2.558 7.225,1.53 14.408,0.296c0.221,-0.495 0.45,-0.933 0.721,-1.383c-4.8,-1.667 -14.533,-6.438 -17.646,-0.688c-5.754,2.855 -12.57,3.013 -18.466,1.775c-3.521,-1.629 -5.754,-4.529 -9.188,-4.529c-5.296,1.384 -14.579,5.809 -19.283,1.721c-10.746,-5.258 -9.192,-4.375 -20.433,-0.487m30.712,7.583c-0.137,0.433 -0.358,1.371 -0.775,1.808c1.783,2.909 7.133,-0.483 9.004,-1.52c2.921,-0 5.984,1.67 9.284,2.904c0.316,-0.146 0.679,-0.992 0.908,-1.429c-7.217,-5.705 -10.15,-3.446 -18.421,-1.763" style="fill:#00404e;fill-rule:nonzero;"/><path d="M201.153,363.449c1.675,0.537 3.379,1.3 4.612,2.129l-1.687,5.271l-2.083,-0.671c-0.15,-0.954 -0.213,-2.063 -0.159,-2.879c-0.504,-0.492 -1.371,-1.059 -2.504,-1.421c-1.425,-0.454 -2.804,-0.279 -3.3,1.267c-1.179,3.687 8.075,5.129 6.158,11.12c-0.991,3.096 -4.508,4.621 -9.375,3.063c-1.42,-0.458 -3.095,-1.213 -4.275,-1.879l1.625,-5.071l2.055,0.658c0.166,0.996 0.241,2.184 0.166,2.959c0.346,0.329 1.213,0.787 1.971,1.029c1.579,0.504 2.746,0.116 3.179,-1.234c1.075,-3.358 -8.2,-5.166 -6.325,-11.029c1.034,-3.225 4.825,-4.95 9.942,-3.312" style="fill:#00404e;fill-rule:nonzero;"/><path d="M186.003,358.038l-0.842,1.508c-0.921,0.079 -1.921,0.038 -2.837,-0.158l-6.342,11.346c0.604,0.616 1.208,1.504 1.638,2.3l-0.825,1.479l-8.367,-4.675l0.825,-1.479c0.904,-0.05 1.979,-0.004 2.821,0.187l6.341,-11.346c-0.645,-0.675 -1.208,-1.504 -1.62,-2.329l0.841,-1.508l8.367,4.675Z" style="fill:#00404e;fill-rule:nonzero;"/><path d="M153.867,342.465l3.896,-4.021c2.392,0.725 4.875,2.121 7.017,4.196c4.287,4.154 4.379,9.445 0.508,13.441c-4.329,4.471 -10.196,4.421 -15.171,-0.404c-1.454,-1.408 -2.904,-3.15 -3.925,-4.767l3.871,-3.995l1.596,1.545c-0.221,0.942 -0.604,1.867 -1.042,2.65c0.475,0.938 1.213,1.988 2.283,3.03c2.692,2.608 5.925,1.745 8.546,-0.959c2.529,-2.608 3.071,-6.125 0.213,-8.891c-0.617,-0.6 -1.284,-1.155 -1.954,-1.513l-2.671,2.758c0.333,0.609 0.566,1.463 0.754,2.221l-1.154,1.192l-5.809,-5.629l1.155,-1.192c0.595,0.05 1.266,0.121 1.887,0.338" style="fill:#00404e;fill-rule:nonzero;"/><path d="M153.636,330.14l-1.475,0.904c-0.842,-0.379 -1.692,-0.908 -2.396,-1.529l-11.083,6.792c0.229,0.833 0.316,1.908 0.304,2.808l-1.446,0.888l-5.008,-8.171l1.446,-0.884c0.812,0.396 1.729,0.963 2.366,1.542l11.083,-6.792c-0.233,-0.908 -0.316,-1.904 -0.27,-2.825l1.471,-0.904l5.008,8.171Z" style="fill:#00404e;fill-rule:nonzero;"/><path d="M144.906,314.634l-1.616,0.613c-0.713,-0.509 -1.48,-1.175 -2.067,-1.946l-12.154,4.608c0.066,0.863 -0.034,1.963 -0.229,2.817l-1.584,0.6l-3.396,-8.959l1.584,-0.599c0.708,0.508 1.529,1.3 2.037,1.958l12.413,-4.709l-1.604,-3.933c-0.792,0.054 -2.013,0.054 -3.071,-0.004l-0.775,-2.046l5.3,-2.012l5.162,13.612Z" style="fill:#00404e;fill-rule:nonzero;"/><path d="M137.651,293.252l-1.692,0.354c-0.625,-0.617 -1.279,-1.396 -1.742,-2.246l-12.72,2.654c-0.067,0.863 -0.342,1.933 -0.663,2.75l-1.658,0.346l-1.959,-9.383l1.659,-0.35c0.621,0.616 1.304,1.525 1.704,2.254l12.996,-2.713l-0.967,-4.133c-0.792,-0.071 -2,-0.263 -3.033,-0.488l-0.446,-2.141l5.55,-1.159l2.971,14.255Z" style="fill:#00404e;fill-rule:nonzero;"/><path d="M116.123,255.165l8.442,-0.696c5.171,-0.412 8.104,2.629 8.525,7.521c0.512,5.946 -2.342,8.258 -6.513,8.617l-9.058,0.783c-0.187,0.613 -0.675,1.421 -1.046,1.921l-1.687,0.146l-0.729,-8.43l1.687,-0.141c0.508,0.621 1.088,1.337 1.396,2.075l8.333,-0.721c3.138,-0.267 4.9,-1.521 4.613,-4.858c-0.229,-2.709 -1.967,-3.921 -4.788,-3.646l-8.879,0.867c-0.142,0.775 -0.658,1.62 -1.017,2.283l-1.687,0.146l-0.646,-7.467l1.688,-0.146c0.458,0.458 1.104,1.138 1.366,1.746" style="fill:#00404e;fill-rule:nonzero;"/><path d="M131.874,225.315l-1.729,-0.033c-0.508,-0.571 -1.046,-1.346 -1.171,-2.009l-10.854,1.559l0,0.033l13.667,5.092l-0.054,3.083l-14.025,4.817l-0,0.033l10.9,1.329c0.325,-0.758 0.82,-1.412 1.316,-1.966l1.729,0.033l-0.129,7.025l-1.729,-0.029c-0.408,-0.471 -0.846,-1.013 -1.183,-1.579l-12.992,-2.396c-0.325,0.791 -0.787,1.546 -1.25,2.233l-1.696,-0.033l0.138,-7.425l12.5,-4.479l-0,-0.067l-12.329,-4.738l0.137,-7.429l1.729,0.034c0.404,0.704 0.875,1.441 1.134,2.308l13.079,-2.246c0.287,-0.525 0.746,-1.083 1.237,-1.504l1.729,0.033l-0.154,8.321Z" style="fill:#00404e;fill-rule:nonzero;"/><path d="M125.422,203.221c-0.171,1.417 -1.471,2.396 -2.946,2.221c-1.479,-0.179 -2.512,-1.437 -2.341,-2.854c0.17,-1.417 1.475,-2.429 2.95,-2.25c1.479,0.175 2.508,1.467 2.337,2.883" style="fill:#00404e;fill-rule:nonzero;"/><path d="M123.743,170.745l8.229,2.009c5.033,1.246 6.854,5.058 5.708,9.833c-1.391,5.804 -4.829,7.092 -8.895,6.117l-8.842,-2.125c-0.375,0.525 -1.088,1.137 -1.6,1.491l-1.646,-0.395l1.971,-8.221l1.646,0.396c0.283,0.75 0.608,1.612 0.666,2.408l8.134,1.954c3.058,0.733 5.129,0.104 5.912,-3.15c0.634,-2.646 -0.629,-4.346 -3.391,-4.979l-8.696,-1.983c-0.379,0.691 -1.138,1.329 -1.688,1.845l-1.646,-0.395l1.746,-7.288l1.65,0.396c0.288,0.579 0.688,1.425 0.742,2.087" style="fill:#00404e;fill-rule:nonzero;"/><path d="M137.21,139.257l14.325,7.288l-1.791,3.516l-16.884,2.167l10.021,4.467c0.579,-0.525 1.309,-0.975 2.15,-1.475l1.538,0.783l-3.654,7.183l-1.538,-0.783c-0.087,-0.975 -0.146,-1.933 -0.029,-2.696l-11.479,-6.025c-0.634,0.646 -1.459,1.192 -2.267,1.713l-1.508,-0.767l3.4,-6.683l15.062,-1.938l-8.758,-3.971c-0.546,0.542 -1.296,0.942 -2.058,1.296l-1.509,-0.767l3.204,-6.295l1.509,0.766c0.146,0.784 0.291,1.488 0.266,2.221" style="fill:#00404e;fill-rule:nonzero;"/><path d="M158.433,136.972l-1.279,-1.163c0.133,-0.916 0.404,-1.879 0.8,-2.729l-9.604,-8.754c-0.738,0.45 -1.746,0.833 -2.617,1.071l-1.25,-1.142l6.454,-7.083l1.254,1.141c-0.158,0.892 -0.446,1.925 -0.825,2.705l9.604,8.754c0.809,-0.475 1.746,-0.834 2.642,-1.05l1.279,1.166l-6.458,7.084Z" style="fill:#00404e;fill-rule:nonzero;"/><path d="M178.929,100.202l3.054,17.05l-3.483,2.121l-13.804,-10.533c-0.55,0.05 -1.196,-0.121 -1.838,-0.217l-0.883,-1.446l7.108,-4.333l0.884,1.446c-0.309,0.712 -0.646,1.366 -1.117,2.058l9.704,7.567l0.054,-0.034l-2.821,-11.762c-0.691,0.137 -1.633,0.062 -2.341,0.05l-0.879,-1.446l6.058,-3.696l0.883,1.446c-0.145,0.533 -0.27,1.217 -0.579,1.729" style="fill:#00404e;fill-rule:nonzero;"/><path d="M197.473,109.729l-0.475,-1.662c0.579,-0.634 1.3,-1.375 2.117,-1.896l-3.546,-12.467c-0.875,-0.042 -1.983,-0.3 -2.8,-0.5l-0.462,-1.629l13.779,-3.921l1.308,4.588l-2.075,0.591c-0.512,-0.466 -1.266,-1.295 -1.612,-1.912l-3.959,1.125l1.509,5.283l3.25,-0.925c0.041,-0.587 0.304,-1.233 0.487,-1.683l1.725,-0.488l1.475,5.184l-1.725,0.491c-0.366,-0.325 -1.016,-0.787 -1.316,-1.241l-3.255,0.925l1.638,5.754l3.954,-1.129c-0.025,-0.817 0.167,-1.842 0.358,-2.617l2.105,-0.6l1.362,4.788l-13.842,3.941Z" style="fill:#00404e;fill-rule:nonzero;"/><path d="M239.629,102.255l-0.246,-2.025c-2.512,0.566 -2.816,-6.35 -6.066,-6.55c2.45,-0.909 3.82,-2.73 3.62,-5.038c-0.32,-3.65 -3.029,-4.942 -7.82,-4.521c-2.646,0.234 -5.771,0.646 -6.534,0.713l-2.346,0.204l0.15,1.687c0.8,0.384 1.734,0.788 2.65,0.984l1.138,12.95c-0.933,0.362 -1.817,0.925 -2.438,1.462l0.15,1.725l8.925,-0.783l-0.154,-1.721c-0.596,-0.367 -1.371,-0.854 -2.121,-1.067l-0.425,-4.82l1.059,-0.092c3.237,-0.283 3.183,7.842 7.479,7.467c1.025,-0.092 2.175,-0.263 2.979,-0.575m-10.225,-9.517l-1.517,0.133l-0.508,-5.787c0.325,-0.096 0.913,-0.184 1.179,-0.204c2.479,-0.221 3.763,0.745 3.934,2.708c0.137,1.583 -0.709,2.942 -3.088,3.15" style="fill:#00404e;fill-rule:nonzero;"/><path d="M255.305,102.929c-1.754,-0.083 -3.6,-0.375 -5.008,-0.854l0.258,-5.525l2.188,0.1c0.391,0.883 0.737,1.938 0.9,2.742c0.616,0.337 1.595,0.662 2.787,0.716c1.492,0.071 2.779,-0.458 2.854,-2.083c0.179,-3.867 -9.129,-2.846 -8.837,-9.129c0.154,-3.25 3.154,-5.638 8.254,-5.4c1.492,0.071 3.304,0.362 4.612,0.7l-0.245,5.317l-2.155,-0.1c-0.421,-0.917 -0.8,-2.042 -0.929,-2.809c-0.421,-0.229 -1.375,-0.446 -2.171,-0.483c-1.654,-0.075 -2.683,0.604 -2.75,2.017c-0.162,3.525 9.263,2.854 8.975,9c-0.158,3.387 -3.366,6.041 -8.733,5.791" style="fill:#00404e;fill-rule:nonzero;"/><path d="M273.9,104.164l0.309,-1.7c0.841,-0.375 1.804,-0.659 2.737,-0.771l2.321,-12.788c-0.771,-0.387 -1.633,-1.037 -2.296,-1.65l0.304,-1.666l9.43,1.716l-0.305,1.667c-0.837,0.338 -1.87,0.642 -2.729,0.733l-2.325,12.792c0.834,0.429 1.634,1.033 2.292,1.679l-0.308,1.7l-9.43,-1.712Z" style="fill:#00404e;fill-rule:nonzero;"/><path d="M312.314,101.6c-0.054,-1.025 -0.121,-2.392 0.008,-3.346l-2.958,-1.175l-4.916,12.366c0.725,0.513 1.395,1.338 1.941,2.113l-0.637,1.608l-8.938,-3.554l0.638,-1.608c0.962,-0.175 1.987,-0.325 2.866,-0.2l4.917,-12.367l-2.958,-1.179c-0.517,0.762 -1.571,1.796 -2.292,2.437l-1.908,-0.758l2.108,-5.3l16.179,6.433l-2.108,5.3l-1.942,-0.77Z" style="fill:#00404e;fill-rule:nonzero;"/><path d="M337.329,110.684l-3.787,-2.962l-14.671,9.025c-0.588,-0.109 -1.342,-0.171 -1.988,-0.15l-1.062,1.362l5.512,4.309l1.063,-1.363c-0.188,-0.675 -0.429,-1.387 -0.833,-2.054l1.97,-1.179l5.359,4.187l-0.667,2.196c-0.717,-0.208 -1.521,-0.312 -2.221,-0.333l-1.066,1.362l6.562,5.125l1.063,-1.362c-0.08,-0.542 -0.288,-1.188 -0.521,-1.809l5.287,-16.354Zm-4.875,1.017c-0.308,0.767 -0.633,1.562 -0.904,2.45l-1.742,5.35l-4.233,-3.308l4.904,-3.096c0.746,-0.471 1.392,-0.975 1.946,-1.417l0.029,0.021Z" style="fill:#00404e;fill-rule:nonzero;"/><path d="M355.827,140.7c0.52,-0.888 1.221,-2.059 1.858,-2.784l-1.817,-2.612l-10.937,7.583c0.321,0.829 0.425,1.888 0.454,2.838l-1.421,0.983l-5.483,-7.9l1.421,-0.988c0.9,0.388 1.837,0.83 2.495,1.417l10.938,-7.583l-1.813,-2.617c-0.854,0.346 -2.3,0.625 -3.258,0.763l-1.171,-1.688l4.688,-3.25l9.925,14.304l-4.688,3.25l-1.191,-1.716Z" style="fill:#00404e;fill-rule:nonzero;"/><path d="M350.419,158.97l1.604,-0.642c0.767,0.517 1.517,1.179 2.105,1.908l12.066,-4.829c-0.083,-0.858 0.013,-1.929 0.175,-2.817l1.575,-0.629l3.559,8.896l-1.571,0.629c-0.734,-0.529 -1.542,-1.241 -2.071,-1.921l-12.071,4.825c0.075,0.938 -0.008,1.934 -0.204,2.834l-1.604,0.641l-3.563,-8.895Z" style="fill:#00404e;fill-rule:nonzero;"/><path d="M357.996,183.227c-0.392,-1.713 -0.6,-3.571 -0.513,-5.055l5.396,-1.225l0.488,2.134c-0.75,0.612 -1.671,1.229 -2.404,1.6c-0.163,0.683 -0.213,1.716 0.054,2.879c0.329,1.454 1.183,2.554 2.766,2.192c3.775,-0.859 0.309,-9.555 6.446,-10.95c3.167,-0.721 6.267,1.533 7.4,6.512c0.334,1.454 0.534,3.279 0.559,4.633l-5.192,1.18l-0.479,-2.1c0.775,-0.655 1.758,-1.317 2.462,-1.65c0.108,-0.467 0.063,-1.442 -0.112,-2.217c-0.371,-1.617 -1.296,-2.425 -2.679,-2.113c-3.442,0.784 -0.28,9.688 -6.28,11.055c-3.308,0.75 -6.721,-1.638 -7.912,-6.875" style="fill:#00404e;fill-rule:nonzero;"/><path d="M370.136,203.222c-0.171,-1.417 0.863,-2.675 2.338,-2.854c1.479,-0.175 2.779,0.804 2.95,2.22c0.171,1.417 -0.859,2.709 -2.338,2.884c-1.475,0.179 -2.779,-0.834 -2.95,-2.25" style="fill:#00404e;fill-rule:nonzero;"/><path d="M363.273,216.618l1.725,-0.075c0.517,0.708 1.038,1.583 1.354,2.5l12.984,-0.55c0.208,-0.838 0.65,-1.854 1.104,-2.604l1.692,-0.071l0.404,9.575l-1.692,0.071c-0.517,-0.709 -1.041,-1.713 -1.317,-2.5l-13.262,0.562l0.283,4.238c0.767,0.2 1.925,0.583 2.913,0.971l0.091,2.187l-5.662,0.242l-0.617,-14.546Z" style="fill:#00404e;fill-rule:nonzero;"/><path d="M379.186,258.372l-8.458,-0.387c-5.18,-0.255 -7.705,-3.646 -7.496,-8.55c0.25,-5.963 3.375,-7.888 7.554,-7.713l9.083,0.383c0.267,-0.587 0.85,-1.329 1.288,-1.775l1.691,0.071l-0.354,8.45l-1.696,-0.071c-0.42,-0.679 -0.904,-1.466 -1.116,-2.237l-8.359,-0.35c-3.141,-0.133 -5.05,0.879 -5.191,4.229c-0.117,2.717 1.45,4.142 4.283,4.229l8.917,0.275c0.237,-0.754 0.858,-1.525 1.3,-2.137l1.691,0.071l-0.312,7.491l-1.692,-0.071c-0.396,-0.516 -0.954,-1.27 -1.133,-1.908" style="fill:#00404e;fill-rule:nonzero;"/><path d="M380.82,272.093l-1.671,-0.279c-0.609,0.704 -1.246,1.571 -1.617,2.316l-12.821,-2.145c-0.125,-0.93 -0.421,-1.888 -0.804,-2.725l-1.708,-0.288l-0.425,2.554c-0.425,2.517 -0.871,4.763 -1.134,6.334c-1.079,6.441 1.625,9.35 4.488,9.829c2.046,0.346 4.225,-0.738 5.05,-3.559c0.2,2.355 1.637,3.605 3.379,3.896c3.067,0.513 4.988,-1.516 5.804,-6.391c0.404,-2.421 0.775,-5.455 1.042,-7.055l0.417,-2.487Zm-11.375,5.121l-0.275,1.637c-0.48,2.846 -1.734,4.484 -3.642,4.163c-1.604,-0.267 -2.821,-1.579 -2.4,-4.1c0.192,-1.146 0.483,-2.038 0.792,-2.625l5.525,0.925Zm7.737,1.3c-0.037,0.662 -0.137,1.254 -0.275,2.071c-0.412,2.454 -1.754,3.137 -3.321,2.875c-1.571,-0.267 -2.587,-1.309 -2.125,-4.059c0.113,-0.683 0.217,-1.308 0.334,-1.791l5.387,0.904Z" style="fill:#00404e;fill-rule:nonzero;"/><path d="M357.071,295.24l1.638,0.554c0.191,0.834 0.396,1.85 0.358,2.817l12.283,4.158c0.53,-0.7 1.371,-1.462 1.996,-2.021l1.609,0.542l-4.596,13.571l-4.521,-1.529l0.692,-2.042c0.675,-0.158 1.783,-0.308 2.491,-0.242l1.317,-3.895l-5.204,-1.763l-1.088,3.204c0.463,0.367 0.846,0.95 1.113,1.354l-0.575,1.7l-5.109,-1.729l0.575,-1.7c0.475,-0.117 1.225,-0.387 1.771,-0.379l1.084,-3.204l-5.663,-1.917l-1.321,3.896c0.688,0.442 1.425,1.179 1.95,1.779l-0.7,2.075l-4.716,-1.596l4.616,-13.633Z" style="fill:#00404e;fill-rule:nonzero;"/><path d="M343.5,325.531c3.292,-5.45 7.742,-6.6 12.713,-3.596c5.829,3.521 6.787,9.021 3.754,14.046c-1.134,1.875 -2.279,3.238 -3.275,4.221l-5.329,-3.217l1.166,-1.929c1.071,0.1 2.233,0.379 3.121,0.721c0.621,-0.362 1.296,-1.079 1.808,-1.929c1.492,-2.471 0.421,-5.171 -3.162,-7.333c-3.4,-2.059 -6.358,-1.442 -8.571,2.22c-0.704,1.163 -1.271,2.642 -1.437,4.05l-2.588,-0.862c-0.071,-2.021 0.55,-4.321 1.8,-6.392" style="fill:#00404e;fill-rule:nonzero;"/><path d="M334.99,337.939l1.187,1.258c-0.225,0.825 -0.521,1.817 -1.004,2.658l8.896,9.43c0.791,-0.367 1.896,-0.65 2.712,-0.846l1.163,1.229l-10.425,9.833l-3.275,-3.471l1.571,-1.479c0.666,0.175 1.716,0.567 2.312,0.954l2.992,-2.82l-3.771,-4l-2.463,2.32c0.238,0.538 0.3,1.238 0.346,1.721l-1.304,1.229l-3.7,-3.925l1.304,-1.229c0.475,0.121 1.267,0.234 1.742,0.496l2.462,-2.321l-4.104,-4.35l-2.991,2.821c0.4,0.713 0.704,1.713 0.887,2.488l-1.592,1.504l-3.416,-3.625l10.471,-9.875Z" style="fill:#00404e;fill-rule:nonzero;"/><path d="M307.524,375.839l-7.067,-14.438l3.546,-1.733l14.792,8.421l-5.321,-9.596c-0.779,0.075 -1.629,-0.008 -2.604,-0.108l-0.758,-1.555l7.237,-3.541l0.758,1.55c-0.516,0.829 -1.045,1.629 -1.595,2.166l5.55,11.717c0.896,-0.129 1.883,-0.075 2.841,-0.004l0.742,1.521l-6.729,3.296l-13.204,-7.509l4.612,8.442c0.763,-0.104 1.6,0.025 2.425,0.2l0.742,1.521l-6.342,3.104l-0.746,-1.521c0.354,-0.712 0.663,-1.362 1.121,-1.933" style="fill:#00404e;fill-rule:nonzero;"/><path d="M284.863,365.553c1.717,-0.38 3.575,-0.58 5.055,-0.484l1.195,5.4l-2.133,0.475c-0.608,-0.754 -1.221,-1.679 -1.587,-2.412c-0.684,-0.167 -1.713,-0.221 -2.88,0.037c-1.458,0.325 -2.558,1.171 -2.208,2.754c0.838,3.779 9.554,0.363 10.917,6.504c0.704,3.171 -1.567,6.259 -6.554,7.363c-1.459,0.325 -3.284,0.517 -4.638,0.533l-1.15,-5.196l2.104,-0.466c0.646,0.775 1.309,1.762 1.634,2.471c0.466,0.108 1.441,0.066 2.22,-0.105c1.617,-0.358 2.434,-1.283 2.125,-2.666c-0.762,-3.442 -9.687,-0.329 -11.016,-6.338c-0.734,-3.308 1.671,-6.708 6.916,-7.87" style="fill:#00404e;fill-rule:nonzero;"/><path d="M267.738,368.87l0.137,1.725c-0.717,0.575 -1.575,1.095 -2.446,1.445l1.042,12.955c0.846,0.175 1.846,0.583 2.646,1.004l0.133,1.687l-9.554,0.771l-0.133,-1.692c0.72,-0.541 1.641,-1.1 2.445,-1.408l-1.041,-12.958c-0.913,-0.204 -1.846,-0.584 -2.646,-1.038l-0.138,-1.725l9.555,-0.766Z" style="fill:#00404e;fill-rule:nonzero;"/><path d="M243.154,369.459c1.758,0.042 3.608,0.296 5.025,0.746l-0.134,5.529l-2.191,-0.054c-0.409,-0.875 -0.784,-1.921 -0.963,-2.721c-0.621,-0.325 -1.608,-0.625 -2.804,-0.654c-1.492,-0.038 -2.762,0.517 -2.804,2.142c-0.096,3.87 9.192,2.645 9.037,8.933c-0.079,3.25 -3.025,5.704 -8.129,5.579c-1.491,-0.037 -3.312,-0.292 -4.629,-0.6l0.129,-5.321l2.154,0.055c0.442,0.908 0.846,2.025 0.996,2.787c0.425,0.221 1.379,0.417 2.175,0.438c1.659,0.037 2.671,-0.663 2.709,-2.08c0.083,-3.525 -9.325,-2.65 -9.175,-8.8c0.083,-3.387 3.233,-6.112 8.604,-5.979" style="fill:#00404e;fill-rule:nonzero;"/><path d="M219.441,376.175c1.412,0.204 2.358,1.529 2.15,3c-0.217,1.47 -1.5,2.47 -2.908,2.27c-1.413,-0.204 -2.396,-1.533 -2.184,-3.004c0.213,-1.475 1.529,-2.471 2.942,-2.266" style="fill:#00404e;fill-rule:nonzero;"/><path d="M458.386,261.237l0,-19.317l-6.054,0l0,19.655c0,4.562 -2.45,7.062 -7.067,7.062c-5.045,0 -7.495,-2.354 -7.495,-7.062l-0,-19.655l-6.005,0l0,19.317c0,5.817 1.055,8.458 4.325,10.717c2.4,1.633 4.996,2.308 8.984,2.308c3.941,0 6.633,-0.721 8.937,-2.308c3.317,-2.309 4.375,-4.9 4.375,-10.717m40.229,12.688l0,-32.005l-5.72,0l-0,23.546l-0.288,-0.575l-0.287,-0.821c-0.05,-0.095 -0.146,-0.287 -0.292,-0.62c-0.142,-0.338 -0.288,-0.58 -0.333,-0.675l-13.313,-20.855l-6.967,0l0,31.717l5.767,0l0,-23.262c0.142,0.529 0.238,0.72 0.429,1.108c0.05,0.046 0.196,0.287 0.388,0.671c0.383,0.675 0.575,1.104 0.671,1.25l13.6,20.521l6.345,-0Zm19.5,-32.005l-6.054,0l0,31.717l6.054,0l0,-31.717Zm36.988,0l-6.346,0l-6.917,21.43l-0.195,0.387c-0.096,0.238 -0.142,0.383 -0.142,0.817l0.046,0.337l-0.142,-0.579l-0.096,-0.529l-0.096,-0.433l-7.258,-21.43l-6.633,0l11.775,32.63l4.229,-0l11.775,-32.63Zm29.321,31.717l-0,-5.142l-13.888,0l0,-8.458l10.863,0l-0,-5.142l-10.863,0l0,-7.833l13.263,0l-0,-5.142l-19.317,0l0,31.717l19.942,0Zm34.183,0l-7.883,-13.6c2.646,-0.721 3.75,-1.396 4.95,-2.933c1.154,-1.538 1.729,-3.509 1.729,-5.959c-0,-2.979 -0.863,-5.287 -2.592,-6.87c-1.875,-1.78 -3.991,-2.355 -8.604,-2.355l-10.571,0l0,31.717l6.054,0l0,-12.687l3.03,-0l7.254,12.687l6.633,0Zm-7.45,-22.346c0,3.171 -1.683,4.517 -5.525,4.517l-3.942,-0l0,-8.746l3.942,0c3.942,0 5.525,1.2 5.525,4.229m38.171,-7.258c-2.113,-1.008 -2.979,-1.346 -4.517,-1.825c-1.971,-0.579 -3.846,-0.817 -5.958,-0.817c-3.7,0 -5.671,0.529 -7.979,2.113c-1.009,0.721 -1.825,1.537 -2.354,2.354c-0.767,1.204 -1.25,2.837 -1.25,4.421c-0,3.462 1.729,5.575 7.354,8.796l4.9,2.787c2.066,1.154 2.787,2.067 2.787,3.413c0,1.92 -1.825,3.17 -4.612,3.17c-1.25,0 -2.979,-0.337 -4.567,-0.912c-1.25,-0.479 -2.208,-0.963 -4.517,-2.213l-2.545,5.575c0.912,0.434 1.633,0.771 2.066,0.963c3.317,1.537 4.371,1.921 6.629,2.208c0.917,0.146 1.875,0.196 2.838,0.196c7.017,0 11.15,-3.317 11.15,-8.987c-0,-2.213 -0.817,-4.325 -2.163,-5.671c-1.491,-1.492 -4.662,-3.509 -9.516,-6.104c-2.259,-1.2 -3.029,-2.017 -3.029,-3.363c-0,-1.779 1.829,-2.933 4.662,-2.933c2.117,-0 4.854,0.771 8.217,2.258l2.404,-5.429Zm16.862,-2.113l-6.054,0l0,31.717l6.054,0l0,-31.717Zm34.442,5.142l0,-5.142l-25.083,0l-0,5.142l9.512,0l0,26.575l6.054,0l0,-26.575l9.517,0Zm23.754,-8.362c0,-1.492 -1.204,-2.646 -2.646,-2.646c-1.441,-0 -2.591,1.154 -2.591,2.646c-0,1.441 1.15,2.595 2.591,2.595c1.442,0 2.646,-1.154 2.646,-2.595m-7.929,-0.146c0,-1.442 -1.154,-2.596 -2.596,-2.596c-1.441,-0 -2.641,1.154 -2.641,2.596c-0,1.441 1.2,2.646 2.641,2.646c1.442,-0 2.596,-1.205 2.596,-2.646m15.329,35.083l-11.487,-31.717l-5.429,0l-11.484,31.717l6.342,0l2.596,-7.833l10.621,-0l2.495,7.833l6.346,0Zm-10.475,-12.975l-7.354,0l3.654,-11.487l3.7,11.487Zm38.313,-13.6l-0,-5.142l-25.084,0l0,5.142l9.513,0l-0,26.575l6.054,0l0,-26.575l9.517,0Zm51.083,26.575l0,-5.142l-16.917,0l16.917,-22.637l0,-3.938l-25.087,0l-0,5.142l16.916,0l-17.204,22.633l0,3.942l25.375,0Zm36.742,-12.4l-0,-19.317l-6.054,0l-0,19.655c-0,4.562 -2.45,7.062 -7.067,7.062c-5.046,0 -7.496,-2.354 -7.496,-7.062l0,-19.655l-6.004,0l-0,19.317c-0,5.817 1.054,8.458 4.325,10.717c2.4,1.633 4.996,2.308 8.983,2.308c3.942,0 6.634,-0.721 8.942,-2.308c3.312,-2.309 4.371,-4.9 4.371,-10.717m50.412,12.4l0,-5.142l-12.975,0l0,-26.575l-6.058,0l-0,31.717l19.033,0Zm29.246,-34.937c0,-1.492 -1.204,-2.646 -2.646,-2.646c-1.441,-0 -2.591,1.154 -2.591,2.646c-0,1.441 1.15,2.595 2.591,2.595c1.442,0 2.646,-1.154 2.646,-2.595m-9.804,-0.05c-0,-1.442 -1.154,-2.642 -2.642,-2.642c-1.441,-0 -2.596,1.2 -2.596,2.642c0,1.441 1.155,2.595 2.596,2.595c1.488,0 2.642,-1.154 2.642,-2.595m15.808,22.587l0,-19.317l-6.054,0l0,19.655c0,4.562 -2.45,7.062 -7.062,7.062c-5.046,0 -7.496,-2.354 -7.496,-7.062l-0,-19.655l-6.009,0l0,19.317c0,5.817 1.059,8.458 4.325,10.717c2.405,1.633 4.996,2.308 8.988,2.308c3.937,0 6.629,-0.721 8.937,-2.308c3.317,-2.309 4.371,-4.9 4.371,-10.717m35.475,3.942c0,-4.95 -3.025,-8.075 -7.833,-8.171c2.5,-0.146 3.796,-0.721 5.192,-2.308c1.154,-1.342 1.825,-3.217 1.825,-4.996c-0,-2.067 -0.963,-4.325 -2.5,-5.671c-1.73,-1.588 -3.796,-2.113 -7.93,-2.113l-11.483,0l0,31.717l12.925,0c6.346,0 9.804,-2.979 9.804,-8.458m-7.546,-14.417c0,2.692 -1.825,4.133 -5.237,4.133l-3.604,0l-0,-8.17l3.941,-0c3.075,-0 4.9,1.487 4.9,4.037m0.917,13.742c0,1.633 -0.817,3.029 -2.162,3.7c-0.917,0.433 -1.78,0.579 -3.655,0.579l-3.941,-0l-0,-8.746l3.941,0c3.75,0 5.817,1.583 5.817,4.467m37.946,9.133l-0,-5.142l-13.888,0l0,-8.458l10.863,0l-0,-5.142l-10.863,0l0,-7.833l13.263,0l-0,-5.142l-19.317,0l0,31.717l19.942,0Zm34.879,-29.267c-2.737,-2.066 -5.908,-3.029 -9.946,-3.029c-5.237,0 -8.796,1.3 -11.966,4.421c-3.125,3.075 -4.855,7.258 -4.855,11.871c0,4.95 1.971,9.658 5.334,12.687c2.979,2.692 6.537,3.942 11.487,3.942c1.875,0 3.554,-0.196 5.092,-0.529c1.442,-0.338 2.258,-0.625 4.279,-1.538l-1.108,-5.095c-2.834,1.104 -4.709,1.491 -6.967,1.491c-6.921,0 -11.437,-4.471 -11.437,-11.296c-0,-6.004 4.375,-10.329 10.475,-10.329c2.787,0 5.241,0.721 7.308,2.209l2.304,-4.805Zm33.646,29.267l-11.488,-16.292l10.909,-15.425l-6.967,0l-9.95,14.8l0,-14.8l-6.054,0l-0,31.717l6.054,0l0,-15.092l10.575,15.092l6.921,0Z" style="fill:#00404e;fill-rule:nonzero;"/></svg>