<?xml version="1.0" encoding="UTF-8" standalone="no"?>
<!DOCTYPE svg PUBLIC "-//W3C//DTD SVG 1.1//EN" "http://www.w3.org/Graphics/SVG/1.1/DTD/svg11.dtd">
<svg width="100%" height="100%" viewBox="0 0 2732 2048" version="1.1" xmlns="http://www.w3.org/2000/svg" xmlns:xlink="http://www.w3.org/1999/xlink" xml:space="preserve" xmlns:serif="http://www.serif.com/" style="fill-rule:evenodd;clip-rule:evenodd;stroke-linejoin:round;stroke-miterlimit:2;">
    <path d="M1703.33,356.278C1673.11,377.435 1783.24,394.05 1790.76,417.299C1803.68,457.248 1493.2,726.044 1521,752.543C1535.69,766.553 1566.82,766.386 1585.46,771.062C1623.8,780.681 1691.18,814.257 1703.33,856.254C1707.36,870.184 1703.46,888.142 1701.35,902.051C1686.93,996.931 1623.4,1010.73 1596.9,1089.25C1570.4,1167.77 1611.82,1326.69 1697.78,1359.99C1721.74,1369.27 1779.93,1355.16 1804.05,1361.61C1843.13,1372.07 1867.21,1374.6 1904.69,1347.01C1928.67,1329.35 1795.23,1316.78 1840.56,1252.54C1860.63,1224.1 1889.34,1203.29 1915.73,1178.94C1931.97,1163.94 1947.33,1147.6 1959.26,1127.31C1997.67,1061.96 2141.82,1017.57 2172.43,949.357C2195.41,898.129 2217.45,610.066 2206.91,554.82C2184.62,437.971 2078.02,396.254 1999.63,338.165C1920.86,279.788 1908.41,153.733 1804.05,100.377C1723.95,59.432 1619.5,78.353 1537.16,102.171C1517.53,107.848 1498.68,119.879 1479.14,123.253C1414.7,134.375 1346.2,110.524 1281.52,111.905C1248.49,112.611 1216.25,119.833 1183.68,124.443C1128.42,132.267 1062.19,144.666 1015.97,178.687C958.637,220.891 877.618,283.522 906.833,363.929C924.994,413.914 1000.27,430.155 959.352,510.203C936.836,554.246 898.011,589.305 866.854,626.959C810.626,694.911 758.2,769.772 736.071,856.254C728.593,885.475 717.079,919.045 725.657,949.357C746.119,1021.66 885.525,937.787 928.337,1017.54C955.469,1068.08 893.58,1214.16 926.312,1243.98C949.177,1264.81 990.311,1255.82 1016.64,1272.66C1036.36,1285.27 1043.21,1308.09 1061.49,1321.84C1119.44,1365.41 1200.56,1380.38 1271.37,1383.64C1333.69,1386.5 1339.06,1392.05 1382.84,1347.01C1387.08,1342.64 1408.54,1333.61 1408.75,1332.26" style="fill:rgb(161,53,25);"/>
    <g transform="matrix(1.78539,0,0,1,-465.398,-0.23325)">
        <path d="M1038.29,1201.6L1208.2,1201.6L1208.2,1422.06C1254.57,1488.64 1474.03,1466.94 1474.03,1601.04C1474.03,1754.06 1226.83,1952.87 1125.08,1952.87C1012.74,1952.87 760.243,1754.06 760.243,1601.04C760.243,1460.42 1024.27,1528.26 1024.27,1422.06C1024.27,1405.75 1038.29,1201.6 1038.29,1201.6Z" style="fill:rgb(214,135,89);"/>
    </g>
    <g transform="matrix(1,0,0,1,6.75239,-1.68851)">
        <path d="M1523.94,196.893C1884.02,196.893 1933.49,526.917 1933.49,754.639C1933.49,982.362 1824.04,1304.15 1523.94,1304.15C1223.9,1304.15 1106.85,982.362 1106.85,754.639C1106.85,526.917 1169.32,196.893 1523.94,196.893Z" style="fill:rgb(247,176,141);"/>
    </g>
    <path d="M887.825,905.994C959.352,927.418 1000.14,927.418 1029.86,905.994C1145.75,822.422 1163.81,603.716 1235.47,525.85C1299.83,455.909 1412.91,407.702 1499.13,390.193C1518.98,386.162 1506.56,373.33 1525.24,371.009C1535.82,369.695 1540.45,391.059 1550.44,390.193C1627.21,383.535 1785.13,399.907 1790.76,417.299C1803.68,457.248 1740.36,523.163 1768.15,549.662C1782.84,563.671 1813.97,563.505 1832.61,568.181C1870.95,577.8 2027.63,629.929 1999.63,723.074C1980.19,787.781 1870.55,807.852 1844.05,886.369C1817.55,964.886 1858.97,1123.81 1944.93,1157.11C1968.9,1166.39 1990.41,1159.98 2014.53,1166.44C2053.61,1176.9 2077.69,1179.42 2115.17,1151.83C2139.15,1134.18 2005.71,1121.61 2051.04,1057.37C2083.46,1011.41 2214.51,791.285 2245.12,723.074C2268.11,671.846 2310.55,581.096 2300.02,525.85C2277.73,409.001 2078.02,396.254 1999.63,338.165C1920.86,279.788 1908.41,153.733 1804.05,100.377C1723.95,59.432 1619.5,78.353 1537.16,102.171C1517.53,107.848 1498.68,119.879 1479.14,123.253C1414.7,134.375 1346.2,110.524 1281.52,111.905C1248.49,112.611 1216.25,119.833 1183.68,124.443C1128.42,132.267 1062.19,144.666 1015.97,178.687C958.637,220.891 877.618,283.522 906.833,363.929C924.994,413.914 1000.27,430.155 959.352,510.203C936.836,554.246 898.011,589.305 866.854,626.959C810.626,694.911 758.2,769.772 736.071,856.254C728.593,885.475 717.079,919.045 725.657,949.357C739.756,999.176 833.352,889.679 887.825,905.994Z" style="fill:rgb(188,70,39);"/>
    <g transform="matrix(1.01915,0,0,0.847605,321.187,186.803)">
        <path d="M1379.15,555.646C1444.53,555.646 1457.88,622.794 1457.88,677.437C1457.88,677.437 1423.61,661.246 1371.77,667.947C1334.14,672.81 1301.22,677.437 1301.22,677.437C1301.22,622.794 1324.74,555.646 1379.15,555.646Z" style="fill:white;"/>
        <clipPath id="_clip1">
            <path d="M1379.15,555.646C1444.53,555.646 1457.88,622.794 1457.88,677.437C1457.88,677.437 1423.61,661.246 1371.77,667.947C1334.14,672.81 1301.22,677.437 1301.22,677.437C1301.22,622.794 1324.74,555.646 1379.15,555.646Z"/>
        </clipPath>
        <g clip-path="url(#_clip1)">
            <g transform="matrix(1.35697,0,0,1.65122,-937.183,-565.79)">
                <ellipse cx="1701.35" cy="736.033" rx="29.953" ry="37.4" style="fill:rgb(31,26,23);"/>
            </g>
        </g>
    </g>
    <g transform="matrix(-1.00928,0,0,0.874473,2728.47,174.422)">
        <path d="M1379.15,555.646C1444.53,555.646 1457.88,622.794 1457.88,677.437C1457.88,677.437 1423.61,661.246 1371.77,667.947C1334.14,672.81 1301.22,677.437 1301.22,677.437C1301.22,622.794 1324.74,555.646 1379.15,555.646Z" style="fill:white;"/>
        <clipPath id="_clip2">
            <path d="M1379.15,555.646C1444.53,555.646 1457.88,622.794 1457.88,677.437C1457.88,677.437 1423.61,661.246 1371.77,667.947C1334.14,672.81 1301.22,677.437 1301.22,677.437C1301.22,622.794 1324.74,555.646 1379.15,555.646Z"/>
        </clipPath>
        <g clip-path="url(#_clip2)">
            <g transform="matrix(1.35697,0,0,1.65122,-937.183,-565.79)">
                <ellipse cx="1701.35" cy="736.033" rx="29.953" ry="37.4" style="fill:rgb(31,26,23);"/>
            </g>
        </g>
    </g>
    <g transform="matrix(59.0958,0,0,9.98477,-114330,-7560.98)">
        <ellipse cx="1960.64" cy="847.68" rx="0.955" ry="4.35" style="fill:rgb(205,133,98);fill-opacity:0.25;"/>
    </g>
    <g transform="matrix(1.78539,0,0,1,-465.398,-0.23325)">
        <path d="M1000.66,1601.04C1024.27,1639.18 1058.44,1663.54 1113.03,1670.09C1184.3,1678.65 1226.02,1639.18 1235.86,1601.04C1246.42,1560.07 1209.09,1422.06 1209.09,1422.06C1255.53,1408.81 1484.28,1466.94 1484.28,1601.04C1484.28,1754.06 1226.83,1952.87 1125.08,1952.87C1012.74,1952.87 759.678,1754.06 759.678,1601.04C759.678,1460.42 976.087,1408.81 1024.27,1422.06C1024.27,1422.06 984.304,1574.61 1000.66,1601.04Z" style="fill:rgb(40,134,137);"/>
    </g>
    <path d="M1549.07,955.148C1554.46,954.535 1571.33,948.763 1583.8,935.514C1592.19,926.6 1598.67,914.445 1598.59,898.555C1598.52,889.777 1595.77,883.112 1591.57,877.604C1586.98,871.575 1580.55,866.991 1574.28,862.406C1569.15,858.655 1564.05,854.994 1561.2,849.57C1558.26,844.219 1556.19,837.229 1554.44,829.565C1552.56,821.339 1551.09,812.427 1549.72,803.766C1548.2,794.137 1546.75,784.952 1545.12,777.435C1545,776.566 1544.19,775.962 1543.32,776.086C1542.45,776.21 1541.85,777.016 1541.97,777.885C1542.51,785.502 1542.48,794.735 1542.75,804.409C1542.99,813.424 1543.44,822.717 1544.55,831.325C1545.7,840.299 1547.73,848.455 1550.63,854.859C1554.05,862.052 1560.14,867.413 1566.65,872.501C1571.8,876.521 1577.25,880.333 1581.01,885.482C1583.54,888.95 1585.15,893.112 1585.11,898.555C1585.05,910.406 1580.08,919.393 1573.77,925.993C1564.2,935.995 1551.62,940.765 1547.52,941.21C1543.67,941.637 1540.9,945.107 1541.33,948.953C1541.75,952.8 1545.22,955.576 1549.07,955.148Z" style="fill:rgb(205,133,98);"/>
    <g transform="matrix(0.701324,0.0854414,-0.120935,0.99266,565.078,-110.549)">
        <path d="M1452.9,1071.81C1454.08,1075.89 1460.06,1080.09 1470.05,1083.73C1477.85,1086.57 1488.24,1089.11 1500.45,1091.06C1514.26,1093.27 1530.35,1094.77 1547.4,1095.02C1557.67,1095.17 1568.28,1094.83 1578.89,1093.95C1596.42,1092.5 1613.96,1089.65 1630.2,1085.45C1656.98,1078.52 1680.15,1067.85 1694.3,1052.82C1695.82,1051.36 1695.37,1049.3 1693.3,1048.22C1691.23,1047.14 1688.32,1047.46 1686.8,1048.92C1676.91,1057.51 1663.41,1063.84 1648.06,1068.65C1633.71,1073.15 1617.69,1076.05 1601.24,1078.05C1586.64,1079.82 1571.7,1080.63 1557.23,1081.07C1541.55,1081.54 1526.46,1081.55 1512.91,1080.79C1496.59,1079.87 1482.65,1078.25 1473.01,1075.59C1467.06,1073.94 1462.66,1072.43 1461.48,1070.11C1460.81,1068.43 1458.35,1067.46 1455.99,1067.93C1453.62,1068.4 1452.24,1070.14 1452.9,1071.81Z" style="fill:rgb(205,133,98);"/>
    </g>
    <path d="M1634.2,621.049C1644.45,601.647 1662.29,591.333 1682.74,586.643C1696.78,583.422 1711.96,582.823 1727.29,583.819C1751.33,585.383 1775.43,590.614 1795.54,599.023C1812.72,606.211 1826.83,615.011 1835.29,624.888C1822.47,602.772 1788.47,579.708 1749.67,567.935C1734.82,563.428 1719.32,560.808 1704.19,560.496C1665.47,559.7 1630.03,574.385 1610.68,608.141C1607.12,614.631 1609.49,622.793 1615.98,626.355C1622.47,629.917 1630.64,627.54 1634.2,621.049Z" style="fill:rgb(205,133,98);"/>
    <g transform="matrix(-1,0,0,1,3033.49,-3.25118)">
        <path d="M1613.62,609.754C1631.76,576.333 1666.36,562.029 1704.21,561.604C1712.33,561.513 1720.6,562.056 1728.81,563.308C1740.86,565.144 1752.8,568.256 1764.16,572.387C1797.42,584.486 1825.49,604.276 1837.16,623.572C1837.88,624.601 1837.64,626.026 1836.61,626.752C1835.58,627.478 1834.15,627.233 1833.43,626.203C1820.13,609.923 1791.45,596.117 1759.34,588.564C1748.59,586.038 1737.51,584.322 1726.42,583.363C1719.08,582.728 1711.77,582.436 1704.58,582.609C1674.32,583.338 1646.01,592.84 1631.26,619.436C1628.59,624.303 1622.47,626.087 1617.6,623.415C1612.73,620.743 1610.95,614.622 1613.62,609.754Z" style="fill:rgb(205,133,98);"/>
    </g>
    <g transform="matrix(0.476013,0,0,0.460795,899.435,468.218)">
        <ellipse cx="1731.82" cy="884.143" rx="15.295" ry="15.795" style="fill:rgb(214,135,89);"/>
    </g>
    <g transform="matrix(0.476013,0,0,0.460795,618.937,103.39)">
        <ellipse cx="1731.82" cy="884.143" rx="15.295" ry="15.795" style="fill:rgb(214,135,89);fill-opacity:0.6;"/>
    </g>
    <g transform="matrix(0.305015,0,0,0.262063,1006.24,445.765)">
        <ellipse cx="1731.82" cy="884.143" rx="15.295" ry="15.795" style="fill:rgb(214,135,89);"/>
    </g>
    <g transform="matrix(0.297111,0,0,0.293924,859.516,605.816)">
        <ellipse cx="1731.82" cy="884.143" rx="15.295" ry="15.795" style="fill:rgb(214,135,89);"/>
    </g>
    <g transform="matrix(0.448082,-0.160659,0.152341,0.424883,334.902,701.04)">
        <ellipse cx="1731.82" cy="884.143" rx="15.295" ry="15.795" style="fill:rgb(214,135,89);fill-opacity:0.6;"/>
    </g>
    <g transform="matrix(0.476013,0,0,0.460795,807.619,390.704)">
        <ellipse cx="1731.82" cy="884.143" rx="15.295" ry="15.795" style="fill:rgb(214,135,89);"/>
    </g>
    <g transform="matrix(0.476013,0,0,0.460795,987.487,491.575)">
        <ellipse cx="1731.82" cy="884.143" rx="15.295" ry="15.795" style="fill:rgb(214,135,89);fill-opacity:0.6;"/>
    </g>
    <g transform="matrix(0.476013,0,0,0.460795,742.187,118.537)">
        <ellipse cx="1731.82" cy="884.143" rx="15.295" ry="15.795" style="fill:rgb(214,135,89);"/>
    </g>
    <g transform="matrix(0.476013,0,0,0.460795,623.559,403.557)">
        <ellipse cx="1731.82" cy="884.143" rx="15.295" ry="15.795" style="fill:rgb(214,135,89);"/>
    </g>
    <g transform="matrix(0.476013,0,0,0.460795,960.146,527.904)">
        <ellipse cx="1731.82" cy="884.143" rx="15.295" ry="15.795" style="fill:rgb(214,135,89);"/>
    </g>
    <g transform="matrix(0.476013,0,0,0.460795,774.828,332.883)">
        <ellipse cx="1731.82" cy="884.143" rx="15.295" ry="15.795" style="fill:rgb(214,135,89);"/>
    </g>
    <g transform="matrix(0.476013,0,0,0.460795,524.261,541.675)">
        <ellipse cx="1731.82" cy="884.143" rx="15.295" ry="15.795" style="fill:rgb(214,135,89);"/>
    </g>
    <g transform="matrix(0.448082,-0.160659,0.152341,0.424883,334.215,788.106)">
        <ellipse cx="1731.82" cy="884.143" rx="15.295" ry="15.795" style="fill:rgb(214,135,89);"/>
    </g>
    <g transform="matrix(0.614235,0,0,0.568681,693.42,332.546)">
        <ellipse cx="1731.82" cy="884.143" rx="15.295" ry="15.795" style="fill:rgb(214,135,89);fill-opacity:0.6;"/>
    </g>
    <g transform="matrix(0.432449,0,0,0.401398,724.961,114.506)">
        <ellipse cx="1731.82" cy="884.143" rx="15.295" ry="15.795" style="fill:rgb(214,135,89);fill-opacity:0.48;"/>
    </g>
    <g transform="matrix(0.406625,0.12609,-0.118078,0.380787,1027.8,-65.9427)">
        <ellipse cx="1731.82" cy="884.143" rx="15.295" ry="15.795" style="fill:rgb(214,135,89);"/>
    </g>
    <g transform="matrix(0.365729,0,0,0.367375,1043.34,155.795)">
        <ellipse cx="1731.82" cy="884.143" rx="15.295" ry="15.795" style="fill:rgb(214,135,89);"/>
    </g>
    <g transform="matrix(0.614235,0,0,0.568681,508.102,137.524)">
        <ellipse cx="1731.82" cy="884.143" rx="15.295" ry="15.795" style="fill:rgb(214,135,89);"/>
    </g>
    <g transform="matrix(0.614235,0,0,0.568681,350.745,447.476)">
        <ellipse cx="1731.82" cy="884.143" rx="15.295" ry="15.795" style="fill:rgb(214,135,89);"/>
    </g>
    <g transform="matrix(0.536391,-0.192323,0.188009,0.524361,211.492,734.085)">
        <ellipse cx="1731.82" cy="884.143" rx="15.295" ry="15.795" style="fill:rgb(214,135,89);fill-opacity:0.6;"/>
    </g>
    <g transform="matrix(0.69284,0,0,0.662534,606.021,209.195)">
        <ellipse cx="1731.82" cy="884.143" rx="15.295" ry="15.795" style="fill:rgb(214,135,89);"/>
    </g>
    <g transform="matrix(0.69284,0,0,0.662534,188.599,209.525)">
        <ellipse cx="1731.82" cy="884.143" rx="15.295" ry="15.795" style="fill:rgb(214,135,89);"/>
    </g>
    <g transform="matrix(0.383847,0,0,0.39334,984.791,530.442)">
        <ellipse cx="1731.82" cy="884.143" rx="15.295" ry="15.795" style="fill:rgb(214,135,89);fill-opacity:0.46;"/>
    </g>
    <g transform="matrix(0.342055,0,0,0.353711,777.308,188.067)">
        <ellipse cx="1731.82" cy="884.143" rx="15.295" ry="15.795" style="fill:rgb(214,135,89);"/>
    </g>
    <g transform="matrix(0.544883,0,0,0.534955,510.886,207.976)">
        <ellipse cx="1731.82" cy="884.143" rx="15.295" ry="15.795" style="fill:rgb(214,135,89);"/>
    </g>
    <g transform="matrix(0.43984,0,0,0.421432,930.78,456.078)">
        <ellipse cx="1731.82" cy="884.143" rx="15.295" ry="15.795" style="fill:rgb(214,135,89);fill-opacity:0.6;"/>
    </g>
    <g transform="matrix(0.43984,0,0,0.421432,650.282,91.2503)">
        <ellipse cx="1731.82" cy="884.143" rx="15.295" ry="15.795" style="fill:rgb(214,135,89);"/>
    </g>
    <g transform="matrix(0.420106,0.13027,-0.124818,0.402524,953.062,-116.032)">
        <ellipse cx="1731.82" cy="884.143" rx="15.295" ry="15.795" style="fill:rgb(214,135,89);"/>
    </g>
    <g transform="matrix(0.43984,0,0,0.421432,847.601,64.4168)">
        <ellipse cx="1731.82" cy="884.143" rx="15.295" ry="15.795" style="fill:rgb(214,135,89);fill-opacity:0.62;"/>
    </g>
    <g transform="matrix(0.43984,0,0,0.421432,745.462,261.057)">
        <ellipse cx="1731.82" cy="884.143" rx="15.295" ry="15.795" style="fill:rgb(214,135,89);"/>
    </g>
    <g transform="matrix(0.43984,0,0,0.421432,513.358,456.408)">
        <ellipse cx="1731.82" cy="884.143" rx="15.295" ry="15.795" style="fill:rgb(214,135,89);"/>
    </g>
    <path d="M1496.87,134.542C1496.62,134.239 1496.96,133.524 1497.43,134.939C1502.83,151.12 1501.75,173.507 1503.78,190.801C1509.08,235.85 1511.35,281.843 1517.75,326.647C1520.19,343.762 1517.75,367.812 1517.75,360.328" style="fill:rgb(161,37,37);"/>
    <path d="M1517.87,361.64C1517.74,361.967 1517.68,361.589 1517.75,360.328C1517.79,361.045 1517.83,361.471 1517.87,361.64ZM1518.02,361.147C1518.18,359.212 1518.24,352.656 1517.83,344.907C1517.53,339.083 1516.92,332.61 1515.8,326.925C1513.16,313.495 1510.86,300 1508.82,286.375C1504.11,254.86 1500.61,223.09 1495.52,191.773C1494.41,183.076 1493.35,173.132 1493.32,163.26C1493.32,161.025 1493.52,158.86 1493.74,156.662C1494.09,153.16 1494.63,150.062 1495.1,146.726C1495.71,142.431 1496.57,139.154 1496.74,135.17L1496.87,134.542C1496.46,134.343 1496.72,133.806 1497.17,133.879C1497.37,133.912 1497.57,134.122 1498.13,134.708C1500.37,137.35 1502.13,139.595 1503.94,142.843C1506.29,147.07 1507.91,151.422 1509.24,156.383C1510.14,159.74 1510.62,163.201 1510.95,166.692C1511.71,174.706 1511.36,182.713 1512.04,189.829C1514.66,226.105 1515.43,262.78 1517.7,299.172C1518.27,308.277 1518.88,317.325 1519.7,326.368C1520.23,332.281 1520.16,338.943 1519.83,344.91C1519.41,352.671 1518.49,359.185 1518.02,361.147C1517.97,361.665 1517.92,361.852 1517.87,361.64L1517.98,361.296L1518.02,361.147Z" style="fill:rgb(202,101,56);"/>
</svg>
