<svg xmlns="http://www.w3.org/2000/svg" xmlns:xlink="http://www.w3.org/1999/xlink" width="516.78" height="414.733" viewBox="0 0 516.78 414.733"><defs><clipPath id="a"><path d="M1459.53,922.238l18.878,102.9,373.2-.442,93.55-102.006s-7.817-64.609-13.005-123.354c-4.3-48.7-6.145-93.448-6.165-93.354" transform="translate(-1459.53 -705.979)" clip-rule="evenodd"/></clipPath><radialGradient id="b" cx="0.146" cy="-0.098" r="0.251" gradientTransform="matrix(-2.318, 0.022, -0.13, -2.502, -16.416, -2.956)" gradientUnits="objectBoundingBox"><stop offset="0" stop-color="#89593b"/><stop offset="1" stop-color="#6e442b"/></radialGradient></defs><g transform="matrix(0.998, 0.07, -0.07, 0.998, -975.857, -472.835)"><g transform="translate(1043.072 463.681)"><path d="M1459.53,922.238l18.878,102.9,373.2-.442,84.709-89.461-9.191-88.357-3.226-46.128s-9.16-79.645-9.179-79.551" transform="translate(-1459.53 -705.979)" fill="#f8b099" fill-rule="evenodd"/><g transform="translate(0 0)" clip-path="url(#a)"><g transform="translate(98.584 223.931)"><path d="M2006.974,1509.8a1.179,1.179,0,0,1,1.287.619.9.9,0,0,1-.729,1.158,2.564,2.564,0,0,1-1.613-.131,5.673,5.673,0,0,1-1.749-1.219c-2.847-2.735-6.947-10.1-9.706-17.918-1.851-5.233-3.1-10.663-3.017-15.012a11.482,11.482,0,0,1,1.846-6.659c2.036-2.752,5.567-4.6,9.818-5.949,4.863-1.54,10.673-2.444,16.041-3.465a56.476,56.476,0,0,0,10.2-2.645c6.17-2.457,9.73-4.419,12.14-6.344a22.367,22.367,0,0,0,4.906-5.729,54.776,54.776,0,0,1,7.219-9.123.363.363,0,0,1,.442-.05.224.224,0,0,1,.063.358,53.677,53.677,0,0,0-6.558,9.3,21.978,21.978,0,0,1-4.9,6.184c-2.424,2.066-6.072,4.182-12.407,6.86a58.257,58.257,0,0,1-10.62,2.856c-5.266,1.031-10.964,1.928-15.73,3.455-3.75,1.205-6.918,2.786-8.706,5.223a8.829,8.829,0,0,0-1.452,4.527,34.088,34.088,0,0,0,1.574,11.614c2.439,8.611,7.049,17.637,10.275,21.035a5.656,5.656,0,0,0,1.088.941c.063.033.136.1.2.13l-.058.017a.339.339,0,0,1,.058-.013v0l.039-.01a.134.134,0,0,1,.039,0h0l-.029,0-.053.013c.044.023.078.03.087,0C2006.984,1509.809,2006.979,1509.805,2006.974,1509.8Z" transform="translate(-1921.739 -1417.053)" fill="#c43c3c" fill-rule="evenodd"/><path d="M1822.867,1430.322a.2.2,0,0,1-.151-.208.235.235,0,0,1,.267-.167.478.478,0,0,1,.33.211,5.236,5.236,0,0,1,.544,1.587c.549,2.35,1.049,6.458,1.141,6.974a41.88,41.88,0,0,0,6.145,14.791,25.675,25.675,0,0,0,7.909,7.992c4.508,2.672,9.424,3.184,14.535,2.732,5.767-.509,11.781-2.233,17.741-3.556,6.393-1.419,12.733-2.364,18.679-1.061a11.133,11.133,0,0,1,4.96,2.762,4.458,4.458,0,0,1,1.559,3.3,1.082,1.082,0,0,1-1.21.854,1.008,1.008,0,0,1-1.054-.978,3.39,3.39,0,0,0-1.54-2.541,8.547,8.547,0,0,0-3.284-1.744c-5.592-1.309-11.586-.438-17.649.817s-12.2,2.913-18.057,3.348c-5.451.405-10.668-.231-15.4-3.141a26.463,26.463,0,0,1-8.069-8.407,42.306,42.306,0,0,1-5.922-15.093c-.068-.459-.4-3.733-.821-6.11a13.122,13.122,0,0,0-.481-2.039A1.681,1.681,0,0,0,1822.867,1430.322Z" transform="translate(-1822.714 -1412.172)" fill="#c43c3c" fill-rule="evenodd"/><path d="M2101.687,1470.787c2.38,1.955,8.448,3.81,14.7,4.975,6.379,1.192,12.912,1.694,15.667,1.041a30.136,30.136,0,0,0,11.985-5.34c5.883-4.6,7.015-10.231,12.364-13.044-5.436,2.645-6.8,8.216-12.849,12.622a29.625,29.625,0,0,1-11.81,4.834c-2.662.549-8.885-.161-14.938-1.47-5.742-1.242-11.348-3.013-13.476-4.888a1.335,1.335,0,0,0-1.6-.03A.8.8,0,0,0,2101.687,1470.787Z" transform="translate(-1986.254 -1431.114)" fill="#c43c3c" fill-rule="evenodd"/><path d="M2125.625,1455.416l.01,0a29.425,29.425,0,0,0,3.969.516c2.755.238,5.922.425,7.107.583a7.9,7.9,0,0,0,4.1-.529,21.121,21.121,0,0,0,5.13-3.529c.651-.526,1.467-1,2.162-1.52a5.471,5.471,0,0,0,.806-.716.1.1,0,0,1,.126-.02.067.067,0,0,1,.029.1,5.855,5.855,0,0,1-.762.793c-.636.559-1.4,1.075-2,1.634a21.074,21.074,0,0,1-4.994,3.977,9.156,9.156,0,0,1-4.761.9c-1.569-.1-6.5-.06-9.488-.234a12.056,12.056,0,0,1-2.424-.325,1.632,1.632,0,0,1-.607-.341.806.806,0,0,1,.121-1.3A1.343,1.343,0,0,1,2125.625,1455.416Z" transform="translate(-1999.393 -1425.639)" fill="#c43c3c" fill-rule="evenodd"/><path d="M1894.6,1427.639a8.711,8.711,0,0,1-2.2-1.791,50.406,50.406,0,0,1-4.523-5.5c-2.463-3.4-4.62-6.967-4.872-8.393-.471-2.658-.126-4.526.908-5.842a7.178,7.178,0,0,1,3.76-2.263c4.086-1.222,9.905-1.078,15.448-1.664,5.689-.606,11.071-1.962,14.282-5.953a6.564,6.564,0,0,0,1.03-6.127c-.734-2.632-2.58-5.323-4.226-7.563a37.6,37.6,0,0,1-2.638-3.743,1.632,1.632,0,0,1-.277-.911.253.253,0,0,0-.243-.285.3.3,0,0,0-.355.2c-.223.837,1.044,2.776,2.575,5.163a25.668,25.668,0,0,1,3.629,7.4,5.576,5.576,0,0,1-.918,5.112c-2.964,3.6-7.923,4.694-13.1,5.2-5.7.559-11.684.409-15.9,1.641a9.176,9.176,0,0,0-4.8,2.9c-1.248,1.574-1.8,3.793-1.268,6.977.3,1.764,3.2,6.639,6.3,10.724,2.312,3.047,4.766,5.635,6.262,6.328a1.281,1.281,0,0,0,1.545-.348A.833.833,0,0,0,1894.6,1427.639Z" transform="translate(-1856.756 -1377.349)" fill="#c43c3c" fill-rule="evenodd"/><path d="M1870.84,1401.374c-5.519-.167-11.688-4.048-14.545-9.254-2.5-4.543-2.463-10.094,2.55-15.26-5.528,5.086-5.849,10.814-3.6,15.608a19.853,19.853,0,0,0,15.444,10.74,1.076,1.076,0,0,0,1.2-.857A1.008,1.008,0,0,0,1870.84,1401.374Z" transform="translate(-1841.039 -1376.86)" fill="#c43c3c" fill-rule="evenodd"/></g><g transform="translate(84.079 319.609) rotate(180)"><path d="M5.859.9C5.814,2.392,4.743,4.314,3.586,6.493,2.088,9.3.412,12.5.067,15.718a9.608,9.608,0,0,0,1.867,7.007c1.717,2.327,4.7,3.9,8.3,5.038a121.26,121.26,0,0,0,13.431,2.9,47.115,47.115,0,0,1,8.479,2.2c5.126,2.042,8.085,3.673,10.09,5.27a18.922,18.922,0,0,1,4.1,4.733,45.585,45.585,0,0,0,6.129,7.589.366.366,0,0,0,.442.05.225.225,0,0,0,.061-.358,45.025,45.025,0,0,1-5.378-7.8,18.236,18.236,0,0,0-4.091-5.22c-2.029-1.74-5.1-3.511-10.419-5.762a48.612,48.612,0,0,0-8.917-2.4,122.6,122.6,0,0,1-13.114-2.878c-3.089-.993-5.707-2.288-7.184-4.3a8.721,8.721,0,0,1-1.124-7.995c.881-3.116,2.756-6.12,4.014-8.658A10.974,10.974,0,0,0,8.124.94,1.036,1.036,0,0,0,7.016,0,1.053,1.053,0,0,0,5.859.9Z" transform="translate(56.31 0)" fill="#52a5f6" fill-rule="evenodd"/><path d="M.133,33.293c.016-.017.049-.056.077-.092a7.7,7.7,0,0,0,.455-.783A77.829,77.829,0,0,1,5.888,23.3a21.275,21.275,0,0,1,5.784-5.9,17.254,17.254,0,0,1,6.4-2.4,30.279,30.279,0,0,1,8.171.073c2.679.277,5.216.579,7.61-.064a14.379,14.379,0,0,0,3.219-2.07c3.462-2.568,8.613-6.781,13.35-9.665A26.478,26.478,0,0,1,56.43.408,8.26,8.26,0,0,1,59.794.05a.956.956,0,0,1,.921,1.063A1.13,1.13,0,0,1,59.4,1.86a6.715,6.715,0,0,0-3.061.481,27.972,27.972,0,0,0-4.716,2.269c-4.765,2.764-9.973,6.837-13.467,9.312a16.009,16.009,0,0,1-3.848,2.269,18.786,18.786,0,0,1-6.669.151c-2.935-.33-6.036-.892-9.36-.417a16.129,16.129,0,0,0-6.011,2.129,20.764,20.764,0,0,0-5.7,5.567,78.914,78.914,0,0,0-5.443,8.965,5.84,5.84,0,0,1-.6.929.451.451,0,0,1-.264.145A.235.235,0,0,1,0,33.491.185.185,0,0,1,.133,33.293Z" transform="translate(0 8.146)" fill="#52a5f6" fill-rule="evenodd"/><g transform="translate(75.714 32.908)"><path d="M16.831.116A23.088,23.088,0,0,0,7.615,1.237,20.886,20.886,0,0,0,1.229,4.226,2.825,2.825,0,0,0,.107,5.732a8.16,8.16,0,0,0,1.49,6c2.89,4.394,8.9,7.938,10.21,11.1C10.718,19.64,4.99,15.87,2.422,11.4A7.3,7.3,0,0,1,1.4,5.911c.1-.4.658-.814,1.43-1.263A22.681,22.681,0,0,1,8.2,2.608a20.561,20.561,0,0,1,8.182-.69,1.149,1.149,0,0,0,1.331-.72A.944.944,0,0,0,16.831.116Z" transform="translate(0 0)" fill="#52a5f6" fill-rule="evenodd"/></g><path d="M1.827,2.087A1.346,1.346,0,0,1,.394,2.059.8.8,0,0,1,.273.764,1.565,1.565,0,0,1,.849.44,10.007,10.007,0,0,1,2.931.168C5.423.037,9.547.1,10.858.017a7.765,7.765,0,0,1,4.035.789,17.677,17.677,0,0,1,4.164,3.36c.5.47,1.128.9,1.656,1.373a4.825,4.825,0,0,1,.633.669.07.07,0,0,1-.024.106.107.107,0,0,1-.13-.022,4.936,4.936,0,0,0-.678-.593c-.584-.434-1.27-.822-1.818-1.259a17.872,17.872,0,0,0-4.3-2.912,6.471,6.471,0,0,0-3.373-.408c-1.473.2-6.636.484-8.775.867C2.1,2.012,1.929,2.059,1.827,2.087Z" transform="translate(102.347 40.591)" fill="#52a5f6" fill-rule="evenodd"/><path d="M2.243.449C.409,2.966-.2,5.1.056,6.941c.317,2.285,1.96,4.148,4.493,5.72,4.806,2.976,12.915,4.915,19.966,7.223,4.944,1.62,9.364,3.4,11.5,6a2.326,2.326,0,0,1,.325,1.966,15.406,15.406,0,0,1-2.63,5.315c-1.116,1.634-2.488,3.348-3.9,5.043-.929,1.119-1.879,2.224-2.793,3.292-2.289,2.671-4.388,5.071-5.573,6.658-.739.99-1.1,1.706-1.019,2.008a.31.31,0,0,0,.353.2.26.26,0,0,0,.248-.288c-.045-.252.4-.783,1.084-1.569,1.311-1.508,3.616-3.762,6.06-6.322.986-1.038,1.993-2.126,2.967-3.231a63.566,63.566,0,0,0,4.083-5.1,16.734,16.734,0,0,0,2.922-5.782,3.547,3.547,0,0,0-.584-3.018c-2.273-2.825-6.961-4.876-12.29-6.663-6.839-2.3-14.746-4.187-19.4-7.116C3.867,10.013,2.491,8.564,2.256,6.745c-.2-1.525.394-3.278,1.936-5.357A.826.826,0,0,0,3.8.13,1.292,1.292,0,0,0,2.243.449Z" transform="translate(26.561 23.812)" fill="#52a5f6" fill-rule="evenodd"/><g transform="translate(41.789 59.709) rotate(180)"><path d="M2.038,20.517a19.731,19.731,0,0,1,2.395-2.6,7.127,7.127,0,0,1,2.029-1.083c4.026-1.457,8.958-1.617,13.406-2.487a22.61,22.61,0,0,0,5.743-1.8,6.84,6.84,0,0,0,2.8-2.473,29.239,29.239,0,0,0,1.912-4.54,24.332,24.332,0,0,0,1.684-3.653A2.675,2.675,0,0,0,31.923.133a.255.255,0,0,0-.3-.123.193.193,0,0,0-.15.246A2.689,2.689,0,0,1,31.278,2.3c-.442,1.066-1.23,2.137-1.664,3.024A28.884,28.884,0,0,1,27.54,9.683a5.992,5.992,0,0,1-2.512,2.05,21.488,21.488,0,0,1-5.459,1.5C14.957,13.977,9.9,14,5.691,15.361a9.385,9.385,0,0,0-2.683,1.312A21.783,21.783,0,0,0,.231,19.406a.809.809,0,0,0,.215,1.287A1.318,1.318,0,0,0,2.038,20.517Z" transform="translate(0)" fill="#52a5f6" fill-rule="evenodd"/></g><g transform="translate(38.177 55.215) rotate(180)"><path d="M9.044,9.263A10.329,10.329,0,0,1,3.105,7.581C1.437,6.4.625,4.731,1.6,2.985a2.716,2.716,0,0,1,.8-.862A21.311,21.311,0,0,0,5.208.317.171.171,0,0,0,5.175.043a.282.282,0,0,0-.337.028A21.94,21.94,0,0,1,1.888,1.618,3.641,3.641,0,0,0,.751,2.639,3.855,3.855,0,0,0,1.015,7.52C2.521,9.456,5.61,10.882,8.971,11.1a1.059,1.059,0,0,0,1.169-.887A1.027,1.027,0,0,0,9.044,9.263Z" fill="#52a5f6" fill-rule="evenodd"/></g></g><g transform="translate(411.922 230.685)"><path d="M3065.369,1587.534c-2.962-4.685-4.51-9.615-7.614-14.1a26.182,26.182,0,0,0-8.483-7.836,21.517,21.517,0,0,0-7.484-2.142c-3.9-.568-8.217-.813-11.392-1.57a7.253,7.253,0,0,1-3.914-1.9.273.273,0,0,0-.331-.056.172.172,0,0,0-.071.267,7.651,7.651,0,0,0,4.126,2.179c5.368,1.437,14.176,1.422,18.308,4.031a24.416,24.416,0,0,1,7.779,7.669c2.92,4.551,4.268,9.514,7.041,14.266a1.268,1.268,0,0,0,1.52.416A.848.848,0,0,0,3065.369,1587.534Z" transform="translate(-3026.043 -1559.902)" fill="#52a5f6" fill-rule="evenodd"/></g><g transform="translate(443.637 208.299)"><path d="M3104.005,1532.524a10.511,10.511,0,0,0,5.226-2.728,16.654,16.654,0,0,0,3.2-5.015c.833-1.763,1.578-3.449,3.05-4.469a14.062,14.062,0,0,0,3.381-3.467,16.763,16.763,0,0,0,2.093-4.016,19.657,19.657,0,0,0,1.123-7.443,14.349,14.349,0,0,0-2.382-7.216c-1.123-1.678-3.671-2.476-5.19-3.876a3.564,3.564,0,0,1-.869-1.154.2.2,0,0,0-.236-.093.139.139,0,0,0-.112.189,3.771,3.771,0,0,0,.9,1.281c1.437,1.4,3.925,2.216,4.966,3.883a13.648,13.648,0,0,1,2.069,7.012,18.95,18.95,0,0,1-1.33,7.164,15.985,15.985,0,0,1-2.1,3.76,13.027,13.027,0,0,1-3.2,3.115c-3.021,1.986-3.535,6.5-6.692,9.433a8.809,8.809,0,0,1-4.38,2.157.765.765,0,0,0-.674.939A.984.984,0,0,0,3104.005,1532.524Z" transform="translate(-3102.813 -1493.038)" fill="#52a5f6" fill-rule="evenodd"/></g><g transform="translate(428.333 216.437)"><path d="M3097.817,1527.418c-5.32,1.786-14.507.765-21.594-1.737-5.575-1.967-9.884-4.852-9.973-8.141a.244.244,0,0,0-.479,0c-.106,3.467,4.2,6.723,9.949,9.021,7.39,2.951,17.138,4.258,22.919,2.573a.873.873,0,0,0,.644-1.188A1.229,1.229,0,0,0,3097.817,1527.418Z" transform="translate(-3065.769 -1517.343)" fill="#52a5f6" fill-rule="evenodd"/></g><g transform="translate(459.776 202.609)"><path d="M3142.515,1486.544l.148-.063a9.332,9.332,0,0,0,3.257-2.669,7.542,7.542,0,0,0,1.253-4.866,2.791,2.791,0,0,0-1.933-2.688c-.071-.015-.118-.074-.095-.134a.137.137,0,0,1,.159-.078,3.19,3.19,0,0,1,2.388,2.847,7.938,7.938,0,0,1-.951,5.264,10.073,10.073,0,0,1-3.423,3.163,2.071,2.071,0,0,1-.733.264.71.71,0,0,1-.5-.141.455.455,0,0,1-.2-.434A.6.6,0,0,1,3142.515,1486.544Zm.579.319a.423.423,0,0,1,.042.241A.4.4,0,0,0,3143.095,1486.863Z" transform="translate(-3141.88 -1476.042)" fill="#52a5f6" fill-rule="evenodd"/></g></g></g><g transform="translate(1026.593 558.717)"><path d="M1876.146,391.98l-387.726-1.411,6.49,57.525,10.732,63.709s95.685-13.133,175.243-14.749c24.116-.49,47.063,4.163,69.261,9.733,19.385,4.863,38.2,10.426,56.716,13.875,44.4,8.266,81.466-5.222,81.466-5.222Z" transform="translate(-1488.42 -390.569)" fill="#ec8f66" fill-rule="evenodd"/></g><g transform="translate(1413.16 460.562)"><path d="M2424.158,271.938l84.814-73.088L2517.267,285l1.742,24.909c-.964-.988-12.447.617-15.863,24.6-1.043,7.306-13.153,13.443-23.524,20.22-7.556,4.938-17.956,9.369-23.872,16.274-14.285,16.66-19.567,37.127-19.567,37.127Z" transform="translate(-2424.158 -184.712)" fill="#dd7e54" fill-rule="evenodd"/></g><g transform="translate(1421.369 581.24)"><path d="M2447.155,676.387c.045-.049.115-.129.16-.186a4.678,4.678,0,0,0,.4-.686,19.047,19.047,0,0,0,1.208-3.47c1.595-5.766,3.131-14.568,8.186-24.1a63.3,63.3,0,0,1,9.474-13.333c.786-.855,18.75-9.153,31.254-22.193,5.592-5.83,10.384-12.327,12.143-18.961,1.408-5.325,3-10.873,6.429-13.82,5.263-4.525,11.557-6.347,14.653-6.459l.288,8.571c-1.861.035-5.5,1.355-8.719,4.017-2.336,1.937-2.987,6.117-4,9.671-2.216,7.744-7.8,15.368-14.493,22.094-12.747,12.813-30.9,20.809-31.7,21.648-10.708,11.188-13.729,23.012-15.861,30.969-1.168,4.364-2.216,7.716-3.7,9.6-2.052,2.607-4.69,3.662-8.847,2.172l2.389-5.7A4.746,4.746,0,0,0,2447.155,676.387Z" transform="translate(-2444.028 -573.182)" fill="#f8ba9b" fill-rule="evenodd"/></g><g transform="translate(1043.169 664.308)"><path d="M1532.054,931.389c76.035-.051,94.746-14.8,174.438-15.8,51.075-.639,90.989,10.42,123.9,22.633,35.357,13.121,66.658,2.174,83.795-.221" transform="translate(-1532.054 -915.567)" fill="none" stroke="#faccb5" stroke-linejoin="round" stroke-miterlimit="1.5" stroke-width="12" fill-rule="evenodd"/></g><g transform="translate(1026.365 438.149)"><path d="M1892,524.962l-363.721,13.1L1421.9,630.456l2.225,24.424,386.54,2.733,83.18-106.265Z" transform="translate(-1421.9 -510)" fill="#ee9e76" fill-rule="evenodd"/></g><g transform="translate(1025.763 438.149)"><path d="M1891.186,525.562l-363.38,12.472-107.364,92.3,385.564-.867Z" transform="translate(-1420.441 -510)" fill="#b57852" fill-rule="evenodd"/></g><g transform="translate(1168.633 504.714)"><path d="M1389.976,824.471c-13.328-28.815,8.409-42.551,8.99-46.558,2.012-13.881-16.684-20.675-20.926-23.64-13.378-9.359-3-16.563,4.922-27.145,7.041-9.4,37.321-17.587,62.833-18.275,25.692-.693,49.332,9.674,56.138,19.552,5.974,8.672-2.852,11.872-7.591,23.507-1.356,3.328-22.6,16.49-8.588,30.718,15.762,16-.908,38.1-2.694,42.718-7.971,20.567-30.592,32.589-30.829,50.342-.214,16.159,1.55,19.014-10.919,21.55-4.162.846-25.209-29.35-28.779-36.049C1400.473,838.579,1395.383,836.152,1389.976,824.471Z" transform="translate(-1371.6 -708.82)" fill-rule="evenodd" fill="url(#b)"/></g><g transform="translate(1029.678 404.333)"><path d="M1430.036,409l-.117,0" transform="translate(-1429.92 -408.993)" fill="none" fill-rule="evenodd"/></g><g transform="translate(1029.678 401.987)"><path d="M1430.036,402.043l-.117-.056" transform="translate(-1429.92 -401.987)" fill="none" fill-rule="evenodd"/></g></g></svg>