<svg xmlns="http://www.w3.org/2000/svg" xmlns:xlink="http://www.w3.org/1999/xlink" width="320.726" height="321.224" viewBox="0 0 320.726 321.224"><defs><radialGradient id="a" cx="0.657" cy="0.711" r="1.028" gradientTransform="matrix(0.997, -0.076, 0.076, 0.997, -0.037, 0.04)" gradientUnits="objectBoundingBox"><stop offset="0" stop-color="#553b2c"/><stop offset="1" stop-color="#37251a"/></radialGradient></defs><path d="M137.864,46.315c17.665-4.077,26.283,8.408,48.677,22.7,8.844,6.306,6.32-20.511,42.5-7.831,20.338,6.817,17.544,20.781,19.164,41.475.21,13.525-8.421,28.541,0,43.012,6.1,10.49,31.884,17.262,34.422,31.762,11.363,64.924-58.963,24.626-71.594,68.462-3.71,15.481-33.477,40.655-61.409,40.655-28.2.062-8.988-12.786-44.761-48.559-13.88-13.88-35.637,19.952-56.379,0s13.748-50.606,11.738-62.42c-4.422-14.317-20.4-19.332-2.912-46.932,9.219-15.616,37.04-17.321,50.449-32.748C122.74,78.656,112.169,53.208,137.864,46.315Z" transform="translate(78.701 378.37) rotate(-115)" fill="url(#a)"/></svg>