<svg xmlns="http://www.w3.org/2000/svg" xmlns:xlink="http://www.w3.org/1999/xlink" width="563.676" height="379.191" viewBox="0 0 563.676 379.191"><defs><clipPath id="a"><path d="M919.764,904.307l14.585,95.235,448.944,1.419,72.279-94.411s-6.039-59.8-10.048-114.169c-3.322-45.078-4.748-86.49-4.763-86.4" transform="translate(-919.764 -705.979)" clip-rule="evenodd"/></clipPath><radialGradient id="b" cx="0.133" cy="-0.092" r="0.236" gradientTransform="matrix(-2.49, 0.022, -0.139, -2.502, -17.491, -2.773)" gradientUnits="objectBoundingBox"><stop offset="0" stop-color="#89593b"/><stop offset="1" stop-color="#6e442b"/></radialGradient></defs><g transform="matrix(0.998, 0.07, -0.07, 0.998, -534.719, -452.088)"><g transform="translate(597.372 459.087)"><path d="M919.764,904.307l14.585,95.235,448.944,1.419,72.279-94.411s-6.039-59.8-10.048-114.169c-3.322-45.078-4.748-86.49-4.763-86.4" transform="translate(-919.764 -705.979)" fill="#f8b099" fill-rule="evenodd"/><g transform="translate(0)" clip-path="url(#a)"><g transform="translate(236.758 207.257)"><path d="M1927.142,1504.4a.916.916,0,0,1,1.01.567.84.84,0,0,1-.57,1.078,1.77,1.77,0,0,1-1.325-.136,4.636,4.636,0,0,1-1.363-1.156c-2.2-2.566-5.364-9.389-7.484-16.609a49.27,49.27,0,0,1-2.316-13.839,12.289,12.289,0,0,1,1.426-6.135c1.565-2.531,4.272-4.239,7.529-5.488a95.535,95.535,0,0,1,12.45-3.232,37.939,37.939,0,0,0,7.9-2.448c4.827-2.305,7.586-4.137,9.448-5.94a20.667,20.667,0,0,0,3.757-5.293,50.149,50.149,0,0,1,5.559-8.388.263.263,0,0,1,.353-.053.228.228,0,0,1,.056.332,50.35,50.35,0,0,0-5.026,8.54,20.549,20.549,0,0,1-3.731,5.7c-1.869,1.937-4.7,3.917-9.665,6.43a39.253,39.253,0,0,1-8.239,2.653c-4.083.958-8.5,1.788-12.187,3.216-2.864,1.109-5.281,2.566-6.651,4.8a9.413,9.413,0,0,0-1.122,4.189,37.275,37.275,0,0,0,1.2,10.715c1.877,7.957,5.427,16.315,7.927,19.5a4.758,4.758,0,0,0,.852.886c.041.034.094.087.139.118-.026.009-.057.019-.071.025a.5.5,0,0,1,.075-.022l0,0a.159.159,0,0,1,.071-.009.5.5,0,0,0-.068.012c.038.028.064.037.075.009C1927.153,1504.409,1927.149,1504.4,1927.142,1504.4Z" transform="translate(-1861.265 -1418.56)" fill="#c43c3c" fill-rule="evenodd"/><path d="M1753.028,1430.291a.175.175,0,0,1-.116-.189.193.193,0,0,1,.218-.155.378.378,0,0,1,.263.2,5.806,5.806,0,0,1,.42,1.469c.424,2.178.811,5.974.882,6.452a43.49,43.49,0,0,0,4.726,13.634,22.349,22.349,0,0,0,6.144,7.449c3.468,2.464,7.252,2.941,11.185,2.529,5.356-.561,10.979-2.745,16.489-3.976,4-.892,7.946-1.276,11.688-.294A8.344,8.344,0,0,1,1808.8,1460a4.45,4.45,0,0,1,1.179,3.009.892.892,0,0,1-.969.793.871.871,0,0,1-.848-.9,3.3,3.3,0,0,0-1.171-2.346,6.284,6.284,0,0,0-2.541-1.627c-4.313-1.208-8.941-.4-13.621.765s-9.432,2.7-13.959,3.1c-4.215.375-8.25-.217-11.913-2.913a23.126,23.126,0,0,1-6.261-7.837,44.026,44.026,0,0,1-4.538-13.91c-.052-.424-.308-3.452-.63-5.652a14.325,14.325,0,0,0-.372-1.89A1.882,1.882,0,0,0,1753.028,1430.291Z" transform="translate(-1752.91 -1413.496)" fill="#c43c3c" fill-rule="evenodd"/><path d="M2021.058,1469.854c1.839,1.809,6.52,3.529,11.343,4.611,4.95,1.109,10.029,1.577,12.165.973a21.685,21.685,0,0,0,9.331-5.01c4.481-4.245,5.363-9.42,9.47-12.007-4.182,2.436-5.255,7.552-9.872,11.623a21.063,21.063,0,0,1-9.192,4.533c-2.057.508-6.872-.152-11.553-1.37-4.41-1.146-8.716-2.776-10.352-4.5a.958.958,0,0,0-1.287-.05A.81.81,0,0,0,2021.058,1469.854Z" transform="translate(-1931.902 -1433.147)" fill="#c43c3c" fill-rule="evenodd"/><path d="M2043.855,1455.033a18.955,18.955,0,0,0,3.048.471c2.128.223,4.576.4,5.495.539a5.164,5.164,0,0,0,3.176-.5,16.878,16.878,0,0,0,3.941-3.254c.507-.483,1.141-.923,1.678-1.407a4.789,4.789,0,0,0,.623-.663.084.084,0,0,1,.1-.022.071.071,0,0,1,.023.1,4.884,4.884,0,0,1-.585.731c-.492.517-1.085.995-1.543,1.512a17.483,17.483,0,0,1-3.825,3.666,6.113,6.113,0,0,1-3.731.859c-1.212-.1-5.029-.059-7.334-.22a7.878,7.878,0,0,1-1.888-.307,1.266,1.266,0,0,1-.48-.322.813.813,0,0,1,.124-1.2A.958.958,0,0,1,2043.855,1455.033Z" transform="translate(-1946.288 -1427.467)" fill="#c43c3c" fill-rule="evenodd"/><path d="M1819.407,1423.919a7.331,7.331,0,0,1-1.7-1.673,46.536,46.536,0,0,1-3.5-5.1c-1.9-3.145-3.558-6.43-3.753-7.75-.353-2.392-.109-4.093.635-5.314a5.332,5.332,0,0,1,2.815-2.141c3.153-1.187,7.7-1.038,12.037-1.587,4.418-.558,8.6-1.813,11.087-5.522a7.013,7.013,0,0,0,.8-5.643,25.018,25.018,0,0,0-3.273-7.006c-1.239-2.011-2.372-3.582-2.263-4.323a.233.233,0,0,0-.2-.263.244.244,0,0,0-.282.186c-.176.778.8,2.569,1.982,4.781a25.837,25.837,0,0,1,2.8,6.854,6.017,6.017,0,0,1-.713,4.728c-2.293,3.331-6.133,4.344-10.131,4.813-4.482.524-9.177.378-12.438,1.58a6.876,6.876,0,0,0-3.645,2.776c-.9,1.441-1.284,3.449-.886,6.29.229,1.63,2.462,6.12,4.845,9.894,1.794,2.832,3.7,5.243,4.865,5.887a.944.944,0,0,0,1.246-.3A.816.816,0,0,0,1819.407,1423.919Z" transform="translate(-1790.129 -1377.365)" fill="#c43c3c" fill-rule="evenodd"/><path d="M1796,1399.548c-4.29-.161-9.087-3.811-11.275-8.679a12.964,12.964,0,0,1,2-14.009,13.387,13.387,0,0,0-2.853,14.316c2.087,5.494,7.281,9.643,12,10.071a.9.9,0,0,0,.972-.79A.876.876,0,0,0,1796,1399.548Z" transform="translate(-1772.964 -1376.86)" fill="#c43c3c" fill-rule="evenodd"/></g><g transform="translate(136.092 295.893) rotate(180)"><path d="M4.524.834C4.492,2.219,3.664,4,2.768,6.022A27.951,27.951,0,0,0,.052,14.555,10.2,10.2,0,0,0,1.491,21.02c1.323,2.144,3.61,3.593,6.366,4.65a80.029,80.029,0,0,0,10.424,2.708,31.624,31.624,0,0,1,6.56,2.032,29.185,29.185,0,0,1,7.853,4.932,17.515,17.515,0,0,1,3.142,4.373,41.57,41.57,0,0,0,4.723,6.98.264.264,0,0,0,.354.052.226.226,0,0,0,.056-.329,42.492,42.492,0,0,1-4.118-7.166,16.949,16.949,0,0,0-3.117-4.815c-1.568-1.631-3.945-3.291-8.116-5.4A32.884,32.884,0,0,0,18.7,26.8a79.563,79.563,0,0,1-10.157-2.68c-2.358-.911-4.356-2.107-5.485-3.946a9.455,9.455,0,0,1-.875-7.41A52.891,52.891,0,0,1,5.289,4.741,11.55,11.55,0,0,0,6.346.87.88.88,0,0,0,5.455,0,.888.888,0,0,0,4.524.834Z" transform="translate(43.48)" fill="#52a5f6" fill-rule="evenodd"/><path d="M.1,30.816c.009-.016.038-.052.056-.085a7.139,7.139,0,0,0,.351-.725,77.605,77.605,0,0,1,4.011-8.414,18.564,18.564,0,0,1,4.488-5.486,12.031,12.031,0,0,1,4.927-2.224,19.51,19.51,0,0,1,6.338.062c2.07.259,4.023.539,5.874-.054a11.008,11.008,0,0,0,2.471-1.911c2.662-2.366,6.623-6.247,10.27-8.916A19.486,19.486,0,0,1,43.557.39,5.473,5.473,0,0,1,46.22.048a.857.857,0,0,1,.734.989.91.91,0,0,1-1.06.684,4.376,4.376,0,0,0-2.355.453,20.4,20.4,0,0,0-3.647,2.11c-3.672,2.558-7.683,6.312-10.374,8.6a12.134,12.134,0,0,1-2.982,2.1,12.268,12.268,0,0,1-5.184.142c-2.264-.306-4.663-.826-7.232-.381a11.211,11.211,0,0,0-4.61,1.962,17.923,17.923,0,0,0-4.425,5.181A76.745,76.745,0,0,0,.892,30.158a5.61,5.61,0,0,1-.461.854.343.343,0,0,1-.213.14A.191.191,0,0,1,0,31,.176.176,0,0,1,.1,30.816Z" transform="translate(0 7.54)" fill="#52a5f6" fill-rule="evenodd"/><g transform="translate(58.483 30.457)"><path d="M13.039.11A15.165,15.165,0,0,0,5.85,1.16a16.9,16.9,0,0,0-4.372,2.3A3.35,3.35,0,0,0,.081,5.31a8.7,8.7,0,0,0,1.14,5.505c2.23,4.083,6.907,7.379,7.925,10.312C8.308,18.17,3.863,14.673,1.9,10.516a7.877,7.877,0,0,1-.765-5.047c.075-.367.5-.742,1.079-1.151A15.724,15.724,0,0,1,6.344,2.425a13.372,13.372,0,0,1,6.325-.651.913.913,0,0,0,1.078-.659A.855.855,0,0,0,13.039.11Z" transform="translate(0)" fill="#52a5f6" fill-rule="evenodd"/></g><path d="M1.478,1.927a.964.964,0,0,1-1.145-.01A.811.811,0,0,1,.207.721,1.178,1.178,0,0,1,.662.415,6.432,6.432,0,0,1,2.287.157C4.215.032,7.4.089,8.417.017A5.21,5.21,0,0,1,11.582.76a14.632,14.632,0,0,1,3.186,3.1c.379.435.869.836,1.276,1.271a4.076,4.076,0,0,1,.486.619.067.067,0,0,1-.022.1.077.077,0,0,1-.1-.021,3.958,3.958,0,0,0-.524-.546c-.452-.4-.985-.766-1.411-1.168a14.118,14.118,0,0,0-3.305-2.685,4.229,4.229,0,0,0-2.606-.386c-1.138.184-5.127.445-6.777.8A2.75,2.75,0,0,0,1.478,1.927Z" transform="translate(79.05 37.568)" fill="#52a5f6" fill-rule="evenodd"/><path d="M1.733.426C-.011,3.289-.324,5.619.287,7.564a8.316,8.316,0,0,0,3.076,4.028c3.688,2.817,10.038,4.634,15.558,6.8,3.829,1.5,7.254,3.151,8.906,5.556a2.487,2.487,0,0,1,.257,1.817,15.431,15.431,0,0,1-2.013,4.906c-.862,1.512-1.919,3.1-3.011,4.676-.718,1.036-1.452,2.063-2.161,3.055-1.772,2.48-3.393,4.709-4.309,6.18a3.733,3.733,0,0,0-.781,1.849.246.246,0,0,0,.282.186.231.231,0,0,0,.2-.264c-.034-.236.31-.73.837-1.455,1.019-1.4,2.813-3.5,4.71-5.877.768-.963,1.549-1.973,2.3-3,1.16-1.577,2.252-3.195,3.158-4.727a16.669,16.669,0,0,0,2.239-5.331,3.762,3.762,0,0,0-.452-2.762c-1.762-2.623-5.4-4.525-9.543-6.185C14.208,14.865,8.03,13.1,4.47,10.339A6.045,6.045,0,0,1,1.8,6.15,8.069,8.069,0,0,1,3.313,1.273.819.819,0,0,0,2.978.113.95.95,0,0,0,1.733.426Z" transform="translate(20.493 22.039)" fill="#52a5f6" fill-rule="evenodd"/><g transform="translate(32.331 55.262) rotate(180)"><path d="M1.647,18.976a17.446,17.446,0,0,1,1.835-2.392,5.35,5.35,0,0,1,1.568-1c3.111-1.349,6.921-1.494,10.358-2.3a15.535,15.535,0,0,0,4.434-1.672A5.725,5.725,0,0,0,22.022,9.3,30.317,30.317,0,0,0,23.48,5.12a24.59,24.59,0,0,0,1.3-3.384,2.909,2.909,0,0,0-.069-1.61.2.2,0,0,0-.245-.117.177.177,0,0,0-.122.228,2.952,2.952,0,0,1-.151,1.885c-.342.986-.953,1.981-1.289,2.8a29.677,29.677,0,0,1-1.6,4.021,4.934,4.934,0,0,1-1.951,1.913,14.56,14.56,0,0,1-4.2,1.39c-3.569.686-7.486.712-10.744,1.97a7,7,0,0,0-2.1,1.232A19.4,19.4,0,0,0,.177,17.974a.812.812,0,0,0,.2,1.188A.953.953,0,0,0,1.647,18.976Z" transform="translate(0)" fill="#52a5f6" fill-rule="evenodd"/></g><g transform="translate(29.528 51.103) rotate(180)"><path d="M7.014,8.572A7.035,7.035,0,0,1,2.4,6.983,3.479,3.479,0,0,1,1.272,2.758a2.372,2.372,0,0,1,.615-.792A16.678,16.678,0,0,0,4.056.29.17.17,0,0,0,4.022.039a.2.2,0,0,0-.27.031A16.623,16.623,0,0,1,1.463,1.5a3.1,3.1,0,0,0-.875.94,4.328,4.328,0,0,0,.891,5.382,8.561,8.561,0,0,0,5.472,2.444.887.887,0,0,0,.941-.821A.877.877,0,0,0,7.014,8.572Z" transform="translate(0)" fill="#52a5f6" fill-rule="evenodd"/></g></g><g transform="translate(478.85 213.508)"><path d="M2940.6,1585.491c-2.283-4.319-3.48-8.861-5.865-12.994a22.28,22.28,0,0,0-6.595-7.311,14.664,14.664,0,0,0-5.787-1.986c-3.024-.529-6.376-.756-8.833-1.464a5.307,5.307,0,0,1-2.992-1.749.2.2,0,0,0-.264-.058.174.174,0,0,0-.064.247,5.665,5.665,0,0,0,3.166,2.01c4.143,1.337,10.966,1.316,14.158,3.735a21.053,21.053,0,0,1,6.034,7.143c2.234,4.2,3.27,8.775,5.4,13.152a.939.939,0,0,0,1.211.405A.823.823,0,0,0,2940.6,1585.491Z" transform="translate(-2910.17 -1559.903)" fill="#52a5f6" fill-rule="evenodd"/></g><g transform="translate(503.33 192.789)"><path d="M2984.9,1529.584a7.823,7.823,0,0,0,4.088-2.58,16.167,16.167,0,0,0,2.435-4.614c.64-1.625,1.216-3.175,2.348-4.116a12.353,12.353,0,0,0,2.622-3.223,16.889,16.889,0,0,0,1.6-3.7,21.448,21.448,0,0,0,.864-6.878,15.151,15.151,0,0,0-1.845-6.683c-.873-1.556-2.846-2.295-4.02-3.594a3.28,3.28,0,0,1-.667-1.065.151.151,0,0,0-.187-.086.137.137,0,0,0-.1.175,3.709,3.709,0,0,0,.694,1.175c1.106,1.3,3.033,2.055,3.842,3.6a14.546,14.546,0,0,1,1.594,6.5,20.812,20.812,0,0,1-1.032,6.634,15.81,15.81,0,0,1-1.621,3.467,11.215,11.215,0,0,1-2.48,2.9c-2.324,1.828-2.736,5.975-5.143,8.7a6.429,6.429,0,0,1-3.407,2.024.708.708,0,0,0-.53.88A.776.776,0,0,0,2984.9,1529.584Z" transform="translate(-2983.932 -1493.038)" fill="#52a5f6" fill-rule="evenodd"/></g><g transform="translate(491.528 200.321)"><path d="M2973.118,1526.671c-4.129,1.659-11.282.687-16.762-1.659-4.252-1.821-7.522-4.473-7.6-7.487a.195.195,0,0,0-.388,0c-.1,3.821,4.632,7.363,10.322,9.459,5.248,1.934,11.286,2.6,15.1,1.268a.833.833,0,0,0,.507-1.106A.937.937,0,0,0,2973.118,1526.671Z" transform="translate(-2948.37 -1517.343)" fill="#52a5f6" fill-rule="evenodd"/></g><g transform="translate(515.812 187.525)"><path d="M3022.041,1485.767c.032-.017.073-.038.109-.055a7.666,7.666,0,0,0,2.517-2.47,8.067,8.067,0,0,0,.973-4.49c-.11-1.233-.571-2.247-1.489-2.5a.1.1,0,1,1,.055-.192c1.037.227,1.644,1.3,1.859,2.652a8.594,8.594,0,0,1-.736,4.848,8.455,8.455,0,0,1-2.635,2.924,1.441,1.441,0,0,1-.584.251.513.513,0,0,1-.416-.141.452.452,0,0,1-.151-.392A.494.494,0,0,1,3022.041,1485.767Zm.507.4a.442.442,0,0,1,0,.114A.3.3,0,0,0,3022.548,1486.168Z" transform="translate(-3021.542 -1476.049)" fill="#52a5f6" fill-rule="evenodd"/></g></g></g><g transform="translate(582.871 548.353)"><path d="M1397.6,394.785,938.76,399.568l5.467,44.9,8.246,58.965s33.535,12.02,37.872,11.829c7.005-.31,59.858-10.237,67.57-10.136,33.917.444,23.076,1.932,68.905,5.961,25.66,2.257,99.54-18.532,120.739-19.05,18.53-.454,36.163,3.853,53.219,9.008,14.9,4.5,29.349,9.65,43.58,12.842,34.117,7.65,62.6-4.833,62.6-4.833Z" transform="translate(-938.76 -394.785)" fill="#ec8f66" fill-rule="evenodd"/></g><g transform="translate(1040.351 456.201)"><path d="M2424.159,265.443l79.339-80.731,3.6,89.813,1.975,25.175c-.838-.914-13.232,1.457-16.2,23.658-.907,6.762-11.442,12.442-20.464,18.715-6.573,4.57-15.619,8.672-20.766,15.062-12.427,15.42-17.021,34.362-17.021,34.362Z" transform="translate(-2424.159 -184.712)" fill="#dd7e54" fill-rule="evenodd"/></g><g transform="translate(1048.519 567.892)"><path d="M2446.228,665.605c.04-.045.1-.12.144-.172a4.345,4.345,0,0,0,.365-.635c.421-.849,4.508-13.6,9.076-22.416a58.59,58.59,0,0,1,8.561-12.34c.71-.791,15.634-9.869,26.933-21.939,5.053-5.4,9.384-11.409,10.973-17.55a22.62,22.62,0,0,1,7.121-11.393c4.756-4.188,10.444-5.874,13.241-5.978l.261,7.933c-1.681.033-4.973,1.254-7.879,3.718a15.235,15.235,0,0,0-4.929,7.554c-2,7.167-7.048,14.224-13.1,20.449-11.52,11.859-26.612,20.658-27.338,21.434-9.677,10.355-12.406,21.3-14.333,28.663-1.056,4.039-4.485,16-8.242,14.626l-1.524-12.1A4.166,4.166,0,0,0,2446.228,665.605Z" transform="translate(-2445.561 -573.182)" fill="#f8ba9b" fill-rule="evenodd"/></g><g transform="translate(596.222 643.066)"><path d="M983.95,930.06c17.459-2.2,20.157,12.389,38.769,11.549,11.55-.523,56.342-9.531,69.583-10.253,31.251-1.7,37.743,7.459,70.743,5.514,45.826-2.7,91.441-20.9,115.812-21.271,39.316-.592,62.529,11.135,87.861,22.439,27.216,12.144,59.136,2.566,72.328.348" transform="translate(-983.95 -915.577)" fill="none" stroke="#faccb5" stroke-linejoin="round" stroke-miterlimit="1.5" stroke-width="13" fill-rule="evenodd"/></g><g transform="translate(582.218 435.457)"><path d="M1415.537,510,967.425,521.393,878.71,630.234l4.662,28.289,458-11.9L1415,535.744Z" transform="translate(-878.71 -510)" fill="#ee9e76" fill-rule="evenodd"/></g><g transform="translate(581.767 435.457)"><path d="M1420,510l-449.88,10.878-87.4,107.2,460.012-7.511Z" transform="translate(-882.716 -510)" fill="#e0946e" fill-rule="evenodd"/></g><g transform="translate(845.496 497.065)"><path d="M1389.572,815.86c-10.708-26.67,1.174-34.162,1.1-42.752-.165-20.115-7.118-16.5-10.692-22.219-7.154-11.451-2.41-15.33,3.955-25.124,5.656-8.7,29.983-16.278,50.478-16.914,20.64-.641,39.633,8.953,45.1,18.1,4.8,8.026-.343,12.528-4.15,23.3-1.089,3.08-10.591,5.725-10.042,13.166,1.978,26.771.464,48.991-.97,53.263-6.4,19.035-23.241,41.184-23.432,57.615-.175,14.955,1.245,17.6-8.773,19.945-3.344.783-21.588-38.187-24.456-44.386C1398,828.917,1393.915,826.671,1389.572,815.86Z" transform="translate(-1376.402 -708.82)" fill-rule="evenodd" fill="url(#b)"/></g><g transform="translate(687.994 508.791)"><path d="M966.756,633.876c-2.219-6.628,3.36-17.291,7.047-21.312,9.649-10.521,44.522-13.027,57.945-7.529,19.763,8.093,10.443,19.7-4.031,36.191-3.972,4.525-15.009,7.146-7.146,25.972,2.8,6.717,6.029,10.481,7.911,13.918,9.1,16.625-9.033,30.174-14.268,37.311-3.031,4.128-15.071,7.409-25.186-2.827-6.74-6.822-16-16.02-14.558-23.153,1.081-5.349,12.635-38.245,12.653-40.115C987.254,639.742,968.978,640.5,966.756,633.876Z" transform="translate(-966.25 -602.203)" fill="#d57759" fill-rule="evenodd"/></g><g transform="translate(732.269 404.158)"><path d="M1430.013,409l-.094,0" transform="translate(-1429.92 -408.993)" fill="none" fill-rule="evenodd"/></g><g transform="translate(732.269 401.987)"><path d="M1430.013,402.038l-.094-.051" transform="translate(-1429.92 -401.987)" fill="none" fill-rule="evenodd"/></g></g></svg>