<?xml version="1.0" encoding="UTF-8" standalone="no"?>
<!DOCTYPE svg PUBLIC "-//W3C//DTD SVG 1.1//EN" "http://www.w3.org/Graphics/SVG/1.1/DTD/svg11.dtd">
<svg width="100%" height="100%" viewBox="0 0 2732 2048" version="1.1" xmlns="http://www.w3.org/2000/svg" xmlns:xlink="http://www.w3.org/1999/xlink" xml:space="preserve" xmlns:serif="http://www.serif.com/" style="fill-rule:evenodd;clip-rule:evenodd;stroke-linejoin:round;stroke-miterlimit:2;">
    <g>
        <g transform="matrix(0.549635,0,0,0.623323,162.42,601.908)">
            <path d="M2088.45,708.253L1998.69,629.108L1217.68,629.108L1127.93,708.253L1127.93,1510.49L1217.68,1589.63L1998.69,1589.63L2088.45,1510.49L2088.45,708.253Z" style="fill:rgb(107,107,107);"/>
        </g>
        <g transform="matrix(0.560464,0,0,0.623323,817.558,601.908)">
            <path d="M2088.45,709.813L1998.69,629.108L1217.68,629.108L1127.93,709.813L1127.93,1508.93L1217.68,1589.63L1998.69,1589.63L2088.45,1508.93L2088.45,709.813Z" style="fill:rgb(107,107,107);"/>
        </g>
        <g transform="matrix(0.727122,0,0,1.00285,210.653,-1.79486)">
            <path d="M2088.45,694.186L1998.69,629.108L1217.68,629.108L1127.93,694.186L1129.79,1589.3L2087.4,1590.56L2088.45,694.186Z" style="fill:rgb(128,128,128);"/>
        </g>
        <g>
            <g transform="matrix(1.26099,0,0,1,-347.653,1.13215)">
                <rect x="1145.83" y="778.064" width="48.743" height="99.343" style="fill:rgb(236,220,160);"/>
            </g>
            <g transform="matrix(1.26099,0,0,1,-347.653,136.255)">
                <rect x="1145.83" y="778.064" width="48.743" height="99.343" style="fill:rgb(236,220,160);"/>
            </g>
            <g transform="matrix(1.26099,0,0,1,-347.653,271.379)">
                <rect x="1145.83" y="778.064" width="48.743" height="99.343" style="fill:rgb(236,220,160);"/>
            </g>
            <g transform="matrix(1.26099,0,0,1,-610.333,278.679)">
                <rect x="1145.83" y="778.064" width="48.743" height="99.343" style="fill:rgb(236,220,160);"/>
            </g>
            <g transform="matrix(1.26099,0,0,1,-347.653,406.502)">
                <rect x="1145.83" y="778.064" width="48.743" height="99.343" style="fill:rgb(236,220,160);"/>
            </g>
            <g transform="matrix(1.26099,0,0,1,-610.333,413.802)">
                <rect x="1145.83" y="778.064" width="48.743" height="99.343" style="fill:rgb(236,220,160);"/>
            </g>
            <g transform="matrix(1.26099,0,0,1,-347.653,541.625)">
                <rect x="1145.83" y="778.064" width="48.743" height="99.343" style="fill:rgb(236,220,160);"/>
            </g>
            <g transform="matrix(1.26099,0,0,1,-610.333,548.925)">
                <rect x="1145.83" y="778.064" width="48.743" height="99.343" style="fill:rgb(236,220,160);"/>
            </g>
            <g transform="matrix(1.26099,0,0,1,-347.653,676.749)">
                <rect x="1145.83" y="778.064" width="48.743" height="99.343" style="fill:rgb(236,220,160);"/>
            </g>
            <g transform="matrix(1.26099,0,0,1,-610.333,684.049)">
                <rect x="1145.83" y="778.064" width="48.743" height="99.343" style="fill:rgb(236,220,160);"/>
            </g>
            <g transform="matrix(1.26099,0,0,1,-246.7,1.13215)">
                <rect x="1145.83" y="778.064" width="48.743" height="99.343" style="fill:rgb(236,220,160);"/>
            </g>
            <g transform="matrix(1.26099,0,0,1,-246.7,136.255)">
                <rect x="1145.83" y="778.064" width="48.743" height="99.343" style="fill:rgb(236,220,160);"/>
            </g>
            <g transform="matrix(1.26099,0,0,1,-246.7,271.379)">
                <rect x="1145.83" y="778.064" width="48.743" height="99.343" style="fill:rgb(236,220,160);"/>
            </g>
            <g transform="matrix(1.26099,0,0,1,-509.38,278.679)">
                <rect x="1145.83" y="778.064" width="48.743" height="99.343" style="fill:rgb(236,220,160);"/>
            </g>
            <g transform="matrix(1.26099,0,0,1,-246.7,406.502)">
                <rect x="1145.83" y="778.064" width="48.743" height="99.343" style="fill:rgb(236,220,160);"/>
            </g>
            <g transform="matrix(1.26099,0,0,1,-509.38,413.802)">
                <rect x="1145.83" y="778.064" width="48.743" height="99.343" style="fill:rgb(236,220,160);"/>
            </g>
            <g transform="matrix(1.26099,0,0,1,-246.7,541.625)">
                <rect x="1145.83" y="778.064" width="48.743" height="99.343" style="fill:rgb(236,220,160);"/>
            </g>
            <g transform="matrix(1.26099,0,0,1,-509.38,548.925)">
                <rect x="1145.83" y="778.064" width="48.743" height="99.343" style="fill:rgb(236,220,160);"/>
            </g>
            <g transform="matrix(1.26099,0,0,1,-246.7,676.749)">
                <rect x="1145.83" y="778.064" width="48.743" height="99.343" style="fill:rgb(236,220,160);"/>
            </g>
            <g transform="matrix(1.26099,0,0,1,-509.38,684.049)">
                <rect x="1145.83" y="778.064" width="48.743" height="99.343" style="fill:rgb(236,220,160);"/>
            </g>
            <g transform="matrix(1.26099,0,0,1,-145.747,1.13215)">
                <rect x="1145.83" y="778.064" width="48.743" height="99.343" style="fill:rgb(236,220,160);"/>
            </g>
            <g transform="matrix(1.26099,0,0,1,-145.747,136.255)">
                <rect x="1145.83" y="778.064" width="48.743" height="99.343" style="fill:rgb(236,220,160);"/>
            </g>
            <g transform="matrix(1.26099,0,0,1,-145.747,271.379)">
                <rect x="1145.83" y="778.064" width="48.743" height="99.343" style="fill:rgb(236,220,160);"/>
            </g>
            <g transform="matrix(1.26099,0,0,1,-145.747,406.502)">
                <rect x="1145.83" y="778.064" width="48.743" height="99.343" style="fill:rgb(236,220,160);"/>
            </g>
            <g transform="matrix(1.26099,0,0,1,-145.747,541.625)">
                <rect x="1145.83" y="778.064" width="48.743" height="99.343" style="fill:rgb(236,220,160);"/>
            </g>
            <g transform="matrix(1.26099,0,0,1,-44.7938,1.13215)">
                <rect x="1145.83" y="778.064" width="48.743" height="99.343" style="fill:rgb(236,220,160);"/>
            </g>
            <g transform="matrix(1.26099,0,0,1,-44.7938,136.255)">
                <rect x="1145.83" y="778.064" width="48.743" height="99.343" style="fill:rgb(236,220,160);"/>
            </g>
            <g transform="matrix(1.26099,0,0,1,-44.7938,271.379)">
                <rect x="1145.83" y="778.064" width="48.743" height="99.343" style="fill:rgb(236,220,160);"/>
            </g>
            <g transform="matrix(1.26099,0,0,1,-44.7938,406.502)">
                <rect x="1145.83" y="778.064" width="48.743" height="99.343" style="fill:rgb(236,220,160);"/>
            </g>
            <g transform="matrix(1.26099,0,0,1,-44.7938,541.625)">
                <rect x="1145.83" y="778.064" width="48.743" height="99.343" style="fill:rgb(236,220,160);"/>
            </g>
            <g transform="matrix(1.26099,0,0,1,56.1593,1.13215)">
                <rect x="1145.83" y="778.064" width="48.743" height="99.343" style="fill:rgb(236,220,160);"/>
            </g>
            <g transform="matrix(1.26099,0,0,1,56.1593,136.255)">
                <rect x="1145.83" y="778.064" width="48.743" height="99.343" style="fill:rgb(236,220,160);"/>
            </g>
            <g transform="matrix(1.26099,0,0,1,56.1593,271.379)">
                <rect x="1145.83" y="778.064" width="48.743" height="99.343" style="fill:rgb(236,220,160);"/>
            </g>
            <g transform="matrix(1.26099,0,0,1,315.244,270.247)">
                <rect x="1145.83" y="778.064" width="48.743" height="99.343" style="fill:rgb(236,220,160);"/>
            </g>
            <g transform="matrix(1.26099,0,0,1,56.1593,406.502)">
                <rect x="1145.83" y="778.064" width="48.743" height="99.343" style="fill:rgb(236,220,160);"/>
            </g>
            <g transform="matrix(1.26099,0,0,1,315.244,405.37)">
                <rect x="1145.83" y="778.064" width="48.743" height="99.343" style="fill:rgb(236,220,160);"/>
            </g>
            <g transform="matrix(1.26099,0,0,1,56.1593,541.625)">
                <rect x="1145.83" y="778.064" width="48.743" height="99.343" style="fill:rgb(236,220,160);"/>
            </g>
            <g transform="matrix(1.26099,0,0,1,315.244,540.493)">
                <rect x="1145.83" y="778.064" width="48.743" height="99.343" style="fill:rgb(236,220,160);"/>
            </g>
        </g>
        <g transform="matrix(1.26099,0,0,1,56.1593,676.749)">
            <rect x="1145.83" y="778.064" width="48.743" height="99.343" style="fill:rgb(236,220,160);"/>
        </g>
        <g transform="matrix(1.26099,0,0,1,315.244,675.617)">
            <rect x="1145.83" y="778.064" width="48.743" height="99.343" style="fill:rgb(236,220,160);"/>
        </g>
        <g transform="matrix(1.26099,0,0,1,157.112,1.13215)">
            <rect x="1145.83" y="778.064" width="48.743" height="99.343" style="fill:rgb(236,220,160);"/>
        </g>
        <g transform="matrix(1.26099,0,0,1,157.112,136.255)">
            <rect x="1145.83" y="778.064" width="48.743" height="99.343" style="fill:rgb(236,220,160);"/>
        </g>
        <g transform="matrix(1.26099,0,0,1,157.112,271.379)">
            <rect x="1145.83" y="778.064" width="48.743" height="99.343" style="fill:rgb(236,220,160);"/>
        </g>
        <g transform="matrix(1.26099,0,0,1,416.197,270.247)">
            <rect x="1145.83" y="778.064" width="48.743" height="99.343" style="fill:rgb(236,220,160);"/>
        </g>
        <g transform="matrix(1.26099,0,0,1,157.112,406.502)">
            <rect x="1145.83" y="778.064" width="48.743" height="99.343" style="fill:rgb(236,220,160);"/>
        </g>
        <g transform="matrix(1.26099,0,0,1,416.197,405.37)">
            <rect x="1145.83" y="778.064" width="48.743" height="99.343" style="fill:rgb(236,220,160);"/>
        </g>
        <g transform="matrix(1.26099,0,0,1,157.112,541.625)">
            <rect x="1145.83" y="778.064" width="48.743" height="99.343" style="fill:rgb(236,220,160);"/>
        </g>
        <g transform="matrix(1.26099,0,0,1,416.197,540.493)">
            <rect x="1145.83" y="778.064" width="48.743" height="99.343" style="fill:rgb(236,220,160);"/>
        </g>
        <g transform="matrix(1.26099,0,0,1,157.112,676.749)">
            <rect x="1145.83" y="778.064" width="48.743" height="99.343" style="fill:rgb(236,220,160);"/>
        </g>
        <g transform="matrix(1.26099,0,0,1,416.197,675.617)">
            <rect x="1145.83" y="778.064" width="48.743" height="99.343" style="fill:rgb(236,220,160);"/>
        </g>
        <g transform="matrix(1,0,0,1,-51.2071,27.9525)">
            <circle cx="1438.88" cy="571.86" r="128.653" style="fill:rgb(107,107,107);"/>
        </g>
        <g transform="matrix(1.19945,0,0,1.20391,-284.223,-126.351)">
            <rect x="1377.35" y="537.461" width="35.608" height="132.189" style="fill:rgb(255,89,47);"/>
            <g transform="matrix(6.12323e-17,-1,1,6.12323e-17,791.596,1998.71)">
                <rect x="1377.35" y="537.461" width="35.608" height="132.189" style="fill:rgb(255,89,47);"/>
            </g>
        </g>
        <g transform="matrix(0.795896,0,0,1.04522,283.546,-65.5348)">
            <rect x="1305.94" y="1449.18" width="152.548" height="137.069" style="fill:rgb(107,107,107);"/>
        </g>
    </g>
</svg>
