<?xml version="1.0" encoding="UTF-8" standalone="no"?>
<!DOCTYPE svg PUBLIC "-//W3C//DTD SVG 1.1//EN" "http://www.w3.org/Graphics/SVG/1.1/DTD/svg11.dtd">
<svg width="100%" height="100%" viewBox="0 0 2030 2048" version="1.1" xmlns="http://www.w3.org/2000/svg" xmlns:xlink="http://www.w3.org/1999/xlink" xml:space="preserve" xmlns:serif="http://www.serif.com/" style="fill-rule:evenodd;clip-rule:evenodd;stroke-linejoin:round;stroke-miterlimit:2;">
    <path d="M1037.5,891.346C1039.09,889.906 1038.06,894.069 1037.92,894.616C1037.28,897.286 1035.9,900.019 1034.34,902.262C1031.96,905.673 1029.06,909.072 1025.23,910.896C1022.46,912.215 1019.24,912.588 1016.38,913.758C1009.85,916.429 1004.8,920.637 1000.66,926.373C998.411,929.489 996.516,932.871 994.397,936.075C993.19,937.901 992.167,939.995 990.435,941.394C988.075,943.3 984.693,943.366 981.981,944.623C973.57,948.52 964.508,953.164 961.451,962.646C958.45,971.956 963.384,985.281 973.586,987.804C978.625,989.05 984.098,988.506 989.221,988.237C999.248,987.71 1008.47,986.344 1018.13,983.66" style="fill:none;"/>
    <g transform="matrix(0.945375,0,0,0.933515,27.176,50.5573)">
        <path d="M1554.62,1097.58C1498.97,1227.78 1333.93,1145.01 1317.98,1143.95C1294.97,1142.42 1270.77,1198.39 1276.89,1238.39C1280.57,1262.47 1278.75,1345.42 1298.61,1362.11C1391.46,1440.14 1689.5,1496.18 1716.86,1692.09C1739.01,1850.68 1563.98,1957.24 1516.05,1980.7C1399.81,2037.6 1129.47,2074.23 1007.83,2069.14C755.884,2058.6 422.161,1838.08 426.23,1730.55C435.223,1492.89 806.567,1433.88 847.922,1289.38C867.211,1221.98 877.381,1186.7 875.314,1128.65C870.776,1001.15 837.865,959.097 811.695,924.014C681.004,748.811 711.787,440.059 807.825,297.943C887.804,179.591 1080.21,123.69 1251.31,148.21C1373.13,165.666 1439.41,208.638 1502.15,284.547C1547.36,339.247 1621.31,423.249 1616.41,591.187C1615.57,620.14 1609.07,744.11 1607.83,778.367C1603.75,891.12 1588.34,1018.71 1554.62,1097.58Z" style="fill:rgb(168,113,82);"/>
        <clipPath id="_clip1">
            <path d="M1554.62,1097.58C1498.97,1227.78 1333.93,1145.01 1317.98,1143.95C1294.97,1142.42 1270.77,1198.39 1276.89,1238.39C1280.57,1262.47 1278.75,1345.42 1298.61,1362.11C1391.46,1440.14 1689.5,1496.18 1716.86,1692.09C1739.01,1850.68 1563.98,1957.24 1516.05,1980.7C1399.81,2037.6 1129.47,2074.23 1007.83,2069.14C755.884,2058.6 422.161,1838.08 426.23,1730.55C435.223,1492.89 806.567,1433.88 847.922,1289.38C867.211,1221.98 877.381,1186.7 875.314,1128.65C870.776,1001.15 837.865,959.097 811.695,924.014C681.004,748.811 711.787,440.059 807.825,297.943C887.804,179.591 1080.21,123.69 1251.31,148.21C1373.13,165.666 1439.41,208.638 1502.15,284.547C1547.36,339.247 1621.31,423.249 1616.41,591.187C1615.57,620.14 1609.07,744.11 1607.83,778.367C1603.75,891.12 1588.34,1018.71 1554.62,1097.58Z"/>
        </clipPath>
        <g clip-path="url(#_clip1)">
            <g transform="matrix(1,0,0,1,-3.89523,87.0405)">
                <path d="M1297.09,1262.19C1268.98,1272.74 1270.17,1156.62 1246.79,1035.37C1245.59,1029.15 1219.88,1026.24 1205.58,1108.82C1195.45,1167.28 1075.93,1173.65 1034.78,1163.32C999.902,1154.56 982.318,1161.26 925.669,1198.12C859.592,1241.11 819.385,1208.85 826.106,1192.44C872.683,1078.66 1187.34,808.926 1176.61,798.193C1171.14,792.729 1197.36,809.513 1220.21,815.064C1234.67,818.578 1247.6,804.1 1249.03,805.039C1257.63,810.699 1258.4,867.824 1269.2,915.933C1274.3,938.618 1280.12,959.276 1286.31,970.924C1301.91,1000.28 1336.9,1017.88 1365.82,1024.58C1414.73,1035.89 1521.49,1091.06 1519.13,1098.11C1514.24,1112.8 1379.29,1117.37 1368.9,1117.37C1306.15,1117.37 1335.74,1306.78 1297.09,1262.19Z" style="fill:rgb(142,90,61);"/>
            </g>
        </g>
    </g>
    <path d="M1258.16,1517.09C1256.78,1530.56 1233.67,1533.87 1206.24,1549.15C1194.16,1555.88 1193.94,1608.76 1205.59,1620.42C1219.89,1634.73 1234.85,1620.97 1251.33,1638.43C1297.29,1687.11 1365.27,1631.38 1373.35,1624.1C1388.41,1610.56 1391.58,1599.94 1376.98,1579.92C1362.36,1559.88 1384.43,1532.18 1379.15,1524.44C1366.28,1505.6 1309.82,1480.74 1288.4,1481.6C1273.89,1482.18 1260.2,1497.08 1258.16,1517.09Z" style="fill:url(#_Radial2);"/>
    <g transform="matrix(1,0,0,0.924547,0,92.8135)">
        <path d="M1218.82,779.93C1256.06,771.954 1337.79,816.276 1335.19,801.622C1312.24,671.852 1321.01,419.337 1378.12,405.433C1547.48,364.201 1545.81,384.834 1591.19,304.367C1617.57,257.6 1579.1,176.853 1537.98,164.696C1495.61,152.17 1433.08,159.935 1406.22,142.78C1375.88,123.405 1324.2,52.406 1278.44,17.001C1162.74,-72.512 1099.3,27.538 1120.51,63.886C1125.69,72.771 986.775,-34.328 926.177,-1.086C832.976,50.04 875.881,123.166 868.415,122.993C835.832,122.239 728.745,163.281 685.635,229.25C593.929,369.581 696.714,412.339 692.689,421.673C682.973,444.207 591.067,420.576 558.642,550.493C541.682,618.445 547.425,780.049 609.298,816.935C642.829,836.925 656.177,855.4 645.673,865.536C598.61,910.952 587.954,981.228 609.789,1041.86C652.383,1160.12 761.39,1263.81 883.815,1225.65C905.591,1218.87 965.984,1192.23 978.509,1141.2C985.621,1112.22 1016.38,1206.2 1080.73,1193.58C1121.02,1185.67 1157.89,1149.61 1160.66,1096.5C1162.38,1063.63 1147.94,1022.77 1151.86,1006.8C1158.69,978.902 1152.18,982.16 1200.68,942.132C1259.84,893.318 1220.9,788.505 1218.82,779.93Z" style="fill:rgb(46,28,22);"/>
    </g>
    <g transform="matrix(0.92062,-0.127494,0.109129,0.788006,-71.2957,368.35)">
        <path d="M1354.55,812.306C1329.97,829.07 1286.28,843.519 1267.48,792.291C1257.39,764.798 1275.32,725.584 1265.93,704.939C1252.96,676.463 1242.13,642.092 1252.71,598.36C1265.96,543.579 1333.04,544.151 1367.47,573.21C1382.56,585.945 1402.95,631.85 1380.32,669.646" style="fill:rgb(168,113,82);"/>
        <path d="M1349.14,801.478C1337.77,809.355 1321.77,817.048 1306.69,815.488C1294.73,814.251 1283.67,806.51 1276.62,787.717C1273.34,779.025 1273.74,768.85 1274.69,758.673C1275.86,746.003 1278.04,733.293 1278.09,722.347C1278.13,713.84 1276.97,706.213 1274.01,699.915C1267.27,685.583 1261.03,669.667 1258.22,651.539C1255.86,636.306 1255.85,619.516 1260.07,600.789C1265.41,576.046 1283.59,564.066 1303.97,560.834C1325.29,557.453 1349.11,563.201 1365.71,576.057C1374.03,582.651 1384.25,599.263 1387.72,619.152C1390.47,634.896 1388.91,652.611 1379.4,668.899C1379.05,669.489 1379.17,670.303 1379.68,670.715C1380.18,671.128 1380.88,670.984 1381.23,670.394C1391.56,653.59 1393.29,635.096 1391,618.454C1388,596.731 1377.87,578.116 1369.23,570.363C1348.46,551.346 1315.33,542.476 1288.49,550.1C1268.44,555.795 1252.09,570.715 1245.35,595.93C1239.79,617.465 1239.19,636.973 1241.45,654.763C1244.06,675.328 1250.62,693.548 1257.84,709.964C1260.36,715.678 1259.59,723.215 1258.67,731.466C1257.11,745.484 1254.12,761.124 1254.58,775.575C1254.82,783.035 1255.97,790.207 1258.35,796.864C1266.42,819.417 1278.85,831.209 1292.44,836.567C1315.01,845.47 1341.98,835.205 1359.96,823.135C1365.08,819.647 1366.81,811.963 1363.82,805.986C1360.84,800.01 1354.26,797.99 1349.14,801.478Z" style="fill:rgb(142,90,61);"/>
    </g>
    <g transform="matrix(1,0,0,0.753667,4.36614,194.156)">
        <path d="M1225.76,670.827C1215.85,659.74 1184.68,660.685 1182.09,681.234C1181.52,685.716 1183.14,690.404 1184.8,694.455C1187.11,700.126 1189.31,706.396 1192.92,711.416C1199.78,720.972 1210.4,729.145 1213.91,740.874C1216.65,750.009 1203.28,758.74 1200,766.033C1195.21,776.679 1198.48,787.53 1204.23,797.281C1208.47,804.48 1220.1,810.384 1228.41,809.088C1231.46,808.613 1236.66,807.532 1237.79,804.189C1240.58,795.897 1222.73,795.219 1221.99,769.061C1221.61,755.918 1239.09,764.474 1241.53,747.756C1245.29,721.998 1235.67,681.914 1225.76,670.827Z" style="fill:rgb(142,90,61);"/>
    </g>
    <defs>
        <radialGradient id="_Radial2" cx="0" cy="0" r="1" gradientUnits="userSpaceOnUse" gradientTransform="matrix(211.342,359.632,-359.632,211.342,1307.09,1588.28)"><stop offset="0" style="stop-color:rgb(121,77,52);stop-opacity:1"/><stop offset="1" style="stop-color:rgb(96,56,34);stop-opacity:1"/></radialGradient>
    </defs>
</svg>
