<?xml version="1.0" encoding="utf-8"?>
<!-- Generator: Adobe Illustrator 25.0.1, SVG Export Plug-In . SVG Version: 6.00 Build 0)  -->
<svg version="1.1" id="Layer_1" xmlns:serif="http://www.serif.com/"
	 xmlns="http://www.w3.org/2000/svg" xmlns:xlink="http://www.w3.org/1999/xlink" x="0px" y="0px" viewBox="0 0 876.2 542.9"
	 style="enable-background:new 0 0 876.2 542.9;" xml:space="preserve">
<style type="text/css">
	.st0{fill-rule:evenodd;clip-rule:evenodd;fill:#F8B099;}
	.st1{clip-path:url(#SVGID_2_);}
	.st2{fill-rule:evenodd;clip-rule:evenodd;fill:#C43C3C;}
	.st3{fill-rule:evenodd;clip-rule:evenodd;fill:#52A5F6;}
	.st4{fill-rule:evenodd;clip-rule:evenodd;fill:#EC8F66;}
	.st5{fill-rule:evenodd;clip-rule:evenodd;fill:#DD7E54;}
	.st6{fill-rule:evenodd;clip-rule:evenodd;fill:#F8BA9B;}
	.st7{fill:none;stroke:#FACCB5;stroke-width:23.25;stroke-linejoin:round;stroke-miterlimit:1.5;}
	.st8{fill-rule:evenodd;clip-rule:evenodd;fill:#EE9E76;}
	.st9{fill-rule:evenodd;clip-rule:evenodd;fill:#E0946E;}
	.st10{fill-rule:evenodd;clip-rule:evenodd;fill:url(#SVGID_3_);}
	.st11{fill-rule:evenodd;clip-rule:evenodd;fill:#D57759;}
	.st12{fill:none;}
</style>
<g transform="matrix(1.13092,0,0,1,-290.977,-119.719)">
	<path class="st0" d="M279.2,497.5l20.5,162.1l630.8,2.4L1032,501.3c0,0-8.5-101.8-14.1-194.3c-4.7-76.7-6.7-147.2-6.7-147"/>
	<g>
		<defs>
			<path id="SVGID_1_" d="M279.2,497.5l20.5,162.1l630.8,2.4L1032,501.3c0,0-8.5-101.8-14.1-194.3c-4.7-76.7-6.7-147.2-6.7-147"/>
		</defs>
		<clipPath id="SVGID_2_">
			<use xlink:href="#SVGID_1_"  style="overflow:visible;"/>
		</clipPath>
		<g class="st1">
			<g transform="matrix(1,0,0,1,-105.913,-2.02647)">
				<path class="st2" d="M810.3,660.8c0.6-0.1,1.2,0.3,1.4,1c0.2,0.8-0.1,1.6-0.8,1.8c-0.5,0.2-1.2,0.2-1.9-0.2
					c-0.6-0.3-1.2-1-1.9-2c-3.1-4.4-7.5-16-10.5-28.3c-2-8.2-3.3-16.7-3.3-23.6c0.1-4.3,0.7-7.9,2-10.4c2.2-4.3,6-7.2,10.6-9.3
					c5.3-2.5,11.6-3.9,17.5-5.5c4.1-1.1,8-2.4,11.1-4.2c6.8-3.9,10.7-7,13.3-10.1c2.4-2.8,3.7-5.6,5.3-9c1.7-3.8,3.8-8.3,7.8-14.3
					c0.1-0.2,0.3-0.2,0.5-0.1s0.2,0.4,0.1,0.6c-3.7,6.1-5.5,10.7-7.1,14.5c-1.5,3.6-2.8,6.6-5.2,9.7c-2.6,3.3-6.6,6.7-13.6,10.9
					c-3.2,1.9-7.3,3.3-11.6,4.5c-5.7,1.6-11.9,3-17.1,5.5c-4,1.9-7.4,4.4-9.3,8.2c-0.9,1.8-1.4,4.3-1.6,7.1
					c-0.3,5.2,0.4,11.6,1.7,18.2c2.6,13.5,7.6,27.8,11.1,33.2c0.4,0.7,0.8,1.2,1.2,1.5c0.1,0.1,0.1,0.1,0.2,0.2c0,0-0.1,0-0.1,0
					C810.2,660.8,810.2,660.8,810.3,660.8l-0.1,0C810.3,660.8,810.3,660.8,810.3,660.8C810.3,660.8,810.3,660.8,810.3,660.8
					C810.3,660.8,810.3,660.8,810.3,660.8C810.3,660.8,810.3,660.8,810.3,660.8z"/>
				<path class="st2" d="M717.9,543.3c-0.1,0-0.2-0.2-0.2-0.3c0-0.2,0.2-0.3,0.3-0.3c0.1,0,0.3,0.1,0.4,0.3c0.2,0.4,0.4,1.3,0.6,2.5
					c0.6,3.7,1.1,10.2,1.2,11c0.8,6.5,3.1,15.5,6.6,23.2c2.4,5.2,5.3,9.8,8.6,12.7c4.9,4.2,10.2,5,15.7,4.3c7.5-1,15.4-4.7,23.2-6.8
					c5.6-1.5,11.2-2.2,16.4-0.5c1.8,0.6,4,2.3,5.4,4.4c1.1,1.6,1.7,3.4,1.7,5.1c0,0.8-0.7,1.4-1.4,1.3c-0.7-0.1-1.2-0.7-1.2-1.5
					c0.1-1.4-0.7-2.8-1.6-4c-1.1-1.3-2.4-2.4-3.6-2.8c-6.1-2.1-12.6-0.7-19.1,1.3c-6.6,2-13.3,4.6-19.6,5.3
					c-5.9,0.6-11.6-0.4-16.7-5c-3.5-3.1-6.4-7.9-8.8-13.3c-3.5-7.9-5.7-17.1-6.4-23.7c-0.1-0.7-0.4-5.9-0.9-9.6
					c-0.2-1.4-0.3-2.5-0.5-3.2C718.1,543.5,718,543.3,717.9,543.3z"/>
				<path class="st2" d="M843,577.1c2.6,3.1,9.2,6,15.9,7.8c7,1.9,14.1,2.7,17.1,1.7c6.1-2.1,10.2-5.1,13.1-8.5
					c6.3-7.2,7.5-16,13.3-20.4c-5.9,4.1-7.4,12.9-13.9,19.8c-3,3.2-7,5.9-12.9,7.7c-2.9,0.9-9.7-0.3-16.2-2.3
					c-6.2-2-12.2-4.7-14.5-7.7c-0.5-0.6-1.3-0.6-1.8-0.1C842.6,575.6,842.6,576.6,843,577.1z"/>
				<path class="st2" d="M854.9,561.6c0.8,0.3,2.4,0.6,4.3,0.8c3,0.4,6.4,0.7,7.7,0.9c1.7,0.3,3.2-0.1,4.5-0.8
					c2.2-1.3,3.9-3.7,5.5-5.5c0.7-0.8,1.6-1.6,2.4-2.4c0.3-0.4,0.6-0.7,0.9-1.1c0-0.1,0.1-0.1,0.1,0c0,0,0.1,0.1,0,0.2
					c-0.2,0.4-0.5,0.8-0.8,1.2c-0.7,0.9-1.5,1.7-2.2,2.6c-1.5,2.1-3.2,4.7-5.4,6.2c-1.5,1.1-3.2,1.7-5.2,1.5
					c-1.7-0.2-7.1-0.1-10.3-0.4c-1.2-0.1-2.2-0.3-2.7-0.5c-0.3-0.2-0.5-0.4-0.7-0.5c-0.4-0.6-0.4-1.5,0.2-2
					C853.7,561.1,854.4,561.1,854.9,561.6z"/>
				<path class="st2" d="M758.9,593.9c-0.6-0.4-1.5-1.5-2.4-2.8c-1.5-2.3-3.3-5.4-4.9-8.7c-2.7-5.4-5-10.9-5.3-13.2
					c-0.5-4.1-0.2-7,0.9-9c0.9-1.8,2.3-2.9,4-3.6c4.4-2,10.8-1.8,16.9-2.7c6.2-0.9,12.1-3.1,15.6-9.4c1.6-2.9,1.8-6.2,1.1-9.6
					c-0.8-4.1-2.8-8.4-4.6-11.9c-1.7-3.4-3.3-6.1-3.2-7.4c0-0.2-0.1-0.4-0.3-0.4c-0.2,0-0.4,0.1-0.4,0.3c-0.2,1.3,1.1,4.4,2.8,8.1
					c1.5,3.5,3.3,7.7,3.9,11.7c0.5,2.9,0.4,5.7-1,8c-3.2,5.7-8.6,7.4-14.2,8.2c-6.3,0.9-12.9,0.6-17.5,2.7c-2.2,1-4,2.5-5.1,4.7
					c-1.3,2.5-1.8,5.9-1.2,10.7c0.3,2.8,3.5,10.4,6.8,16.8c2.5,4.8,5.2,8.9,6.8,10c0.6,0.4,1.4,0.2,1.8-0.5
					C759.7,595.2,759.5,594.3,758.9,593.9z"/>
				<path class="st2" d="M750.1,553.3c-6-0.3-12.8-6.5-15.8-14.8c-2.6-7.1-2.6-15.8,2.8-23.8c-5.9,7.9-6.4,16.9-4,24.4
					c2.9,9.3,10.2,16.4,16.9,17.1c0.7,0.1,1.3-0.5,1.4-1.3C751.4,554,750.8,553.3,750.1,553.3z"/>
			</g>
			<g transform="matrix(-0.835514,0,0,0.835514,2712.11,308.864)">
				<path class="st3" d="M2613.3,422.6c-0.1-2.8-1.4-6.4-3-10.6c-1.9-5.3-4.1-11.3-4.6-17.4c-0.3-4.4,0.2-8.9,2.4-13.2
					c2.2-4.4,6.1-7.3,10.7-9.5c5.3-2.5,11.7-3.9,17.5-5.5c4.1-1.1,8-2.3,11-4.1c6.7-3.9,10.6-7,13.2-10c2.4-2.8,3.7-5.6,5.3-8.9
					c1.8-3.8,3.8-8.3,7.9-14.2c0.1-0.2,0.4-0.3,0.6-0.1c0.2,0.2,0.2,0.5,0.1,0.7c-3.7,6.2-5.4,10.7-6.9,14.6
					c-1.5,3.7-2.8,6.7-5.2,9.8c-2.6,3.3-6.6,6.7-13.6,11c-3.2,1.9-7.3,3.3-11.6,4.5c-5.7,1.6-11.9,3-17.1,5.5c-4,1.9-7.3,4.3-9.2,8
					c-2.5,4.9-2.4,10.1-1.5,15.1c1.1,5.9,3.6,11.6,5.2,16.4c1,3,1.7,5.7,1.8,7.9c0,1-0.7,1.8-1.5,1.8S2613.3,423.5,2613.3,422.6z"/>
				<path class="st3" d="M2532.7,346.2c0,0,0.1,0.1,0.1,0.2c0.1,0.3,0.3,0.8,0.6,1.5c1.2,3.3,3.6,10.5,6.7,17.1
					c2.2,4.5,4.7,8.6,7.5,11.2c2.8,2.6,5.6,3.9,8.3,4.5c3.7,0.9,7.3,0.4,10.7-0.1c3.5-0.5,6.8-1.1,9.9,0.1c0.8,0.3,2.2,1.8,4.2,3.9
					c4.5,4.8,11.1,12.7,17.3,18.2c2.8,2.5,5.5,4.4,7.8,5.4c1.7,0.7,3.2,0.9,4.5,0.7c0.8-0.2,1.4-1.1,1.2-2c-0.2-0.9-0.9-1.6-1.8-1.4
					c-1.1,0.2-2.5-0.2-4-0.9c-1.9-1-4-2.5-6.1-4.3c-6.2-5.2-12.9-12.9-17.4-17.5c-2.3-2.4-4.1-3.9-5-4.3c-2.8-1-5.7-0.8-8.7-0.3
					c-3.8,0.6-7.8,1.7-12.2,0.8c-2.5-0.5-5.1-1.7-7.8-4c-2.8-2.4-5.3-6.3-7.4-10.6c-3.3-6.5-5.8-13.6-7.1-16.8
					c-0.3-0.9-0.6-1.5-0.8-1.7c-0.1-0.2-0.3-0.3-0.4-0.3c-0.2,0-0.3,0.1-0.4,0.3C2532.5,345.9,2532.6,346.1,2532.7,346.2z"/>
				<g transform="matrix(-0.380675,-0.489832,-0.867467,0.674156,3757.52,1366.21)">
					<path class="st3" d="M2370.9,233.1c2.5,2.9,8.3,5.6,14.7,7.5c4.6,1.4,9.4,2.3,13.2,2.7c3,0.3,5.6,0.1,7.1-0.4
						c5.6-1.9,9.5-4.6,12.4-7.6c6.9-7.3,7.6-16.7,13.6-21.3c-6.3,4.4-7.9,13.7-15.5,20.8c-2.9,2.7-6.6,5.1-11.8,6.7
						c-1.1,0.3-2.8,0.2-4.8,0c-3.5-0.4-7.7-1.4-11.8-2.8c-5.3-1.8-10.3-4.3-12.2-6.9c-0.6-0.7-2.1-0.9-3.5-0.6
						C2370.9,231.5,2370.3,232.4,2370.9,233.1z"/>
				</g>
				<path class="st3" d="M2668,343.8c-0.6-0.5-1.4-0.5-1.9,0c-0.7,0.6-0.7,1.7-0.2,2.4c0.2,0.2,0.4,0.5,0.8,0.6
					c0.5,0.2,1.5,0.4,2.7,0.5c3.2,0.3,8.6,0.1,10.3,0.3c2.1,0.2,3.8-0.4,5.3-1.5c2.2-1.6,3.8-4.2,5.4-6.3c0.6-0.9,1.5-1.7,2.1-2.6
					c0.3-0.4,0.6-0.8,0.8-1.3c0-0.1,0-0.2,0-0.2c-0.1,0-0.1,0-0.2,0c-0.2,0.4-0.6,0.8-0.9,1.1c-0.8,0.8-1.7,1.6-2.4,2.4
					c-1.6,1.8-3.3,4.2-5.6,5.5c-1.3,0.7-2.7,1.1-4.4,0.8c-1.9-0.4-8.6-0.9-11.4-1.6C2668.3,344,2668.1,343.9,2668,343.8z"/>
				<path class="st3" d="M2569.9,378.5c-2.9-5.8-3.5-10.6-2.4-14.5c0.8-3.2,2.6-5.9,5.2-8.2c6.2-5.7,16.9-9.4,26.2-13.8
					c6.4-3.1,12.2-6.4,15-11.3c0.5-0.9,0.6-2.2,0.4-3.7c-0.3-2.8-1.6-6.3-3.4-10c-1.5-3.1-3.2-6.3-5.1-9.5c-1.2-2.1-2.4-4.2-3.6-6.2
					c-3-5.1-5.7-9.6-7.2-12.6c-0.9-1.9-1.4-3.2-1.3-3.8c0-0.3,0.3-0.4,0.5-0.4c0.2,0,0.4,0.3,0.3,0.5c-0.1,0.5,0.5,1.5,1.4,3
					c1.7,2.9,4.7,7.1,7.9,12c1.3,2,2.6,4,3.9,6.1c2,3.2,3.8,6.5,5.3,9.6c2,4,3.4,7.8,3.8,10.9c0.3,2.3,0.1,4.2-0.8,5.6
					c-3,5.3-9.1,9.2-16,12.6c-9,4.4-19.4,8-25.3,13.6c-2.5,2.4-4.2,5.1-4.5,8.5c-0.2,2.8,0.6,6.1,2.5,9.9c0.4,0.8,0.2,1.9-0.6,2.4
					C2571.3,379.6,2570.3,379.4,2569.9,378.5z"/>
				<g transform="matrix(-1,0,0,1,2862.34,-29.8266)">
					<path class="st3" d="M278.2,380.2c1.2-1.9,1.9-3.5,3.1-4.9c0.7-0.8,1.5-1.4,2.6-2c5.2-2.7,11.6-3,17.4-4.7
						c2.7-0.8,5.2-1.8,7.5-3.4c1.7-1.2,2.9-2.9,3.7-4.7c1.2-2.7,1.6-5.8,2.5-8.5c0.6-2,1.8-4.5,2.2-6.9c0.2-1.1,0.2-2.3-0.1-3.3
						c-0.1-0.2-0.2-0.3-0.4-0.2c-0.2,0.1-0.3,0.3-0.2,0.5c0.3,1.2,0.1,2.5-0.3,3.8c-0.6,2-1.6,4-2.2,5.7c-0.9,2.6-1.4,5.6-2.7,8.2
						c-0.7,1.5-1.8,2.9-3.3,3.9c-2.2,1.4-4.6,2.2-7.1,2.8c-6,1.4-12.6,1.5-18.1,4c-1.5,0.7-2.6,1.6-3.5,2.5
						c-1.4,1.4-2.2,3.1-3.6,5.1c-0.5,0.8-0.4,1.9,0.3,2.4C276.7,381.1,277.7,381,278.2,380.2z"/>
				</g>
				<g transform="matrix(-1,0,0,1,2862.34,-29.8266)">
					<path class="st3" d="M291.9,367.5c-3,0-5.8-1.2-7.8-3.2c-2.1-2.2-3.1-5.4-1.9-8.6c0.2-0.6,0.6-1.2,1-1.6
						c1.2-1.3,2.8-2.1,3.6-3.4c0.1-0.2,0.1-0.4-0.1-0.5c-0.1-0.1-0.3-0.1-0.5,0.1c-0.9,1.2-2.6,1.8-3.8,2.9
						c-0.6,0.5-1.1,1.1-1.5,1.9c-1.9,3.9-0.9,7.9,1.5,11c2.2,2.7,5.6,4.6,9.2,5c0.8,0,1.6-0.7,1.6-1.7
						C293.4,368.3,292.8,367.5,291.9,367.5z"/>
				</g>
			</g>
			<g transform="matrix(1.21687,0,0,1.10878,-484.209,-164.894)">
				<path class="st3" d="M1215.4,659.9c-2.6-6.6-4-13.6-6.8-19.9c-1.8-4.1-4.1-7.9-7.6-11.2c-1.7-1.6-4.1-2.4-6.7-3
					c-3.5-0.8-7.4-1.2-10.2-2.2c-1.6-0.6-2.8-1.4-3.5-2.7c-0.1-0.1-0.2-0.2-0.3-0.1c-0.1,0.1-0.1,0.3-0.1,0.4c0.7,1.4,2,2.4,3.7,3.1
					c4.8,2.1,12.7,2,16.3,5.7c3.3,3.3,5.4,7,7,11c2.6,6.4,3.8,13.5,6.2,20.2c0.2,0.7,0.9,0.9,1.4,0.6
					C1215.4,661.4,1215.6,660.6,1215.4,659.9z"/>
			</g>
			<g transform="matrix(1.21687,0,0,1.10878,-484.209,-164.894)">
				<path class="st3" d="M1209.6,645c2.1-0.8,3.6-2.2,4.7-4c1.3-2.1,2.1-4.6,2.8-7.1c0.7-2.5,1.4-4.9,2.7-6.3c1.2-1.3,2.2-3.1,3-4.9
					c0.8-1.9,1.5-4,1.9-5.7c0.7-3.4,1.1-7,1-10.6c-0.1-3.5-0.8-7-2.1-10.3c-1-2.4-3.3-3.5-4.6-5.5c-0.3-0.5-0.6-1-0.8-1.6
					c0-0.1-0.1-0.2-0.2-0.1s-0.1,0.2-0.1,0.3c0.2,0.7,0.5,1.3,0.8,1.8c1.3,2,3.5,3.2,4.4,5.5c1.2,3.2,1.8,6.6,1.8,10
					c0,3.4-0.4,6.9-1.2,10.2c-0.4,1.6-1,3.5-1.9,5.3c-0.8,1.7-1.8,3.3-2.9,4.4c-2.7,2.8-3.2,9.2-5.9,13.3c-0.9,1.4-2.2,2.5-3.9,3.1
					c-0.5,0.2-0.7,0.8-0.6,1.3C1208.7,644.8,1209.2,645.1,1209.6,645z"/>
			</g>
			<g transform="matrix(1.21687,0,0,1.10878,-484.209,-164.894)">
				<path class="st3" d="M1223.5,614.7c-4.8,2.5-13,1.1-19.4-2.5c-4.9-2.8-8.7-6.9-8.8-11.5c0-0.2-0.1-0.3-0.2-0.3
					c-0.1,0-0.2,0.1-0.2,0.3c-0.1,5.9,5.3,11.3,11.9,14.5c6.1,3,13,4,17.4,1.9c0.5-0.3,0.8-1,0.6-1.7
					C1224.6,614.8,1224,614.5,1223.5,614.7z"/>
			</g>
			<g transform="matrix(1.21687,0,0,1.10878,-484.209,-164.894)">
				<path class="st3" d="M1223.5,595.7c0,0,0.1-0.1,0.1-0.1c0.7-0.5,2.1-2,2.9-3.8c0.9-2,1.3-4.7,1.1-6.9c-0.1-1.9-0.7-3.4-1.7-3.8
					c-0.1,0-0.1-0.1-0.1-0.2c0-0.1,0.1-0.1,0.1-0.1c1.2,0.3,1.9,2,2.1,4.1c0.3,2.4,0,5.3-0.8,7.4c-0.8,2.1-2.3,3.8-3,4.5
					c-0.3,0.3-0.6,0.4-0.7,0.4c-0.2,0-0.4-0.1-0.5-0.2c-0.1-0.1-0.2-0.3-0.2-0.6C1222.9,596,1223.2,595.7,1223.5,595.7z
					 M1224.1,596.3c0,0.1,0,0.1,0,0.2C1224.1,596.4,1224.1,596.4,1224.1,596.3z"/>
			</g>
		</g>
	</g>
</g>
<g transform="matrix(1.1567,0,0,0.453167,-353.665,479.552)">
	<path class="st4" d="M937.6-634.3l-630.3,18l7.5,168.6l11.3,221.4c0,0,46.1,45.1,52,44.4c9.6-1.2,82.2-38.4,92.8-38.1
		c46.6,1.7,31.7,7.3,94.7,22.4c35.2,8.5,136.7-69.6,165.9-71.5c25.5-1.7,49.7,14.5,73.1,33.8c20.5,16.9,40.3,36.2,59.9,48.2
		c46.9,28.7,86-18.2,86-18.2L937.6-634.3z"/>
</g>
<g transform="matrix(1.20937,0,0,0.506799,-460.647,392.232)">
	<path class="st5" d="M983.4-433.2l102.4-271.1l4.6,301.6l2.5,84.5c-1.1-3.1-17.1,4.9-20.9,79.4c-1.2,22.7-14.8,41.8-26.4,62.8
		c-8.5,15.3-20.1,29.1-26.8,50.6c-16,51.8-22,115.4-22,115.4L983.4-433.2z"/>
</g>
<g transform="matrix(1.20937,0,0,0.585565,-460.647,364.212)">
	<path class="st6" d="M995.8,40.5c0.1-0.1,0.1-0.3,0.2-0.5c0.2-0.5,0.3-1.2,0.5-1.8c0.6-2.5,1-5.6,1.4-9.3
		c1.9-15.5,3.7-39.2,9.7-64.8c2.8-11.8,6.4-23.9,11.2-35.9c0.9-2.3,20.5-28.7,35.4-63.8c6.6-15.7,12.3-33.2,14.4-51
		c1.7-14.3,5.3-25.2,9.4-33.1c6.2-12.2,13.7-17.1,17.4-17.4l0.3,23.1c-2.2,0.1-6.5,3.6-10.4,10.8c-2.8,5.2-5.3,12.4-6.5,22
		c-2.6,20.8-9.3,41.3-17.2,59.4c-15.1,34.5-35,60-35.9,62.3c-12.7,30.1-16.3,61.9-18.8,83.3c-1.4,11.7-2.6,20.8-4.4,25.8
		c-2.4,7-5.6,9.9-10.5,5.8l2.8-15.3C995.2,40.3,995.6,40.5,995.8,40.5z"/>
</g>
<g transform="matrix(1.15876,0,0,0.585565,-358.627,264.415)">
	<path class="st7" d="M329.3,193.9c15.7,0,27.6,36,53.2,33.6c15.8-1.5,77.3-27.7,95.4-29.8c42.9-5,51.8,21.7,97,16
		c62.8-7.9,125.4-60.8,158.8-61.8c53.9-1.7,85.7,32.4,120.5,65.2c37.3,35.3,81.1,7.5,99.2,1"/>
</g>
<g transform="matrix(1.13104,0,0,1,-295.584,0)">
	<path class="st8" d="M1016.1,0L386.6,19.4L262,204.6l6.5,48.1l643.4-20.3l103.4-188.7L1016.1,0z"/>
</g>
<g transform="matrix(1.13348,0,0,1,-300.949,0)">
	<path class="st9" d="M1018.7,0L388,18.5L265.5,201l644.8-12.8L1018.7,0z"/>
</g>
<g transform="matrix(0.990913,0.038354,-0.0404616,0.755952,-158.628,148.56)">
	
		<radialGradient id="SVGID_3_" cx="-354.8477" cy="894.3749" r="1" gradientTransform="matrix(-97.3045 11.6302 8.15 186.1175 -41160.7695 -162340.2969)" gradientUnits="userSpaceOnUse">
		<stop  offset="0" style="stop-color:#89593B"/>
		<stop  offset="1" style="stop-color:#6E442B"/>
	</radialGradient>
	<path class="st10" d="M610.3,152.2c-19.6-59-1.3-76.8-2.2-96.1C606,10.9,595.2,19.6,589,7c-12.5-25.1-5.3-34.2,4-56.8
		c8.3-20,46.5-39,79.2-42.1c33-3.1,64.2,16.9,73.8,37c8.4,17.6,0.6,28.2-4.5,52.7c-1.5,7-16.4,13.7-14.9,30.4
		c5.6,60,5.2,110,3.3,119.7c-8.5,43.3-33.4,94.4-32.2,131.3c1.1,33.6,3.6,39.4-12.2,45.5c-5.3,2-38-84-43.2-97.7
		C625,180.8,618.2,176.1,610.3,152.2z"/>
</g>
<g transform="matrix(0.89977,0,0,0.841615,-64.4132,144.459)">
	<path class="st11" d="M260.1,40.7c-3.9-13.4,5.9-35,12.4-43.1c17-21.3,78.6-26.3,102.3-15.2c34.9,16.4,18.4,39.8-7.1,73.2
		c-7,9.1-26.5,14.5-12.6,52.5c5,13.6,10.6,21.2,14,28.1c16.1,33.6-16,61-25.2,75.4c-5.4,8.3-26.6,15-44.5-5.7
		c-11.9-13.8-28.2-32.4-25.7-46.8C275.6,148.3,296,81.8,296,78C296.3,52.5,264,54.1,260.1,40.7z"/>
</g>
<g transform="matrix(1.17594,0,0,1,-394.679,0)">
	<path class="st12" d="M539.1-53.3c0,0-0.1,0-0.1,0"/>
</g>
<g transform="matrix(1.17594,0,0,1,-394.679,0)">
	<path class="st12" d="M539.1-56.9c0,0-0.1-0.1-0.1-0.1"/>
</g>
</svg>
