<svg xmlns="http://www.w3.org/2000/svg" width="267" height="267" viewBox="0 0 267 267">
  <path id="Differenzmenge_2" data-name="Differenzmenge 2" d="M133.5,267a134.445,134.445,0,0,1-26.9-2.712A132.792,132.792,0,0,1,58.858,244.2a133.882,133.882,0,0,1-48.367-58.736,132.761,132.761,0,0,1-7.779-25.059,134.817,134.817,0,0,1,0-53.81A132.792,132.792,0,0,1,22.8,58.858,133.882,133.882,0,0,1,81.536,10.491,132.726,132.726,0,0,1,106.6,2.712a134.817,134.817,0,0,1,53.81,0A132.8,132.8,0,0,1,208.142,22.8a133.882,133.882,0,0,1,48.367,58.736,132.726,132.726,0,0,1,7.779,25.06,134.817,134.817,0,0,1,0,53.81A132.8,132.8,0,0,1,244.2,208.142a133.882,133.882,0,0,1-58.736,48.367,132.761,132.761,0,0,1-25.059,7.779A134.455,134.455,0,0,1,133.5,267Zm-28.951-98.469a3.627,3.627,0,0,1,2.635,1.2c10.781,10.781,14.086,24.247,16.5,34.08,1.948,7.938,3.355,13.675,7.706,13.675,8.638,0,12.941-5.092,17.925-10.987,3.8-4.489,8.1-9.578,15.069-13.237a24.952,24.952,0,0,1,6.9-2.386,36.379,36.379,0,0,1,7.075-.631,86.163,86.163,0,0,1,9.273.629l.688.074a71.794,71.794,0,0,0,7.314.556c4.966,0,7.424-1.5,8.22-5.015,1.21-5.348-5.084-8.552-11.746-11.944l-.008,0c-3.854-1.963-7.839-3.992-10.555-6.535a10.684,10.684,0,0,1-2.951-4.261,8.479,8.479,0,0,1-.01-5.373c1.251-4.343,3.107-7.32,5.675-9.105a13.284,13.284,0,0,1,7.9-2.1,54.234,54.234,0,0,1,5.689.407l.088.01a51.5,51.5,0,0,0,5.438.4c4.18,0,8.7-1.025,10.546-8.627-1.842-10.524-8.026-14.074-13.482-17.207a32.383,32.383,0,0,1-5.592-3.726,10.054,10.054,0,0,1-3.283-5.49c-1.087-4.891,3.447-12.986,7.833-20.815l0,0c4.318-7.712,8.4-15,6.938-18.777a3.773,3.773,0,0,0-2.487-2.208,7.775,7.775,0,0,0-2.466-.36c-5.5,0-14.036,4.286-21.573,8.068l-.5.252C171.3,83.1,163.733,86.9,158.872,86.9a5.529,5.529,0,0,1-3.009-.745c-5.2-3.32-7.567-8.234-9.854-12.987-3.084-6.409-5.747-11.943-14.621-11.943-5.445,0-8.929.956-10.961,3.01-2.646,2.674-2.6,6.939-2.547,12.339.069,6.683.155,15-4.96,23.786a3.773,3.773,0,0,1-2.807.963c-2.708,0-6.443-1.5-10.4-3.092L99.4,98.1c-3.758-1.509-8.017-3.219-11.2-3.219A4.636,4.636,0,0,0,84.1,96.71c-2.251,3.191-1.2,10.753,3.207,23.116a5.506,5.506,0,0,1-.2,4.7c-2.292,4.1-10.376,5.8-18.193,7.451l-.01,0c-8.045,1.7-15.64,3.3-15.64,7.373a5.581,5.581,0,0,0,2.491,4.574,27.091,27.091,0,0,0,5.53,2.9c4.218,1.833,8.578,3.729,8.578,8.291,0,.627,0,1.324-.009,2.063v.12a116.2,116.2,0,0,0,.958,18.591,30.712,30.712,0,0,0,2.514,8.628,9.767,9.767,0,0,0,4.975,5.083,4.332,4.332,0,0,0,1.584.3c1.806,0,3.849-1.093,6.245-3.341a71.991,71.991,0,0,0,6.45-7.348l.4-.5C97.171,173.477,101.13,168.531,104.549,168.531Z" fill="#fff"/>
</svg>
