<?xml version="1.0" encoding="utf-8"?>
<!-- Generator: Adobe Illustrator 25.0.1, SVG Export Plug-In . SVG Version: 6.00 Build 0)  -->
<svg version="1.1" id="Layer_1" xmlns:serif="http://www.serif.com/"
	 xmlns="http://www.w3.org/2000/svg" xmlns:xlink="http://www.w3.org/1999/xlink" x="0px" y="0px" viewBox="0 0 1561 508"
	 style="enable-background:new 0 0 1561 508;" xml:space="preserve">
<style type="text/css">
	.st0{fill:#00404E;}
</style>
<path class="st0" d="M375,226.6c-1.8,0-12.2,5.6-13.9,7c-8.2-8.9-2.6-6.2-10.2-4.2c-3.4-3.7-6.8-7.5-10.2-11.2
	c-0.8,0.3-1.6,0.6-2.3,0.9c0.3,1.9,6.9,15.3,5.7,16.4c-4.2-2.4-8.2-4.8-12.3-7.2c-0.7-14.5,14.2-15.9,20.3-25.7
	c-0.3-0.5-0.5-0.9-0.7-1.3c-20.1-3.2-43.7-9.4-61.6,1.1c-0.8,4.8-8.2,27-10.8,27c-1.9-0.7-3.7-1.4-5.5-2.1c0.4-1.2,4-1,5.1-1
	c-1.9-7.8-2.4-10.5-8.4-14.9c-9.9-11.8-15.7-24.8-22.9-37.7c-5.5-9.3-14-18.4-16.6-27.3c-1-0.3-1.9-0.6-2.8-0.9
	c-0.4-1.4-0.7-2.8-1-4.1c-2.4-14.7-12.3-22.4-2.4-36.4c-0.5-3.2-1-6.3-1.4-9.4c-3.5-2.2-3.3-2-4.5-5.4c3.2-2.6,6.7,1.4,9.5,4
	c27,3.6,9.4-30.6-5.5-12.8c-8.5-3.7,2.7-11.5,1-21.3c-6.4-2.2-11.4-4.5-16.9-0.4c-5.3,8.1,3.5,12.9,3,21.6
	c-6.8,0.6-11.7-11.2-20.6-3.4c-8.5,28.4,11.2,10.1,21.6,12c0.8,6.4-11.8,6.6-1.7,19.7c-15.2,4.1-31,4.6-46,6.9
	c-0.5,1.7-1,3.4-1.6,5.1c0.7,0.4,1.3,0.8,2.1,1.2c-0.1,1.9-0.7,4.2-0.5,6.8l2,0.9c-1.4,3-3.9,2-0.2,6.1c9.7,1.4,26.1-3.1,36.8-4.2
	c0,18.2-49.4,54.6-32.8,66.9c3.1-3.7,5.4-9,6.3-10.3c1.6-2.3,13.8-21.1,15.8-23.3c0.4,0.2,0.9,0.3,1.4,0.6c2,6.5-7.8,30.3-10.3,39
	c-1.2,7.5-1.5,15.9-5.5,22.9c-3.2-2.3,1.4-3.9-4.1-5.4c3-7-0.4-5,6.1-10.1c-0.6-10-13.1-14.1-19.5-17.7c0.5-11.4-4.4-12.3-11.7-7.4
	c0.7,0.6,1.5,1.2,2.3,1.8v2.2c-5.7,4.1-11.9,8.4-17.4,12c-5.4-3.5,4.6-25,5.9-29.9c-0.6-18.2,0.1-32.2-17.4-34.5
	c-1.4,2.7,1.3,14,1.8,18.5c-7.4,8.9-15.4,14.6-7.9,25.4c1,10.1,3.2,11.4,12.8,14c0,0.6,0.1,1.2,0.1,1.8h-8.8c0,0.9,0,1.8,0.1,2.8
	c1.6,0.9,7-0.2,9.5-0.5c0,0.6,0,1.2,0.1,1.9c-2,1-7.5,0.5-9.9,1c-0.3,5.2-0.8,10.2-1.9,15.3c-1.2,2-7.9,13.2-9.1,11.8
	c5.9-11.8,9.7-22-4.3-8.7c-8.3,3.7-6.3-6.5-14.2,5.8c-5.7-4.4-5.4-5-11.1-4.7c-0.7-0.8-1.3-1.6-1.9-2.4c-2-0.1-3.9-0.1-5.9-0.1
	c-0.7,1.3-1.3,2.6-1.9,3.9c0.4,1.2,1,2.5,1.5,3.7c-0.5,13,8.7,13.8,18.4,19.5c-1.6,1.8-12.8-4.9-16.7-4.3c-0.4,0.9-0.9,1.8-1.3,2.7
	l2.9,4.1c5.7,0.5,15.4,10.2,21.1,14.6c-1,10.4-1.9,20.8-2.8,31.2c0.5,0.3,1,0.7,1.6,1.1c-0.9,4.7-3.6,13.1-3.6,17.8
	c4.9,4.4,0.2,6.4,0,14.6c5.4,5.8,3.9,10.5,3.8,19.5c0.8,0.6,1.6,1.3,2.4,2c0.1,5,0.1,10.1,0.3,15.3c1.2,1,2.4,2.1,3.6,3.1
	c0.1,6.3,0.7,10.8,2.1,17.6c-4.1,2.2-7.9,1.4-12.2,3.5l1.6,1.9c13.6,0.7,23.2-6.2,35.8-6.2c20.7,11.1,17.1,20.8,41.9,6.8
	c12-1.7,15.2,19.7,31.7,10.8c25.2-21,18.8-10.3,40.5,5.2c2.8-0.1,5.5-0.1,8.3-0.1c21.6-15.2,13.9-21.8,37.8-2.3
	c11.4,1.9,19.2-13.6,26.4-13.6c18.6,6.6,22.3,8,42.2-2.3c-6.3-8.1-7.7,3.4-13.4,3.4c-0.6-3.2,0.2-5.5,0.2-8.2
	c5.8-5.5,11.6-11,17.4-16.4V369c-3.7-1.9-7.4-3.8-11.1-5.6c0.3-6.2-0.4-13,4.1-16.9c-4.1-22.2-2.4-46.4-0.9-68.6
	c1.5-2.4,3.1-4.8,4.7-7.1c6.2-7.4,14.2-9.4,20.6-16.7l-1.6-2.3c-6.5,1.4-10,2.7-15.4,5.6C357,251.1,386.9,253.6,375,226.6
	 M169.1,191.9l0.3,4.1c-0.2,0-0.4,0-0.7,0.1c-2.4-2.1-2-2.5-1.8-4.5C167.9,191.5,167.9,191.5,169.1,191.9 M171.7,191.5
	c-2.5-1-2.9-3.5-3.5-5c0.4-0.5,0.7-0.9,1-1.2C173.5,186.1,171.7,191.5,171.7,191.5 M173.8,180.6c1.2,2.5,1.5,3.2,1.3,7.4
	c-2.5-3.6-2.6-3.9-2.8-7.4H173.8z M176,175.6c0.7,1.3,1.4,2.7,2.3,4.2c-0.7,2.6-0.7,2.6-0.9,2.5c-1.2-1.7-2.3-3.3-3.3-4.9L176,175.6
	z M179,170.8c1.3,1.5,3.3,2.9,3.1,6.4c-0.5,0.2-1,0.6-1.5,0.9c-1.1-1.9-2.1-3.9-3.2-5.7C178,171.9,178.5,171.3,179,170.8
	 M184.7,168.3c0,1.1,0,2.3,0.1,3.4c-0.6,0.3-1.2,0.7-1.7,1.1c-2.3-3.8-1.8-3.6-2-6.8C183.5,166.1,182.7,167.8,184.7,168.3
	 M188.1,167.7c-0.4,0.5-1,1.2-1.5,1.2l-2.2-5.1c0.2-0.4,0.4-0.8,0.7-1.1C187.3,163,187.6,164.2,188.1,167.7 M189.4,162.7
	c-1.2-2.1-1.3-3-1.4-4.6c0.4-0.4,0.7-0.8,1.2-1.2C190.7,158,190,163.4,189.4,162.7 M314.9,390.1c0.4-0.7,1-1.4,1.5-2
	c9.3,2,13,0.9,22.8-1.5c-0.1,2.3-0.1,4.7-0.1,7.1l-12.3,0.7C315.2,390.4,315.2,390.4,314.9,390.1 M269.1,335.6
	c-4-5.1-18.3-20.3-18.3-26.5c7.7-3.6,14.6,7.5,19.5,13.4c11.6,11.9,26.7,19.1,41.6,26.8c40.4,19.7,40.4,19.7,41,20.1
	c-9.3,12.5-13.9,15.7-28.1,17.7C295,379.8,286.5,360.7,269.1,335.6 M313.1,257.9c4.2,2.2,12,2.6,18.1,5.6c-0.6,1.4-1.6,4.5-2.6,5.7
	c-8.4-4-16.5-9.8-21.9-17c2.4-3.3,8.2-2.8,12.1-3.3c0,0.1,0,0.3,0.1,0.6c4.8-1,5.9-3.1,9.7,0.1l-1.8,2.7c-5.5,0-14.4-1.8-18.1,2.2
	c7.6,0.1,13.7,0.6,21.9,2.4c-1.7,5.6-14.4,0.3-17.4-0.5C313.1,256.8,313.1,257.4,313.1,257.9 M328.4,236c0.7,1.8,7.7,22.2,4.2,18.5
	C329.4,246.5,324.7,242.6,328.4,236 M314.6,246.6c-0.2-0.2-0.3-0.4-0.4-0.6c3-2.8,4.8-3.8,8.5-5.6c0.5,0.8,1.1,1.6,1.7,2.4
	C323.1,245.4,317.1,246.2,314.6,246.6 M209,148.2c-0.3,0.6-0.6,1.1-1.1,1.4c-0.7-0.6-1.5-1-2.2-1.5c0.2-0.5,0.4-1,0.7-1.4
	C207.1,146.8,207.8,147.2,209,148.2 M208.9,141.6c-0.4,0.2-0.8,0.5-1.2,0.7l-2-1.2v-0.6c1.3-1,0.9-1,3.3,0.3
	C208.9,141,208.9,141.3,208.9,141.6 M195.1,167.4c0.1-0.3,0.4-0.6,0.6-0.9c1,0.5,1.9,1,2.9,1.6c0,0.8-0.7,1.4-1.4,1.4
	C196.2,168.8,195.2,167.7,195.1,167.4 M198.7,175.6c-0.4,0.1-0.8,0.3-1,0.5c-1.5-1.6-3-3.2-4.5-4.7
	C195,169.4,197.9,172.5,198.7,175.6 M195.7,163.7c0-0.5,0-0.5,0.7-2.2c1.1,0.6,3.4,1.1,3.2,3.6c-0.3,0.2-0.6,0.3-0.8,0.6
	C197.8,165,196.7,164.4,195.7,163.7 M205,181c-0.1,0.9-0.2,1.8-0.2,2.6c-0.1,0-0.2,0.1-0.2,0.2c-2.5-1.4-3.5-3.4-4.7-4.2v5.4
	c1.9,0.5,4-0.3,3.8,3.8c-0.2,0.2-0.4,0.3-0.7,0.6l-3.9-3.4c-4.3,15-6.8,32.5-6.1,48.7c3.4-2.6,3.4-2.2,7.9-1.4
	c1.2-8.6,2-17.9,4.7-25.3c2.2,7.2,0.3,16.6-0.7,24.8c-7.1,1.7-11.1,3.8-17,6.1c-3.3,7-5.2,10.5-4.7,20.5c0.8,0.2,1.6,0.4,2.5,0.6v1
	c-3.3,0.4-3.8,3.2-4.8,6.3h-0.2c-0.2,0,0.4-9.6,0.3-10.5c-7.1-16.8,8.7-40.9,12-56.7c0.3-5.1,2.7-20.4,6.2-22.5
	C201.1,178.7,203,179.9,205,181 M177.1,283.9h2c1.3-6.8,2.7-11.1,5.6-16.9c1.8,0.1,3.6,0.2,5.4,0.3c-1,8.8-1,22.5-11.5,25.1
	c-7.6-1.4-3.8-29.2-2.4-31.6c0.7,0.5,1.5,1,2.3,1.6C178.5,269.1,177.5,276.3,177.1,283.9 M177.8,256.2c-0.3,0.5-0.7,1-1.1,1.2
	c-3.6-1.3-5.9-3-8.2-4.7c0-0.4,0-0.8,0.1-1.2C171.9,251.7,174.9,252.2,177.8,256.2 M175,247c-0.7-0.5-1.3-1-1.8-1.4
	c0-0.4,0-0.8,0.1-1.1c0.3,0.2,2,0.7,2.6,2C175.6,246.7,175.3,246.8,175,247 M162.1,249.9l0.2,1.4c0.4-0.3,0.7-0.6,1.1-0.8
	c3.5,4.2,3.6,13.3-3.7,13.3C146.2,260.8,150.9,251.6,162.1,249.9 M151.4,249.1c-5-1.3-6.7-4.9,0.6-4.9
	C153.1,246.2,155,248.1,151.4,249.1 M164.6,247.9c0.8-0.8,1.7-1.5,2.6-2.2c1.1,0.7,1.6,0.4,2.4,2.8c-1,0.8-2.3,0.9-2.9,1
	C164.8,248.2,164.8,248.2,164.6,247.9 M167.3,240.3c0.9-0.6,1.8-1.1,2.7-1.6c0.6,1.1,0.6,1.1,1,2.5c-0.3,0.4-0.5,0.9-0.8,1.4H170
	c-0.8-0.2-1.6-0.3-2.4-0.4L167.3,240.3L167.3,240.3z M169.8,256.3c0.7,0.4,1.5,0.8,2.4,1.2c0,0.2-1.6,12.6-2.4,11.6
	C165.8,260.9,165.9,264.2,169.8,256.3 M202.7,246.7c0,2.7-6,4.1-8,4.5l-0.9-0.7C197.1,248.1,198.4,247.6,202.7,246.7 M200.2,245.1
	c-1.3,0.3-5,1.7-5.7,1.4c-0.1-0.3-0.3-0.6-0.4-0.9c2.6-1.3,3.4-2.7,6.8-2.5L200.2,245.1L200.2,245.1z M201,253.2
	c-1.6,1.9-4.5,3.3-6.5,3.3l-0.7-0.9C196,253.9,198,251,201,253.2 M194,259.7c0.6,0.1,1.2,0.3,2.4,1.2c-0.2,0-0.3,0-0.4,0.1l-2.2-1
	C193.8,259.8,193.9,259.8,194,259.7 M197.3,266c-0.4,0.4-0.7,0.6-1.1,0.6c-0.8-0.6-1.6-1-2.3-1.5v-1.3
	C195.5,262.7,196.1,264.2,197.3,266 M195.2,270.2c-0.3,0.2-0.6,0.5-0.8,0.7c-0.6-0.5-1.1-1-1.6-1.4c0-0.4,0-0.7,0.1-1
	C193.5,269,194.3,269.6,195.2,270.2 M192.1,271.9c4.3,1.9,2.3,4.5,2.1,4.2C191.5,274.3,190.6,274.1,192.1,271.9 M194.9,281.2
	c-0.1,0.3-0.3,0.7-0.4,1.1c-0.8-0.2-1.5-0.3-2.2-0.4c-0.3-0.6-0.5-1.2-0.7-1.8C192.9,279.3,193.4,279.8,194.9,281.2 M191.3,261.7
	c-0.1,0-0.3,0-0.4,0.1c-0.4-0.3-0.9-0.6-1.3-0.9c0-1.3,0.4-1.3,0.9-2.2c-1-0.1-2.1-0.2-3-0.2c-2.5-8.3-1.1-11.5,1-19.3
	c5.1-1.7,9.9-3.4,15.7-3.4c0.1,0.2,0.3,0.4,0.4,0.6c-5,8.1-14.3,1.3-13.3,14.1c-0.7,3.7-3.1,4.5,0.4,6.8
	C191.8,258.8,192.3,259.8,191.3,261.7 M190.1,263.9l0.2,1.3c-0.4,0.3-0.7,0.6-1,1c-0.4-0.7-0.8-1.4-1.2-2.2L190.1,263.9z M194,291.7
	c0,0.4,0,0.9,0.1,1.4c-0.4,0.3-0.4,0.3-0.8,0.3c-1.9-1-2.5-2.2-3.3-3.3c0.1-0.5,0.1-0.9,0.2-1.3C192,289.2,192,290.5,194,291.7
	 M193.5,297.2l-0.2,1.8c-0.4-0.1-0.7-0.1-1.1-0.1c-2.2-0.3-1.7-1.6-2.2-2.6C191.3,294.4,191.3,295.2,193.5,297.2 M192.6,305.4
	c-2.4-1.5-5.3-3.4-5.3-5.7C189.2,299.6,193,301.9,192.6,305.4 M190.9,310.2c-0.7-0.1-1.5-0.1-2.2-0.1c-0.5-0.6-1-1.1-1.5-1.7
	c0.4-0.6,1.1-1.4,1.6-1.8C189.9,307.6,190.6,307.7,190.9,310.2 M134.1,296.7c-0.3,0-0.6,0-0.9,0.1c-12.2-2.2-17.1-25.6-10.8-34.4
	C132.7,252.1,138.7,287.8,134.1,296.7 M123.3,256.1c-0.4-0.8-0.7-1.6-1.1-2.3c0.4-0.5,0.8-1,1.3-1.5
	C123.6,252.7,124.5,257.4,123.3,256.1 M120.8,259.4c-0.5-1.3-1-2.5-1.5-3.7c1-0.9,1-0.9,1.3-0.9
	C121.6,255.8,121.6,260.2,120.8,259.4 M167.2,322.4c-0.9,2.6-2.4,14.1-5.6,14.1c-14.9-4.2-29.5-13.8-41.6-22.4
	c2.9-4.4,5.7-8.1,9.1-11.9C132.6,302.2,161.9,316,167.2,322.4 M113.6,315.1c11.8,6.2,23.8,14.5,36.5,21.5c-0.3,2.9-1.2,5.9-2.3,9
	c-0.2,0-0.5,0-0.6,0.1c-13.8-6-26.6-11.5-38.5-19.5C108.7,321.7,111.6,318.2,113.6,315.1 M105.4,323.7c-5.5-5-8.2-7.3-11.1-13.3
	c2.3-3.4,1.6-6.2,3.2-9.5c4.9,3.2,8.8,6,13.6,10.6C111.1,314.2,105.5,323.7,105.4,323.7 M121.8,342.3c7.9-4.2,33,9.3,43.8,12.8
	c4.7,1.9,3.5,3,1.2,7.8h-0.4C157.6,359.8,126.8,353,121.8,342.3 M149.1,361.9c0,2-1.7,9.7-4.6,9.7c-10.6-2.8-21.2-8.7-29.9-14.2
	c0-2.9,1.3-7,2.5-9C128,352.1,137.8,356.1,149.1,361.9 M202.7,386.7c-0.3,0-0.5,0.1-0.7,0.1c-17.1-3.2-34.8-7.4-50.9-12.4
	c0.2-3.5,0.8-6.5,1.8-9.5c7.3,0,19.4,5.3,27.3,7.4C190.1,373.7,209.1,369.5,202.7,386.7 M173,365.2c-1-2.2-0.4-6.1-0.2-7.7
	c17.4,0,35.1,4.5,53.5,5c1.3,0.2,2.6,0.2,4.3,1.4c0,2.3,0,4.7,0.1,7.1c-1.7,0.3-3.4,0.7-5.1,1.1C208.3,370.8,188.9,371.2,173,365.2
	 M202.6,347c0.1,2.6,0.4,5.5,0.1,8.9c-0.2-0.1-0.4-0.1-0.7-0.1c-18-1.1-33.2-4.8-50.3-9.3c0.4-3.9,1.2-6.2,2.4-9.3
	C170.2,341.4,186,343.8,202.6,347 M167.8,337.6c0-4.9,2.1-10.6,4.5-14.5c14.2,0.6,29.8,2,44.5,4.1c1.9,1,0.4,17.1,0.2,16.9
	C200.9,342.4,182.3,343,167.8,337.6 M248.9,350c0.4,2.2,0.4,4.9,0.2,7.6c-3.5-0.1-6.9-0.1-10.3-0.1c-9.4,0-25.3,1.4-33.3-1.4
	l0.2-9.1C217.1,347,238.8,345,248.9,350 M287.8,368.4c-12.8,3.9-36.5,5.1-49.4,5.1c-5.9-1.9-4.1-5.8-3.9-11.1
	c14.4-1.7,29.5-0.9,44.4-0.4v-3.4c-7.6,0-26,4.5-26-6.6c1.6-1.1,3.7-0.4,6.1-0.2c-0.5,0.9-1,1.8-1.5,2.7c0.4,0.5,0.8,1.1,1.3,1.7
	c1.6,0,3.3,0,4.9,0.1l-0.4-4.4c-0.9-0.2-1.7-0.3-2.5-0.4C278.7,348.7,276.5,350.4,287.8,368.4 M268.1,344.3l-5.9-1.3
	c-1.4-4.3-4.3-10.5-2.1-10.6c0.9-0.1,7.8,8.2,8.7,11C268.5,343.7,268.3,344,268.1,344.3 M223,329.4c10.9,0,21.7-1.3,33,1.6
	c0.1,3.9,0.2,7.9,0.3,11.9c-1.9,0.3-3.9,0.7-5.7,1.1c-9.7-0.6-19.3-0.4-28.5-1.5C222,338.4,221.6,331.9,223,329.4 M236.3,262v-0.5
	c2.8-1.5,2.8-1,6.7,1.7v0.6l-1.3,1C238.7,264.2,237.6,263.3,236.3,262 M237.3,266.1c1.8,0.6,3.7,1.2,5.6,1.9
	c-0.1,0.8-0.1,1.7-0.1,2.5c-0.5-0.1-1-0.1-1.5-0.1C238.6,270,236.5,268.1,237.3,266.1 M236.2,257c2.4,0,3.2-0.6,6,1.5
	c-0.6,0.5-1,1-1.5,1.5C238.4,259,236.9,258,236.2,257 M236.1,253.8l-1.1-2.3c2.3-0.7,4,0.6,6.8,2v1.4c-0.3,0-0.6,0.1-0.8,0.2
	C239.3,254.7,237.7,254.2,236.1,253.8 M234.5,247.4c-0.1-0.7-0.1-1.3-0.1-1.9c2.1-0.4,3.5,0.8,5.7,2.8c-0.7,0.5-1.2,1.1-1.8,1.7
	C237,249.1,235.7,248.3,234.5,247.4 M233.7,242.8c0-0.7,0-1.4,0.1-2c2.1,0.6,4.2,1.2,6.3,1.8c-1.1,1-3,1.2-3.8,1.3
	C235.4,243.6,234.6,243.1,233.7,242.8 M233.2,237.4c-0.9-3,3.4-0.6,4.6-0.1c0,0.3,0.1,1.8-0.5,1.5
	C235.9,238.4,234.5,237.9,233.2,237.4 M232.6,232.1c1.3-0.5,3.4-2.3,5.6-0.6v1.1l-1.4,0.9C235,233.4,233.2,233.1,232.6,232.1
	 M232.5,225.9c1.3,0,2.5,0.1,3.8,0.2c0.3,0.6,0.6,1.2,0.9,1.8c-0.4,0.3-0.8,0.8-1.2,1.2l-2.6-0.5
	C233.1,227.6,232.8,226.7,232.5,225.9 M230.2,222.6v-1.5c1.9,0.4,3.8,0.9,5.8,1.5c-0.8,0.9-1.1,1.3-1.9,1.3
	C232.8,223.4,231.5,222.9,230.2,222.6 M228.3,216c0.3-0.4,0.5-0.8,0.7-1c1.7,1.3,3.4,2.7,5.1,4.2c-0.4,0.4-0.7,0.8-1,1.3h-0.6
	C229.4,219.2,229.4,217.7,228.3,216 M232.8,215c-1.4-1-2.7-2.1-4-3l3.5-0.7l2,1.8C234.3,214.4,233.3,214.9,232.8,215 M227.4,208.8
	c0-1.5,0.4-1.2,0.8-2.1c1.7,0.8,3.5,1.7,5.2,2.6c-1.1,1.1-2.2,0.8-3.3,0.9C229.2,209.7,228.3,209.2,227.4,208.8 M226.5,204.6
	c-0.1-0.6-0.3-1.2-0.3-1.6c1.5,0,3.2,0,4.8,0.2c0.3,0.6,0.6,1.2,0.8,1.9c-0.3,0-0.5,0-0.8,0.1C229.5,204.9,228,204.8,226.5,204.6
	 M225,199.9c2-0.7,3.6-1.2,6,0.4c-0.9,1-1.4,1.1-2.2,1.3L225,199.9L225,199.9z M224.6,194.6c1.6-1.7,3.6,0.1,5.8,1.7
	c-0.3,0.4-0.7,0.7-1,1.2c-1-0.1-2-0.1-2.9-0.1C225.8,196.4,225.1,195.4,224.6,194.6 M228.2,178.6c2.4,3.3,5.6,15.4,8.8,17.3
	c1,10.5,8.1,19.1,11.1,30c-2.4,1.3-6.9,5.6-8.5,5.9C237.2,229.2,228.9,184.9,228.2,178.6 M249.5,242.3c0,2.7-2.6,3.8-4.6,5.4
	c0,2.5-0.4,5.4-1,8.3c-0.2,0-0.4,0.1-0.5,0.1c-0.2-0.1-0.5-0.1-0.6-0.2c-0.2-3.8-2.9-14-0.7-16.4
	C244.8,239.9,246.5,240.3,249.5,242.3 M243,236.1c-0.1-0.6-0.1-1.3-0.1-1.8c5.3,0.5,8.6,3.5,13.3,7.5c-0.3,0.3-0.6,0.7-1,0.7
	C251,240.3,247,238.2,243,236.1 M244.3,273.8c-0.2,0.5-1.1,1.2-1.7,1.4c-3.7-0.5-3.2-1.4-4.7-4C240.6,271.5,241.2,271.3,244.3,273.8
	 M242.1,277.4c0.7,0.5,1.4,1.1,2.2,1.7c-0.3,0.5-0.6,1-0.9,1.5h-2.8c-0.5-0.6-1-1.3-1.4-1.8C240.1,278.3,241.1,277.8,242.1,277.4
	 M245.4,284c0,0.5-1.1,2.7-1.5,2.5c-2.3-1-2.7-2-3.7-3.3C242.3,282.9,242.8,282.7,245.4,284 M246.3,289c-0.1,0.2-0.1,0.3-0.2,0.6
	h-0.5c-1.1-0.3-2.2-0.6-3.4-0.9C243.6,287.8,244.6,287.4,246.3,289 M246.6,293.5c-0.2,0.6-0.6,2.3-1,2.1c-1.3-0.5-2.5-0.9-3.7-1.3
	c-0.1-0.5-0.1-1-0.1-1.4C242.8,291.8,245.3,291.6,246.6,293.5 M242.2,297c0.6,0,1.1-0.2,2.4,0.8v0.4c-0.6,0.4-1.2,0.5-1.6,0.5
	c-0.3-0.1-0.6-0.1-0.8-0.1C242.2,298,242.2,297.5,242.2,297 M255.1,302.3c-0.8,1.2-14.8,10.1-14.9,10c-1.1-1.8-2.2-3.7-3.3-5.4
	C242.2,303.6,248.8,297.5,255.1,302.3 M236.9,310.1c0.1,0.6,0.2,1.1,0.3,1.7c-1.6,2.2-1.6,2.2-1.8,2.2c-0.9-0.5-1.8-0.9-2.7-1.3
	C233,309.2,233.6,309.4,236.9,310.1 M248.2,313.3c2.1,2.8,3,4.6,4.6,8.7c-5,1.5-9,1.8-13.8,1.9c-4.2-0.2-8.2-0.7-11.6-1.5l0.2-34.6
	c-0.7-13.6-8.8-95.4-5.3-99.2c0.8,1.8,5.2-0.2,6,2.6c-0.2,0.3-0.4,0.6-0.7,1c-2.5-1.3-3.3-1-5.4-1c1.3,14.4,6.4,27.1,7.4,42.6
	c0.4,3.8,2.4,5.3,1.6,10.5c0.4,0.6,0.8,1.1,1.3,1.7c-3.8,14.3,15.4,42.9,3.7,57.9c-1.9,1.6-3.9,3.2-5.7,4.8c0,2.4,0,4.8,0.1,7.2
	C240.4,319.4,238.8,314.6,248.2,313.3 M225.4,167.1c-0.3-0.2-1.7,0.4-2,0.5c-0.7-0.3-2.8-1.3-3.4-1.5
	C220.6,165.5,222.6,164.5,225.4,167.1 M222.4,162.9c-0.5-0.3-2.3-0.9-2.3-1.4c1.6-1.4,1.2-1.6,3.3,0.3
	C223.2,162.2,222.7,162.8,222.4,162.9 M194.5,222.3c1.5-1.6,4.4-0.5,6.3,1.5c-0.3,0.4-0.5,1-0.7,1.5h-2.5c-1-0.9-2-1.6-3-2.4
	L194.5,222.3L194.5,222.3z M199.9,229.9c0,0.1,0,0.2,0.1,0.3c-0.5,0.3-1,0.8-1.5,1.2l-4.4-2.7c-0.1-0.9-0.1-0.9,0.2-1.5
	C196.1,228.1,198,229,199.9,229.9 M200.3,221.8c-3.2-1.7-5-3.4-3.1-5.9C197.9,216.4,203.7,219.4,200.3,221.8 M194.9,211.2
	c1.8-1.9,4.9,0.8,7.2,2.7c-0.1,0.4-0.2,0.8-0.2,1.3c-0.5,0-1,0.1-1.4,0.3C197.4,214.7,196.3,212.6,194.9,211.2 M198.3,204.7
	c1.4,1.5,7.5,9.1,3,6.7C200.3,210.7,194.3,204.7,198.3,204.7 M201,205.6c-1.9-2.9-1.8-3.1-1.6-5.5c1.4,0.9,3.4,2.7,3.4,5.7
	C202.2,205.8,201.6,205.6,201,205.6 M198.7,197.3c0.4-0.5,0.9-1,1.4-1.4c1.4,1,2.8,2,4.3,3.2c0,0.3-0.7,1.8-1,1.9
	C201.8,199.7,200.2,198.5,198.7,197.3 M199.2,191.9c0.3-0.7,0.7-1.3,1.1-1.9c1.4,0.7,2.9,1.4,4.4,2.1c0.1,0.6-0.4,3.6-0.7,3.4
	C202.4,194.2,200.8,193.1,199.2,191.9 M205.9,197.9c1.2,2.3,1.8,5.9,0,7.8c-0.1-0.1-0.2-0.2-0.2-0.2
	C205.6,205,203.6,197.9,205.9,197.9 M210.5,209.9c3.3,0.5,6.2,0.8,10,2.5c-0.1,0.6-0.1,1.1-0.1,1.7c-1.9,0.2-3.9,0.4-5.7,0.6
	c-1.6-0.2-3.1-0.3-4.7-0.4C208.7,211.7,209.6,211.7,210.5,209.9 M221.2,219.5c0.6,25.6,2.7,51.6,1.8,77.6c-0.4,0.8-0.7,1.6-1,2.4
	c-3.3,1.1-7.3,0.6-10.4,0.7c-1.7-0.5-3.3-0.9-5-1.3c0.8-26.8,1.7-53.7,2.6-80.5C213.6,218.1,216,218,221.2,219.5 M226.6,170.2
	c-0.1,0.7-0.2,1.4-0.2,2.2c-0.4,0-0.8,0-1.2,0.1c-1.5-0.8-3.1-1.6-4.5-2.4c0.4-0.4,0.8-0.8,1.3-1.2C224.8,168.9,226,170,226.6,170.2
	 M227.4,176.2c-0.5,0.6-2.7,0.9-3.6,0.9c-0.3-0.5-2.1-0.8-2.4-1.2c0.7-0.5,3.7-1.4,4.9-1.4L227.4,176.2L227.4,176.2z M222.8,180.7
	c0.4-0.2,0.9-0.5,1.4-0.6c0.9,0.8,1.9,1.6,2.8,2.5c-0.4,0.3-0.7,0.7-1.1,1.1C224,183.5,222.3,182.6,222.8,180.7 M228.2,186.6
	c-0.1,0.9-2.1,1.8-2.4,1.8c-1-0.6-2.1-1.3-3-1.8c0.5-0.8,0.9-1.4,1.5-2.1C225.5,185.2,226.9,185.9,228.2,186.6 M206.7,308.5
	c-1.4-1.3-1.3-1.4-1.2-2.3c3.5-1,16.6-4.2,17.6,1.3C217.7,307.6,211.4,308.5,206.7,308.5 M201.3,172.7c0.5,0,2.6,2,3.7,2.9
	c0,0.8,0,1.5,0.1,2.4c-0.3-0.1-0.5-0.1-0.6-0.1C203.1,177.9,201.4,172.9,201.3,172.7 M201.6,168.3c1.3-1.4,1.7-0.5,4,0.6l0.5,3.7
	c-0.2,0-0.2,0.1-0.3,0.2C201.8,168.8,201.8,168.8,201.6,168.3 M207.3,165.7c-0.3,0-0.6,0-1,0.1c-1.3-1.2-2.5-2.4-3.7-3.6
	C202.6,160.2,206.9,162.6,207.3,165.7 M203.2,148.8h-0.4c-0.1-0.1-0.3-0.2-0.4-0.2c0.2-0.6,0.5-1.3,0.8-1.9
	C204.2,146.8,204,147.6,203.2,148.8 M203.9,156.3c0.3-0.3,0.6-0.5,1-0.8c1,1,1.7,2,3.7,3c-0.2,0.4-0.5,0.9-0.6,1.3h-0.6
	C205.5,158.3,204.8,157.6,203.9,156.3 M204.7,151h2.1c1,1.2,3,2.4,1.4,4.2C205.6,153.7,205.6,152.9,204.7,151 M211.5,140
	c1.8-0.6,2.5-1.1,5.1-1c3.1,14.3,5.5,50.4,1.8,68.7c-1.6,0-3.2,0-4.7,0.1c-1.1-0.5-2.2-0.9-3.3-1.4
	C206.7,186.9,210.4,159.6,211.5,140 M220.1,153.7c0.8,0.9,2.8,3.7,0.7,4.7C220.2,156.2,219.1,154.8,220.1,153.7 M221.9,152.7
	c1.1,0.6,2.3,1.1,3.5,1.7c-0.1,0.5-0.1,1.1-0.1,1.7c-0.4,0-0.8,0-1.1,0.1C223.1,156,220.5,154.2,221.9,152.7 M228.8,159.2
	c-0.5,0.5-1,1.1-1.4,1.6c-1.4-0.9-2.7-1.8-4-2.5C224.9,157.6,228.2,157.2,228.8,159.2 M232.4,164.3c-0.9,0.7-0.9,0.7-2.3,1.1
	c-3.7-1-8-1.4-3.2-3.1C229.1,163.1,230.5,163.6,232.4,164.3 M233.1,167.6c-0.8,0.7-1.6,1.7-2.4,1.7c-2-0.5-2.3-1.2-3-2.2
	C230,166.5,231,165.3,233.1,167.6 M234.9,172.4c-0.1,0.2-0.1,0.5-0.1,0.9l-3.1,1c-4.6-0.8-4.2-1.8-1.5-3.9
	C231.6,171,232.3,171.8,234.9,172.4 M236.9,178c0.3,0.4-1.4,0.4-1.9,0.4c-2.2-0.3-4.3-2.4-5.1-1.4C232,174.2,235.1,175.4,236.9,178
	 M238.9,181.4c-0.1,0.7-0.2,1.6-0.2,2.4c-0.5,0-1,0-1.4,0.1c-2.8-0.4-3.5,0.2-4.9-1c0.6-1.2,1.3-2.2,1.9-3.2
	C235.8,180.8,237.4,180.2,238.9,181.4 M240.4,187.1v0.9c-1.2,1.3-2.7,0.9-4.1,0.7l-1.4-3C236.6,185.1,238.5,186,240.4,187.1
	 M242.5,192.8l-5.8-0.1l-0.8-0.8C238.9,190.1,239.4,189.9,242.5,192.8 M244.4,196.3c-0.8,0.8-3.3,0.8-3.8,0.8l-2.9-1.4
	c0.1-0.6,0.2-1.1,0.3-1.5C240,194.9,242.2,195.6,244.4,196.3 M245.4,201c-0.2,0.2-0.4,0.6-0.7,0.9h-1c-0.9-0.6-1.8-1.2-2.6-1.8
	C242.1,198.7,244.2,198.2,245.4,201 M247.7,205.9l-0.9,0.7c-2.2-0.3-2.7-0.8-3.6-1.8c0.5-0.6,1.3-2.2,2.1-2.2
	C245.9,203.3,247.2,204.2,247.7,205.9 M250.3,209.7c-0.3,0.4-0.7,0.8-0.9,1.3h-0.8c-1.8-0.7-3.4-1.3-5.1-1.9
	C244.8,207.7,247.8,208.6,250.3,209.7 M252.3,213.1c0,0.3,0,0.6,0.1,0.9c-0.5,0.6-1.1,1.4-1.9,1.4c-2.2-0.3-3.2-0.4-3.8-1.7
	C248.4,213.1,249.7,211.9,252.3,213.1 M253,218.3c-0.9,0.2-1.8,0.5-2.7,0.8c-1.5-1-3.3-1.8-2.9-2.9
	C250.6,216.2,250.9,215.6,253,218.3 M255,221.2l0.3,1.1h-6.1c0-0.4,0.1-0.7,0.2-0.9C251.3,221.2,253.1,221.2,255,221.2 M257.6,226.1
	c-0.2,0.5-0.2,0.5-2,1.4c-1.1-0.7-2.2-1.4-3.2-1.9c0.6-0.5,1.2-1,1.9-1.3C255.4,224.7,256.5,225.5,257.6,226.1 M270.8,265.5
	c-1.1,0.5-2.2,1-3.3,1.5c-6.9-1.7-8.2-2.3-11.9-8.6c0.9-2.1,1.8-4.1,2.8-6.2c0.4-0.1,1-0.1,1.5-0.1c-0.1,6.1-2,7.4,4.2,10
	c0.1-1.9-1-2.8-1.6-3.3c0.4-2.6,2.1-4.4,3.3-6.2c-3-2.3-3.9-4-6.9-5.7c-3.1,0.1-9.6,2.7-11.5,1.7c-0.1-0.5-0.1-1-0.1-1.4
	c4.8-3.8,8.3-3.3,14.3-3.7c-3-7.4-9.7-8.9-15.7-12c-0.1-0.4-0.1-0.4,0.3-1.3C264.2,235.1,269,245.4,270.8,265.5 M249.1,251.9
	c0.5,0,0.9,0.3,1.8,0.8c-1.6,1.8-2.5,3.7-3.7,5.8c-0.2,0-0.4,0-0.7,0.1h-0.4C246.8,256,247.8,253.9,249.1,251.9 M255.5,250.6
	c0.1,0,0.1,0,0.3,0.1c0,2.6-1.3,6.7-3.7,8.3c-0.4-0.3-0.8-0.6-1-1L255.5,250.6L255.5,250.6z M271.9,269.3c-3,2.4-5.4,3.4-7.9,4.8
	c1.7,2.9,3.4,5.8,5.2,8.8c-0.3,0.4-0.6,0.8-0.8,1.3c-5.9-0.2-8.5,1-13,1.7c0,2.1-4.2,4.9-6.1,5.4c0-10.7-3-20.2-4.5-29.8
	c5.7-6.2,15,5.7,19.4,10.2C266.9,270.4,268.7,269.8,271.9,269.3 M275.4,312.1h-0.7c-9.1-1.8-10.2-5.8-15.3-13.1l-7.9-0.2
	c-0.1-0.1-0.1-0.2-0.2-0.3c12.3-5.7,4.8,1.4,14.6,0.8c-1.3-1.8-2.7-3.4-3.9-5.1c-3.9,0.3-7.7,0.6-11.5,1c-0.4-0.4-0.7-0.7-1.1-1
	c5.6-1.7,7.7-2.7,14.6-2.7l2.4,3.1c0.8-0.1,1.7-0.1,2.6-0.1c-5.8-5.6-6.2-5.5-13-6.4v-0.8c2.1-1.7,8.2-0.9,11.7-0.9
	C272.5,296.1,277,299.9,275.4,312.1 M318.4,349.8c-0.2-0.1-0.4-0.1-0.5-0.1c-6.3-2.2-9.4-4.4-14-8.1c14.5-8.9,13-11.6,16.5,3.6
	C318.2,346.7,318.4,347.1,318.4,349.8 M329.6,355.3H329c-4-1.4-6.4-2.9-9-5C320,345,336.8,345.3,329.6,355.3 M298.9,339.3
	c-7.4-4.3-11.2-7.6-16.6-13.3c6.3-2.9,12.3-2.1,19.3-1.8c1,1.6,5.9,9.6,5.1,12.2C304.5,337,300.4,339.3,298.9,339.3 M276.9,321.4
	c-0.9-0.8-2.6-1.2-2.5-2.4c0.3-5.1,11.9-1.2,17.6-0.5C285.9,319.6,277.6,321.4,276.9,321.4 M288.1,306.1h0.2c0.5,2.1-0.7,3-2.1,5.1
	l-0.7-1.2C286.3,308.7,287.2,307.4,288.1,306.1 M282.6,311.9c-0.2,0-0.2,0-0.3,0.1c-2-2.9,0.6-5.1,1.9-7.1c0.4,0.3,1,0.5,1.5,0.8
	C285.8,306.1,283.2,310.7,282.6,311.9 M278.5,313.8h-0.4c-0.3-0.2-0.6-0.4-0.9-0.6c0-2.8,1.6-5.3,2.4-7.8c0.3,0.3,0.6,0.5,1,0.7
	C280.4,309,279.8,311.2,278.5,313.8 M270.9,277.8c8-3.9,8.5,1.9,14.9,9.7c0,2.6-5.3,15.7-5.9,15.4c-2.8-2-1.4-3.4-0.7-5.3
	C276.4,292,270.9,283.7,270.9,277.8 M295.3,267.7c1.5,1,3.2,2.1,4.8,3.2c0,0-4.9,33.6-9.8,31c-3.2-3.4,12.5-28.6,6.5-32.4
	c-4.5,4-7.5,24.1-11.3,32c-1.2,0-0.9-0.3-1.1-0.6C286.1,292.4,288.4,272.5,295.3,267.7 M302,271.5c1.8,7.9,1.2,18.2,1.6,26.4
	c-1.9,0.8-3.8,1.6-5.7,2.5l-0.9-0.8C297.6,291.9,297.3,277.4,302,271.5 M297.1,263.9c0-6.4,3.1-10,9.2-9.7c2.7,3.4,3.2,6.2,3.7,11.7
	c-1,0.5-1.9,1-2.8,1.4C301.9,266.8,300.5,266.6,297.1,263.9 M306.3,270.5c5.5,3,4.5,14.9,1.2,20.5h-0.3c-1.9-5.1-1.5-14.5-1.8-19.6
	L306.3,270.5z M312.9,264.3c5.7,0,1,8.3-0.2,11.1h-0.9c-0.3-0.1-0.6-0.2-0.9-0.2C310.5,269.6,310.8,268.8,312.9,264.3 M326.1,274.7
	c-1.3,12.9-12.3,38.8-26.8,41c-3-0.4-5.9-0.8-8.8-1.1c0-12.9,13.4-10.3,20.6-20.9c2.7-8.2,4.8-16.2,8.4-23.5
	C322.6,270.1,323.4,271.8,326.1,274.7 M332.6,320.7c-6.5,4.8-14.1,11.4-21.8,12.7c-1.3-3.8-2.9-8.2-3.8-11.4
	C313.1,318,332.6,300.4,332.6,320.7 M344.4,317.8c0.7,3.2,2,6.4,1.3,10.6c-4.2,2.9-17.9,14.8-21.1,15.5c-2.1-3.8-3.5-7.2-5-10.5
	C323.1,331.2,342.8,316.6,344.4,317.8 M334.5,352.5c-8.3-10.5,0.4-12.1,9.4-18c0.7,0,1.3,1.4,2,2.6
	C347.2,348.4,342.8,348.3,334.5,352.5 M345.1,352l-0.2,8.3c-0.3-0.1-0.5-0.1-0.8-0.1c-4.4-0.2-7.1-0.9-10.6-2.2
	C332.9,356.2,343.3,351.7,345.1,352 M277.4,392.4c4.7-3.2,9.6-1.9,15.5-3.2c5.3-2.1,10.4-6.1,16-2.5c-8.5,6.3-14.1,13.3-24.6,13.3
	C279.8,398.4,279.1,395.9,277.4,392.4 M264.2,386.6c0.1-3.2,0.2-6.4,0.4-9.6c6.9-4.2,14.6-3.4,22.9-3.8c0.5-1,1.1-2.1,1.7-3
	c0.6,0,10,9.6,11.8,11.3c-12.6,4.3-20.4,7-32.6,7.4C267,388.1,265.6,387.3,264.2,386.6 M156.5,389.2c0.8-2.3,1.7-4.6,2.6-6.9
	c15.7,1.4,30.5,6.8,46.8,8.6c0.1-5.2,0.5-10.5,1.3-15.2c10.5,0.3,49.6-3.4,52.7,3.3c0.7,2.9,1.4,6.1,1.5,9.6
	c-6.4,6.5-10.7,13.2-19.2,14.7c-2.2-1.4-12.5-8.9-9.3-11.6l9.3,1.2c1,3.4-0.3,6.6,1.4,9.6c2.2-2,2.3-6.4,2.7-9.2
	c3.1-0.5,5.7-0.7,9.7-0.4c-0.2-1.1-0.3-2.2-0.4-3.3c-16.6-2-33.9-7-48.5,1.4c-23.8,20.6-17.4-2.2-38.5-5.2
	C164.5,387,160.1,389.2,156.5,389.2 M122.1,379.7c1-4.3,1.9-7.1,3.6-10.5c9.4,3.3,20,6.3,29.3,12.4c0.1,2.4,0.4,7.7-1.5,9.7
	C144.7,387.6,129.9,379.7,122.1,379.7 M104.7,372.7c3.9,0,9.9,5.4,13.7,8c-1.6,2.1-6.6,4.6-8.7,5.4
	C104.4,382.6,105,378.6,104.7,372.7 M101.3,355c1.8,0,18.2,9.2,20.7,11.9c-0.7,1.8-4.5,9-4.7,8.9C110.5,370.6,96.4,364.8,101.3,355
	 M97.6,338.1c0.3-0.3,0.6-0.6,0.9-0.8c5.1,4.7,8.8,7.4,15.4,10.8c-0.7,2.7-1.5,5.4-2.2,8.2c-0.2,0-0.2,0-0.3,0.1
	C101.3,351.1,98,349.3,97.6,338.1 M95.1,320.5c5.7,5.1,23.5,13.5,26.3,19.6c-2.2,2.8-2.4,3.2-5.2,3.6
	C109.9,340.8,88.7,328.5,95.1,320.5 M96.3,232c-0.1,6.7-0.1,6.7-0.2,6.6c-2.9-1.8-6-4.2-6-7.5C93.1,229.5,92,229.6,96.3,232
	 M105.4,227.5c-5.4-2.5,1.9-7.6,3.6-6.8C108.3,222.8,107.2,225.6,105.4,227.5 M116.8,226.5c-1,8.2-4.5,14.2-8.4,22l1.7,0.2
	c0.7,2.9,8.8,32.8,6.8,37.2c-4.4-1.9-6.9-4.6-10.7-4.9c0,10,16.3,11.4,19.7,18.6c-2.3,3.1-5.3,8.9-8.8,10.1
	c-24.7-13.3-22.4-15.7-18.6-41.4c2.4-2,3.6-1.9,7.1-2.5c1,1.9,1.9,3.8,3,5.8c0.1,0,0.2,0,0.3,0.1c2.2-2.4-1.4-7-2.2-8.8
	c-10.9-1.2-16.5-6.8-24.7-13c-0.1-0.5-0.2-0.9-0.2-1.3l-6.7-1.2c0-0.6,0-1.2,0.1-1.8c4,1.1,8.1,2.2,12.2,3.3c0,0.4,0.1,0.8,0.1,1.3
	c1.4,0.3,7.3,2.7,9.3,2.2c-8.8-11.3-30.5-13.5-23-29.9c2.8-1.3,2.5,3.4,3.9,5.7c1.2-1.4,2.6-2.7,3.9-4c0.7,0.4,1.5,0.9,2.2,1.3
	c0.1,1.2,0.2,2.4,0.3,3.6c-0.4,0.3-0.9,0.5-1.3,0.8v1.6c5.3,0,5.3-4.8,7.4,3.6c2.2,4.2,6.5,6.5,10.9,9.4c2-0.7-1-13.8-1.4-15.2
	c-2.2-1.1-4.5-2.2-6.6-3.2c0-1,1.4-2,2-2.7c4.7,1.4,7.6,6.9,11.9,11.2c4.2-1.2,6.1-5.1,8.8-8.6C116.1,226.3,116.4,226.4,116.8,226.5
	 M117.5,264H117c-0.4-0.2-0.9-0.5-1.3-0.7c0.1-2,0.9-3.1,1.9-4.6h1.2C118.8,260.5,118.8,262,117.5,264 M120.2,249.1
	c0,1.2-2.6,7.8-4,6.3c-3.6-3.9-2.2-14.5,1.2-18.1C119.3,239.7,125.7,246.6,120.2,249.1 M116.2,177.3c1.6-1.8,5.6-7.1,7.6-7.8
	c0.4,0.3,0.7,0.6,1.1,1c-0.9,0.9-7.1,7.5-7.8,7.5C116.8,177.8,116.5,177.5,116.2,177.3 M120.3,166.7c-1.9,4-3.6,6.8-7.7,8.7
	C112.7,171.9,116.3,165.7,120.3,166.7 M129,160.5c-3.8-1-6-15.1-6.6-18.1c0.3-0.4,0.6-0.8,0.9-1.1C126.9,144.2,130,156.1,129,160.5
	 M126.9,193.8c-1.7-0.4-3.4-0.8-5-1.1c-1.8-3.7-3.9-8.5-3.9-11.9c0.1-0.1,7.8-7.3,7.8-4.1c-3.3,3.2-4.8,8.3-1.3,13.3
	c0.7-0.5,1.3-1,2.1-1.4c-0.2-5,0.7-8.1,1.8-12.4c0-5.8-5.1-9.5-6.8-14c0.4-0.3,0.8-0.6,1.1-0.8c3.2,1.1,9.2,9.9,9.9,9.9
	c0.3-0.4,0.6-0.8,1-1.1c-2.5-8.7-3.9-16.1-4.9-24.1l0.9-1.2h0.4C136.5,157.8,136.5,181.5,126.9,193.8 M150.3,252.5l-0.9,6
	c-3.3-1.7-6.5-3.3-9.7-5c-0.1,0.1,1.2,3.2,1.3,3.6c3.1,5.2,16.7,11,23.1,8.5c1.6,1.1,2.8,3.3,4.5,5.6c0.4-0.4,1-0.7,1.5-1
	c3,4.2,0.3,32.1,5.9,44.3c1.3,0,2.9-0.7,4.4-1.2c-3.2-14.8-5-13.6,5.6-20.2c3.1,2.8-0.8,15.2-1.8,20.2c0.4,0.2,0.7,0.2,0.9,1.1
	c0.4,0,0.8,0,1.3,0.1c0.5-1,1.1-1.9,1.7-2.8c0.5,0.1,0.5,0.1,3.3,1.7l0.2,3.8c3.4-2.3,4.4-25.1,3.9-28.4c-1.4-0.6-2.8-1.3-4.2-1.8
	c0.1-0.9,0.2-1.8,0.4-2.7c1.4,0,2.3,1.5,3.6,3.5c0.4-0.2,1-0.3,1.5-0.4c3-8.8,1.4-20.8,2.9-29.5c2.7-3,3.9-4.9,5.3-8.3
	c0.1,0,0.2,0.1,0.3,0.2c-2,22.7-2.7,46.2-3.7,69.3h3.6l1.1-7.4c5,0,10.2,0.1,15.8,1l0.2,9c-0.4-0.1-0.7-0.1-1.1-0.1
	c-24.4-1.2-53.5-2.7-74-17c0-12.4,7.9-23.6,5.4-37.5c-0.8-0.1-1.6-0.1-2.4-0.1c-1.2,6.8-3.5,30.8-6.2,35.6c-1-0.2-2-0.5-3-0.7
	c-0.9-10.3,0.5-20.8-1.2-30.1c-6.5-13.6-13.1-27.5-18.8-40.6c-1.1-8.5-1-16.8-0.8-24.8c2.1-1.1,2.3-2,5.2-1.3
	c0.9,1.8,1.9,3.4,2.9,6.2C131.5,233.2,132.6,237.9,150.3,252.5 M156.2,193.5c-16.9,12-16.9,11.5-12.1,31.4c5.9,6.7,7.3,6.5,5.1,16.5
	c-2.3,0.7-4.4,1.8-6.2,2.2c-1.3-1-2.5-1.9-3.6-2.9c-0.6-6.2-3.1-10.5-5.3-15.4c-0.3-0.1-0.5-0.1-0.8-0.1c-0.3-5.8-0.7-10.7-1.5-15.6
	c5.5-5.3,20.6-14.5,19.2-22.4C153.2,184.8,157.4,189.6,156.2,193.5 M173.9,231.9c-2.5,2.6-6.5,6.1-10.3,5.1
	c-3.1-2.2-3.1-2.2-3.4-2.2c2.2,3.9,6.5,9.7-1.3,11c-6-1.7-3.6-10.4-5.8-14.3c-20-29.8,1.9-43.9,21.8-21c-1.6,3.4-8.8,4.5-9.7,6
	c1.7,1.1,3.4,2.3,5.1,3.5c0,0.7-4.4,6.4-5.1,7.3c4.4,2.1,2-3.8,7.1-2.2C169.4,231,173.9,228.5,173.9,231.9 M176,243.5
	c-0.7-1-1.5-2.1-2.2-3C175.8,235.4,178,244.2,176,243.5 M176.9,233.7c1,0.2,1.7,0.2,2.8,2.2c-0.3,0.4-0.6,0.9-0.9,1.4h-1
	c-0.5-0.6-1-1-1.5-1.5C176.5,235,176.7,234.3,176.9,233.7 M178.5,228.1c0.6,0.4,3.9,2.2,2.5,4.5C178.9,231,177.5,230.3,178.5,228.1
	 M179,223.2c1.5,0.6,2.4,1.2,3.8,3.5c-0.2,0.3-0.6,0.7-0.9,0.7C180.5,226,178.5,224.5,179,223.2 M181.6,217.1
	c1.2,0.5,1.8,0.5,2.4,3.1c-1,1.4-1,1.4-1.2,1.4c-0.8-0.7-1.6-1.2-2.4-1.8C180.4,217.6,180.5,218.3,181.6,217.1 M182.2,212.5l3.9,2.8
	c0,0.1-0.1,1.5-0.4,1.2c-1.6-0.6-3.1-1.3-4.5-2c-0.1-0.4-0.1-0.8-0.1-1.1C181.5,213,181.8,212.7,182.2,212.5 M185.6,212l-3.4-4.2
	C185.2,202.4,186.4,212.8,185.6,212 M183.9,201.6c0.8-0.1,1.7-0.3,2.6-0.3c0.4,0.5,4.4,3.9,1.3,5.6
	C184.3,204.9,184.9,204,183.9,201.6 M185.8,198.8c0.3-0.7,0.6-1.5,1-2.1c0.9,0,4.3,2.5,2.4,4.5C188.1,200.3,186.9,199.5,185.8,198.8
	 M190.4,197.2c-1.3-1.1-2.6-2.1-3.9-3.1C191.6,187.4,193.3,196.3,190.4,197.2 M189.5,186.3c0.6,0.1,1.2,0.2,1.9,0.3
	c0.4,0.8,0,4.3-0.9,3.4c-0.9-1.3-1.5-2.2-1.7-2.7C189,187,189.2,186.6,189.5,186.3 M191.4,180.1c1,1.3,3.3,3.3,3.3,5.9
	c-0.3,0-0.6,0.1-0.9,0.2c-1.9-0.5-3.1-2-4.1-3c0.4-1.1,0.9-2.1,1.3-3.1H191.4z M192.6,176.1c0.9,0.4,1.8,1,2.8,1.6
	c0,0.4,0,0.9,0.1,1.3c-0.2-0.1-0.4-0.1-0.6-0.1c-2.6-1.4-2.6-1.4-3-2C192.1,176.6,192.3,176.3,192.6,176.1 M192.4,153
	c0.7,0.7,1.3,1.4,2,2.2c-0.2,0.9-0.2,1.9-0.3,3c-0.4,0-0.7,0-1,0.1c-2.2,0-1.5-3.5-1.6-4.5C191.8,153.5,192.1,153.3,192.4,153
	 M196.4,152.9c-1.9-1.7-2.1-2.1-2.5-3.8c0.1-0.2,0.4-0.5,0.6-0.7c0.7,0.1,1.5,0.2,2.3,0.4C196.8,149.7,196.9,153.2,196.4,152.9
	 M197.5,158.2c1-2.3,1.2-1.8,3.3,0.1c0,0.4,0,0.4-0.7,1.5h-0.4C199,159.3,198.2,158.8,197.5,158.2 M199.5,147.6
	c-0.7-1-1.3-2.1-1.8-3.1C199.5,139.6,201.2,146.7,199.5,147.6 M202.2,154.8c-0.7,0.5-0.7,0.5-0.8,0.3c-1.8-2.2-1.4-1.9-0.6-4
	C201.2,151.1,202.4,153.3,202.2,154.8 M201.8,139.6c0.2,0.6,0.7,1.5,0.9,2.9c-0.2,0.1-0.4,0.1-0.5,0.3
	C200.8,141.4,201.4,140.5,201.8,139.6 M191.5,130.1c2.8-3.8,9.9-6.4,13.4-0.9C193,130.2,193,130.2,191.5,130.1 M165.6,131.8
	c2.3-1.4,16-4.3,17.7-1.5c-5.9,1.3-11.5,2.4-17,2.9C166.1,132.7,165.8,132.2,165.6,131.8 M163.7,125.4c1.9-2.6,14.7-4.3,18.6-4.7
	l2.2,2.3c-6.7,3.1-13.6,3-20,3.3C164.1,126.1,163.9,125.8,163.7,125.4 M185.1,115.6c-0.3,0.6-0.6,1.1-0.9,1.8l-5.3,0.2
	c-0.1,0.2-0.2,0.5-0.3,0.7c-3.5-1.2-6,1.8-9.3,1.8c-4.8-0.3-4.8-0.3-5.6-0.5C165.3,115.7,180.8,112.7,185.1,115.6 M187.8,118.3
	c1.6,1.1,3.3,2.2,5,3.4v1.8c-1.7,1.3-3.3,2.6-5,3.9l-1.1-0.7C186.6,124,185.8,119.7,187.8,118.3 M204.5,115.7
	c-1.6,1.2-7.2,4.4-7.6,4.2c-2.7-1.5-5.3-3-7.9-4.5c1.3-1.4,12.5-0.5,15.5-0.5V115.7L204.5,115.7z M209.7,117.6
	c0,1.2-0.2,7.6-1.3,6.4c-1.7-0.7-3.4-1.4-5.1-2c-0.1-0.6-0.1-1.1-0.1-1.6c1.8-1.3,3.6-2.6,5.3-3.8
	C208.7,117,209.2,117.3,209.7,117.6 M218.6,106.8c-1.5,0.6-3.1,1.3-4.6,1.9c-8.1-1.4-9-10.5-2.2-13.5c0-2.7,0-5.4,0.1-8.2
	c-3.7,0-7.4,0-11.1,0.1c-4.2,10.4-22.5-6.4-4.8-10.1c3.3,1.4,3.6,0.7,5.1,4.8c3.6,0,7.1,0,10.8,0.1c-0.1-3.2-0.1-6.4-0.1-9.6
	c-15.7-6.3,15.5-23,7.5-0.8l-2,1c-0.1,3.1-0.1,6.2-0.1,9.4c3-0.1,6-0.1,9.1-0.1c1.8-5.8,6.2-5,10.8-3c4.2,11.3-6.5,15.7-10.4,8.4
	c-3.2-0.1-6.3-0.1-9.4-0.1c0,2.8,0,5.7,0.1,8.5C221.9,97.6,220,103,218.6,106.8 M216.6,117.9c0.3,0.5,0.6,1,0.9,1.6
	c-0.6,0.6-1.4,1.5-2,1.5C209.5,120.5,211.8,117.5,216.6,117.9 M217.2,126.8l-4.5,1.2c-0.3-0.5-0.5-0.9-0.7-1.3
	C212.5,126.4,218.1,123.7,217.2,126.8 M215.4,114.3c-1-0.4-1.8-0.7-2.8-1C211.8,107.8,219.4,112.2,215.4,114.3 M222,131.7
	c0,1.6-0.1,2-1.2,3.7c-5,0-9.9,0-14.8,0.1c-0.5-2.1-0.3-2.2,0.3-3.6C210,131.6,218.6,129.8,222,131.7 M222,140.2
	c-0.7-0.2-1.3-0.2-1.8-0.3c0.2-0.6,0.4-1,0.7-1.5C221.7,138.6,222.6,140.5,222,140.2 M224.6,145.3c-2.5-0.9-4.1-2.1-3.7-3.6
	c1.1-0.3,1.8,0.1,3.5,0.9C223.5,144,224.9,145.3,224.6,145.3 M227.3,148.1c-0.2,0-0.4,0.1-0.5,0.3c-1.3-0.6-2.5-1-3.8-1.4
	c0.2-0.4,0.5-0.8,0.7-1c1.1,0.4,2.3,0.8,3.5,1.3V148.1z M230,151.1c-0.1,0.3-0.2,0.6-0.2,1.1c-1.2,0.1-2.2,0.2-3.3,0.4L223,150
	C223,147.8,229.5,150.7,230,151.1 M233,155.5l-0.3,0.7c-2,0-4.1,0-6,0.1l-0.8-0.8C228.4,154.1,228.8,153.9,233,155.5 M234.5,158.8
	c-0.8,0.8-2,1.7-2.8,1.7c-0.7-0.5-1.4-0.9-2.1-1.2c0.4-0.8,0.8-1.5,1.3-2.2C231.7,157,233,157.8,234.5,158.8 M237.6,162.8
	c-1.1,0.8-1.8,1.5-3,1.5c-1.2,0-1.6-1.5-1.6-1.8c1.7-0.9,2.1-1.7,4.5-1C237.4,162,237.5,162.4,237.6,162.8 M241.3,166.8
	c-4,2.2-4,2.2-4.4,2.2c-1.7-1.4-1.4-1.4-0.4-2.7c1.6,0,3.1,0.1,4.7,0.2C241.1,166.6,241.2,166.7,241.3,166.8 M243.5,171.2
	c-1.8,0.7-4.7,2.1-5.6,2.1c-0.4-0.7-0.6-1.4-0.9-2C239.5,170.5,240.6,169.7,243.5,171.2 M246.1,175c-0.1,0.5-0.2,1.2-0.2,1.8
	c-1.8,0.1-3.6,0.3-5.2,0.5c-0.4-0.5-0.8-1-1.3-1.4C241.2,174,243.2,174.1,246.1,175 M248.8,181.2h-6l0.3-1.6
	c1.8-0.1,3.7-0.2,5.7-0.2V181.2z M250.8,183.1c-0.9,0.7-0.9,0.7-4.2,1.8c-0.7-0.5-1.5-0.9-2.2-1.3
	C246.1,183.1,247.9,183,250.8,183.1 M251.3,190.1c-1.2-0.6-2.4-1.3-3.5-1.9C247.8,178.6,256.4,192.7,251.3,190.1 M255.9,191.1
	c0,0.5-0.6,3.9-1.4,3.5c-1.8-0.7-2.7-1.6-3.4-2.2C251.5,191.9,254.4,190.5,255.9,191.1 M259.7,198.7c-1-0.1-2.1-0.1-3.1-0.1
	c-0.7-0.6-1.4-1.1-2.1-1.6c2.7-1.6,2-2.1,4.9,0.2C259.5,197.7,259.5,198.2,259.7,198.7 M262.1,201.9c-1.3,0.3-2.5,0.6-3.7,1
	c-1.3-0.5-2.4-0.9-3.5-1.2c0.2-0.6,0.6-1.2,0.9-1.7C258.4,199.7,258.9,199.6,262.1,201.9 M258.9,207.6l-2-2.2
	C263.1,201.8,265.5,204.7,258.9,207.6 M265.5,206.7c0,2.9-4.1,2.2-2.6,2c-0.5-0.1-2.2,0.5-2.6,0.3l2.9-2.7
	C264.1,206.3,264.4,206.6,265.5,206.7 M268.5,212c-1.4,0.7-1.4,0.7-2.2,0.7c-3.7-1.2-3.7-1.2-3.9-1.6
	C263.4,210.1,269.5,208.5,268.5,212 M271,214.8c-4.9,1.4-4.9,1.4-5.9,1.4c-0.3-0.3-0.6-0.7-0.9-0.9c1.8-0.5,4.3-2.2,6.7-1.8
	C270.9,213.9,270.9,214.3,271,214.8 M274.3,220.7c-3.3-0.5-5-1.2-6.6-2.4C274.8,216.5,274.4,220.8,274.3,220.7 M271.6,223.6
	c-0.3-0.3-0.5-0.5-0.7-0.8c2.6-0.9,2.9-1.4,6.3,0.1C275.8,224.3,273,223.6,271.6,223.6 M274.9,234.5c4.3,0,8.2-2.8,13-0.2
	c-0.7,4.5,1.6,8.8,0.3,14c-1.9,0-3.3-1.5-4.2-2.2v-0.6c1.5-1.3,1.6-1.3,3.9-1.5c-0.3-0.6-0.6-1.3-0.9-1.8c-2.9-0.6-6.2-1.1-8.2,0.1
	c3.4,3.4,7.7,11.3,11.1,16.5c1.1-0.1,2.2-0.1,3.3-0.1l-2.2-2.2l3.1-3.4c0.3,0.1,0.8,0.3,1.6,1.2c-2.2,5.4-0.3,6.6-5.5,10
	c-0.3,2.9-2.2,21.3-4.8,18.4c-5.3-6.7-9.1-14.7-15.6-6.5l-0.8-0.9c2.1-1.7,4.1-3.4,6.3-5c-0.8-0.7-1.6-1.3-2.4-2l2-1.4
	c-2.7-11.5-3.4-20.7-10.4-29.2c-2.2-1.6-11.3-8.1-11.8-9.2c1.5,0,4.3,1.3,6.5,1.3c-4.5-17.1-16.6-33.6-19.3-48.6
	c9.1,6.9,15.3,30.6,25.8,37.4c-0.1,0.5-0.1,1.1-0.1,1.7C270,222.8,271.1,229.2,274.9,234.5 M289.2,251.8c-0.4-0.4-0.9-0.8-1.3-1.2
	c0.4-1.3,0.5-1.1,2-0.6c0,0.5,0.1,1,0.2,1.4C289.4,251.8,289.7,251.8,289.2,251.8 M280.3,231.7c-1.2,0.2-2.4,0.6-3.5,0.9
	c-0.3-0.4-0.6-0.8-0.9-1.1c0.8-0.6,1.6-1.1,2.5-1.6C279,230.4,279.6,231.1,280.3,231.7 M293.9,207.6c19.7,2.5,19.5,6,18.9,26.9
	c-1.1,9.7-6.9,14.9-15.3,16.3l-4.5-0.7c-0.1-1.4-0.1-2.8-0.1-4.1c1.2-0.6,2.4-1.1,3.6-1.6c0-3.6-3.1-2.7-3.1-3.8
	c3.1-3.4,7.7,2.9,6.7-3.8h-7.2c0-3.9,2-2.9,1.6-5.8c-3.7-0.2-7.4-0.4-11-0.6C283.3,220.2,288.5,215.4,293.9,207.6 M330.4,215.1
	c-3.2,4.6-6.7,26.8-15.4,26.8h-0.2c0-25.2,4.8-33.5-20-36.8c-0.7-1-1.1-2.1-1.1-2.5c10-6.4,40.6-2.5,51.6,1.3
	C340.1,207.4,335.2,211.1,330.4,215.1 M348.5,231.5c-0.1,0-0.3,0-0.4,0.1c-1.6-2.2-2.6-4-3.3-5.7c0.1-0.1,0.1-0.1,0.2-0.1
	C345.5,226.6,349.2,229.5,348.5,231.5 M357.3,244.3v-2c-0.9-0.5-1.7-1-2.5-1.4v-1c1-0.3,1.9,0.2,3.4,1c-0.7,5.8-2.8,6.3-7.2,8.2
	c-0.3-0.2-0.6-0.3-0.9-0.4C354.9,237.5,351.6,247.4,357.3,244.3 M376,231.2c1.2,15.6-18.7,19.2-25,31.3c2.8,0,17.8-7.3,18.6-6.5
	c-7.2,5.8-16.7,15-25.6,16.2c-1.1-1.2-2.2-2.3-3.3-3.4c-2.4,1.7-8,20.4-8,23.9l2.4-0.2c1.6-5.5,3.2-10.9,4.8-16.4
	c1.9,0.3,3.8,0.5,5.7,0.8c1.4,10.2-0.3,23.9-1,35.2c-1.4,1.2-8.2,6.9-9.4,6.2c-1.6-2.8-3.1-5.6-4.6-8.4c3.3-3,7-6.5,10.2-10
	c-4.4-4.7-20.3,14.7-24.8,9.9c5.8-13.4,16.2-44.7,25.5-57.1c-1.4-7.8-12.1-16.5-9.9-20.8c3.9,2.1,11.4,9.3,15.5,9.1
	c2.1-4.4,3.5-8.1,7.7-10.3c0.7,0.4,1.5,0.8,2.3,1.3l0.5,4c-6.8,3.5-8.9,8-10.9,16.3c8.5,5.5,14.5-14.3,15.6-14.3
	c1.2,1,1.4,1.4,3.6,0.9c1-3.8-1.5-4.6,1-7.4l2.4,0.5c0,1.1,0,2.3,0.1,3.5c2.3-1.6,3.3-2.5,4.8-5.1
	C374.7,230.6,375.3,230.8,376,231.2 M340.1,244.2c0.7,0,1.3,0,2,0.1c-0.4-3.7-6.8-8.9-9-8.9C335.3,238.1,337.8,240.7,340.1,244.2
	 M341.6,309.5c-0.4-0.7-0.8-1.4-1.2-2.2c-3.3,0.5-3.5,0.5-4.7,3.7c0.4,0.6,0.8,1.2,1.3,1.8C338.3,312.9,340.7,311,341.6,309.5
	 M292.9,213.2v2.2c5.9-0.1,11.9-0.2,17.8-0.2C303.7,210.2,299.9,211.7,292.9,213.2 M292.5,219.2c-0.1,0.7-0.2,1.4-0.2,2.2
	c3.2-0.2,4-2.3,6,1.2c-0.7,0.6-1.5,1.3-2.2,2c0.3,0.6,0.6,1.2,0.9,1.8c2.5,0,5,0.1,7.6,0.2v-1.8l-1.8-0.2c-1.3-2.1-0.4-2.7,0.1-4.2
	c0.9-0.1,1.9-0.2,2.8-0.2v-1.8C299,216.8,298.4,217.2,292.5,219.2 M297.7,227.5c-0.5,0.7-0.9,1.1-0.9,2.5c2.8-0.1,5.6-0.2,8.5-0.2
	C302.8,229,300.2,228.2,297.7,227.5 M284.8,234.7c-0.6,1-1.2,1.9-1.7,2.9l-5-0.2l-0.4,1l1.6,1.4c2.7-0.1,5.3-0.2,8.1-0.3l-2-4.8
	L284.8,234.7L284.8,234.7z M218.5,100.8c-4.9-9.8-13.5,1-4.3,4.2C217,104,217.2,103.8,218.5,100.8 M218.5,67.5
	c-2.7-4.9-6.2-5.1-8.5,0c1.2,2.6,0.8,2.5,4.2,3.8C216.6,70.6,217.4,70,218.5,67.5 M228,84.4c1.1,2.5,0.9,3,4.2,4.2
	C241.9,86.1,231.9,74.1,228,84.4 M198.9,84.9c0-10-15-0.6-3.9,3.8C197.2,88.4,198,86.6,198.9,84.9 M163.9,212.3
	c-1.3-0.6-1.9-0.2-2.5-0.2c-0.5-1.4-1-2.8-1.5-4.1c-3.9-1.4-7.6,3.3-7.6,7.3c0.7-0.6,1.3-1.3,2-1.8c0.6,0.5,1.2,1,1.8,1.6
	c0,0.7-1.1,1.8-1.7,2.6c0.7,0.3,1.4,0.6,2.2,1C159.7,216.9,161.5,215.3,163.9,212.3 M146.8,211.8c3.1,0,8.8-5.7,12.4-7.6
	c-0.4-0.8-0.9-1.5-1.3-2.2C152.7,201.4,148.7,207.5,146.8,211.8 M147.3,231.2c-7.6-11.3-8.4-12.4-8.7-24.8
	c-9.5,7.4,3.6,24.4,6.5,34.5c0,0.1,0,0.2,0.1,0.3C147.4,240.2,147.3,232.8,147.3,231.2 M155.7,270.1c-3.5,5-3.5,21.5-3.5,27.7
	c0.1,0,0.2,0,0.3,0.1c0,5-2.8,6.6,2.9,9.4c0.2,0,0.4,0,0.6,0.1c1.2-11.8,2.8-24.5,1.8-35.9C157,271,156.3,270.6,155.7,270.1
	 M160.3,269.9c0.2,12.8-0.4,26.5,1.1,39.9c0.9-0.1,1.9-0.1,2.8-0.1c-0.8-13.3-1.6-26.5-2.4-39.7L160.3,269.9L160.3,269.9z
	 M163.3,269.3c0,13.7,2.6,28,4.5,42.1c0.7,0.3,1.4,0.7,2.1,1.1c0.2,0,0.3,0,0.4,0.1c-1.1-14.8-2.2-29.8-5.6-43.6
	C164.3,269,163.8,269.1,163.3,269.3 M107.6,243.9c3-3.4,6-6.2,5.1-10.5c-2.9,1.5-4.2,7-5.2,10.3
	C107.5,243.8,107.5,243.9,107.6,243.9 M95.7,232.8c-3.1-0.8-0.4-2.6-3.9,0.2c0.5,0.6,1.1,1.3,1.7,1.9
	C94,234.8,95.3,233.2,95.7,232.8 M128,372.7c0,2.2,0.5,3.2,1.9,5.7c0.7-0.5,1.4-0.9,2.2-1.3C131.9,372,131.3,371.5,128,372.7
	 M212,378.1c-0.8,0.9-1.6,2-2.5,3c0.9,0.8,1.8,1.7,2.8,2.6c0.4,0,0.4,0,3.7-1.5c0.3-1.1-0.4-2.8-0.4-2.9L212,378.1L212,378.1z
	 M269.3,380.3c0,1.8,1.6,2.7,3.6,3.3c1-0.2,1.9-0.2,2.9-0.3c0.2-1.1,0.1-2.2,0.1-2.6C273.4,379.4,271.2,379,269.3,380.3
	 M339.1,347.3c0.7-2.6,0.1-2.6-1.1-4.1c-2.9,0.2-3.4,2.4-4.3,2.4c0.8,0.9,1.6,1.8,2.5,2.8C337.1,348.1,338.1,347.7,339.1,347.3
	 M330.4,337.7c1.6-3.5,1.3-2.8-0.4-5.2h-3.4c-0.6,0.9-1.1,2-1.6,3c0.7,0.8,1.3,1.7,2.1,2.6C328.2,338,329.3,337.8,330.4,337.7
	 M316.4,327.8c0.4-1.1,0.8-2.2,1.1-3.2c-2.8-4.3-2.4-1.9-6.6,0.6c0.7,0.8,1.3,1.7,2,2.6H316.4z M300.7,257.5c-2.8,4.5-3.1,4,0.8,8.3
	c1.3-0.2,2.8,0.1,4.2,0c1.6-2.6,2.4-4.1,2.1-7.2C304.5,257,303.9,257.1,300.7,257.5 M307.4,259.3c-0.3,2.5-0.6,3.5-2.1,5.7l-4.2-0.3
	C297.3,257.9,301.6,256.7,307.4,259.3 M306.3,259.8l-4.5-1.2l-1.5,2.6c1.3,1,2.7,1.9,4.2,3h0.4C306.2,262.2,306.3,261.8,306.3,259.8
	 M302.2,259.4c1.3,0.2,2.5,0.6,3.8,0.9c0,1-0.4,1.9-1.2,3.2h-0.4l-3.3-2.4L302.2,259.4L302.2,259.4z M227.4,333.9
	c-0.5,1-0.9,2.2-1.3,3.3c1.1,0.8,2.3,1.7,3.5,2.6c1,0,2.9-1.1,4.2-1.6c0-1.3-2.1-3.8-2.2-4L227.4,333.9L227.4,333.9z M241.7,365.1
	c-1.1,0.3-2.2,0.7-3.3,1.1c-0.2,0.9-0.4,1.9-0.5,2.9c0.8,0.7,1.5,1.5,2.3,2.3C245.3,370.8,243.4,367.5,241.7,365.1 M215.7,351.3
	c-1.9-0.1-3.8-0.2-5.7-0.2c-0.2,1-0.2,1.7-0.2,3.4l2.7,0.7C215.4,355.2,216.3,353.8,215.7,351.3 M174,329.2c0,2.7,0.2,3,2.5,5.3
	c1,0,2.9-2,3.9-2.8C180.4,325.4,176.2,328.5,174,329.2 M160.3,341.7h-4.2c0.2,3.4,0.2,3.4,0.4,4.2c0.7,0.3,0.7,0.3,2.8,0.6
	C162.7,346.5,160.9,343.2,160.3,341.7 M177.7,361l-0.4,1.7c0.4,0.6,0.8,1.1,1.3,1.7c1.3,0,2.5,0.1,3.8,0.2c-0.1-2.5-0.2-2.6-1.1-4.1
	L177.7,361L177.7,361z M156.6,373.3c1-0.1,1-0.1,4.8-1.3l-3.7-4.2c-1.2,0-1.6,0.7-2.5,1.1v3.4C155.7,372.6,156.1,372.9,156.6,373.3
	 M123.1,354.5c-2-0.9-2.1-0.4-3.6,0.1c-0.1,2.2,0.7,3.2,2.1,5.7C125,359.1,123.8,357.9,123.1,354.5 M126.5,343.7
	c0,1.8,0.7,2.6,1.9,4.7c0.7-0.4,1.4-0.8,2.2-1.1C130.6,343.3,129.5,342.4,126.5,343.7 M113.9,321.6c0.2,2.7,0.5,3.1,2.7,5.9
	c0.7-0.4,1.4-0.8,2.2-1.1C118.7,321.2,118,320,113.9,321.6 M130.9,313.6c2.7-3.5,2.7-2.9,0.9-5.8c-1-0.1-1.9-0.1-2.8-0.1
	c-1.5,3.4-1.7,2.6,0.4,5.9H130.9L130.9,313.6z M160.4,253.3c1.3,0.6,1.9,2.3,0.8,5.4c-0.6,0.2-1.1,0.5-1.6,0.8
	c-3.5-0.4-4.2-2.4-3.7-5.2c1.1-0.7,2.1-1.1,3.1-1.2c-0.9,0-2,0.1-3.3,0.5c-1,3.4-0.1,5.9,3.6,6.5
	C163.4,258.9,163.8,254.4,160.4,253.3 M159,253.1c0.5,0,1,0.1,1.4,0.2C160,253.1,159.5,253,159,253.1 M322.6,381.6
	c7.8-1.4,16.6-6.6,23-12.2c-13.2-4.3-24.7-9.9-36.7-15.5c-7.6-6.2-22.8-16.9-32-16.9C282.3,354.2,307.2,377.2,322.6,381.6
	 M284.8,344.3c-1.7-2.1-4.3-4.1-4.8-5.3c7.2,0,20.7,10.9,25.8,14.1c3.6,2.3,4.4,2.8,8.8,5c9.7,2.6,18.1,10.7,28.9,11.4
	c-4.7-0.3-15.9,8.3-20.5,8.3c-5.1-0.6-17.5-6-18.4-9.4C297.5,358.8,287.1,356.9,284.8,344.3 M127.7,392.2
	c-11.2,1.4-22.2,4.5-31.8,9.8c0,0.6,0.8,1.4,1.5,2.4c6.2-1.3,22.2-7.6,28-6.4c5.4,6.1,9.3,9.7,16.3,14.7c14.2,5,19.8-9.9,29.7-9.9
	c21.5,23.1,20,12.8,45.7,2c0.3-0.1,18.6,13.5,27.6,14.3c10-0.7,16.1-9.7,26-9.7c20,8.5,22.9,7.3,41.3-4.6
	c10.8-3.1,23.3,5.8,37.1,1.1c-0.2-0.4-0.3-0.7-0.4-1c-13.1-1.5-26.4-6.5-38.9-6.1c-12.8,10.9-21,17.3-35.7,7
	c0.1-0.1,0.1-0.2,0.2-0.3c-0.1-0.1-0.2-0.2-0.2-0.2c-0.3,0-0.6,0-0.8,0.1c-5.6-6-6.5-3.6-12.4-0.4c-14.9,14.2-25.5,11.8-37.9-3.2
	c-14.8-11-23.2,22.4-44,3.3c-9-10.1-7.5-9.5-19.4-1.6C142.9,412.9,138.7,404.9,127.7,392.2 M108.4,414.3c20.4-3.2,12.5-7.5,30.7,6.1
	c12.2,6.1,17.1-0.8,30.1-3.2c9.4,8.1,20.8,10.4,33.4,9.7c17.7-10.8,11.7-9.6,27.6,2.6c1.6,0.8,3.9,0.7,5.9,2.1
	c12,0,17.1-0.9,27.5-8.1c10.9-5.3,22.5,6.7,38.2,0.3c12.8-5.9,18.5-4.4,32.5-4.7c-0.1-1.1-0.2-2.2-0.2-3.3
	c-21.7-3.8-19.4-7.6-36.1,4.2c-14.9,6.5-24.3-7.5-36.7-1.8c-24.5,18-24.5,0.6-46.8-3.9c-15.2,7.4-18.7,10.5-34.9,3.5
	c-3.1-2.2-8.5-6.9-11-7.4c-18,7.3-21.1,13.1-36.9,0.6C125,406,109.9,403.1,108.4,414.3 M150.4,428.8c0.4,0.9,0.9,1.8,1.4,2.7
	c4,0,6.4-0.2,10.8-1.7c0.2,0.2,0.3,0.3,0.4,0.6c11.3,0,13,2.8,23.9,6c8.8,1.8,18.9-3.7,28.1-4.6c10.9,4.2,13.8,6.5,27.3,8
	c8.5-0.2,13.7-1.1,21.7-5.6c9-4.2,11.7,2.5,23.4,0.5c0.4-0.8,0.7-1.5,1.2-2.2c-7.8-2.7-23.6-10.5-28.7-1.1c-9.3,4.6-20.4,4.9-30,2.9
	c-5.7-2.6-9.3-7.4-14.9-7.4c-8.6,2.2-23.7,9.4-31.3,2.8C166.1,421.1,168.7,422.5,150.4,428.8 M200.3,441.1c-0.2,0.7-0.6,2.2-1.3,2.9
	c2.9,4.7,11.6-0.8,14.6-2.5c4.7,0,9.7,2.7,15.1,4.7c0.5-0.2,1.1-1.6,1.5-2.3C218.5,434.7,213.7,438.4,200.3,441.1"/>
<path class="st0" d="M147.7,462.2c2.7,0.9,5.5,2.1,7.5,3.5l-2.7,8.6l-3.4-1.1c-0.2-1.5-0.3-3.4-0.3-4.7c-0.8-0.8-2.2-1.7-4.1-2.3
	c-2.3-0.7-4.6-0.5-5.4,2.1c-1.9,6,13.1,8.3,10,18.1c-1.6,5-7.3,7.5-15.2,5c-2.3-0.7-5-2-6.9-3.1l2.6-8.2l3.3,1.1
	c0.3,1.6,0.4,3.5,0.3,4.8c0.6,0.5,2,1.3,3.2,1.7c2.6,0.8,4.5,0.2,5.2-2c1.7-5.5-13.3-8.4-10.3-17.9
	C133.3,462.4,139.4,459.6,147.7,462.2"/>
<path class="st0" d="M123.1,453.4l-1.4,2.4c-1.5,0.1-3.1,0.1-4.6-0.3L106.9,474c1,1,2,2.4,2.7,3.7l-1.3,2.4l-13.6-7.6l1.3-2.4
	c1.5-0.1,3.2,0,4.6,0.3l10.3-18.4c-1-1.1-2-2.4-2.6-3.8l1.4-2.4L123.1,453.4L123.1,453.4z"/>
<path class="st0" d="M70.9,428.1l6.3-6.5c3.9,1.2,7.9,3.4,11.4,6.8c7,6.7,7.1,15.3,0.8,21.8c-7,7.3-16.6,7.2-24.6-0.7
	c-2.4-2.3-4.7-5.1-6.4-7.7l6.3-6.5l2.6,2.5c-0.4,1.5-1,3-1.7,4.3c0.8,1.5,2,3.2,3.7,4.9c4.4,4.2,9.6,2.8,13.9-1.6
	c4.1-4.2,5-9.9,0.3-14.4c-1-1-2.1-1.9-3.2-2.5l-4.3,4.5c0.5,1,0.9,2.4,1.2,3.6l-1.9,1.9l-9.4-9.1l1.9-1.9
	C68.8,427.7,69.9,427.8,70.9,428.1"/>
<path class="st0" d="M70.6,408.1l-2.4,1.5c-1.4-0.6-2.7-1.5-3.9-2.5l-18,11c0.4,1.4,0.5,3.1,0.5,4.6l-2.3,1.4l-8.1-13.3l2.3-1.4
	c1.3,0.6,2.8,1.6,3.8,2.5l18-11c-0.4-1.5-0.5-3.1-0.4-4.6l2.4-1.5L70.6,408.1L70.6,408.1z"/>
<path class="st0" d="M56.4,382.9l-2.6,1c-1.2-0.8-2.4-1.9-3.4-3.2l-19.7,7.5c0.1,1.4-0.1,3.2-0.4,4.6l-2.6,1l-5.5-14.6l2.6-1
	c1.2,0.8,2.5,2.1,3.3,3.2l20.2-7.6l-2.6-6.4c-1.3,0.1-3.3,0.1-5,0l-1.3-3.3l8.6-3.3L56.4,382.9z"/>
<path class="st0" d="M44.6,348.2l-2.7,0.6c-1-1-2.1-2.3-2.8-3.6l-20.7,4.3c-0.1,1.4-0.6,3.1-1.1,4.5l-2.7,0.6l-3.2-15.2l2.7-0.6
	c1,1,2.1,2.5,2.8,3.7l21.1-4.4l-1.6-6.7c-1.3-0.1-3.2-0.4-4.9-0.8l-0.7-3.5l9-1.9L44.6,348.2L44.6,348.2z"/>
<path class="st0" d="M9.6,286.3l13.7-1.1c8.4-0.7,13.2,4.3,13.8,12.2c0.8,9.7-3.8,13.4-10.6,14l-14.7,1.3c-0.3,1-1.1,2.3-1.7,3.1
	L7.5,316l-1.2-13.7l2.7-0.2c0.8,1,1.8,2.2,2.3,3.4l13.5-1.2c5.1-0.4,8-2.5,7.5-7.9c-0.4-4.4-3.2-6.4-7.8-5.9l-14.4,1.4
	c-0.2,1.3-1.1,2.6-1.7,3.7l-2.7,0.2l-1-12.1l2.7-0.2C8.2,284.2,9.2,285.3,9.6,286.3"/>
<path class="st0" d="M35.2,237.8l-2.8-0.1c-0.8-0.9-1.7-2.2-1.9-3.3L12.9,237v0.1l22.2,8.3l-0.1,5l-22.8,7.8v0.1l17.7,2.2
	c0.5-1.2,1.3-2.3,2.1-3.2l2.8,0.1l-0.2,11.4l-2.8,0c-0.7-0.8-1.4-1.6-1.9-2.6l-21.1-3.9c-0.5,1.3-1.3,2.5-2,3.6L4,265.8l0.2-12.1
	l20.3-7.3v-0.1l-20-7.7l0.2-12.1l2.8,0.1c0.7,1.1,1.4,2.3,1.8,3.7l21.2-3.6c0.5-0.9,1.2-1.8,2-2.4l2.8,0.1L35.2,237.8L35.2,237.8z"
	/>
<path class="st0" d="M24.7,201.9c-0.3,2.3-2.4,3.9-4.8,3.6c-2.4-0.3-4.1-2.3-3.8-4.6c0.3-2.3,2.4-3.9,4.8-3.7
	C23.3,197.5,25,199.6,24.7,201.9"/>
<path class="st0" d="M22,149.2l13.4,3.3c8.2,2,11.1,8.2,9.3,16c-2.3,9.4-7.8,11.5-14.4,9.9l-14.4-3.5c-0.6,0.9-1.8,1.8-2.6,2.4
	l-2.7-0.6l3.2-13.4l2.7,0.6c0.5,1.2,1,2.6,1.1,3.9l13.2,3.2c5,1.2,8.3,0.2,9.6-5.1c1-4.3-1-7.1-5.5-8.1l-14.1-3.2
	c-0.6,1.1-1.8,2.2-2.7,3l-2.7-0.6l2.8-11.8l2.7,0.6C21.3,146.7,21.9,148.1,22,149.2"/>
<path class="st0" d="M43.9,98l23.3,11.8l-2.9,5.7l-27.4,3.5l16.3,7.3c0.9-0.9,2.1-1.6,3.5-2.4l2.5,1.3l-5.9,11.7l-2.5-1.3
	c-0.1-1.6-0.2-3.1,0-4.4L32,121.5c-1,1-2.4,1.9-3.7,2.8l-2.4-1.2l5.5-10.9l24.5-3.1l-14.2-6.5c-0.9,0.9-2.1,1.5-3.3,2.1l-2.5-1.2
	L41,93.2l2.5,1.2C43.7,95.7,43.9,96.9,43.9,98"/>
<path class="st0" d="M78.4,94.3l-2.1-1.9c0.2-1.5,0.7-3.1,1.3-4.4L62,73.8c-1.2,0.7-2.8,1.4-4.3,1.7l-2-1.9l10.5-11.5l2,1.9
	c-0.3,1.4-0.7,3.1-1.3,4.4l15.6,14.2c1.3-0.8,2.8-1.4,4.3-1.7l2.1,1.9L78.4,94.3L78.4,94.3z"/>
<path class="st0" d="M111.6,34.6l5,27.7l-5.7,3.4L88.5,48.6c-0.9,0.1-1.9-0.2-3-0.4l-1.4-2.3l11.5-7l1.4,2.3c-0.5,1.2-1,2.2-1.8,3.3
	L111,56.9l0.1-0.1l-4.6-19.1c-1.1,0.2-2.7,0.1-3.8,0.1l-1.4-2.3l9.8-6l1.4,2.3C112.4,32.7,112.1,33.8,111.6,34.6"/>
<path class="st0" d="M141.8,50.1l-0.8-2.7c0.9-1,2.1-2.2,3.4-3.1L138.7,24c-1.4-0.1-3.2-0.5-4.5-0.8l-0.8-2.6l22.4-6.4l2.1,7.5
	l-3.4,1c-0.8-0.8-2.1-2.1-2.6-3.1l-6.4,1.8l2.5,8.6l5.3-1.5c0.1-1,0.5-2,0.8-2.7l2.8-0.8l2.4,8.4l-2.8,0.8c-0.6-0.5-1.7-1.3-2.1-2
	l-5.3,1.5l2.7,9.3l6.4-1.8c0-1.3,0.3-3,0.6-4.3l3.4-1l2.2,7.8L141.8,50.1z"/>
<path class="st0" d="M210.2,37.9l-0.4-3.3c-4.1,0.9-4.6-10.3-9.9-10.6c4-1.5,6.2-4.4,5.9-8.2c-0.5-5.9-4.9-8-12.7-7.3
	c-4.3,0.4-9.4,1-10.6,1.2l-3.8,0.3l0.2,2.7c1.3,0.6,2.8,1.3,4.3,1.6l1.8,21c-1.5,0.6-3,1.5-4,2.4l0.2,2.8l14.5-1.3l-0.3-2.8
	c-1-0.6-2.2-1.4-3.4-1.7l-0.7-7.8l1.7-0.1c5.3-0.5,5.2,12.7,12.1,12.1C207.1,38.7,208.9,38.4,210.2,37.9 M193.6,22.5l-2.5,0.2
	l-0.8-9.4c0.5-0.2,1.5-0.3,1.9-0.3c4-0.4,6.1,1.2,6.4,4.4C198.9,19.9,197.5,22.1,193.6,22.5"/>
<path class="st0" d="M235.7,39c-2.8-0.1-5.8-0.6-8.1-1.4l0.4-9l3.6,0.2c0.6,1.4,1.2,3.1,1.5,4.5c1,0.5,2.6,1.1,4.5,1.2
	c2.4,0.1,4.5-0.7,4.6-3.4c0.3-6.3-14.8-4.6-14.4-14.8c0.3-5.3,5.1-9.2,13.4-8.8c2.4,0.1,5.4,0.6,7.5,1.1l-0.4,8.6l-3.5-0.2
	c-0.7-1.5-1.3-3.3-1.5-4.6c-0.7-0.4-2.2-0.7-3.5-0.8c-2.7-0.1-4.4,1-4.5,3.3c-0.3,5.7,15,4.6,14.6,14.6
	C249.6,35.1,244.4,39.4,235.7,39"/>
<path class="st0" d="M265.9,41l0.5-2.8c1.4-0.6,2.9-1.1,4.4-1.3l3.8-20.8c-1.3-0.6-2.7-1.7-3.7-2.7l0.5-2.7l15.3,2.8l-0.5,2.7
	c-1.4,0.5-3,1-4.4,1.2L278,38.3c1.4,0.7,2.7,1.7,3.7,2.7l-0.5,2.8L265.9,41L265.9,41z"/>
<path class="st0" d="M328.3,36.9c-0.1-1.7-0.2-3.9,0-5.4l-4.8-1.9l-8,20.1c1.2,0.8,2.3,2.2,3.2,3.4l-1,2.6l-14.5-5.8l1-2.6
	c1.6-0.3,3.2-0.5,4.7-0.3l8-20.1l-4.8-1.9c-0.8,1.2-2.6,2.9-3.7,4l-3.1-1.2l3.4-8.6l26.3,10.4l-3.4,8.6L328.3,36.9L328.3,36.9z"/>
<path class="st0" d="M368.9,51.6l-6.2-4.8L339,61.5c-1-0.2-2.2-0.3-3.2-0.2l-1.7,2.2l9,7l1.7-2.2c-0.3-1.1-0.7-2.3-1.4-3.3l3.2-1.9
	l8.7,6.8l-1.1,3.6c-1.2-0.3-2.5-0.5-3.6-0.5l-1.7,2.2l10.7,8.3l1.7-2.2c-0.1-0.9-0.5-1.9-0.8-2.9L368.9,51.6L368.9,51.6z M361,53.3
	c-0.5,1.2-1,2.5-1.5,4l-2.8,8.7l-6.9-5.4l8-5C359,54.8,360.1,54,361,53.3L361,53.3z"/>
<path class="st0" d="M399,100.4c0.8-1.4,2-3.3,3-4.5l-3-4.2l-17.8,12.3c0.5,1.3,0.7,3.1,0.7,4.6l-2.3,1.6l-8.9-12.8l2.3-1.6
	c1.5,0.6,3,1.3,4.1,2.3l17.8-12.3l-2.9-4.3c-1.4,0.6-3.7,1-5.3,1.2l-1.9-2.7l7.6-5.3l16.1,23.2l-7.6,5.3L399,100.4L399,100.4z"/>
<path class="st0" d="M390.2,130.1l2.6-1c1.2,0.8,2.5,1.9,3.4,3.1l19.6-7.8c-0.1-1.4,0-3.1,0.3-4.6l2.6-1l5.8,14.5l-2.6,1
	c-1.2-0.9-2.5-2-3.4-3.1l-19.6,7.8c0.1,1.5,0,3.1-0.3,4.6l-2.6,1L390.2,130.1L390.2,130.1z"/>
<path class="st0" d="M402.5,169.5c-0.6-2.8-1-5.8-0.8-8.2l8.8-2l0.8,3.5c-1.2,1-2.7,2-3.9,2.6c-0.3,1.1-0.3,2.8,0.1,4.7
	c0.5,2.4,1.9,4.1,4.5,3.6c6.1-1.4,0.5-15.5,10.5-17.8c5.1-1.2,10.2,2.5,12,10.6c0.5,2.4,0.9,5.3,0.9,7.5l-8.4,1.9l-0.8-3.4
	c1.3-1.1,2.9-2.1,4-2.7c0.2-0.8,0.1-2.3-0.2-3.6c-0.6-2.6-2.1-3.9-4.4-3.4c-5.6,1.3-0.5,15.7-10.2,18
	C410,181.9,404.5,178,402.5,169.5"/>
<path class="st0" d="M422.2,201.9c-0.3-2.3,1.4-4.3,3.8-4.6c2.4-0.3,4.5,1.3,4.8,3.6c0.3,2.3-1.4,4.4-3.8,4.7
	C424.6,205.9,422.5,204.2,422.2,201.9"/>
<path class="st0" d="M411.1,223.7l2.8-0.1c0.8,1.2,1.7,2.6,2.2,4.1l21.1-0.9c0.3-1.4,1.1-3,1.8-4.2l2.7-0.1l0.7,15.6l-2.7,0.1
	c-0.8-1.2-1.7-2.8-2.1-4.1l-21.5,0.9l0.5,6.9c1.2,0.3,3.1,0.9,4.7,1.6l0.1,3.6l-9.2,0.4L411.1,223.7L411.1,223.7z"/>
<path class="st0" d="M436.9,291.5l-13.7-0.6c-8.4-0.4-12.5-5.9-12.2-13.9c0.4-9.7,5.5-12.8,12.3-12.5l14.8,0.6
	c0.4-1,1.4-2.2,2.1-2.9l2.7,0.1l-0.6,13.7l-2.8-0.1c-0.7-1.1-1.5-2.4-1.8-3.6l-13.6-0.6c-5.1-0.2-8.2,1.4-8.4,6.9
	c-0.2,4.4,2.4,6.7,7,6.9l14.5,0.4c0.4-1.2,1.4-2.5,2.1-3.5l2.7,0.1l-0.5,12.2l-2.7-0.1C438.1,293.8,437.2,292.6,436.9,291.5"/>
<path class="st0" d="M439.6,313.8l-2.7-0.5c-1,1.1-2,2.6-2.6,3.8l-20.8-3.5c-0.2-1.5-0.7-3.1-1.3-4.4l-2.8-0.5l-0.7,4.1
	c-0.7,4.1-1.4,7.7-1.8,10.3c-1.8,10.5,2.6,15.2,7.3,16c3.3,0.6,6.9-1.2,8.2-5.8c0.3,3.8,2.7,5.9,5.5,6.3c5,0.8,8.1-2.5,9.4-10.4
	c0.7-3.9,1.3-8.9,1.7-11.5L439.6,313.8L439.6,313.8z M421.1,322.1l-0.4,2.7c-0.8,4.6-2.8,7.3-5.9,6.8c-2.6-0.4-4.6-2.6-3.9-6.7
	c0.3-1.9,0.8-3.3,1.3-4.3L421.1,322.1L421.1,322.1z M433.7,324.2c-0.1,1.1-0.2,2-0.4,3.4c-0.7,4-2.8,5.1-5.4,4.7
	c-2.6-0.4-4.2-2.1-3.5-6.6c0.2-1.1,0.4-2.1,0.5-2.9L433.7,324.2L433.7,324.2z"/>
<path class="st0" d="M401,351.4l2.7,0.9c0.3,1.4,0.6,3,0.6,4.6l20,6.8c0.9-1.1,2.2-2.4,3.2-3.3l2.6,0.9l-7.5,22l-7.3-2.5l1.1-3.3
	c1.1-0.3,2.9-0.5,4-0.4l2.1-6.3l-8.5-2.9l-1.8,5.2c0.8,0.6,1.4,1.5,1.8,2.2l-0.9,2.8l-8.3-2.8l0.9-2.8c0.8-0.2,2-0.6,2.9-0.6
	l1.8-5.2l-9.2-3.1l-2.1,6.3c1.1,0.7,2.3,1.9,3.2,2.9l-1.1,3.4l-7.7-2.6L401,351.4L401,351.4z"/>
<path class="st0" d="M379,400.6c5.3-8.9,12.6-10.7,20.7-5.8c9.5,5.7,11,14.7,6.1,22.8c-1.8,3-3.7,5.3-5.3,6.9l-8.7-5.2l1.9-3.1
	c1.7,0.2,3.6,0.6,5.1,1.2c1-0.6,2.1-1.8,2.9-3.1c2.4-4,0.7-8.4-5.1-11.9c-5.5-3.3-10.3-2.3-13.9,3.6c-1.1,1.9-2.1,4.3-2.3,6.6
	L376,411C375.9,407.7,376.9,404,379,400.6"/>
<path class="st0" d="M365.1,420.8l1.9,2c-0.4,1.3-0.8,3-1.6,4.3l14.5,15.3c1.3-0.6,3.1-1.1,4.4-1.4l1.9,2l-16.9,16l-5.3-5.6l2.6-2.4
	c1.1,0.3,2.8,0.9,3.8,1.5l4.9-4.6l-6.1-6.5l-4,3.8c0.4,0.9,0.5,2,0.6,2.8l-2.1,2l-6-6.4l2.1-2c0.8,0.2,2.1,0.4,2.8,0.8l4-3.8
	l-6.7-7.1l-4.9,4.6c0.6,1.2,1.1,2.8,1.4,4l-2.6,2.4l-5.5-5.9L365.1,420.8L365.1,420.8z"/>
<path class="st0" d="M320.5,482.3l-11.5-23.5l5.8-2.8l24,13.7l-8.6-15.6c-1.3,0.1-2.6,0-4.2-0.2l-1.2-2.5l11.8-5.8l1.2,2.5
	c-0.8,1.3-1.7,2.6-2.6,3.5l9,19c1.5-0.2,3.1-0.1,4.6,0l1.2,2.5l-10.9,5.4l-21.4-12.2l7.5,13.7c1.2-0.2,2.6,0,3.9,0.3l1.2,2.5
	l-10.3,5l-1.2-2.5C319.3,484.3,319.8,483.3,320.5,482.3"/>
<path class="st0" d="M283.7,465.6c2.8-0.6,5.8-0.9,8.2-0.8l1.9,8.8l-3.5,0.8c-1-1.2-2-2.7-2.6-3.9c-1.1-0.3-2.8-0.4-4.7,0.1
	c-2.4,0.5-4.2,1.9-3.6,4.5c1.4,6.1,15.5,0.6,17.7,10.6c1.1,5.2-2.5,10.2-10.6,12c-2.4,0.5-5.3,0.8-7.5,0.9l-1.9-8.4l3.4-0.8
	c1,1.3,2.1,2.9,2.7,4c0.8,0.2,2.3,0.1,3.6-0.2c2.6-0.6,4-2.1,3.5-4.3c-1.2-5.6-15.7-0.5-17.9-10.3
	C271.3,473,275.2,467.5,283.7,465.6"/>
<path class="st0" d="M255.9,471l0.2,2.8c-1.2,0.9-2.6,1.8-4,2.3l1.7,21c1.4,0.3,3,0.9,4.3,1.6l0.2,2.7l-15.5,1.3l-0.2-2.7
	c1.2-0.9,2.7-1.8,4-2.3l-1.7-21c-1.5-0.3-3-0.9-4.3-1.7l-0.2-2.8L255.9,471L255.9,471z"/>
<path class="st0" d="M216,472c2.9,0.1,5.9,0.5,8.2,1.2l-0.2,9l-3.6-0.1c-0.7-1.4-1.3-3.1-1.6-4.4c-1-0.5-2.6-1-4.6-1.1
	c-2.4-0.1-4.5,0.8-4.6,3.5c-0.2,6.3,14.9,4.3,14.7,14.5c-0.1,5.3-4.9,9.3-13.2,9.1c-2.4-0.1-5.4-0.5-7.5-1l0.2-8.6l3.5,0.1
	c0.7,1.5,1.4,3.3,1.6,4.5c0.7,0.4,2.2,0.7,3.5,0.7c2.7,0.1,4.3-1.1,4.4-3.4c0.1-5.7-15.1-4.3-14.9-14.3
	C202.1,476.2,207.2,471.8,216,472"/>
<path class="st0" d="M177.5,482.9c2.3,0.3,3.8,2.5,3.5,4.9c-0.4,2.4-2.4,4-4.7,3.7c-2.3-0.3-3.9-2.5-3.5-4.9
	C173,484.2,175.2,482.6,177.5,482.9"/>
<path class="st0" d="M565.6,296.2v-31.4h-9.8v31.9c0,7.4-4,11.5-11.5,11.5c-8.2,0-12.2-3.8-12.2-11.5v-31.9h-9.8v31.4
	c0,9.4,1.7,13.7,7,17.4c3.9,2.7,8.1,3.7,14.6,3.7c6.4,0,10.8-1.2,14.5-3.7C563.9,309.8,565.6,305.6,565.6,296.2 M630.9,316.8v-52
	h-9.3v38.2l-0.5-0.9l-0.5-1.3c-0.1-0.2-0.2-0.5-0.5-1c-0.2-0.5-0.5-0.9-0.5-1.1l-21.6-33.9h-11.3v51.5h9.4v-37.8
	c0.2,0.9,0.4,1.2,0.7,1.8c0.1,0.1,0.3,0.5,0.6,1.1c0.6,1.1,0.9,1.8,1.1,2l22.1,33.3H630.9z M662.6,264.8h-9.8v51.5h9.8V264.8
	L662.6,264.8z M722.7,264.8h-10.3l-11.2,34.8l-0.3,0.6c-0.2,0.4-0.2,0.6-0.2,1.3l0.1,0.5l-0.2-0.9l-0.2-0.9l-0.2-0.7l-11.8-34.8
	h-10.8l19.1,53h6.9L722.7,264.8L722.7,264.8z M770.3,316.3V308h-22.6v-13.7h17.6v-8.4h-17.6v-12.7h21.5v-8.4h-31.4v51.5H770.3z
	 M825.8,316.3L813,294.2c4.3-1.2,6.1-2.3,8-4.8c1.9-2.5,2.8-5.7,2.8-9.7c0-4.8-1.4-8.6-4.2-11.2c-3-2.9-6.5-3.8-14-3.8h-17.2v51.5
	h9.8v-20.6h4.9l11.8,20.6H825.8L825.8,316.3z M813.7,280c0,5.2-2.7,7.3-9,7.3h-6.4v-14.2h6.4C811.2,273.2,813.7,275.1,813.7,280
	 M875.7,268.2c-3.4-1.6-4.8-2.2-7.3-3c-3.2-0.9-6.2-1.3-9.7-1.3c-6,0-9.2,0.9-13,3.4c-1.6,1.2-3,2.5-3.8,3.8c-1.2,2-2,4.6-2,7.2
	c0,5.6,2.8,9.1,11.9,14.3l8,4.5c3.4,1.9,4.5,3.4,4.5,5.5c0,3.1-3,5.1-7.5,5.1c-2,0-4.8-0.5-7.4-1.5c-2-0.8-3.6-1.6-7.3-3.6l-4.1,9.1
	c1.5,0.7,2.7,1.3,3.4,1.6c5.4,2.5,7.1,3.1,10.8,3.6c1.5,0.2,3,0.3,4.6,0.3c11.4,0,18.1-5.4,18.1-14.6c0-3.6-1.3-7-3.5-9.2
	c-2.4-2.4-7.6-5.7-15.5-9.9c-3.7-1.9-4.9-3.3-4.9-5.5c0-2.9,3-4.8,7.6-4.8c3.4,0,7.9,1.3,13.3,3.7L875.7,268.2L875.7,268.2z
	 M903.1,264.8h-9.8v51.5h9.8V264.8L903.1,264.8z M959.1,273.2v-8.4h-40.7v8.4h15.5v43.2h9.8v-43.2L959.1,273.2L959.1,273.2z
	 M997.7,259.6c0-2.4-2-4.3-4.3-4.3c-2.3,0-4.2,1.9-4.2,4.3c0,2.3,1.9,4.2,4.2,4.2C995.7,263.8,997.7,261.9,997.7,259.6 M984.8,259.3
	c0-2.3-1.9-4.2-4.2-4.2c-2.3,0-4.3,1.9-4.3,4.2c0,2.3,1.9,4.3,4.3,4.3C982.9,263.6,984.8,261.7,984.8,259.3 M1009.7,316.3L991,264.8
	h-8.8l-18.7,51.5h10.3l4.2-12.7h17.3l4.1,12.7H1009.7L1009.7,316.3z M992.7,295.2h-11.9l5.9-18.7L992.7,295.2z M1054.9,273.2v-8.4
	h-40.7v8.4h15.5v43.2h9.8v-43.2L1054.9,273.2L1054.9,273.2z M1137.9,316.3V308h-27.5l27.5-36.8v-6.4h-40.8v8.4h27.5l-27.9,36.8v6.4
	H1137.9L1137.9,316.3z M1197.6,296.2v-31.4h-9.8v31.9c0,7.4-4,11.5-11.5,11.5c-8.2,0-12.2-3.8-12.2-11.5v-31.9h-9.8v31.4
	c0,9.4,1.7,13.7,7,17.4c3.9,2.7,8.1,3.7,14.6,3.7c6.4,0,10.8-1.2,14.5-3.7C1195.8,309.8,1197.6,305.6,1197.6,296.2 M1279.5,316.3
	V308h-21.1v-43.2h-9.8v51.5H1279.5L1279.5,316.3z M1327,259.6c0-2.4-2-4.3-4.3-4.3c-2.3,0-4.2,1.9-4.2,4.3c0,2.3,1.9,4.2,4.2,4.2
	C1325,263.8,1327,261.9,1327,259.6 M1311,259.5c0-2.3-1.9-4.3-4.3-4.3c-2.3,0-4.2,1.9-4.2,4.3c0,2.3,1.9,4.2,4.2,4.2
	C1309.2,263.7,1311,261.8,1311,259.5 M1336.7,296.2v-31.4h-9.8v31.9c0,7.4-4,11.5-11.5,11.5c-8.2,0-12.2-3.8-12.2-11.5v-31.9h-9.8
	v31.4c0,9.4,1.7,13.7,7,17.4c3.9,2.7,8.1,3.7,14.6,3.7c6.4,0,10.8-1.2,14.5-3.7C1335,309.8,1336.7,305.6,1336.7,296.2 M1394.3,302.6
	c0-8-4.9-13.1-12.7-13.3c4.1-0.2,6.2-1.2,8.4-3.7c1.9-2.2,3-5.2,3-8.1c0-3.4-1.6-7-4.1-9.2c-2.8-2.6-6.2-3.4-12.9-3.4h-18.7v51.5h21
	C1388.7,316.3,1394.3,311.5,1394.3,302.6 M1382.1,279.2c0,4.4-3,6.7-8.5,6.7h-5.9v-13.3h6.4C1379.1,272.6,1382.1,275,1382.1,279.2
	 M1383.6,301.5c0,2.7-1.3,4.9-3.5,6c-1.5,0.7-2.9,0.9-5.9,0.9h-6.4v-14.2h6.4C1380.2,294.2,1383.6,296.8,1383.6,301.5 M1445.2,316.3
	V308h-22.6v-13.7h17.6v-8.4h-17.6v-12.7h21.5v-8.4h-31.4v51.5H1445.2z M1501.9,268.8c-4.4-3.4-9.6-4.9-16.2-4.9
	c-8.5,0-14.3,2.1-19.4,7.2c-5.1,5-7.9,11.8-7.9,19.3c0,8,3.2,15.7,8.7,20.6c4.8,4.4,10.6,6.4,18.7,6.4c3,0,5.8-0.3,8.3-0.9
	c2.3-0.5,3.7-1,7-2.5l-1.8-8.3c-4.6,1.8-7.6,2.4-11.3,2.4c-11.2,0-18.6-7.3-18.6-18.3c0-9.8,7.1-16.8,17-16.8
	c4.5,0,8.5,1.2,11.9,3.6L1501.9,268.8L1501.9,268.8z M1556.5,316.3l-18.7-26.5l17.7-25.1h-11.3l-16.2,24v-24h-9.8v51.5h9.8v-24.5
	l17.2,24.5H1556.5z"/>
</svg>
