<?xml version="1.0" encoding="UTF-8" standalone="no"?>
<!-- Created with Inkscape (http://www.inkscape.org/) -->

<svg
   xmlns:dc="http://purl.org/dc/elements/1.1/"
   xmlns:cc="http://creativecommons.org/ns#"
   xmlns:rdf="http://www.w3.org/1999/02/22-rdf-syntax-ns#"
   xmlns:svg="http://www.w3.org/2000/svg"
   xmlns="http://www.w3.org/2000/svg"
   version="1.1"
   width="892.91339"
   height="171.85039"
   id="svg3331">
  <defs
     id="defs3333" />
  <metadata
     id="metadata3336">
    <rdf:RDF>
      <cc:Work
         rdf:about="">
        <dc:format>image/svg+xml</dc:format>
        <dc:type
           rdf:resource="http://purl.org/dc/dcmitype/StillImage" />
        <dc:title></dc:title>
      </cc:Work>
    </rdf:RDF>
  </metadata>
  <g
     transform="translate(80.336751,-383.22502)"
     id="layer1">
    <g
       transform="translate(3.5433049,-3.5457081)"
       id="g3640">
      <g
         transform="matrix(3.2216655,0,0,3.2216655,-3024.7745,-1610.5873)"
         id="g3540">
        <g
           transform="matrix(1.25,0,0,-1.25,983.27883,642.25915)"
           id="g3003">
          <path
             d="m 0,0 c -0.451,0.743 -1.08,1.135 -2.156,1.135 l -1.252,0 0,-9.228 1.468,0 c 1.802,0 2.624,1.391 2.624,4.27 C 0.684,-2.235 0.547,-0.902 0,0 m 2.389,-8.289 c -0.824,-1.118 -2.037,-1.859 -3.31,-1.959 -0.509,-0.036 -1.155,-0.076 -1.961,-0.076 l -3.309,0 0,13.613 2.743,0 c 0.782,0 1.821,-0.038 2.368,-0.078 1.158,-0.1 2.156,-0.532 2.98,-1.354 1.254,-1.232 1.861,-2.975 1.861,-5.424 0,-1.861 -0.451,-3.487 -1.372,-4.722"
             id="path3005"
             style="fill:#0062ae;fill-opacity:1;fill-rule:nonzero;stroke:none" />
        </g>
        <g
           transform="matrix(1.25,0,0,-1.25,997.33383,647.37915)"
           id="g3007">
          <path
             d="m 0,0 c 0,0.745 -0.078,1.135 -0.313,1.504 -0.255,0.394 -0.627,0.591 -1.155,0.591 -1.001,0 -1.567,-0.784 -1.567,-2.175 l 0,-0.037 3.035,0 L 0,0 z m -3.075,-2.039 0,-0.078 c 0,-1.546 0.764,-2.429 2.116,-2.429 0.9,0 1.743,0.334 2.545,1 l 1.019,-1.568 c -1.156,-0.938 -2.368,-1.389 -3.78,-1.389 -2.879,0 -4.74,2.037 -4.74,5.188 0,1.804 0.372,2.997 1.253,3.977 0.824,0.923 1.822,1.352 3.152,1.352 1.158,0 2.255,-0.392 2.901,-1.057 0.92,-0.941 1.333,-2.29 1.333,-4.387 l 0,-0.609 -5.799,0 z"
             id="path3009"
             style="fill:#0062ae;fill-opacity:1;fill-rule:nonzero;stroke:none" />
        </g>
        <g
           transform="matrix(1.25,0,0,-1.25,1011.3652,655.50764)"
           id="g3011">
          <path
             d="M 0,0 C -0.332,0.235 -0.606,0.566 -0.782,0.978 -1.428,0.35 -2.37,0.019 -3.427,0.019 c -1.41,0 -2.626,0.665 -2.958,1.625 -0.157,0.45 -0.215,0.98 -0.215,1.999 l 0,6.425 2.585,0.489 0,-6.444 c 0,-0.902 0.078,-1.372 0.216,-1.646 0.137,-0.277 0.529,-0.47 0.919,-0.47 0.648,0 1.433,0.47 1.628,0.96 l 0,7.053 2.506,0.528 0,-7.66 C 1.254,2.213 1.47,1.525 1.86,1.057 L 0,0 z"
             id="path3013"
             style="fill:#0062ae;fill-opacity:1;fill-rule:nonzero;stroke:none" />
        </g>
        <g
           transform="matrix(1.25,0,0,-1.25,1020.5513,655.4604)"
           id="g3015">
          <path
             d="m 0,0 c -1.334,0 -2.391,0.589 -2.703,1.47 -0.16,0.428 -0.178,0.629 -0.178,1.548 l 0,5.444 -0.997,0 0,1.802 0.997,0 c 0,0.981 0,1.627 0.098,2.37 l 2.666,0.666 c -0.099,-0.92 -0.158,-2.017 -0.158,-3.036 l 2.349,0 -0.664,-1.802 -1.685,0 0,-5.035 c 0,-1.275 0.235,-1.606 1.137,-1.606 0.233,0 0.468,0.062 0.938,0.195 L 2.133,0.453 C 1.37,0.138 0.684,0 0,0"
             id="path3017"
             style="fill:#0062ae;fill-opacity:1;fill-rule:nonzero;stroke:none" />
        </g>
        <g
           transform="matrix(1.25,0,0,-1.25,1029.7326,655.55527)"
           id="g3019">
          <path
             d="m 0,0 c -1.235,0 -2.586,0.388 -4.054,1.154 l 0.94,1.919 c 0.803,-0.489 2.193,-1.137 3.33,-1.137 0.745,0 1.332,0.489 1.332,1.137 0,0.688 -0.491,1.04 -1.548,1.233 l -1.174,0.215 c -0.667,0.118 -1.49,0.59 -1.842,1.02 -0.352,0.432 -0.566,1.155 -0.566,1.803 0,1.959 1.544,3.27 3.878,3.27 1.606,0 2.663,-0.489 3.584,-0.94 L 3.018,7.913 c -1,0.507 -1.726,0.723 -2.469,0.723 -0.763,0 -1.273,-0.39 -1.273,-0.977 0,-0.512 0.334,-0.785 1.255,-1.02 L 1.743,6.325 C 2.978,6.014 3.391,5.639 3.742,5.188 4.113,4.718 4.291,4.151 4.291,3.482 4.291,1.41 2.569,0 0,0"
             id="path3021"
             style="fill:#0062ae;fill-opacity:1;fill-rule:nonzero;stroke:none" />
        </g>
        <g
           transform="matrix(1.25,0,0,-1.25,1045.3057,654.67415)"
           id="g3023">
          <path
             d="m 0,0 c -0.705,-0.413 -1.487,-0.629 -2.446,-0.629 -2.762,0 -4.369,1.919 -4.369,5.171 0,2.311 0.881,3.84 2.058,4.644 0.665,0.449 1.644,0.746 2.487,0.746 0.665,0 1.391,-0.157 1.938,-0.454 C 0.04,9.284 0.216,9.146 0.648,8.773 L -0.625,7.052 c -0.529,0.489 -1.097,0.781 -1.586,0.781 -1.176,0 -1.705,-1.019 -1.705,-3.368 0,-1.313 0.174,-2.097 0.51,-2.529 0.274,-0.352 0.725,-0.566 1.176,-0.566 0.604,0 1.154,0.254 1.8,0.822 L -0.273,2.328 0.923,0.741 C 0.531,0.351 0.354,0.214 0,0"
             id="path3025"
             style="fill:#0062ae;fill-opacity:1;fill-rule:nonzero;stroke:none" />
        </g>
        <g
           transform="matrix(1.25,0,0,-1.25,1055.669,655.16427)"
           id="g3027">
          <path
             d="m 0,0 0,6.736 c 0,0.996 -0.273,1.372 -1.018,1.372 -0.649,0 -1.492,-0.391 -2.08,-0.921 l 0,-7.187 -2.663,0 0,11.593 c 0,0.94 -0.078,1.884 -0.196,2.293 l 2.681,0.627 c 0.12,-0.548 0.178,-1.487 0.178,-2.45 l 0,-1.997 c 0,-0.312 -0.039,-0.723 -0.039,-0.841 0.685,0.645 1.826,1.076 2.843,1.076 1.272,0 2.291,-0.547 2.605,-1.432 C 2.508,8.305 2.565,7.971 2.565,7.012 L 2.565,0 0,0 z"
             id="path3029"
             style="fill:#0062ae;fill-opacity:1;fill-rule:nonzero;stroke:none" />
        </g>
        <g
           transform="matrix(1.25,0,0,-1.25,1068.5991,647.37915)"
           id="g3031">
          <path
             d="m 0,0 c 0,0.745 -0.078,1.135 -0.314,1.504 -0.254,0.394 -0.628,0.591 -1.156,0.591 -0.997,0 -1.567,-0.784 -1.567,-2.175 l 0,-0.037 3.037,0 L 0,0 z m -3.075,-2.039 0,-0.078 c 0,-1.546 0.764,-2.429 2.113,-2.429 0.901,0 1.744,0.334 2.546,1 l 1.021,-1.568 c -1.158,-0.938 -2.37,-1.389 -3.782,-1.389 -2.877,0 -4.742,2.037 -4.742,5.188 0,1.804 0.372,2.997 1.258,3.977 0.821,0.923 1.819,1.352 3.153,1.352 1.155,0 2.251,-0.392 2.897,-1.057 0.922,-0.941 1.333,-2.29 1.333,-4.387 l 0,-0.609 -5.797,0 z"
             id="path3033"
             style="fill:#0062ae;fill-opacity:1;fill-rule:nonzero;stroke:none" />
        </g>
        <g
           transform="matrix(1.25,0,0,-1.25,1089.2682,655.16427)"
           id="g3035">
          <path
             d="m 0,0 -4.136,7.109 0,-7.109 -2.8,0 0,13.613 2.8,0 0,-6.207 3.878,6.207 3.373,0 L -1.235,7.304 3.603,0 0,0 z"
             id="path3037"
             style="fill:#0062ae;fill-opacity:1;fill-rule:nonzero;stroke:none" />
        </g>
        <g
           transform="matrix(1.25,0,0,-1.25,1101.5851,645.49877)"
           id="g3039">
          <path
             d="m 0,0 c -0.256,0.14 -0.472,0.201 -0.765,0.201 -0.586,0 -1.116,-0.273 -1.605,-0.845 l 0,-7.088 -2.626,0 0,6.698 c 0,1.35 -0.157,2.368 -0.371,2.938 l 2.349,0.627 c 0.235,-0.413 0.371,-0.862 0.411,-1.432 0.57,0.765 1.372,1.432 2.351,1.432 0.392,0 0.57,-0.038 0.98,-0.216 L 0,0 z"
             id="path3041"
             style="fill:#0062ae;fill-opacity:1;fill-rule:nonzero;stroke:none" />
        </g>
        <g
           transform="matrix(1.25,0,0,-1.25,1110.4255,647.37915)"
           id="g3043">
          <path
             d="m 0,0 c 0,0.745 -0.08,1.135 -0.314,1.504 -0.252,0.394 -0.626,0.591 -1.154,0.591 -0.999,0 -1.571,-0.784 -1.571,-2.175 l 0,-0.037 3.039,0 L 0,0 z m -3.077,-2.039 0,-0.078 c 0,-1.546 0.764,-2.429 2.118,-2.429 0.9,0 1.743,0.334 2.547,1 l 1.015,-1.568 c -1.154,-0.938 -2.368,-1.389 -3.777,-1.389 -2.882,0 -4.741,2.037 -4.741,5.188 0,1.804 0.372,2.997 1.253,3.977 0.822,0.923 1.82,1.352 3.154,1.352 1.156,0 2.251,-0.392 2.899,-1.057 0.922,-0.941 1.332,-2.29 1.332,-4.387 l 0,-0.609 -5.8,0 z"
             id="path3045"
             style="fill:#0062ae;fill-opacity:1;fill-rule:nonzero;stroke:none" />
        </g>
        <g
           transform="matrix(1.25,0,0,-1.25,1123.1828,646.62127)"
           id="g3047">
          <path
             d="m 0,0 c -0.195,0.86 -0.745,1.273 -1.43,1.273 -0.684,0 -1.156,-0.43 -1.488,-0.803 l 0,-4.622 c 0.351,-0.314 0.764,-0.648 1.469,-0.648 0.646,0 1.059,0.254 1.273,0.785 0.235,0.549 0.295,1.076 0.295,2.31 C 0.119,-0.803 0.097,-0.43 0,0 m 1.232,-6.245 c -0.682,-0.55 -1.37,-0.788 -2.191,-0.788 -0.979,0 -1.665,0.295 -2.233,0.92 -0.078,-0.352 -0.097,-0.449 -0.273,-0.721 l -2.355,0 c 0.197,0.448 0.256,0.742 0.256,2.134 l 0,9.285 c 0,1.233 -0.04,1.9 -0.174,2.466 l 2.682,0.628 c 0.082,-0.684 0.099,-1.095 0.099,-1.783 l 0,-2.368 c 0,-0.296 -0.017,-0.726 -0.059,-0.883 0.508,0.547 1.214,0.803 2.135,0.803 2.447,0 3.978,-1.959 3.978,-5.094 0,-2.036 -0.629,-3.626 -1.865,-4.599"
             id="path3049"
             style="fill:#0062ae;fill-opacity:1;fill-rule:nonzero;stroke:none" />
        </g>
        <g
           transform="matrix(1.25,0,0,-1.25,1133.713,655.55527)"
           id="g3051">
          <path
             d="m 0,0 c -1.234,0 -2.586,0.388 -4.053,1.154 l 0.939,1.919 c 0.803,-0.489 2.194,-1.137 3.331,-1.137 0.745,0 1.331,0.489 1.331,1.137 0,0.688 -0.489,1.04 -1.548,1.233 l -1.174,0.215 c -0.667,0.118 -1.49,0.59 -1.841,1.02 -0.355,0.432 -0.568,1.155 -0.568,1.803 0,1.959 1.546,3.27 3.878,3.27 1.608,0 2.665,-0.489 3.585,-0.94 L 3.017,7.913 C 2.018,8.42 1.294,8.636 0.549,8.636 c -0.762,0 -1.275,-0.39 -1.275,-0.977 0,-0.512 0.334,-0.785 1.256,-1.02 L 1.744,6.325 C 2.98,6.014 3.389,5.639 3.744,5.188 4.117,4.718 4.289,4.151 4.289,3.482 4.289,1.41 2.567,0 0,0"
             id="path3053"
             style="fill:#0062ae;fill-opacity:1;fill-rule:nonzero;stroke:none" />
        </g>
        <g
           transform="matrix(1.25,0,0,-1.25,1148.7746,655.16427)"
           id="g3055">
          <path
             d="m 0,0 0,6.736 c 0,0.996 -0.272,1.372 -1.018,1.372 -0.647,0 -1.49,-0.391 -2.076,-0.921 l 0,-7.187 -2.664,0 0,11.593 c 0,0.94 -0.079,1.884 -0.198,2.293 l 2.685,0.627 c 0.117,-0.548 0.177,-1.487 0.177,-2.45 l 0,-1.997 c 0,-0.312 -0.041,-0.723 -0.041,-0.841 0.689,0.645 1.825,1.076 2.84,1.076 1.273,0 2.293,-0.547 2.607,-1.432 C 2.507,8.305 2.567,7.971 2.567,7.012 L 2.567,0 0,0 z"
             id="path3057"
             style="fill:#0062ae;fill-opacity:1;fill-rule:nonzero;stroke:none" />
        </g>
        <g
           transform="matrix(1.25,0,0,-1.25,1155.4142,655.16427)"
           id="g3059">
          <path
             d="M 0,0 0,9.851 2.621,10.264 2.621,0 0,0 z m 1.309,11.165 c -0.88,0 -1.604,0.722 -1.604,1.626 0,0.902 0.743,1.625 1.645,1.625 0.881,0 1.583,-0.723 1.583,-1.625 0,-0.904 -0.721,-1.626 -1.624,-1.626"
             id="path3061"
             style="fill:#0062ae;fill-opacity:1;fill-rule:nonzero;stroke:none" />
        </g>
        <g
           transform="matrix(1.25,0,0,-1.25,1165.381,655.4604)"
           id="g3063">
          <path
             d="m 0,0 c -1.119,0 -2.02,0.529 -2.332,1.37 -0.196,0.513 -0.235,0.822 -0.235,2.254 l 0,7.483 c 0,1.311 -0.04,2.118 -0.137,3.016 l 2.681,0.61 c 0.099,-0.55 0.137,-1.198 0.137,-2.609 l 0,-7.814 C 0.114,2.586 0.136,2.349 0.291,2.076 0.388,1.898 0.605,1.8 0.821,1.8 c 0.099,0 0.157,0 0.293,0.04 L 1.567,0.277 C 1.114,0.097 0.564,0 0,0"
             id="path3065"
             style="fill:#0062ae;fill-opacity:1;fill-rule:nonzero;stroke:none" />
        </g>
        <g
           transform="matrix(1.25,0,0,-1.25,1176.3226,639.83877)"
           id="g3067">
          <path
             d="m 0,0 c -0.565,0.273 -0.764,0.333 -1.077,0.333 -0.667,0 -1.096,-0.413 -1.096,-1.134 l 0,-1.433 2.547,0 -0.667,-1.801 -1.86,0 0,-8.225 -2.567,0 0,8.225 -0.902,0 0,1.801 0.96,0 c -0.058,0.413 -0.097,0.923 -0.097,1.374 0,1.978 1.176,3.113 3.232,3.113 0.86,0 1.566,-0.175 2.371,-0.627 L 0,0 z"
             id="path3069"
             style="fill:#0062ae;fill-opacity:1;fill-rule:nonzero;stroke:none" />
        </g>
        <g
           transform="matrix(1.25,0,0,-1.25,1184.4051,647.37915)"
           id="g3071">
          <path
             d="m 0,0 c 0,0.745 -0.08,1.135 -0.312,1.504 -0.256,0.394 -0.629,0.591 -1.157,0.591 -0.999,0 -1.567,-0.784 -1.567,-2.175 l 0,-0.037 3.036,0 L 0,0 z m -3.073,-2.039 0,-0.078 c 0,-1.546 0.762,-2.429 2.115,-2.429 0.898,0 1.742,0.334 2.545,1 l 1.018,-1.568 c -1.156,-0.938 -2.37,-1.389 -3.779,-1.389 -2.883,0 -4.741,2.037 -4.741,5.188 0,1.804 0.37,2.997 1.251,3.977 0.823,0.923 1.826,1.352 3.157,1.352 1.154,0 2.252,-0.392 2.898,-1.057 0.92,-0.941 1.333,-2.29 1.333,-4.387 l 0,-0.609 -5.797,0 z"
             id="path3073"
             style="fill:#0062ae;fill-opacity:1;fill-rule:nonzero;stroke:none" />
        </g>
        <g
           transform="matrix(1.25,0,0,-1.25,980.41558,671.1164)"
           id="g3075">
          <path
             d="m 0,0 0,3.562 -2.866,0 0,-3.562 -1.035,0 0,7.506 1.035,0 0,-3.082 2.866,0 0,3.082 1.055,0 L 1.055,0 0,0 z"
             id="path3077"
             style="fill:#0062ae;fill-opacity:1;fill-rule:nonzero;stroke:none" />
        </g>
        <g
           transform="matrix(1.25,0,0,-1.25,984.70446,671.1164)"
           id="g3079">
          <path
             d="m 0,0 0,7.506 4.084,0 -0.142,-0.862 -2.875,0 0,-2.287 2.408,0 0,-0.881 -2.408,0 0,-2.57 3.137,0 L 4.204,0 0,0 z"
             id="path3081"
             style="fill:#0062ae;fill-opacity:1;fill-rule:nonzero;stroke:none" />
        </g>
        <g
           transform="matrix(1.25,0,0,-1.25,996.84596,671.1164)"
           id="g3083">
          <path
             d="m 0,0 -3.747,0 0,7.506 1.066,0 0,-6.635 2.855,0 L 0,0 z"
             id="path3085"
             style="fill:#0062ae;fill-opacity:1;fill-rule:nonzero;stroke:none" />
        </g>
        <g
           transform="matrix(1.25,0,0,-1.25,1003.8297,662.81127)"
           id="g3087">
          <path
             d="m 0,0 -2.713,0 0,-2.275 2.222,0 0,-0.849 -2.222,0 0,-3.52 -1.057,0 0,7.506 3.91,0 L 0,0 z"
             id="path3089"
             style="fill:#0062ae;fill-opacity:1;fill-rule:nonzero;stroke:none" />
        </g>
        <g
           transform="matrix(1.25,0,0,-1.25,1005.9137,671.1164)"
           id="g3091">
          <path
             d="m 0,0 0,7.506 4.084,0 -0.14,-0.862 -2.877,0 0,-2.287 2.408,0 0,-0.881 -2.408,0 0,-2.57 3.137,0 L 4.204,0 0,0 z"
             id="path3093"
             style="fill:#0062ae;fill-opacity:1;fill-rule:nonzero;stroke:none" />
        </g>
        <g
           transform="matrix(1.25,0,0,-1.25,1018.3276,671.1164)"
           id="g3095">
          <path
             d="M 0,0 -1.972,3.988 C -2.353,4.761 -2.745,5.612 -2.887,6.045 L -2.952,6.036 C -2.897,5.394 -2.876,4.642 -2.864,3.944 L -2.821,0 l -1.057,0 0,7.506 1.22,0 2.092,-4.139 C -0.25,2.745 0.119,1.777 0.174,1.569 L 0.241,1.59 C 0.218,1.809 0.131,2.997 0.131,3.825 L 0.11,7.506 1.121,7.506 1.121,0 0,0 z"
             id="path3097"
             style="fill:#0062ae;fill-opacity:1;fill-rule:nonzero;stroke:none" />
        </g>
        <g
           transform="matrix(1.25,0,0,-1.25,1022.9336,671.30827)"
           id="g3099">
          <path
             d="m 0,0 c -0.447,0 -0.773,0.371 -0.773,0.818 0,0.448 0.326,0.819 0.773,0.819 0.447,0 0.773,-0.371 0.773,-0.819 C 0.773,0.371 0.447,0 0,0"
             id="path3101"
             style="fill:#0062ae;fill-opacity:1;fill-rule:nonzero;stroke:none" />
        </g>
        <g
           transform="matrix(1.25,0,0,-1.25,1033.3511,662.81127)"
           id="g3103">
          <path
             d="m 0,0 -2.713,0 0,-2.275 2.224,0 0,-0.849 -2.224,0 0,-3.52 -1.055,0 0,7.506 3.91,0 L 0,0 z"
             id="path3105"
             style="fill:#0062ae;fill-opacity:1;fill-rule:nonzero;stroke:none" />
        </g>
        <g
           transform="matrix(1.25,0,0,-1.25,1038.7531,662.59327)"
           id="g3107">
          <path
             d="m 0,0 c -1.33,0 -1.862,-0.991 -1.862,-2.918 0,-1.917 0.445,-3.224 1.917,-3.224 1.165,0 1.83,0.837 1.83,2.929 C 1.885,-1.175 1.415,0 0,0 m 0.055,-6.938 c -2.071,0 -3.096,1.645 -3.096,3.899 0,2.474 1.199,3.857 3.041,3.857 2.211,0 3.082,-1.841 3.082,-3.933 0,-2.298 -1.121,-3.823 -3.027,-3.823"
             id="path3109"
             style="fill:#0062ae;fill-opacity:1;fill-rule:nonzero;stroke:none" />
        </g>
        <g
           transform="matrix(1.25,0,0,-1.25,1048.337,662.98639)"
           id="g3111">
          <path
             d="m 0,0 c -0.216,0.087 -0.523,0.14 -0.913,0.14 l -0.785,0 0,-2.614 0.73,0 c 0.665,0 1.034,0.11 1.296,0.361 0.229,0.216 0.369,0.578 0.369,1.012 C 0.697,-0.578 0.415,-0.163 0,0 m 0.894,-6.504 c -0.218,0.424 -0.316,0.599 -0.621,1.112 -0.576,0.959 -0.762,1.273 -1.296,1.872 -0.197,0.22 -0.36,0.328 -0.675,0.339 l 0,-3.323 -1.045,0 0,7.506 2.101,0 c 0.894,0 1.417,-0.206 1.775,-0.544 0.339,-0.318 0.665,-0.818 0.665,-1.547 0,-1.143 -0.718,-2.06 -1.917,-2.06 l -0.087,0 C 0.121,-3.422 0.22,-3.541 0.447,-3.846 0.601,-4.052 0.83,-4.378 1.08,-4.77 l 1.089,-1.734 -1.275,0 z"
             id="path3113"
             style="fill:#0062ae;fill-opacity:1;fill-rule:nonzero;stroke:none" />
        </g>
        <g
           transform="matrix(1.25,0,0,-1.25,1055.7541,671.29152)"
           id="g3115">
          <path
             d="m 0,0 c -0.86,0 -1.688,0.216 -2.417,0.663 l 0.413,0.807 c 0.655,-0.403 1.275,-0.621 2.027,-0.621 0.979,0 1.622,0.502 1.622,1.307 0,0.61 -0.402,1.034 -1.241,1.275 L -0.381,3.66 c -1.133,0.326 -1.775,0.872 -1.775,1.938 0,1.296 1.002,2.179 2.484,2.179 0.828,0 1.635,-0.241 2.298,-0.709 L 2.158,6.328 C 1.461,6.754 0.993,6.917 0.371,6.917 c -0.839,0 -1.362,-0.436 -1.362,-1.133 0,-0.534 0.305,-0.839 1.112,-1.078 L 1.002,4.443 C 2.004,4.149 2.834,3.495 2.834,2.33 2.834,1.284 1.972,0 0,0"
             id="path3117"
             style="fill:#0062ae;fill-opacity:1;fill-rule:nonzero;stroke:none" />
        </g>
        <g
           transform="matrix(1.25,0,0,-1.25,1064.881,671.25127)"
           id="g3119">
          <path
             d="m 0,0 c -0.98,0 -1.764,0.402 -2.33,1.122 -0.535,0.685 -0.819,1.591 -0.819,2.68 0,0.872 0.175,1.624 0.493,2.232 0.553,1.067 1.546,1.722 2.699,1.722 0.709,0 1.374,-0.208 1.842,-0.587 L 1.374,6.481 C 0.959,6.786 0.546,6.917 0.043,6.917 c -0.74,0 -1.316,-0.381 -1.665,-1.078 -0.24,-0.481 -0.36,-1.11 -0.36,-2.016 0,-0.837 0.087,-1.33 0.273,-1.764 0.349,-0.829 1.046,-1.22 1.842,-1.22 0.575,0 0.979,0.152 1.383,0.468 L 2.027,0.621 C 1.449,0.206 0.763,0 0,0"
             id="path3121"
             style="fill:#0062ae;fill-opacity:1;fill-rule:nonzero;stroke:none" />
        </g>
        <g
           transform="matrix(1.25,0,0,-1.25,1074.2517,671.1164)"
           id="g3123">
          <path
             d="m 0,0 0,3.562 -2.864,0 0,-3.562 -1.037,0 0,7.506 1.037,0 0,-3.082 2.864,0 0,3.082 1.055,0 L 1.055,0 0,0 z"
             id="path3125"
             style="fill:#0062ae;fill-opacity:1;fill-rule:nonzero;stroke:none" />
        </g>
        <g
           transform="matrix(1.25,0,0,-1.25,1078.486,671.1164)"
           id="g3127">
          <path
             d="m 0,0 0,7.506 4.085,0 -0.142,-0.862 -2.876,0 0,-2.287 2.408,0 0,-0.881 -2.408,0 0,-2.57 3.137,0 L 4.204,0 0,0 z"
             id="path3129"
             style="fill:#0062ae;fill-opacity:1;fill-rule:nonzero;stroke:none" />
        </g>
        <g
           transform="matrix(1.25,0,0,-1.25,1090.9001,671.1164)"
           id="g3131">
          <path
             d="M 0,0 -1.972,3.988 C -2.353,4.761 -2.745,5.612 -2.887,6.045 L -2.952,6.036 C -2.897,5.394 -2.876,4.642 -2.867,3.944 L -2.821,0 l -1.057,0 0,7.506 1.22,0 2.092,-4.139 C -0.252,2.745 0.119,1.777 0.174,1.569 L 0.241,1.59 C 0.218,1.809 0.131,2.997 0.131,3.825 L 0.11,7.506 1.122,7.506 1.122,0 0,0 z"
             id="path3133"
             style="fill:#0062ae;fill-opacity:1;fill-rule:nonzero;stroke:none" />
        </g>
        <g
           transform="matrix(1.25,0,0,-1.25,1095.5037,671.30827)"
           id="g3135">
          <path
             d="m 0,0 c -0.445,0 -0.773,0.371 -0.773,0.818 0,0.448 0.328,0.819 0.773,0.819 0.447,0 0.775,-0.371 0.775,-0.819 C 0.775,0.371 0.447,0 0,0"
             id="path3137"
             style="fill:#0062ae;fill-opacity:1;fill-rule:nonzero;stroke:none" />
        </g>
        <path
           d="m 1101.2112,661.73402 1.3338,0 0,9.3825 -1.3338,0 0,-9.3825 z"
           id="path3139"
           style="fill:#0062ae;fill-opacity:1;fill-rule:nonzero;stroke:none" />
        <g
           transform="matrix(1.25,0,0,-1.25,1110.3567,671.1164)"
           id="g3141">
          <path
             d="M 0,0 -1.972,3.988 C -2.353,4.761 -2.745,5.612 -2.887,6.045 L -2.952,6.036 C -2.897,5.394 -2.876,4.642 -2.866,3.944 L -2.821,0 l -1.057,0 0,7.506 1.22,0 2.092,-4.139 C -0.252,2.745 0.119,1.777 0.174,1.569 L 0.241,1.59 C 0.218,1.809 0.131,2.997 0.131,3.825 L 0.11,7.506 1.122,7.506 1.122,0 0,0 z"
             id="path3143"
             style="fill:#0062ae;fill-opacity:1;fill-rule:nonzero;stroke:none" />
        </g>
        <g
           transform="matrix(1.25,0,0,-1.25,1119.3843,662.81127)"
           id="g3145">
          <path
             d="m 0,0 -2.713,0 0,-2.275 2.222,0 0,-0.849 -2.222,0 0,-3.52 -1.055,0 0,7.506 3.91,0 L 0,0 z"
             id="path3147"
             style="fill:#0062ae;fill-opacity:1;fill-rule:nonzero;stroke:none" />
        </g>
        <g
           transform="matrix(1.25,0,0,-1.25,1124.7866,662.59327)"
           id="g3149">
          <path
             d="m 0,0 c -1.33,0 -1.865,-0.991 -1.865,-2.918 0,-1.917 0.447,-3.224 1.919,-3.224 1.166,0 1.83,0.837 1.83,2.929 C 1.884,-1.175 1.414,0 0,0 m 0.054,-6.938 c -2.07,0 -3.095,1.645 -3.095,3.899 0,2.474 1.199,3.857 3.041,3.857 2.21,0 3.083,-1.841 3.083,-3.933 0,-2.298 -1.124,-3.823 -3.029,-3.823"
             id="path3151"
             style="fill:#0062ae;fill-opacity:1;fill-rule:nonzero;stroke:none" />
        </g>
        <g
           transform="matrix(1.25,0,0,-1.25,1134.3701,662.98639)"
           id="g3153">
          <path
             d="m 0,0 c -0.217,0.087 -0.524,0.14 -0.916,0.14 l -0.783,0 0,-2.614 0.729,0 c 0.665,0 1.036,0.11 1.298,0.361 0.229,0.216 0.368,0.578 0.368,1.012 C 0.696,-0.578 0.415,-0.163 0,0 m 0.892,-6.504 c -0.215,0.424 -0.314,0.599 -0.618,1.112 -0.579,0.959 -0.763,1.273 -1.296,1.872 -0.198,0.22 -0.361,0.328 -0.677,0.339 l 0,-3.323 -1.046,0 0,7.506 2.103,0 c 0.892,0 1.414,-0.206 1.777,-0.544 0.336,-0.318 0.663,-0.818 0.663,-1.547 0,-1.143 -0.717,-2.06 -1.918,-2.06 l -0.086,0 C 0.118,-3.422 0.217,-3.541 0.446,-3.846 0.599,-4.052 0.828,-4.378 1.081,-4.77 l 1.086,-1.734 -1.275,0 z"
             id="path3155"
             style="fill:#0062ae;fill-opacity:1;fill-rule:nonzero;stroke:none" />
        </g>
        <g
           transform="matrix(1.25,0,0,-1.25,1147.0988,671.1164)"
           id="g3157">
          <path
             d="m 0,0 -0.392,5.11 c -0.033,0.403 -0.044,1.002 -0.054,1.22 l -0.023,0 C -0.512,6.112 -0.621,5.612 -0.741,5.208 L -2.233,0 -3.137,0 -4.509,4.97 c -0.164,0.575 -0.285,1.131 -0.339,1.371 l -0.021,0 C -4.881,6.08 -4.912,5.36 -4.947,4.97 L -5.327,0 -6.35,0 l 0.674,7.506 1.47,0 1.265,-4.607 c 0.163,-0.612 0.25,-1.067 0.274,-1.232 l 0.021,0 c 0.031,0.186 0.118,0.675 0.26,1.177 l 1.307,4.662 1.481,0 L 1.046,0 0,0 z"
             id="path3159"
             style="fill:#0062ae;fill-opacity:1;fill-rule:nonzero;stroke:none" />
        </g>
        <path
           d="m 1151.0012,661.73402 1.3363,0 0,9.3825 -1.3363,0 0,-9.3825 z"
           id="path3161"
           style="fill:#0062ae;fill-opacity:1;fill-rule:nonzero;stroke:none" />
        <g
           transform="matrix(1.25,0,0,-1.25,1155.23,671.1164)"
           id="g3163">
          <path
             d="m 0,0 0,7.506 4.086,0 -0.14,-0.862 -2.879,0 0,-2.287 2.41,0 0,-0.881 -2.41,0 0,-2.57 3.137,0 L 4.204,0 0,0 z"
             id="path3165"
             style="fill:#0062ae;fill-opacity:1;fill-rule:nonzero;stroke:none" />
        </g>
        <g
           transform="matrix(1.25,0,0,-1.25,1166.1206,662.98639)"
           id="g3167">
          <path
             d="m 0,0 c -0.219,0.087 -0.524,0.14 -0.916,0.14 l -0.781,0 0,-2.614 0.727,0 c 0.665,0 1.036,0.11 1.298,0.361 0.229,0.216 0.368,0.578 0.368,1.012 C 0.696,-0.578 0.415,-0.163 0,0 m 0.894,-6.504 c -0.219,0.424 -0.316,0.599 -0.622,1.112 -0.577,0.959 -0.761,1.273 -1.296,1.872 -0.196,0.22 -0.359,0.328 -0.673,0.339 l 0,-3.323 -1.046,0 0,7.506 2.101,0 c 0.892,0 1.414,-0.206 1.777,-0.544 0.336,-0.318 0.661,-0.818 0.661,-1.547 0,-1.143 -0.717,-2.06 -1.916,-2.06 l -0.086,0 C 0.12,-3.422 0.219,-3.541 0.446,-3.846 0.598,-4.052 0.826,-4.378 1.079,-4.77 l 1.088,-1.734 -1.273,0 z"
             id="path3169"
             style="fill:#0062ae;fill-opacity:1;fill-rule:nonzero;stroke:none" />
        </g>
        <g
           transform="matrix(1.25,0,0,-1.25,1171.0265,671.1164)"
           id="g3171">
          <path
             d="m 0,0 0,7.506 4.086,0 -0.142,-0.862 -2.875,0 0,-2.287 2.407,0 0,-0.881 -2.407,0 0,-2.57 3.137,0 L 4.206,0 0,0 z"
             id="path3173"
             style="fill:#0062ae;fill-opacity:1;fill-rule:nonzero;stroke:none" />
        </g>
        <g
           transform="matrix(1.25,0,0,-1.25,1183.4425,671.1164)"
           id="g3175">
          <path
             d="M 0,0 -1.971,3.988 C -2.355,4.761 -2.747,5.612 -2.887,6.045 L -2.953,6.036 C -2.898,5.394 -2.877,4.642 -2.865,3.944 L -2.823,0 l -1.055,0 0,7.506 1.22,0 2.092,-4.139 C -0.252,2.745 0.12,1.777 0.175,1.569 L 0.239,1.59 C 0.217,1.809 0.132,2.997 0.132,3.825 l -0.023,3.681 1.012,0 L 1.121,0 0,0 z"
             id="path3177"
             style="fill:#0062ae;fill-opacity:1;fill-rule:nonzero;stroke:none" />
        </g>
        <g
           transform="matrix(1.25,0,0,-1.25,1187.9432,671.30827)"
           id="g3179">
          <path
             d="m 0,0 c -0.448,0 -0.774,0.371 -0.774,0.818 0,0.448 0.326,0.819 0.774,0.819 0.446,0 0.772,-0.371 0.772,-0.819 C 0.772,0.371 0.446,0 0,0"
             id="path3181"
             style="fill:#0062ae;fill-opacity:1;fill-rule:nonzero;stroke:none" />
        </g>
        <g
           transform="matrix(1.25,0,0,-1.25,963.90259,654.46802)"
           id="g3183">
          <path
             d="m 0,0 c -4.232,-0.243 -5.68,5.866 -6.794,8.327 -2.565,5.654 -6.375,9.068 -12.47,8.918 -5.604,-0.138 -8.502,-4.511 -8.502,-6.154 0,-0.079 0.015,-0.193 0.117,-0.109 2.088,1.752 5.252,1.915 7.98,0.271 4.085,-2.463 4.778,-7.801 2.023,-11.556 -3.433,-4.674 -13.493,-5.565 -17.452,5.497 -2.109,7.385 0.193,12.227 1.733,15.455 0.23,0.478 0.317,0.842 -0.081,0.489 -4.717,-4.187 -7.135,-10.613 -6.381,-17.361 0.735,-6.587 5.168,-13.301 12.269,-16.3 11.337,-4.784 23.371,1.141 27.287,11.748 C -0.07,-0.231 0,0 0,0"
             id="path3185"
             style="fill:#0062ae;fill-opacity:1;fill-rule:nonzero;stroke:none" />
        </g>
        <g
           transform="matrix(1.25,0,0,-1.25,930.62009,653.23665)"
           id="g3187">
          <path
             d="M 0,0 1.891,1.838 3.763,-0.021 3.425,2.527 6.127,2.752 3.812,4.087 5.316,6.232 2.766,5.349 1.936,7.793 1.069,5.359 -1.466,6.268 0.004,4.11 -2.326,2.795 0.372,2.542 0,0 z"
             id="path3189"
             style="fill:#0062ae;fill-opacity:1;fill-rule:nonzero;stroke:none" />
        </g>
        <g
           transform="matrix(1.25,0,0,-1.25,942.58896,626.21252)"
           id="g3191">
          <path
             d="m 0,0 c -8.866,0.371 -14.804,-6.449 -13.436,-11.896 0.091,-0.358 0.193,-0.248 0.235,-0.094 1.773,6.57 7.04,9.671 13.561,9.012 13.133,-1.33 12.955,-16.19 17.462,-16.19 C 19.389,-10.651 10.549,-0.438 0,0"
             id="path3193"
             style="fill:#0062ae;fill-opacity:1;fill-rule:nonzero;stroke:none" />
        </g>
        <g
           transform="matrix(1.25,0,0,-1.25,922.94496,637.58665)"
           id="g3195">
          <path
             d="M 0,0 C 0.286,1.305 0.98,3.046 2.001,4.71 6.019,11.255 18.739,15.367 29.795,4.538 30.015,4.323 30.1,4.401 29.917,4.659 28.246,6.989 26.071,8.993 23.388,10.52 15.082,15.251 6.411,13.301 2.15,8.05 0.101,5.524 -0.703,2.834 -0.26,0.1 -0.233,-0.146 -0.059,-0.271 0,0"
             id="path3197"
             style="fill:#0062ae;fill-opacity:1;fill-rule:nonzero;stroke:none" />
        </g>
      </g>
    </g>
  </g>
</svg>
