<?xml version="1.0" encoding="UTF-8" standalone="no"?><!DOCTYPE svg PUBLIC "-//W3C//DTD SVG 1.1//EN" "http://www.w3.org/Graphics/SVG/1.1/DTD/svg11.dtd"><svg width="100%" height="100%" viewBox="0 0 1282 831" version="1.1" xmlns="http://www.w3.org/2000/svg" xmlns:xlink="http://www.w3.org/1999/xlink" xml:space="preserve" xmlns:serif="http://www.serif.com/" style="fill-rule:evenodd;clip-rule:evenodd;stroke-miterlimit:10;"><rect id="Seite-6" serif:id="Seite 6" x="0" y="0" width="1281.58" height="830.741" style="fill:none;"/><clipPath id="_clip1"><rect x="0" y="0" width="1281.58" height="830.741"/></clipPath><g clip-path="url(#_clip1)"><path d="M21.13,162.125c-0,-70.833 57.416,-128.25 128.25,-128.25l978.5,0c70.833,0 128.25,57.417 128.25,128.25l-0,512.996c-0,70.833 -57.417,128.254 -128.25,128.254l-978.5,0c-70.834,0 -128.25,-57.421 -128.25,-128.254l-0,-512.996Z" style="fill:#fff;stroke:#0e1e35;stroke-width:33.5px;"/><text x="264.088px" y="584.209px" style="font-family:'Questrial-Regular', 'Questrial';font-size:333.5px;fill:#0e1e35;">T<tspan x="405.602px 589.804px 774.006px 828.143px 1037.02px " y="584.209px 584.209px 584.209px 584.209px 584.209px ">abiRi</tspan></text><path d="M96.38,378.792c-0,-10.875 8.791,-19.667 19.666,-19.667l78.667,0c10.875,0 19.667,8.792 19.667,19.667l-0,79.167c-0,10.875 -8.792,19.666 -19.667,19.666l-78.667,0c-10.875,0 -19.666,-8.791 -19.666,-19.666l-0,-79.167Z" style="fill:#a7ce97;"/><path d="M155.38,434.459c-0,-7.625 6.208,-13.834 13.833,-13.834l55.333,0c7.625,0 13.834,6.209 13.834,13.834l-0,55.333c-0,7.625 -6.209,13.833 -13.834,13.833l-55.333,0c-7.625,0 -13.833,-6.208 -13.833,-13.833l-0,-55.333Z" style="fill:#2d8064;"/></g></svg>