<svg xmlns="http://www.w3.org/2000/svg" width="267" height="267" viewBox="0 0 267 267">
  <g id="Gruppe_788" data-name="Gruppe 788" transform="translate(-150 -39)">
    <path id="Differenzmenge_4" data-name="Differenzmenge 4" d="M133.5,267a134.492,134.492,0,0,1-26.905-2.712A132.768,132.768,0,0,1,58.858,244.2a133.889,133.889,0,0,1-48.368-58.736A132.832,132.832,0,0,1,2.712,160.4a134.8,134.8,0,0,1,0-53.81A132.767,132.767,0,0,1,22.8,58.859,133.889,133.889,0,0,1,81.535,10.491a132.823,132.823,0,0,1,25.059-7.779,134.8,134.8,0,0,1,53.81,0A132.767,132.767,0,0,1,208.141,22.8a133.888,133.888,0,0,1,48.368,58.736,132.83,132.83,0,0,1,7.779,25.059,134.8,134.8,0,0,1,0,53.81A132.769,132.769,0,0,1,244.2,208.141a133.888,133.888,0,0,1-58.736,48.368,132.828,132.828,0,0,1-25.059,7.779A134.492,134.492,0,0,1,133.5,267ZM131.239,51.015c-16.021,0-28.55,1.341-38.3,4.1C83.236,57.858,75.96,62.1,70.7,68.079a39.514,39.514,0,0,0-6.431,10.162,61.764,61.764,0,0,0-4,12.863,120.11,120.11,0,0,0-2.04,15.719c-.384,5.389-.571,11.509-.571,18.712,0,12.556,3.162,25.605,9.4,38.785a130.367,130.367,0,0,0,9.986,17.365,152.947,152.947,0,0,0,11.933,15.337,144.7,144.7,0,0,0,24.939,22.552c7.652,5.3,14.307,8.347,18.261,8.347a22.471,22.471,0,0,0,7.34-1.673,65.877,65.877,0,0,0,10.117-4.953,108.056,108.056,0,0,0,11.742-8.054A129.274,129.274,0,0,0,186.317,187.3a115.535,115.535,0,0,0,10.643-17.941,98.214,98.214,0,0,0,9.733-43.817c-.249-17.3-1.181-29.023-3.02-38.023-2.076-10.15-5.411-17.317-10.495-22.556-5.154-5.311-12.239-8.793-22.3-10.957a125,125,0,0,0-17.034-2.277c-6.12-.452-13.209-.685-21.673-.712h-.035Z" transform="translate(150 39)" fill="#fff"/>
    <line id="Linie_29" data-name="Linie 29" x2="55" transform="translate(256 158)" fill="none" stroke="#fff" stroke-linecap="round" stroke-width="10"/>
    <line id="Linie_30" data-name="Linie 30" y2="54" transform="translate(283 131.195)" fill="none" stroke="#fff" stroke-linecap="round" stroke-width="10"/>
  </g>
</svg>
