<svg xmlns="http://www.w3.org/2000/svg" width="267.999" height="256.683" viewBox="0 0 267.999 256.683">
  <path id="Differenzmenge_1" data-name="Differenzmenge 1" d="M188,255.405V202.988l17.384,43.026A133.638,133.638,0,0,1,188,255.4ZM72,252.024v0A133.512,133.512,0,0,1,106.595,2.712,134.485,134.485,0,0,1,133.5,0a133.006,133.006,0,0,1,91.221,36.027,51.875,51.875,0,0,0-12.885-1.607c-.671,0-1.353.013-2.03.037l-.3,11.423a73.427,73.427,0,0,1,9.977.809,32.579,32.579,0,0,1,9.907,3.272c3.637,1.854,6.063,4.085,7.208,6.632a9.171,9.171,0,0,1-.508,8.224,12.894,12.894,0,0,1-5.1,5.556c-2.111,1.192-6.114,2.383-11.9,3.54-4.842.937-8.652,2.336-11.326,4.159a22.214,22.214,0,0,0-6.957,8.49l-1.7,3.342,10.232,5.214,1.2-2.349a13.67,13.67,0,0,1,5.076-5.9c1.938-1.107,5.208-2.118,9.719-3.006a63.185,63.185,0,0,0,11.685-3.121,22.548,22.548,0,0,0,6.438-4.052,22.227,22.227,0,0,0,4.7-6.385,26.28,26.28,0,0,0,1.3-2.994A132.877,132.877,0,0,1,267,133.5a134.484,134.484,0,0,1-2.7,26.823,132.771,132.771,0,0,1-19.969,47.618,134.459,134.459,0,0,1-16.209,19.731L207.177,163.2a13.052,13.052,0,0,0-10.805-8.892L189.2,136.544a13,13,0,1,0-24.107,9.74l1.941,4.805c-.661-.059-1.345-.089-2.032-.089H95a23.026,23.026,0,0,0-23,23v78.024ZM136.433,53c-23.159,0-42,19.065-42,42.5s18.841,42.5,42,42.5,42-19.065,42-42.5S159.591,53,136.433,53Zm59.058,47.2c-2.866,0-5.223,1.773-7,5.27a9.384,9.384,0,0,0-1.036,6.936,8.373,8.373,0,0,0,4.613,5.014,9.733,9.733,0,0,0,4.389,1.177,7.042,7.042,0,0,0,2.432-.431,9.35,9.35,0,0,0,5-4.849,9.083,9.083,0,0,0,.983-6.832,8.574,8.574,0,0,0-4.693-4.989A10.485,10.485,0,0,0,195.491,100.2Z" transform="translate(0.5 0.5)" fill="#fff" stroke="#418d87" stroke-width="1"/>
</svg>
